<?xml version="1.0" encoding="utf-8"?>
<!-- Generator: Adobe Illustrator 25.0.0, SVG Export Plug-In . SVG Version: 6.00 Build 0)  -->
<svg version="1.1" id="Calque_1" xmlns="http://www.w3.org/2000/svg" xmlns:xlink="http://www.w3.org/1999/xlink" x="0px" y="0px"
	 viewBox="0 0 1920 1080" style="enable-background:new 0 0 1920 1080;" xml:space="preserve">
<style type="text/css">
	.st0{opacity:0.68;fill:#FFCAA6;}
	.st1{opacity:0.63;fill:#D1514E;}
	.st2{fill:#3A3A3A;}
	.st3{fill:#724419;}
	.st4{fill:#A00000;}
	.st5{fill:#A86726;}
	.st6{fill:#BC0000;}
	.st7{fill:#BC4A4A;}
	.st8{fill:none;stroke:#FFFFFF;stroke-width:2;stroke-miterlimit:10;}
</style>
<g>
	<path class="st0" d="M747.19,113.36c-26.42,14.68-56.58,22.72-85.88,31.97c-72.86,23.02-145.93,57.24-187.2,116.03
		c-38.08,54.26-43.45,124.92-18.71,185.11c24.75,60.2,77.85,109.54,141.68,138.09c31.1,13.91,64.61,23.17,95.34,37.75
		c31.78,15.08,60.06,35.6,91.69,50.93c35.29,17.11,74.06,27.43,112.5,37.63c46.04,12.22,92.89,24.55,140.88,24.29
		c44.64-0.24,88.38-11.42,130.05-25.85c56.74-19.66,111.59-46.04,154.97-84.41c112.31-99.34,126.04-266.53,60.65-395.5
		c-15.12-29.82-34.18-58.44-60.13-81.44c-34.83-30.87-80.09-50.01-124.49-68.39C1109.85,42.86,1016.62,6.1,919.11,10
		c-33.84,1.35-81.69,7.75-106.97,30.59C786.53,63.73,782.06,93.98,747.19,113.36z"/>
	<path class="st1" d="M1173.58,639.39c10.97-23.77,28.41-44.28,44.52-65.3c40.08-52.28,74.02-113.17,70.99-177.58
		c-2.8-59.45-38.64-115.77-90.52-149.76c-51.88-33.99-118.29-46.2-180.81-37.47c-30.47,4.25-60.06,13.2-90.63,16.76
		c-31.62,3.69-63.74,1.57-95.39,4.99c-35.31,3.82-69.33,14.46-103.06,25.04c-40.38,12.67-81.42,25.64-116.2,48.73
		c-32.35,21.48-57.91,50.85-80.12,81.71c-30.24,42.03-55.32,88.27-65.31,138.15c-25.87,129.16,58.19,262.91,178.34,329.84
		c27.78,15.47,57.76,28.16,89.58,33.27c42.72,6.87,86.43-0.16,129.09-7.36c85.21-14.38,173.74-30.89,242.53-80.37
		c23.87-17.17,55.1-44.87,60.65-74.31C1172.86,695.92,1159.1,670.77,1173.58,639.39z"/>
	<path class="st2" d="M787.58,618.62c-26.65,10.76-52.96,22.3-77.48,36.34c-46.77,26.77-86.58,62.59-115.66,104.07
		c-16.19,23.09-29.27,48.51-31.72,75.43c-3.49,38.4,15.69,77,46.97,104.42c31.28,27.42,73.69,44.19,117.49,51.18
		c32.27,5.16,65.29,5.28,98.11,5.39c69.97,0.23,139.94,0.46,209.91,0.69c27.24,0.09,54.69,0.16,81.42-4.39
		c21.56-3.67,42.31-10.31,62.55-17.72c109.21-40.01,212.06-110.64,244.28-209.35c9.93-30.41,12.75-62.17,15.53-93.67
		c1.23-13.96,2.41-28.33-2.48-41.67c-13-35.48-61.5-49.66-103.82-56.42C1153.81,544.33,953.71,551.52,787.58,618.62z"/>
	<g>
		<path class="st3" d="M1220.19,495.76c-23.45-41.06-34.14-88.37-37.83-135.51c-35.75-1.33-71.6-0.14-107.19,3.57
			c-5.49,0.57-11.21,1.28-15.82,4.31c-6.13,4.02-9.15,11.28-11.76,18.13c-20.01,52.43-37.19,107.17-71.07,151.91
			c-12.99,17.15-28.22,32.5-41.29,49.59c-2.83,3.7-5.63,7.64-6.5,12.22c-1.14,6.02,1.25,12.17,4.44,17.4
			c11.01,18.01,31.42,28.62,52.15,32.56c20.73,3.94,42.08,2.06,63.1,0.16c56.62-5.12,113.24-10.24,169.86-15.36
			c34.41-3.11,71.92-7.63,96.05-32.35c4.72-4.84,8.42-9.98,10.29-16.42c-19.01-12.62-40.84-19.24-59.01-34.77
			C1247.38,535.59,1232.08,516.57,1220.19,495.76z"/>
		<path class="st4" d="M1200.36,384.54c-1.58,4.25-4.01,8.1-5.53,12.37c-6.64,18.62,5.87,39.77,21.93,51.19
			c7.51,5.34,16.83,10.83,17.84,20.14c0.67,6.19-2.74,11.86-4.81,17.65c-7.41,20.74,5.13,47.08,25.69,53.96
			c8.65,2.89,19.75,3.99,23.26,12.71c3.15,7.82-3.28,16.87-11.16,18.61c-7.88,1.73-16.1-1.97-22.77-6.88
			c-19.49-14.35-30.18-38.73-34.57-62.96c-0.68-3.75-1.29-7.66-3.39-10.82c-2.1-3.16-6.23-5.27-9.51-3.67
			c-4.66,2.27-4.06,9.58-1.33,14.23c2.73,4.65,6.94,8.75,7.58,14.11c0.62,5.21-2.64,10.34-7.19,12.5s-10.05,1.63-14.65-0.62
			c-9.72-4.74-15.13-16.18-16.17-27.2c-1.04-11.03,1.48-21.95,3.46-32.77c2.73-14.85,4.49-30.18,2.12-45.21
			c-1.18-7.44-3.65-15.19-9.32-20c-5.67-4.8-15.23-5.11-19.28,1.02c-2.12,3.2-2.29,7.77-0.22,11.1c1.49,2.39,3.93,4.02,5.44,6.4
			c3.44,5.41,0.36,13.46-5.38,15.72c-5.73,2.26-12.71-0.73-16.3-6.03c-3.59-5.3-4.11-12.34-2.47-18.49c-2.6-2.31-6.75-1.74-9.32,0.5
			c-2.56,2.24-3.81,5.72-4.48,9.16c-2.03,10.41,0.33,21.23,2.64,31.67c2.32,10.44,4.61,21.29,2.46,31.67
			c-2.15,10.38-10.08,20.14-20.34,20.51c-7.44,0.26-14.57-4.5-18.93-10.89c-4.35-6.38-6.3-14.18-7.29-21.87
			c-1.25-9.71-1.09-19.74,1.91-28.93c4.57-14.02,15.48-25.49,17.53-40.2c0.35-2.48,0.19-5.51-1.88-6.87
			c-1.06-0.7-2.39-0.75-3.63-0.71c-8.45,0.32-16.96,4.91-20.51,12.8c-2.85,6.34-2.26,13.74-2.66,20.78
			c-0.4,7.04-2.4,14.8-8.31,18.17s-15.55-2-13.74-8.76c-8.05-0.16-12.44,9.24-15.08,17.07c-9.98,29.56-22.52,58.13-37.42,85.27
			c-3.78,6.89-8.74,14.4-16.38,15.27c-9.33,1.06-17.17-9.22-17.58-18.99c-0.42-9.77,4.31-18.77,8.89-27.2
			c3.78-6.96,7.57-13.93,11.35-20.89c1.11-2.03,2.23-4.12,2.56-6.45c0.4-2.84-0.42-5.73-1.22-8.51
			c-5.14-17.77-9.67-37.74-1.41-53.88c10.13-19.76,35.02-25.42,49.78-41.69c8.69-9.57,13.42-22.36,21.47-32.51
			c13-16.4,34.84-24.66,55.28-20.93c9.31,1.7,18.12,5.65,27.17,8.59c19.08,6.21,39.74,3.66,58.32,9.19
			C1198.41,347.61,1205.72,370.08,1200.36,384.54z"/>
	</g>
	<g>
		<path class="st5" d="M596.72,679.8c28.81-65.25,37.51-137.91,35.72-209.21c53.44-7.56,107.42-11.33,161.4-11.29
			c8.33,0.01,17.01,0.19,24.42,4.01c9.82,5.08,15.48,15.51,20.46,25.37c38.18,75.56,72.45,155.05,130.24,216.91
			c22.15,23.72,47.39,44.39,69.66,68c4.82,5.11,9.64,10.6,11.65,17.33c2.65,8.85,0.02,18.46-3.97,26.79
			c-13.72,28.73-42.7,47.82-73.2,56.96c-30.5,9.14-62.82,9.62-94.66,10.03c-85.76,1.11-171.51,2.23-257.27,3.34
			c-52.11,0.68-109.1-0.28-149.16-33.62c-7.84-6.52-14.18-13.67-17.99-23.04c26.57-21.89,58.3-35.21,83.15-61.35
			C562.12,743.81,582.12,712.88,596.72,679.8z"/>
		<path class="st6" d="M609.2,509.83c3.02,6.13,7.27,11.54,10.22,17.71c12.85,26.91-2.63,60.6-24.96,80.22
			c-10.44,9.18-23.57,18.86-23.65,32.99c-0.05,9.4,5.95,17.37,9.95,25.73c14.34,29.97-0.39,71.44-30.17,84.95
			c-12.53,5.68-29.02,9.05-32.93,22.68c-3.51,12.22,7.54,24.81,19.64,26.19c12.1,1.38,23.85-5.45,33.1-13.86
			c27.02-24.57,39.27-62.8,42.1-99.84c0.44-5.73,0.74-11.69,3.4-16.75c2.66-5.06,8.52-8.88,13.7-6.99
			c7.35,2.69,7.58,13.75,4.21,21.15c-3.38,7.4-9.06,14.2-9.18,22.36c-0.12,7.91,5.57,15.1,12.73,17.64s15.33,0.88,21.88-3.2
			c13.85-8.62,20.18-26.62,20.03-43.33s-5.62-32.71-10.29-48.63c-6.41-21.87-11.43-44.58-10.2-67.52
			c0.61-11.35,3.12-23.37,10.88-31.45c7.76-8.09,22.06-10.03,29.09-1.46c3.67,4.48,4.64,11.3,2.05,16.62
			c-1.86,3.82-5.28,6.64-7.17,10.45c-4.31,8.65,1.56,20.25,10.51,22.76s18.97-3.06,23.53-11.58s4.24-19.16,0.83-28.12
			c3.54-3.88,9.87-3.67,14.06-0.7c4.19,2.97,6.6,8,8.14,13.04c4.66,15.3,2.81,31.91,0.95,47.94c-1.86,16.03-3.61,32.67,1.23,47.9
			s18.25,28.66,33.7,27.61c11.21-0.76,21.17-9.02,26.71-19.28c5.54-10.25,7.25-22.25,7.54-33.95c0.37-14.76-1.43-29.8-7.35-43.12
			c-9.03-20.33-27.19-35.85-32.55-57.59c-0.9-3.67-1.14-8.24,1.75-10.6c1.49-1.21,3.46-1.5,5.34-1.62
			c12.73-0.84,26.21,4.73,32.77,16.01c5.27,9.07,5.53,20.27,7.21,30.76c1.69,10.5,5.91,21.84,15.29,25.98
			c9.38,4.14,23.03-5.41,19.25-15.27c12.06-1.49,20.1,11.93,25.28,23.28c19.57,42.8,42.82,83.74,69.4,122.15
			c6.74,9.75,15.35,20.25,26.96,20.36c14.17,0.14,24.33-16.5,23.44-31.23c-0.89-14.73-9.38-27.5-17.56-39.44
			c-6.76-9.86-13.52-19.72-20.28-29.58c-1.97-2.88-3.99-5.84-4.84-9.28c-1.05-4.2-0.26-8.66,0.51-12.96
			c4.95-27.47,8.65-58.14-6.26-81.06c-18.27-28.08-56.5-32.71-81.17-54.82c-14.52-13.01-23.61-31.46-37.27-45.45
			c-22.06-22.58-56.1-31.6-86.2-22.83c-13.71,4-26.32,11.29-39.44,17.11c-27.67,12.28-59.06,11.67-86.09,22.84
			C606.39,454.12,598.92,488.97,609.2,509.83z"/>
		<path class="st6" d="M456.4,802.73c-11.91,4.57-19.1,20.59-14.83,33.03c4.42,12.86,18.02,19.31,23.69,31.54
			c3.19,6.89,3.66,15.24,7.74,21.54c4.89,7.57,13.81,10.54,22.11,13.06c12.81,3.89,27.91,7.34,38.83-1.64
			c5.13-4.22,8.63-10.78,14.42-13.8c13.57-7.07,26.12,9.13,39.64,15.09c21.62,9.52,45.51-8.24,68.77-14.34
			c12.5-3.28,25.4-3.13,38.13-2.95c25.42,0.35,50.84,0.69,76.26,1.04c16.35,0.22,32.98,0.49,48.34,5.91
			c11.74,4.14,22.31,11.14,33.44,16.81c10.89,5.55,22.66,9.91,34.91,9.7s25.1-5.55,32.69-16.27c4.69-6.61,7.83-15.5,15-18.42
			c4.2-1.72,8.78-0.86,13.16-0.34c10.03,1.19,20.77,0.37,29.67-5.29c8.9-5.66,15.33-17.07,13.26-27.68
			c-1.02-5.23-3.92-9.76-7.3-13.58c-18.87-21.39-52.27-22.06-77.67-8.26c-8.4,4.56-16.29,10.51-25.23,13.48
			c-21.85,7.26-44.79-5-60.37-21.93c-14.73-16-25.29-36.41-30.32-58.54c-2.44-10.74-3.64-22.01-8.08-31.9
			c-4.44-9.89-13.18-18.43-23.55-18.02c-14.57,0.57-24.69,18.99-23,34.5c0.88,8.07,4.03,15.94,2.76,24.05
			c-2.14,13.69-16.47,22.32-29.25,22.16c-12.78-0.16-24.38-6.66-35.82-12.33c-11.43-5.67-24.05-10.73-36.67-7.85
			c-17.95,4.1-29.92,22.51-45.01,34.2c-21.66,16.78-48.77,18.77-73.91,17.3c-11.59-0.68-22.62-0.71-32.08-7.57
			C476.41,808.36,470.71,797.24,456.4,802.73z"/>
	</g>
	<path class="st7" d="M811.9,952.4c38.53-5.04,77.6,0.79,116.35-1.63c38.75-2.42,79.87-15.14,103.59-48.15
		c21.33-29.69,24.99-70.71,46.17-100.52c33.26-46.82,95.8-50.81,150.01-59.54c38.75-6.24,77.44-17.2,111.04-38.84
		c33.61-21.64,61.88-54.94,72.88-95.34c2.88-10.57,5.44-22.81,14.41-28.14c12.1-7.18,27.92,4.79,30.87,19.31
		c2.95,14.51-2.97,29.31-9.61,42.34c-32.08,63.02-85.01,113.49-147.06,140.2c-55.18,23.75-119.22,30.65-163.01,73.85
		c-26.21,25.86-41.74,61.76-64.75,90.93c-26.75,33.91-63.85,58.24-104.15,68.31c-49.56,12.38-107.48,5.76-144.84,42.87
		c-5.77,5.73-11.23,12.62-18.85,14.67c-8.35,2.25-16.9-1.94-24.62-6.02c-28.91-15.27-84.16-28.52-56.71-68.09
		C743.3,970.24,780.63,956.49,811.9,952.4z"/>
	<path class="st8" d="M1114.19,642.97c17.46,1.23,33.55,13.98,38.72,30.7c1.94,6.29,2.37,13.39-0.67,19.22
		c-3.65,7.02-11.55,10.82-19.29,12.46c-7.74,1.64-15.77,1.61-23.47,3.43c-9.6,2.27-18.49,7.46-25.19,14.71
		c-2.33,2.52-5.32,5.57-8.57,4.5c-3.92-5.64-4.42-13.48-1.26-19.57c-2.4,4.24-3.36,9.29-2.67,14.12c0.34,2.39,0.85,5.35-1.11,6.75
		c-2.93,2.11-6.3-2.25-6.86-5.81c-0.98-6.2-0.15-12.68,2.35-18.44c-4.19,5.81-5.73,13.46-4.12,20.44c-2.47,1.19-5.39,1.44-8.03,0.68
		c-5.91-9.83-5.1-22.62-0.46-33.11c5.12-11.6,14.72-22.45,22.45-32.46C1084.93,649.07,1099.5,641.94,1114.19,642.97z"/>
	<path class="st8" d="M1104.63,674.51c2.33-5.44,5.67-10.05,9.71-12.06s8.82-1.08,12.01,3.21c1.56,2.08,2.74,5.39,2.03,8.36
		c-0.94,3.96-4.33,4.69-7.09,4.77c-6.03,0.17-12.52,0.14-17.48-5.12"/>
	<path class="st8" d="M1065.57,691.38c-0.68-4.12,0.47-8.51,3.1-11.75c1.62-1.99,4.48-3.61,6.65-2.24c2.63,1.65,1.51,5.95-0.92,7.88
		s-5.66,2.64-8.05,4.62"/>
	<path class="st8" d="M1076.88,694.49c1.93-2.63,3.92-5.31,6.63-7.11c2.72-1.8,6.36-2.56,9.26-1.06c1.74,3.29-1.04,7.51-4.58,8.66
		c-3.54,1.16-7.38,0.19-10.97-0.79"/>
	<path class="st8" d="M1224.56,635.48c3.24-3.69,5.84-7.91,9.15-11.53c3.31-3.62,7.59-6.72,12.47-7.18s10.3,2.47,11.33,7.27
		c1.03,4.8-4.12,10.15-8.67,8.3c4.68,0.61,9.49,1.4,13.46,3.96c3.96,2.56,6.85,7.36,5.77,11.95c-1.18,4.99-6.83,8.04-11.92,7.44
		s-9.45-4.14-12.34-8.37c-1.35-1.97-2.65-4.28-4.93-5.01c-2.16-0.69-4.45,0.3-6.5,1.27c-9.79,4.61-19.59,9.23-29.38,13.84
		c-3.5,1.65-7.03,3.32-10.05,5.72c-3.03,2.41-5.47,5.49-8.55,7.84c-3.07,2.35-7.14,3.95-10.81,2.72c-2.1-0.7-3.83-2.26-5.1-4.07
		c-2.57-3.64-3.4-8.72-1.26-12.64c2.14-3.92,7.57-5.95,11.42-3.69c-4.79-2.89-4.04-11.45,1.17-13.46c5.57-2.15,6.81,2.86,9.86,5.47
		c4.33,3.7,0.03,4.45,7.77,4.62C1207.18,650.13,1218.47,642.43,1224.56,635.48z"/>
	<path class="st8" d="M1262.89,668.45c6.05-0.77,12.37-1.97,18.11,0.09c5.74,2.06,10.27,8.95,7.39,14.33
		c-1.57,2.93-4.96,4.6-8.28,4.66c-3.32,0.06-6.54-1.31-9.24-3.24c0.36,2.65,2.58,4.59,4.19,6.72c1.61,2.13,2.57,5.47,0.6,7.28
		c-0.77,0.71-1.84,1.01-2.88,1.13c-5.89,0.71-11.27-3.24-15.6-7.3c-4.33-4.05-8.75-8.66-14.58-9.77
		c-9.75-1.85-20.42,6.69-29.08,1.86c-3.03-1.69-5.15-5.02-5.07-8.49c0.08-3.46,2.56-6.82,5.93-7.62c5.52-1.31,10.82,3.93,16.45,3.26
		c-2.94-2.82-6.12-6.88-4.27-10.5c1.6-3.14,6.36-3.45,9.19-1.36c3.51,2.59,3.05,7.78,6.39,9.72
		C1246.37,671.68,1258.14,669.05,1262.89,668.45z"/>
	<path class="st8" d="M781.79,937.06c-1.42,3.02-2.35,6.31-3.82,9.29c-1.47,2.98-3.63,5.74-6.59,6.77s-6.8-0.21-8.22-3.37
		c-1.42-3.16,0.92-7.61,4.05-6.99c-3.01,0.26-6.13,0.41-9-0.78c-2.88-1.19-5.45-4.08-5.52-7.41c-0.07-3.61,2.94-6.55,6.21-6.87
		c3.26-0.32,6.54,1.48,9.02,3.98c1.16,1.17,2.34,2.57,3.88,2.74c1.45,0.16,2.72-0.85,3.84-1.82c5.34-4.61,10.69-9.22,16.03-13.83
		c1.91-1.65,3.83-3.31,5.32-5.41c1.49-2.1,2.52-4.59,4.05-6.66s3.8-3.76,6.28-3.45c1.42,0.18,2.74,1.01,3.83,2.07
		c2.19,2.14,3.52,5.53,2.83,8.54c-0.69,3.02-3.74,5.21-6.5,4.21c3.44,1.3,4.36,7.31,1.44,9.46c-3.11,2.29-4.7-0.98-7.01-2.34
		c-3.29-1.92-0.74-3.07-5.58-2.06C790.23,924.42,784.45,931.38,781.79,937.06z"/>
</g>
</svg>
