<?xml version="1.0" encoding="utf-8"?>
<!-- Generator: Adobe Illustrator 25.0.0, SVG Export Plug-In . SVG Version: 6.00 Build 0)  -->
<svg version="1.1" id="Calque_1" xmlns="http://www.w3.org/2000/svg" xmlns:xlink="http://www.w3.org/1999/xlink" x="0px" y="0px"
	 viewBox="0 0 489.6 357" style="enable-background:new 0 0 489.6 357;" xml:space="preserve">
<style type="text/css">
	.st0{fill:#FFF6A1;stroke:#3D3D3D;stroke-width:2;stroke-miterlimit:10;}
	.st1{fill:#DDD35B;stroke:#3D3D3D;stroke-width:2;stroke-miterlimit:10;}
	.st2{fill:#FFF599;stroke:#3D3D3D;stroke-width:2;stroke-miterlimit:10;}
	.st3{fill:#FFFFFF;}
	.st4{fill:#F7E039;}
	.st5{fill:#3D3D3D;}
	.st6{fill:#FF78E6;}
	.st7{fill:none;stroke:#3D3D3D;stroke-width:2;stroke-miterlimit:10;}
</style>
<g>
	<path class="st0" d="M72.75,100.31c12.52-14.72,29.17-29.46,28.44-48.9c-0.36-9.5-4.64-20.52,1.69-27.52
		c18.24-8.82,34.99,18.88,55.15,19.02c6.09,0.04,11.88-2.52,17.58-4.72c29.4-11.37,62.4-14.25,92.4-4.85
		c30,9.4,56.49,31.79,68.25,61.47c2.9,7.32,9.6,42.84,7.83,50.54c-2.4,10.39-15.73-9.57-23.94-2.95
		c-64.04,51.72-105.62,121.39-186.65,139.46C51.4,300.17,37.95,141.23,72.75,100.31z"/>
	<ellipse transform="matrix(0.866 -0.5 0.5 0.866 -73.9995 136.6332)" class="st1" cx="217.96" cy="206.4" rx="142.2" ry="54.97"/>
	<ellipse transform="matrix(0.866 -0.5 0.5 0.866 -75.1191 137.7528)" class="st2" cx="219.49" cy="209.05" rx="104.3" ry="32.6"/>
	<ellipse transform="matrix(0.866 -0.5 0.5 0.866 -75.7655 137.1064)" class="st3" cx="217.96" cy="209.93" rx="32.6" ry="12.07"/>
	<circle class="st4" cx="79.6" cy="140.85" r="4.49"/>
	<circle class="st4" cx="103.76" cy="196.92" r="4.49"/>
	<circle class="st4" cx="217.96" cy="42.49" r="4.49"/>
	<circle class="st4" cx="167.41" cy="56.61" r="4.49"/>
	<circle class="st4" cx="199.58" cy="68.62" r="4.49"/>
	<circle class="st4" cx="122.66" cy="161.84" r="4.49"/>
	<circle class="st4" cx="88.58" cy="175.62" r="4.49"/>
	<circle class="st4" cx="79.6" cy="228.04" r="4.49"/>
	<path class="st0" d="M333.26,93.06c14.71-1.14,28.7-4.02,43.8-3.78c32.04,0.51,64.33,12.16,94.84,25.32
		c3.04,1.31,7.05,2.4,9.73,1.77c1.75-0.41,1.71-2.53-0.05-3.41c-5.39-2.68-10.78-5.36-16.17-8.05c-0.14-0.07-0.06-0.24,0.08-0.18
		l17.74,7.6c1.16,0.5,2.21-0.37,1.68-1.39c-3.34-6.39-9.86-10.93-18.22-13.01l19.09,8.07c0.82,0.35,1.65-0.17,1.42-0.91
		c-1.46-4.89-7.44-8.7-12.88-11.36c-50.08-24.46-117.56-29.84-168.28-21.33c-0.07,0.01-0.1,0.08-0.06,0.14"/>
	<path class="st0" d="M74.63,210.93c-8.2,12.26-17.57,23.04-24.76,36.33c-15.26,28.17-20.94,62.03-24.42,95.07
		c-0.35,3.3-1.36,7.32-3.23,9.35c-1.22,1.32-3.05,0.25-2.95-1.72c0.3-6.01,0.61-12.03,0.91-18.04c0.01-0.16-0.18-0.17-0.19-0.01
		l-2.07,19.19c-0.14,1.26-1.41,1.75-2.04,0.79c-3.94-6.04-4.7-13.96-2.41-22.26l-2.33,20.6c-0.1,0.89-0.95,1.35-1.49,0.79
		c-3.55-3.67-3.94-10.75-3.59-16.8c3.22-55.64,31.62-117.1,63.89-157.13c0.05-0.06,0.12-0.05,0.15,0.02"/>
	
		<ellipse transform="matrix(0.929 -0.3701 0.3701 0.929 -32.5208 80.964)" class="st5" cx="194.75" cy="125.24" rx="1.13" ry="4.06"/>
	
		<ellipse transform="matrix(0.929 -0.3701 0.3701 0.929 -26.2458 90.7836)" class="st5" cx="223.48" cy="113.8" rx="1.13" ry="4.06"/>
	<circle class="st6" cx="149.76" cy="134.07" r="6.78"/>
	<circle class="st6" cx="247.92" cy="92.59" r="6.78"/>
	<circle class="st4" cx="301.48" cy="103.86" r="4.49"/>
	<circle class="st4" cx="127.15" cy="42.49" r="4.49"/>
	<circle class="st4" cx="140.75" cy="68.62" r="4.49"/>
	<path class="st7" d="M248.38,191.12c18.19-13.19,37.14-25.32,56.73-36.33"/>
	<path class="st7" d="M244.24,205.01c4.28,6.06,9.39,11.53,15.13,16.22"/>
	<path class="st7" d="M190.41,213.59c-10.64,0.13-21.29,0.26-31.93,0.38"/>
	<path class="st7" d="M193.02,232.06c-11.38,10.69-22.32,21.86-32.78,33.46"/>
	<path class="st7" d="M217.79,174.11c1.27,5.97,2.54,11.93,3.81,17.9"/>
</g>
</svg>
