<?xml version="1.0" encoding="utf-8"?>
<!-- Generator: Adobe Illustrator 25.0.0, SVG Export Plug-In . SVG Version: 6.00 Build 0)  -->
<svg version="1.1" id="Calque_1" xmlns="http://www.w3.org/2000/svg" xmlns:xlink="http://www.w3.org/1999/xlink" x="0px" y="0px"
	 viewBox="0 0 298.06 707.09" style="enable-background:new 0 0 298.06 707.09;" xml:space="preserve">
<style type="text/css">
	.st0{fill:#C69F75;stroke:#3D3D3D;stroke-width:2;stroke-miterlimit:10;}
	.st1{fill:#232323;stroke:#3D3D3D;stroke-width:2;stroke-miterlimit:10;}
	.st2{fill:#FFFFFF;stroke:#3D3D3D;stroke-width:2;stroke-miterlimit:10;}
	.st3{fill:#2F91D3;stroke:#3D3D3D;stroke-width:2;stroke-miterlimit:10;}
	.st4{fill:#656666;stroke:#3D3D3D;stroke-width:2;stroke-miterlimit:10;}
	.st5{fill:#848484;stroke:#3D3D3D;stroke-width:2;stroke-miterlimit:10;}
	.st6{fill:#D8D8D8;stroke:#3D3D3D;stroke-width:2;stroke-miterlimit:10;}
	.st7{fill:#31A2FF;stroke:#3D3D3D;stroke-width:2;stroke-miterlimit:10;}
	.st8{fill:#3D3D3D;}
	.st9{fill:none;stroke:#3D3D3D;stroke-width:2;stroke-miterlimit:10;}
	.st10{fill:#FF78E6;}
	.st11{fill:#EDD19F;stroke:#3D3D3D;stroke-width:2;stroke-miterlimit:10;}
	.st12{fill:#FFFFFF;}
	.st13{fill:#3BFFF5;}
	.st14{opacity:0.45;fill:#FFFFFF;}
	.st15{fill:none;stroke:#874600;stroke-width:5;stroke-miterlimit:10;}
	.st16{fill:none;stroke:#A0A0A0;stroke-width:2;stroke-miterlimit:10;}
	.st17{fill:none;stroke:#ED246D;stroke-width:0.75;stroke-miterlimit:10;}
	.st18{fill:none;stroke:#648428;stroke-width:0.75;stroke-miterlimit:10;}
	.st19{fill:none;stroke:#FFDCEA;stroke-width:0.75;stroke-miterlimit:10;}
	.st20{fill:none;stroke:#FF88B6;stroke-width:0.75;stroke-miterlimit:10;}
	.st21{fill:#B5945B;stroke:#3D3D3D;stroke-width:2;stroke-miterlimit:10;}
	.st22{fill:#FFF0B3;stroke:#3D3D3D;stroke-width:2;stroke-miterlimit:10;}
	.st23{fill:none;stroke:#AF9D80;stroke-width:0.75;stroke-miterlimit:10;}
	.st24{fill:none;stroke:#B70042;stroke-width:0.75;stroke-miterlimit:10;}
	.st25{fill:#EAEAEA;stroke:#3D3D3D;stroke-width:2;stroke-miterlimit:10;}
	.st26{fill:none;stroke:#3D3D3D;stroke-miterlimit:10;}
	.st27{fill:none;stroke:#B5945B;stroke-width:2;stroke-miterlimit:10;}
</style>
<g>
	<path class="st0" d="M10.35,592.56c-0.31-0.15-0.63-0.3-0.95-0.28c-0.83,0.07-1.21,1.18-1.42,2.12c-0.65,2.88-1.3,5.75-1.95,8.63
		c1.53-0.18,3.13,0.23,4.51,1.15c-1.06,8.64-1.19,17.51-0.39,26.33c-1.29,0.25-2.58,0.5-3.87,0.74c0.15,2.27,0.43,4.54,0.83,6.78
		c0.09,0.52,0.23,1.1,0.62,1.38c0.26,0.18,0.57,0.19,0.86,0.18c2.68-0.02,5.37-0.04,8.05-0.05c-2.99-15.08,5.81-28.31,4.04-43.04
		C17.02,595.55,13.91,594.3,10.35,592.56z"/>
	<path class="st0" d="M30.68,561.63c-0.25-0.15-0.52-0.3-0.81-0.33c-0.75-0.06-1.25,0.72-1.59,1.39c-1.01,2.05-2.03,4.1-3.04,6.15
		c1.39,0.06,2.76,0.56,3.85,1.42c-2.25,6.27-3.7,12.83-4.32,19.47c-1.19,0.02-2.38,0.04-3.57,0.06c-0.21,1.7-0.31,3.42-0.28,5.13
		c0,0.4,0.04,0.84,0.34,1.1c0.2,0.17,0.48,0.21,0.74,0.24c2.4,0.32,4.79,0.65,7.19,0.97c-0.38-11.55,9.46-20.26,10.1-31.4
		C36.17,564.68,33.59,563.36,30.68,561.63z"/>
	<path class="st1" d="M75.23,170.07c-2.83,2.04-5.85,4.16-9.33,4.43c-3.48,0.27-7.41-2.15-7.42-5.64c-0.01-2.71,2.2-4.85,4.25-6.64
		c7.19-6.3,14.38-12.6,21.57-18.89c0.7-0.61,1.45-1.32,1.51-2.24c0.04-0.5-0.14-0.98-0.31-1.45c-7.79-20.76-24.71-36.89-33.87-57.08
		c-4.31-9.49-11.35-21.22-15.57-30.76c-4.82-10.87-7.24-19.13-12.82-29.64c-0.69-1.29-1.37-2.74-1.04-4.17
		c0.24-1.05,1-1.9,1.78-2.65c3.62-3.53,8.14-6.11,13.02-7.43C40,7.09,43.28,6.76,46.2,7.85c2.58,0.96,4.65,2.92,6.59,4.87
		c28.96,29.28,44.98,68.79,69.98,101.52c1.37,1.79,3.15,3.75,5.4,3.58c1.13-0.08,2.13-0.7,3.09-1.3
		c5.82-3.66,11.65-7.32,17.47-10.99c3.27-2.06,7.19-4.19,10.79-2.78c3.26,1.28,4.88,5.28,4.21,8.73c-0.67,3.44-3.17,6.29-6.06,8.28"
		/>
	<path class="st1" d="M103.67,499.89c-0.26,7.16-0.12,14.45,1.91,21.32c2.04,6.87,6.18,13.36,12.39,16.93
		c3.22-10.75,10.32-21.49,21.23-24.12c3.01-0.72,6.14-0.78,9.19-1.32c3.05-0.53,6.16-1.64,8.19-3.98c2.03-2.34,2.57-6.16,0.54-8.5
		c-0.58-0.67-1.32-1.17-2.06-1.66c-9.55-6.26-20.6-10.18-31.93-11.51C110.14,485.55,104.19,485.8,103.67,499.89z"/>
	<path class="st2" d="M34.37,566.63c-2.54,2.69-3.37,6.52-4.1,10.15c-1.5,7.5-2.97,15.37-0.76,22.7c1.14,3.78,3.52,7.5,7.24,8.82
		c3.72,1.32,8.69-0.89,9.09-4.82c0.18-1.78-0.54-3.51-1.2-5.17c-1.4-3.51-2.61-7.28-2.03-11.01c0.57-3.73,3.46-7.37,7.24-7.57
		c0.4-2.66,0.8-5.4,0.16-8.02C48.48,565.49,39.13,561.59,34.37,566.63z"/>
	<path class="st2" d="M17.11,599.06c-2.54,2.69-3.37,6.52-4.1,10.15c-1.5,7.5-2.97,15.37-0.76,22.7c1.14,3.78,3.52,7.5,7.24,8.82
		c3.72,1.32,8.69-0.89,9.09-4.82c0.18-1.78-0.54-3.51-1.2-5.17c-1.4-3.51-2.61-7.28-2.03-11.01s3.46-7.37,7.24-7.57
		c0.4-2.66,0.8-5.4,0.16-8.02C31.21,597.92,21.87,594.03,17.11,599.06z"/>
	<path class="st3" d="M115.14,348.94c0.17,2.17,0.35,4.41,1.36,6.33c3.35,6.36,12.58,5.42,19.55,3.72
		c41.06-9.99,83.54-14.15,125.76-12.32c5.56,0.24,11.84,0.94,15.24,5.35c3.41,4.41-0.18,12.97-5.49,11.3
		c0.03-2.37-2.33-4.48-4.68-4.18c-3.59,4.79,4.09,11.59,9.51,9.05c5.42-2.54,6.96-9.71,5.87-15.6c0.43,6.86-3.07,13.84-8.83,17.6
		c3.85,2.25,9.06,0.08,11.67-3.54c2.61-3.62,3.27-8.24,3.86-12.67c0.33,5.85-2.79,11.76-7.8,14.78c8.75,0.39,13.32-11.9,9.16-19.61
		c-4.16-7.71-13.04-11.39-21.33-14.24c-9.52-3.27-19.23-6.22-29.24-7.36c-27.58-3.15-54.97,7.52-82.73,7.29
		c-5.6-0.05-11.68-0.74-15.74-4.6c-9.38-8.89,4.73-44.73-16.82-37.43C108.12,298.37,113.85,336.02,115.14,348.94z"/>
	<path class="st4" d="M145.99,414.71c3.78-0.25,7.7-0.47,11.22,0.91c2.98,1.17,5.39,3.4,7.74,5.58
		c18.46,17.16,36.93,34.32,55.39,51.47c2.46,2.29,5.05,4.79,5.76,8.08c0.67,3.08-0.46,6.24-1.76,9.11
		c-8.58,18.97-25.02,33.22-42.3,44.84c-43.83,29.46-96.34,45.83-149.14,46.49c-2.31-5.88,1.99-12.65,7.65-15.46
		s12.24-2.76,18.56-2.98c37.84-1.31,75.16-14.79,105.1-37.97c5.82-4.5,11.59-9.68,14.05-16.6c5.15-14.45-6.27-29.94-19.65-37.44
		c-13.38-7.5-29.06-10.34-42.11-18.41c-8.35-5.17-25.83-23.82-15.47-33.62C108.06,412.07,136.78,415.32,145.99,414.71z"/>
	<path class="st5" d="M135.84,449.46c3.78-0.25,7.7-0.47,11.22,0.91c2.98,1.17,5.39,3.4,7.74,5.58
		c18.46,17.16,36.93,34.32,55.39,51.47c2.46,2.29,5.05,4.79,5.76,8.08c0.67,3.08,0.34,6.12-0.96,8.99
		c-8.58,18.97-25.82,33.35-43.1,44.96c-43.83,29.46-96.34,45.83-149.14,46.49c-2.31-5.88,1.99-12.65,7.65-15.46
		s12.24-2.76,18.56-2.98c37.84-1.31,75.16-14.79,105.1-37.97c5.82-4.5,11.59-9.68,14.05-16.6c5.15-14.45-6.27-29.94-19.65-37.44
		c-13.38-7.5-29.06-10.34-42.11-18.41c-8.35-5.17-25.83-23.82-15.47-33.62C97.9,446.82,126.63,450.07,135.84,449.46z"/>
	<path class="st6" d="M174.13,300.93c3.93,4.86,7.86,9.73,11.79,14.59c2.85,3.53,5.89,7.68,5.2,12.21
		c-0.35,2.32-1.66,4.36-3.03,6.24c-2.91,4.02-6.2,7.75-9.82,11.1c-3.84-13.81-12.06-25.86-17.63-39.04
		c-1.97-4.65-3.6-9.45-4.89-14.35c-2.21-8.39,2.16-7.09,7.21-2.87C167.17,292.32,170.68,296.65,174.13,300.93z"/>
	<path class="st7" d="M201.72,188.87c3.92,24.92-7.34,51.62-27.93,66.2c-10.04,7.11-23.47,13.71-24.15,26
		c-0.43,7.78,3.95,17.83-2.65,21.97c-5.9,3.71-13.26-3.23-14.58-10.08c-1.31-6.84,0.26-14.29-2.66-20.62
		c-4.16-9.05-15.28-11.91-24.1-16.55c-20.9-10.98-31.74-36.84-27.91-60.13c3.83-23.29,20.63-43.3,41.58-54.18
		c19.54-10.14,36.38-10.43,54.24,2.42C188.27,154.47,198.9,170.91,201.72,188.87z"/>
	<path class="st2" d="M78.43,336.91c5.98,4.17,12.22,7.97,18.67,11.37c1,0.53,2.1,0.87,3.23,0.91c8.35,0.29,6.58-13.48,13.15-17.83
		c-6.83,20.2-13.66,40.39-20.49,60.59c-3.21,9.5-6.45,19.1-7.4,29.06c-1,10.52,0.58,21.13,2.95,31.43c0.37,1.61,0.81,3.31,1.98,4.48
		c1.56,1.57,4,1.81,6.22,1.96c25.91,1.76,53.92,3,75.68-11.1c2.41-1.56,4.8-3.4,6.08-5.96c1.8-3.61,1.09-7.88,0.53-11.86
		c-4.5-31.85,3.7-64.38,0.21-96.36c-1.95-17.89-8.65-36.68-22.82-47.41c-1.72-1.3-5.99-0.19-6.33,1.93
		c-0.84,5.19-2.39,9.89-7.46,11.13c-5.52,1.35-9.08-4.41-10.6-9.16c-0.79-2.45-4.18-1.96-6.69-1.36
		C103.39,293.98,84.43,316.62,78.43,336.91z"/>
	
		<ellipse transform="matrix(0.9957 -0.093 0.093 0.9957 -17.3713 16.4745)" class="st8" cx="168.05" cy="194.6" rx="0.84" ry="3.02"/>
	
		<ellipse transform="matrix(0.9957 -0.093 0.093 0.9957 -17.6701 14.3505)" class="st8" cx="145.12" cy="196.74" rx="0.84" ry="3.02"/>
	<path class="st9" d="M165.52,221.01c-1.53,2.57-4.34,4.33-7.33,4.58s-6.05-1.03-7.98-3.31"/>
	<circle class="st10" cx="124.1" cy="208.73" r="5.05"/>
	<circle class="st10" cx="187.51" cy="202.8" r="5.05"/>
	<path class="st7" d="M81.89,376.71c0.17,2.17,0.35,4.41,1.36,6.33c3.35,6.36,12.58,5.42,19.55,3.72
		c41.06-9.99,83.54-14.15,125.76-12.32c5.56,0.24,11.84,0.94,15.24,5.35c3.41,4.41-0.18,12.97-5.49,11.3
		c0.03-2.37-2.33-4.48-4.68-4.18c-3.59,4.79,4.09,11.59,9.51,9.05c5.42-2.54,6.96-9.71,5.87-15.6c0.43,6.86-3.07,13.84-8.83,17.6
		c3.85,2.25,9.06,0.08,11.67-3.54c2.61-3.62,3.27-8.24,3.86-12.67c0.33,5.85-2.79,11.76-7.8,14.78c8.75,0.39,13.32-11.9,9.16-19.61
		c-4.16-7.71-13.04-11.39-21.33-14.24c-9.52-3.27-19.23-6.22-29.24-7.36c-27.58-3.15-54.97,7.52-82.73,7.29
		c-5.6-0.05-11.68-0.74-15.74-4.6c-9.38-8.89,4.73-44.73-16.82-37.43C74.87,326.14,80.6,363.79,81.89,376.71z"/>
	<path class="st1" d="M189.32,325.85c29.21-3.91,60.78-4,85.73,12.87c-5.19,5.14-10.37,10.27-15.56,15.41
		c-0.71,0.7-1.44,1.42-2.35,1.76c-1.44,0.54-3.01,0.03-4.46-0.45c-23.29-7.69-48.59-8.17-72.12-1.38c-1.03,0.3-2.13,0.61-3.14,0.26
		c-1.77-0.6-2.49-2.82-2.97-4.75c-2.01-7.99-21.57-62.26-16.29-65.29c4.73-2.72,18.27,12.55,20.78,15.86
		C180.18,301.79,191.95,325.49,189.32,325.85z"/>
	<path class="st1" d="M172.62,410.34c0.41,7.57,0.04,15.89,4.78,21.81c1.59,1.98,3.64,3.53,5.62,5.12c4.12,3.31,8,6.91,11.6,10.76
		c1.3-13.09,2.23-26.21,2.8-39.34c0.15-3.46,0.28-6.92,0.14-10.38c-0.26-6.89-1.56-13.73-3.82-20.24c-0.69-1.99-1.63-4.12-3.52-5.03
		c-1.28-0.62-2.78-0.56-4.2-0.38c-6.19,0.79-17.13,5.07-18.64,11.89C166.1,390.34,172.26,403.68,172.62,410.34z"/>
	<path class="st1" d="M138.09,433.72c-13.29,16.75-36.4,21.56-54.05,33.62c-24.03,16.41-36.86,47.72-31.26,76.27
		c-10.26-2.93-13.07-16.04-13.01-26.7c0.05-8,0.69-16.11,3.31-23.67c4.01-11.56,12.35-21.04,18.35-31.71
		c12.23-21.76,14.4-47.74,24.21-70.69c0.76-1.79,1.6-3.6,2.99-4.95c1.51-1.48,3.54-2.29,5.54-3c19.48-6.92,42.53-8.14,62.25-1.42
		c-0.34,3.97-3.07,4.84-4.39,8.42c-1.77,4.77-1.39,10.92-2.39,15.96C147.68,415.79,144.49,425.67,138.09,433.72z"/>
	<g>
		<path class="st1" d="M229.43,376.23c-0.76,1.29-1.57,2.61-2.79,3.47c-1.83,1.27-4.23,1.27-6.45,1.23
			c-38.37-0.66-76.82,3.94-113.94,13.64c-7.08,1.85-14.72,3.86-21.54,1.21c-8.67-3.37-13-13.18-14.48-22.37
			c-2.93-18.25,1.95-37.1,10.6-53.44c8.52-16.09,23.04-31.41,41.25-31.66c11.93,13.7,23.93,27.33,36.01,40.89
			c6.14-14.61,4.6-32.2-3.98-45.53c15.36,19.66,25.3,43.52,28.42,68.28c14.12-1.85,28.5-1.42,42.5,1.17
			C243.84,356.6,237.55,362.56,229.43,376.23z"/>
		<path class="st9" d="M115.55,321.83c-8.11,11.07-13.95,23.79-17.05,37.15c-0.31,1.35-0.49,3.02,0.59,3.88
			c0.86,0.68,2.1,0.48,3.17,0.24c11.3-2.51,22.55-5.57,34.1-6.27c14.05-0.84,28.54,1.8,42.02-2.24"/>
	</g>
	<path class="st11" d="M185.56,172.91c-2.82-7.18-9.88-12.49-17.4-12.75c9.53-1.71,19.36,4,24.67,12.38
		c4.68,7.4,6.27,16.47,5.97,25.36c-0.02,0.54,0.75,0.65,0.89,0.13c1.74-6.63,1.27-13.88-1.39-20.19c2.47,6.82,4.97,13.75,5.6,21.01
		c0.63,7.26,7.93,8.22,3.3,13.71c7.79-8.49,3.43-13.07,5.3-24.62c1.11-6.85,1.37-14-0.63-20.63c-2-6.63-6.53-12.69-12.81-15.12
		c5.11-1.94,11.24-0.22,14.92,3.89c0.36,0.4,1,0.04,0.84-0.47c-4.2-14.02-15.84-25.46-29.64-28.86c2.53-3.33,7.29-2.18,11.18-0.26
		c0.45,0.22,0.91-0.3,0.62-0.71c-5.49-7.89-14.5-13.09-23.88-13.68c-10.01-0.62-20.19,4.01-26.52,12.08
		c-1.11-4.79-5.44-8.57-10.18-8.9c-4.08-0.28-8.19,2.03-10.34,5.61c-0.33,0.55,0.25,1.2,0.83,0.92c3.22-1.56,7.01-2.47,9.29,0.09
		c1.77,1.98-3.73,6-5.19,8.23c-1.47,2.23,0.54-0.79-1.83,0.32c-8.51,3.94-16.74-5.13-25.58-2.07c-7.75,2.69-19.32,9.28-24.7,16.76
		c-0.42,0.58,0.19,1.36,0.85,1.1c4.03-1.59,7.62,3.59,13.93,5.3c-13.23,3.58-16.24,12.16-24.36,23.56
		c-7.7,10.8-10.6,25.71-5.79,38.09c0.15,0.39,0.73,0.27,0.72-0.15c-0.12-7.18,3.31-14.39,8.98-18.55
		c-4.29,10.37-3.68,22.36-0.51,33.15c2.8,9.53,7.44,18.32,12.27,26.95c0.36,0.65,1.36,0.29,1.23-0.44
		c-1.62-9.06-2.97-18.24-2.01-27.37c1.09-10.44,5.65-21,14.16-26.7l3.08,4.99c0.13,0.21,0.44,0.13,0.47-0.11
		c1.33-15.65,11.16-30.25,24.91-36.9c3.92,3.65,4.27,10.44,1.32,14.83c-0.2,0.3,0.19,0.65,0.47,0.42
		c7.96-6.5,11.95-18.04,9.42-28.27c1.46,5.93,18.42-3.56,20.4-5.16c-1.19,3.77-5.55,9.83-3.33,13.9
		c3.59,6.58,21.35,4.84,29.42,10.02C185.09,174.18,185.82,173.58,185.56,172.91z"/>
	<path class="st12" d="M90.39,104.68c6.31-2.95,12.91-9.27,16.62-12.98c0.74-0.74,1.56-1.28,2.16-0.42
		c3.03,4.33,5.64,10.98,9.87,14.36c-10.39,9.82-22.15,18.4-34.91,25.47c-0.67,0.37-1.38,0.75-2.17,0.8
		c-2.32,0.13-3.53-2.41-4.31-4.43c-1.36-3.52-7.11-9.05-4.38-12.86C75.39,111.67,86.57,106.46,90.39,104.68z"/>
	
		<ellipse transform="matrix(0.9957 -0.093 0.093 0.9957 -15.84 14.9464)" class="st13" cx="152.42" cy="177.4" rx="1.93" ry="3.08"/>
	
		<ellipse transform="matrix(0.061 -0.9981 0.9981 0.061 -35.1943 351.5585)" class="st14" cx="169.25" cy="194.48" rx="14.53" ry="12.32"/>
	
		<ellipse transform="matrix(0.061 -0.9981 0.9981 0.061 -35.9979 352.2271)" class="st15" cx="169.2" cy="195.25" rx="15.43" ry="13.09"/>
	<path class="st9" d="M171.2,210c-0.64,0.97-0.74,2.27-0.25,3.32c0.21,0.46,0.53,0.88,0.93,1.2c1.2,0.94,3.13,0.76,4.13-0.39
		c1-1.15,0.92-3.08-0.18-4.14"/>
	<path class="st16" d="M174.26,214.43c-0.5-0.52-1.5,0.07-1.49,0.79c0.01,0.72,0.69,1.28,1.39,1.44c0.47,0.11,1.01,0.07,1.39-0.23
		s0.53-0.91,0.23-1.29"/>
	<path class="st16" d="M174.82,216.75c-3.11,3.61-2.82,9.14-0.91,13.5c1.92,4.36,5.18,7.96,7.82,11.92
		c6.19,9.28,8.94,20.8,7.61,31.87c-0.47,3.89-1.42,7.71-2.57,11.46c-2.55,8.28-6.12,16.25-10.59,23.68
		c-1.78,2.95-3.71,5.84-4.97,9.05c-1.26,3.21-1.81,6.83-0.73,10.1"/>
	<path class="st9" d="M163.99,328.04c-0.28,0.31-0.31,0.76-0.33,1.18c-0.17,3.81-0.34,7.64,0.15,11.42c0.17,1.3,0.42,2.61,0.98,3.8
		c1.36,2.88,4.63,4.72,7.79,4.4c1.5-0.15,2.99-0.79,3.94-1.96c1.41-1.73,1.37-4.18,1.18-6.4c-0.35-3.91-0.98-7.79-1.89-11.6
		c-0.12-0.5-0.26-1.03-0.66-1.36c-0.91-0.76-4.18,0.79-5.2,0.96C169.36,328.58,163.83,328.22,163.99,328.04z"/>
	<path class="st9" d="M22.35,634.73c2.21,0.64,3.54,3.38,2.67,5.51"/>
	<path class="st9" d="M29.26,596.94c2.75,0.04,5.54,0.05,8.18-0.58c2.64-0.63,5.17-2.01,6.4-4.1"/>
	<path class="st9" d="M37.25,596.46c-0.18,0.51-0.13,1.1,0.14,1.57"/>
	<path class="st9" d="M11.47,632.73c1.62,1,3.58,1.23,5.47,1.43c1.65,0.18,3.3,0.35,4.95,0.53c0.41,0.04,0.84,0.09,1.23-0.07
		c0.34-0.14,0.6-0.41,0.84-0.68c1.21-1.38,2.18-2.98,2.85-4.69"/>
	<path class="st17" d="M127.32,356.65c-1.9-0.87-3.58-2.21-4.85-3.86c-0.22-0.29-0.44-0.63-0.37-0.99c0.05-0.25,0.24-0.45,0.44-0.61
		c0.82-0.66,2.01-0.84,2.99-0.46s1.73,1.32,1.89,2.36"/>
	<path class="st17" d="M127.36,355.29c1.06,0.85,2.7,0.71,3.82-0.07s1.79-2.07,2.17-3.37c0.25-0.84,0.38-1.77,0.03-2.56
		c-0.33-0.75-1.04-1.26-1.75-1.69c-0.56-0.34-1.17-0.65-1.82-0.64c-0.91,0.02-1.69,0.7-2.11,1.5c-0.41,0.81-0.53,1.73-0.64,2.63"/>
	<path class="st17" d="M124.78,349.3c-0.85-0.67-1.09-1.9-0.83-2.95s0.94-1.94,1.66-2.74c0.86-0.95,1.97-1.88,3.26-1.8
		c1.44,0.09,2.48,1.39,3.81,1.96c2.07,0.89,4.75-0.06,6.55,1.31c1.66,1.26,1.52,4.03,0.1,5.55c-1.42,1.52-3.69,1.98-5.77,1.81"/>
	<path class="st17" d="M126.16,342.92c-1.34-0.27-2.27-1.59-3.61-1.86c-1.44-0.29-2.81,0.75-3.77,1.86c-0.6,0.69-1.15,1.59-0.9,2.47
		c0.24,0.82,1.08,1.28,1.73,1.84c0.65,0.56,1.13,1.61,0.53,2.22c-0.27,0.27-0.66,0.36-1.01,0.51c-1.55,0.68-1.97,2.96-0.94,4.3
		c1.03,1.34,3.1,1.61,4.58,0.8"/>
	<path class="st17" d="M121.89,340.87c2.76-2.14,6.29-2.4,9.62-2.36c1.49,0.02,3.03,0.1,4.37,0.86c1.34,0.76,2.42,2.38,2.26,4.09
		c-0.07,0.69-0.41,1.41-0.99,1.57c-0.97,0.25-1.59-1.09-2.06-2.09c-0.77-1.66-2.06-2.99-3.56-3.7"/>
	<path class="st17" d="M118.98,341.48c-0.19-1.87,0.23-3.79,1.16-5.41c0.57-0.99,1.55-1.96,2.68-1.78c1.4,0.23,2.25,2.13,3.66,1.93
		c0.36-0.05,0.69-0.24,1.02-0.41c1.41-0.73,3.1-1.04,4.61-0.54c1.51,0.5,2.76,1.91,2.78,3.5"/>
	<path class="st17" d="M118.81,337.4c-2.53,0.59-4.91,2.35-5.67,4.84c-0.24,0.8-0.32,1.64-0.33,2.48c-0.02,1.67,0.25,3.4,1.13,4.82
		s2.46,2.49,4.13,2.41"/>
	<path class="st17" d="M137.99,340.69c1.28,0.54,2.58,1.1,3.63,2c1.05,0.9,1.84,2.23,1.75,3.62c-0.09,1.39-1.26,2.73-2.65,2.68"/>
	<path class="st17" d="M114.95,351.19c-1.16-0.15-2.18,0.87-2.58,1.98s-0.38,2.31-0.67,3.44c-0.15,0.61-0.39,1.21-0.34,1.83
		c0.05,0.62,0.52,1.28,1.15,1.25"/>
	<path class="st17" d="M139.77,350.57c-0.7,0.62-0.2,1.78,0.43,2.47c0.62,0.7,1.41,1.52,1.13,2.42"/>
	<path class="st17" d="M143.01,347.97c0.29,1.15,0.58,2.32,0.44,3.5c-0.14,1.17-0.81,2.36-1.91,2.78"/>
	<path class="st18" d="M112.25,348.25c-1.11-0.36-2.35-0.46-3.43-0.01c-1.72,0.72-2.6,2.61-3.34,4.32s-1.68,3.59-3.45,4.21
		c0.89,0.19,1.78,0.38,2.67,0.57c1.76,0.37,3.83,0.67,5.17-0.53c0.23-0.21,0.42-0.45,0.62-0.69"/>
	<path class="st18" d="M134.16,337.67c-0.12-1.67,1.29-3.07,2.81-3.78c1.51-0.71,3.21-0.97,4.68-1.76c1.73-0.92,3.06-2.57,3.59-4.46
		c0.37,2.39-0.5,4.8-0.5,7.21c0,1.51,0.34,3.01,0.22,4.52c-0.11,1.51-0.83,3.11-2.23,3.67"/>
	<path class="st18" d="M144.22,349.75c0.3,1.8,2.15,2.87,3.88,3.45c1.73,0.58,3.65,1.02,4.81,2.42"/>
	<path class="st18" d="M137.86,339.81c0.94-1.81,2.7-3.19,4.68-3.67"/>
	<path class="st18" d="M108.63,354.48c0.73-2.31,2.79-4.15,5.17-4.61"/>
	<g>
		<path class="st19" d="M126.74,324.67c-0.87-0.49-1.62-1.17-2.19-1.99c-0.14-0.2-0.27-0.41-0.27-0.65c0-0.51,0.6-0.84,1.1-0.76
			c0.5,0.09,0.9,0.45,1.27,0.8c-0.36-0.38-0.52-0.96-0.31-1.44c0.21-0.48,0.84-0.75,1.3-0.49c0.45,0.25,0.56,0.84,0.62,1.35
			c0.06,0.51,0.12,1.03,0.01,1.52c-0.12,0.5-0.45,0.98-0.93,1.13"/>
		<path class="st19" d="M126.61,324.48c-1.07-1.11-2.93-1.35-4.24-0.54c-0.44,0.27-0.84,0.88-0.49,1.26
			c0.19,0.2,0.49,0.21,0.77,0.22c0.82,0,1.63,0,2.45,0.01c-0.57-0.17-1.18-0.23-1.75-0.05c-0.56,0.18-1.06,0.62-1.2,1.2
			c-0.03,0.14-0.05,0.3,0,0.43c0.11,0.31,0.48,0.44,0.81,0.48c1.5,0.18,3.05-0.78,3.57-2.2"/>
		<path class="st19" d="M126.66,325.68c-0.61,0.84-1,1.83-1.12,2.86c-0.03,0.26,0,0.6,0.25,0.69c0.12,0.04,0.26,0,0.38-0.06
			c0.65-0.32,0.87-1.13,1.02-1.84c0.19,0.44,0.06,0.94,0,1.41s-0.02,1.04,0.38,1.31c0.49,0.34,1.21-0.04,1.43-0.6
			c0.22-0.55,0.07-1.18-0.11-1.74c-0.32-1-0.75-1.96-1.28-2.86"/>
		<path class="st19" d="M127.6,324.43c0.91-0.39,1.84-0.74,2.78-1.02c0.66-0.2,1.48-0.33,1.93,0.19c0.06,0.07,0.11,0.16,0.1,0.25
			c-0.02,0.11-0.13,0.18-0.22,0.23c-0.72,0.37-1.56,0.5-2.36,0.36c-0.13,0.18,0.01,0.44,0.2,0.54c0.19,0.11,0.42,0.12,0.62,0.2
			c0.47,0.18,0.74,0.67,0.9,1.14c0.19,0.55,0.2,1.32-0.33,1.56c-0.52,0.23-1.08-0.25-1.36-0.74c-0.28-0.49-0.5-1.09-1.02-1.32"/>
	</g>
	<g>
		<path class="st19" d="M97.02,409.07c-0.87-0.49-1.62-1.17-2.19-1.99c-0.14-0.2-0.27-0.41-0.27-0.65c0-0.51,0.6-0.84,1.1-0.76
			c0.5,0.09,0.9,0.45,1.27,0.8c-0.36-0.38-0.52-0.96-0.31-1.44c0.21-0.48,0.84-0.75,1.3-0.49c0.45,0.25,0.56,0.84,0.62,1.35
			c0.06,0.51,0.12,1.03,0.01,1.52c-0.12,0.5-0.45,0.98-0.93,1.13"/>
		<path class="st19" d="M96.89,408.88c-1.07-1.11-2.93-1.35-4.24-0.54c-0.44,0.27-0.84,0.88-0.49,1.26c0.19,0.2,0.49,0.21,0.77,0.22
			c0.82,0,1.63,0,2.45,0.01c-0.57-0.17-1.18-0.23-1.75-0.05c-0.56,0.18-1.06,0.62-1.2,1.2c-0.03,0.14-0.05,0.3,0,0.43
			c0.11,0.31,0.48,0.44,0.81,0.48c1.5,0.18,3.05-0.78,3.57-2.2"/>
		<path class="st19" d="M96.94,410.08c-0.61,0.84-1,1.83-1.12,2.86c-0.03,0.26,0,0.6,0.25,0.69c0.12,0.04,0.26,0,0.38-0.06
			c0.65-0.32,0.87-1.13,1.02-1.84c0.19,0.44,0.06,0.94,0,1.41s-0.02,1.04,0.38,1.31c0.49,0.34,1.21-0.04,1.43-0.6
			c0.22-0.55,0.07-1.18-0.11-1.74c-0.32-1-0.75-1.96-1.28-2.86"/>
		<path class="st19" d="M97.88,408.83c0.91-0.39,1.84-0.74,2.78-1.02c0.66-0.2,1.48-0.33,1.93,0.19c0.06,0.07,0.11,0.16,0.1,0.25
			c-0.02,0.11-0.13,0.18-0.22,0.23c-0.72,0.37-1.56,0.5-2.36,0.36c-0.13,0.18,0.01,0.44,0.2,0.54c0.19,0.11,0.42,0.12,0.62,0.2
			c0.47,0.18,0.74,0.67,0.9,1.14c0.19,0.55,0.2,1.32-0.33,1.56c-0.52,0.23-1.08-0.25-1.36-0.74c-0.28-0.49-0.5-1.09-1.02-1.32"/>
	</g>
	<g>
		<path class="st20" d="M82.73,455.36c0.76-0.97,1.74-1.77,2.84-2.32c0.27-0.13,0.56-0.26,0.85-0.21c0.62,0.09,0.92,0.89,0.72,1.49
			c-0.2,0.6-0.72,1.02-1.21,1.41c0.53-0.37,1.28-0.47,1.82-0.12c0.54,0.35,0.76,1.17,0.37,1.69c-0.39,0.51-1.13,0.53-1.77,0.52
			c-0.63-0.02-1.28-0.04-1.87-0.27c-0.59-0.23-1.12-0.73-1.21-1.35"/>
		<path class="st20" d="M82.98,455.24c1.56-1.11,2.19-3.35,1.45-5.11c-0.25-0.59-0.92-1.19-1.45-0.83c-0.28,0.19-0.35,0.56-0.41,0.9
			c-0.15,1-0.31,2-0.46,3.01c0.31-0.66,0.5-1.41,0.38-2.13s-0.57-1.42-1.25-1.7c-0.17-0.07-0.35-0.11-0.53-0.07
			c-0.4,0.08-0.63,0.51-0.73,0.9c-0.5,1.8,0.39,3.89,2.04,4.78"/>
		<path class="st20" d="M81.5,455.08c-0.91-0.91-2.06-1.57-3.31-1.9c-0.32-0.08-0.74-0.11-0.89,0.19c-0.07,0.14-0.05,0.32,0,0.47
			c0.28,0.86,1.23,1.27,2.07,1.59c-0.57,0.15-1.16-0.1-1.73-0.26c-0.57-0.16-1.27-0.21-1.67,0.22c-0.51,0.54-0.17,1.5,0.47,1.87
			c0.64,0.37,1.43,0.3,2.16,0.18c1.28-0.21,2.54-0.56,3.75-1.05"/>
		<path class="st20" d="M82.86,456.46c0.32,1.19,0.56,2.39,0.74,3.61c0.12,0.84,0.13,1.88-0.59,2.33c-0.1,0.06-0.21,0.11-0.32,0.07
			c-0.13-0.04-0.2-0.19-0.24-0.32c-0.32-0.95-0.33-2.01,0-2.96c-0.19-0.19-0.54-0.07-0.7,0.14s-0.22,0.49-0.36,0.73
			c-0.31,0.54-0.95,0.78-1.57,0.89c-0.71,0.13-1.65,0-1.85-0.7c-0.19-0.68,0.5-1.28,1.16-1.53c0.66-0.25,1.43-0.41,1.8-1.01"/>
	</g>
	<g>
		<path class="st20" d="M130.82,404.35c0.96,0.77,1.75,1.76,2.29,2.87c0.13,0.27,0.25,0.56,0.2,0.85c-0.1,0.62-0.9,0.91-1.5,0.71
			c-0.59-0.2-1.01-0.73-1.4-1.23c0.37,0.53,0.45,1.29,0.09,1.83c-0.35,0.54-1.18,0.75-1.69,0.35c-0.5-0.4-0.52-1.14-0.49-1.78
			c0.03-0.63,0.05-1.28,0.3-1.87c0.24-0.59,0.74-1.11,1.37-1.19"/>
		<path class="st20" d="M130.94,404.61c1.09,1.57,3.32,2.23,5.09,1.51c0.59-0.24,1.2-0.91,0.85-1.44c-0.19-0.28-0.56-0.36-0.89-0.42
			c-1-0.17-2-0.33-3-0.5c0.66,0.32,1.4,0.51,2.13,0.41s1.43-0.55,1.71-1.23c0.07-0.17,0.11-0.35,0.08-0.53
			c-0.08-0.4-0.5-0.63-0.89-0.74c-1.8-0.52-3.89,0.35-4.81,1.98"/>
		<path class="st20" d="M131.12,403.13c0.92-0.9,1.59-2.05,1.94-3.28c0.09-0.32,0.11-0.73-0.17-0.89c-0.14-0.08-0.32-0.06-0.47-0.01
			c-0.86,0.27-1.29,1.21-1.61,2.05c-0.14-0.58,0.11-1.16,0.28-1.73s0.23-1.26-0.2-1.68c-0.53-0.51-1.5-0.19-1.87,0.44
			c-0.38,0.63-0.32,1.43-0.21,2.16c0.2,1.28,0.53,2.55,1,3.76"/>
		<path class="st20" d="M129.71,404.48c-1.19,0.3-2.4,0.53-3.61,0.7c-0.84,0.11-1.88,0.11-2.32-0.62c-0.06-0.1-0.1-0.21-0.07-0.32
			c0.04-0.13,0.19-0.2,0.32-0.24c0.96-0.31,2.01-0.3,2.96,0.03c0.19-0.19,0.08-0.54-0.14-0.7c-0.21-0.17-0.49-0.23-0.72-0.37
			c-0.54-0.31-0.77-0.96-0.87-1.58c-0.12-0.71,0.02-1.65,0.72-1.84c0.68-0.18,1.27,0.52,1.51,1.17s0.39,1.43,0.98,1.82"/>
	</g>
	<g>
		<path class="st19" d="M82.49,431.94c-0.87-0.49-1.62-1.17-2.19-1.99c-0.14-0.2-0.27-0.41-0.27-0.65c0-0.51,0.6-0.84,1.1-0.76
			c0.5,0.09,0.9,0.45,1.27,0.8c-0.36-0.38-0.52-0.96-0.31-1.44c0.21-0.48,0.84-0.75,1.3-0.49c0.45,0.25,0.56,0.84,0.62,1.35
			c0.06,0.51,0.12,1.03,0.01,1.52c-0.12,0.5-0.45,0.98-0.93,1.13"/>
		<path class="st19" d="M82.37,431.75c-1.07-1.11-2.93-1.35-4.24-0.54c-0.44,0.27-0.84,0.88-0.49,1.26c0.19,0.2,0.49,0.21,0.77,0.22
			c0.82,0,1.63,0,2.45,0.01c-0.57-0.17-1.18-0.23-1.75-0.05c-0.56,0.18-1.06,0.62-1.2,1.2c-0.03,0.14-0.05,0.3,0,0.43
			c0.11,0.31,0.48,0.44,0.81,0.48c1.5,0.18,3.05-0.78,3.57-2.2"/>
		<path class="st19" d="M82.42,432.96c-0.61,0.84-1,1.83-1.12,2.86c-0.03,0.26,0,0.6,0.25,0.69c0.12,0.04,0.26,0,0.38-0.06
			c0.65-0.32,0.87-1.13,1.02-1.84c0.19,0.44,0.06,0.94,0,1.41s-0.02,1.04,0.38,1.31c0.49,0.34,1.21-0.04,1.43-0.6
			c0.22-0.55,0.07-1.18-0.11-1.74c-0.32-1-0.75-1.96-1.28-2.86"/>
		<path class="st19" d="M83.36,431.7c0.91-0.39,1.84-0.74,2.78-1.02c0.66-0.2,1.48-0.33,1.93,0.19c0.06,0.07,0.11,0.16,0.1,0.25
			c-0.02,0.11-0.13,0.18-0.22,0.23c-0.72,0.37-1.56,0.5-2.36,0.36c-0.13,0.18,0.01,0.44,0.2,0.54c0.19,0.11,0.42,0.12,0.62,0.2
			c0.47,0.18,0.74,0.67,0.9,1.14c0.19,0.55,0.2,1.32-0.33,1.56c-0.52,0.23-1.08-0.25-1.36-0.74c-0.28-0.49-0.5-1.09-1.02-1.32"/>
	</g>
	<path class="st21" d="M147.95,446.88c9.98-2.66,19.53-7.75,25.84-15.69c0.54-0.68,1.19-1.45,2.08-1.47
		c0.47-0.01,0.91,0.2,1.31,0.43c5.12,2.96,6.43,10.04,4.14,15.36s-7.34,9.1-12.63,11.76c-14.96,7.55-32.55,7.98-49.42,8.1
		c-8.04,0.06-17.43-0.57-21.92-7.02c8.37-0.91,11.72-9.41,20.43-9.47C128.11,448.82,137.55,449.65,147.95,446.88z"/>
	<path class="st22" d="M113.62,410.54c5.67-0.5,11.39,1.17,16.19,4.72c0.53,0.39,1.08,0.85,1.32,1.56c0.23,0.69,0.13,1.5,0.02,2.26
		c-0.88,5.92-2.23,11.74-4.03,17.37c-0.92-0.43-1.9-0.67-2.89-0.71c0.68,0.75,1.35,1.51,2.03,2.26c-5.1,14.03-10.2,28.05-15.3,42.08
		c-0.18,0.51-0.38,1.03-0.72,1.38c-0.74,0.75-1.8,0.43-2.68,0.06c-4.11-1.71-8.49-3.66-10.97-8.05c-2.45-4.33-2.45-9.94-1.99-15.12
		c0.49-5.58,3.22-9.69,5.47-14.52c2.53-5.44,4.94-10.97,7.22-16.57C108,425.47,112.7,410.62,113.62,410.54z"/>
	<path class="st21" d="M109.47,452.23c4.72,1.85,9.85,2.37,14.91,2.7c-9.2,25.81-22.76,49.8-36.26,73.65
		c-1.18,2.08-3.44,4.5-5.5,3.29c-3.62-9.07-2.25-19.27-0.83-28.93c1.99-13.49,3.99-27.02,7.56-40.19c0.9-3.33,1.91-6.64,3.03-9.9
		c0.7-2.02,1.91-8.11,3.75-9.16c2.38-1.37,4.35,2.34,5.74,3.7C104.04,449.51,106.65,451.12,109.47,452.23z"/>
	<path class="st23" d="M110.1,421.36c-0.42,1.24,0.77,2.44,1.96,2.98c1.19,0.54,2.6,0.89,3.31,1.99c0.23,0.35,0.36,0.79,0.24,1.18
		c-0.08,0.25-0.26,0.46-0.42,0.68c-1.81,2.51-0.63,6-1.05,9.06c-0.12,0.86-0.4,1.75-1.08,2.3c-1.27,1.03-3.12,0.36-4.69-0.1
		c-1.64-0.48-3.37-0.67-5.07-0.56"/>
	<path class="st23" d="M108.99,425.07c-0.44,0.67,0.02,1.54,0.47,2.2c0.35,0.52,0.71,1.05,1.06,1.57c0.72,1.07,1.48,2.33,1.12,3.57
		c-0.32,1.1-1.47,1.8-2.61,1.91c-1.14,0.11-2.27-0.25-3.33-0.67"/>
	<path class="st23" d="M122.2,412.38c-0.55,1.81,0.07,3.92,1.51,5.13c0.66,0.55,1.45,0.92,2.23,1.29c1.29,0.6,2.58,1.2,3.87,1.8"/>
	<path class="st23" d="M125.17,413.62c-0.38,1.04,0.25,2.23,1.16,2.85c0.91,0.62,2.04,0.81,3.13,0.98"/>
	<path class="st23" d="M107.41,447.98c0.01,0,0.01-0.01,0.02-0.01c4.12-2.36,8.38-4.47,12.74-6.33"/>
	<path class="st23" d="M109.12,441.65c2.59,3.08,5.33,6.03,8.19,8.85"/>
	<path class="st24" d="M112.71,443.31c-0.05-1.21,0.57-2.42,1.58-3.09"/>
	<path class="st24" d="M116.43,438.36c0.65-0.34,1.3-0.68,1.96-1.02"/>
	<path class="st24" d="M120.93,435.99c0.69,0.03,1.39-0.19,1.95-0.6"/>
	<path class="st24" d="M125.12,433.44c0.55-0.71,0.96-1.53,1.2-2.39"/>
	<path class="st24" d="M125.99,429.09c0.47-0.78,0.35-1.87-0.29-2.52"/>
	<path class="st24" d="M124.21,424.92c-1.13-1.04-2.1-2.25-2.87-3.57"/>
	<path class="st24" d="M120.04,418.93c-0.39-0.7-0.79-1.4-1.18-2.1"/>
	<path class="st24" d="M118.28,414.29c-0.19-0.8-0.14-1.65,0.13-2.42"/>
	<path class="st24" d="M113.17,443.89c-0.5-0.3-1.18-0.08-1.57,0.35c-0.39,0.43-0.56,1.01-0.73,1.57c-0.12,0.41-0.23,0.89,0.02,1.24
		c0.13,0.18,0.33,0.3,0.55,0.37c1.29,0.44,2.7-0.66,3.05-1.98c0.1-0.37,0.13-0.79-0.05-1.13c-0.18-0.34-0.62-0.57-0.97-0.4"/>
	<path class="st25" d="M211.91,457.21c6.82,0.82,13.82,1.89,19.72,5.37c10.72,6.33,15.87,19.5,26.74,25.6
		c5.26,2.95,11.46,4,16.65,7.08c8.24,4.88,12.91,15.01,11.22,24.33c-1.91,10.49-10.64,18.38-19.44,24.6
		c-10.44,7.38-22,13.73-34.67,15.82c-12.67,2.09-26.65-0.62-35.93-9.36c7.1-6.5,12.99-14.27,17.31-22.81
		c1.88-3.72,3.49-8.04,2.03-11.94c-0.83-2.22-2.55-3.99-4.23-5.68c-7.42-7.46-14.91-14.85-22.47-22.16
		c-7.38-7.13-13.75-11.76-20.28-19.63c-6.9-8.3-13.35-3.81,13.54-12.12C191.61,453.36,202.04,456.02,211.91,457.21z"/>
	<path class="st25" d="M99.49,518.85c-2.47,6.15-4.32,12.79-9.03,17.61c-4.45,4.55-10.82,6.81-16.73,9.47
		c-5.9,2.66-11.94,6.27-14.31,12.06c-0.34,0.82-0.6,1.74,0.2,2.57c0.56,0.59,1.43,0.83,2.25,0.73c1.61-0.21,2.75-1.38,3.79-2.5
		c2.41-2.58,4.81-5.16,7.22-7.74c-2.22,4.78-4.06,9.73-5.49,14.77c-0.48,1.69,1.71,2.92,3.04,1.71c4.11-3.74,5.86-11.02,11.42-13.11
		c-2.99,5.23-4.64,11.15-4.75,17.11c-0.02,0.87,0.32,1.73,0.99,2.33c1.64,1.46,3.74,0.21,5.06-1.14c1.76-1.82,3.13-3.98,3.99-6.32
		c0.98-2.66,1.31-5.54,2.72-8.01c2.29-4.01,7.08-6.25,11.84-6.88c4.75-0.63,9.57,0.09,14.34,0.63c11.82,1.32,23.78,1.44,35.63,0.38
		c6.22-0.56,13.19-1.91,16.53-6.93c3.06-4.62,1.87-10.64,0.17-15.86c-2.13-6.52-5.05-13.04-10.22-17.77
		c-5.34-4.88-12.54-7.38-19.52-9.75c-6.53-2.22-19.72-9.89-25.78-5.62C108.38,499.71,99.49,513.49,99.49,518.85z"/>
	<path class="st25" d="M212.07,530.12c-4.49,3.88-11.27,2.17-17.2,1.99c-3.85-0.12-7.71,0.51-11.32,1.85
		c-0.95,0.35-2.07,1.07-1.88,2.07c0.17,0.91,1.29,1.23,2.21,1.38c3.44,0.53,6.87,1.06,10.31,1.58c-1.38,2.88-5.45,2.53-8.63,2.73
		c-3.19,0.19-6.31,1.41-8.78,3.43c0.55,1.3,2.2,1.66,3.61,1.76c4.67,0.33,9.4-0.29,13.83-1.81c-3.82,1.15-7.64,2.31-11.46,3.46
		c-2.83,0.86-6.2,2.36-6.36,5.32c-0.03,0.48,0.06,1,0.4,1.34c0.56,0.56,1.5,0.38,2.26,0.17c3.39-0.96,6.78-1.91,10.17-2.87
		c-1.51,1.11-3.49,1.31-5.21,2.06c-1.72,0.75-3.31,2.61-2.61,4.35c0.5,1.24,1.91,1.8,3.2,2.14c7.97,2.11,16.82,0.6,23.64-4.03
		c6.82-4.63,11.48-12.31,12.45-20.5"/>
	
		<ellipse transform="matrix(0.8457 -0.5337 0.5337 0.8457 -225.1929 199.5343)" class="st8" cx="232.41" cy="489.14" rx="0.84" ry="3.02"/>
	
		<ellipse transform="matrix(0.8457 -0.5337 0.5337 0.8457 -220.7967 203.9656)" class="st8" cx="242.27" cy="483.75" rx="0.84" ry="3.02"/>
	<circle class="st10" cx="227.36" cy="505.74" r="5.05"/>
	
		<ellipse transform="matrix(0.8457 -0.5337 0.5337 0.8457 -225.0694 223.0557)" class="st8" cx="273.14" cy="500.69" rx="2.02" ry="0.96"/>
	<path class="st26" d="M275.67,494.63c2.25-2.69,5.52-4.42,8.92-5.26s6.97-0.85,10.47-0.55"/>
	<path class="st26" d="M266.77,504.67c-8.35,1.94-15.62,8.06-18.94,15.96"/>
	<path class="st26" d="M274.22,493.68c-0.31-0.03-0.36-0.47-0.29-0.77c0.48-2.26,2.19-4.04,3.86-5.64"/>
	<path class="st26" d="M269.71,506.13c-3.95,1.82-6.73,5.95-6.93,10.3"/>
	<path class="st26" d="M281.05,499.22c3.28-1.97,7.78-1.67,10.77,0.73"/>
	<path class="st26" d="M273.75,506.96c-2.75,1.15-4.13,4.3-4.48,7.26c-0.35,2.96,0.06,5.98-0.39,8.93"/>
	<path class="st27" d="M244.99,384.42c-10.98,3.39-18.08,13.75-24.12,23.53c-14.92,24.15-28.85,49.3-36.47,76.64"/>
	<path class="st27" d="M258.63,387.24c0.05,3.62,0.97,7.22,2.65,10.41c0.63,1.19,1.44,2.39,2.66,2.91c1.79,0.76,3.94-0.23,5.12-1.8
		c1.18-1.57,1.6-3.58,1.93-5.53c1.25-7.45,1.55-15.06,0.89-22.58c-0.31-3.57-0.4-8.04,2.71-9.74c0.5-0.27,1.15-0.44,1.63-0.12
		c0.48,0.32,0.45,1.25-0.12,1.34"/>
	<path class="st27" d="M285.63,369.22c4.82,12.12,1.83,25.95-3.03,38.07c-7.14,17.82-18.22,34.05-32.21,47.19
		c-4.45,4.17-9.23,8.1-12.66,13.15"/>
	<path class="st21" d="M199.1,461.69c4.5-4.75,9.92-9.18,16.41-10.07s13.97,3.12,14.79,9.61c-2.91,0.32-5.68-1.82-8.58-1.47
		c-1.92,0.23-3.53,1.51-5,2.76c-9.42,7.98-18.08,16.85-25.85,26.44c-0.24,0.3-5.52-4.9-5.66-5.48c-0.65-2.58,1.46-4.88,2.74-7.17
		C190.9,471.02,194.94,466.08,199.1,461.69z"/>
</g>
</svg>
