<?xml version="1.0" encoding="utf-8"?>
<!-- Generator: Adobe Illustrator 16.0.0, SVG Export Plug-In . SVG Version: 6.00 Build 0)  -->
<!DOCTYPE svg PUBLIC "-//W3C//DTD SVG 1.1//EN" "http://www.w3.org/Graphics/SVG/1.1/DTD/svg11.dtd">
<svg version="1.1" id="Calque_1" xmlns="http://www.w3.org/2000/svg" xmlns:xlink="http://www.w3.org/1999/xlink" x="0px" y="0px"
	 width="405.102px" height="158.163px" viewBox="0 0 405.102 158.163" enable-background="new 0 0 405.102 158.163"
	 xml:space="preserve">
<g>
	<g>
		<path fill="#F47A50" d="M112.115,108.157c-4.258-2.351-7.507-5.777-9.746-10.278c-2.24-4.501-3.359-9.923-3.359-16.267V70.369
			c0-6.253,1.119-11.609,3.359-16.066c2.239-4.457,5.488-7.85,9.746-10.179c4.258-2.328,9.38-3.493,15.368-3.493
			c5.987,0,11.11,1.165,15.368,3.493c4.258,2.329,7.506,5.722,9.747,10.179c2.239,4.457,3.36,9.813,3.36,16.066v11.442
			c0,6.299-1.121,11.676-3.36,16.134c-2.24,4.457-5.489,7.861-9.747,10.212c-4.257,2.352-9.38,3.525-15.368,3.525
			C121.496,111.683,116.374,110.509,112.115,108.157z M138.494,94.319c2.595-2.971,3.892-7.141,3.892-12.508V70.369
			c0-5.366-1.297-9.514-3.892-12.44c-2.594-2.928-6.265-4.391-11.01-4.391c-4.746,0-8.416,1.463-11.01,4.391
			c-2.595,2.927-3.892,7.075-3.892,12.44v11.442c0,5.367,1.297,9.537,3.892,12.508c2.595,2.972,6.264,4.457,11.01,4.457
			C132.229,98.776,135.899,97.291,138.494,94.319z"/>
		<path fill="#F47A50" d="M186.361,108.157c-4.258-2.351-7.507-5.777-9.746-10.278c-2.241-4.501-3.36-9.923-3.36-16.267V70.369
			c0-6.253,1.119-11.609,3.36-16.066c2.239-4.457,5.488-7.85,9.746-10.179c4.258-2.328,9.38-3.493,15.368-3.493
			c5.987,0,11.109,1.165,15.367,3.493c4.258,2.329,7.506,5.722,9.747,10.179c2.239,4.457,3.359,9.813,3.359,16.066v11.442
			c0,6.299-1.12,11.676-3.359,16.134c-2.241,4.457-5.489,7.861-9.747,10.212c-4.258,2.352-9.38,3.525-15.367,3.525
			C195.741,111.683,190.619,110.509,186.361,108.157z M212.739,94.319c2.596-2.971,3.893-7.141,3.893-12.508V70.369
			c0-5.366-1.297-9.514-3.893-12.44c-2.594-2.928-6.265-4.391-11.01-4.391c-4.747,0-8.416,1.463-11.011,4.391
			c-2.594,2.927-3.892,7.075-3.892,12.44v11.442c0,5.367,1.297,9.537,3.892,12.508c2.595,2.972,6.264,4.457,11.011,4.457
			C206.474,98.776,210.145,97.291,212.739,94.319z"/>
	</g>
	<g>
		<path fill="#68C6B4" d="M6.522,4.729h20.638v147.099H6.522V4.729z M22.709,87.282L87.66,4.729h25.393L19.674,118.241
			L22.709,87.282z M47.192,73.321L63.48,58.248l55.744,93.581H93.932L47.192,73.321z"/>
	</g>
	<g>
		<g>
			<path fill="#68C6B4" d="M254.297,151.828h-84.173v-19.626h84.173V151.828z M264.616,151.828h-20.639V4.729h20.639V151.828z"/>
		</g>
	</g>
	<path fill="#8C5FA8" d="M298.307,73.572c0,0-2.132-1.137-6.396-3.414c-4.262-2.276-7.518-5.583-9.766-9.921
		c-2.25-4.337-3.373-9.576-3.373-15.719V33.502c0-6.056,1.123-11.23,3.373-15.525c2.248-4.294,5.504-7.57,9.766-9.824
		c4.265-2.255,9.408-3.382,15.432-3.382c3.437,0,6.671,0.419,9.703,1.256c3.033,0.837,5.759,2.051,8.178,3.64
		c2.419,1.589,4.432,3.522,6.045,5.797l-9.354,8.503c-1.867-2.146-4.051-3.801-6.553-4.96c-2.505-1.159-5.112-1.739-7.828-1.739
		c-5.005,0-8.887,1.417-11.644,4.251c-2.758,2.834-4.137,6.829-4.137,11.982v11.016c0,5.283,1.369,9.363,4.104,12.24
		c2.735,2.878,6.628,4.316,11.676,4.316c2.758,0,5.388-0.622,7.891-1.868c2.503-1.246,4.667-3.005,6.49-5.282l9.354,9.147
		c-1.653,2.233-3.69,4.134-6.108,5.701c-2.418,1.568-5.144,2.76-8.177,3.576c-3.034,0.815-6.247,1.224-9.641,1.224
		C301.319,73.572,298.307,73.572,298.307,73.572z"/>
	<path fill="#8C5FA8" d="M348.661,68.45c-4.08-3.414-6.119-8.6-6.119-15.557c0-6.613,1.868-11.574,5.604-14.881
		c3.735-3.306,9.383-4.96,16.941-4.96h19.005l0.901,10.565h-19.841c-3.437,0-6.002,0.763-7.698,2.287
		c-1.697,1.524-2.545,3.855-2.545,6.99c0,3.393,1.127,5.905,3.382,7.537c2.255,1.633,5.68,2.448,10.275,2.448
		c5.025,0,8.771-0.537,11.241-1.611c2.47-1.073,3.705-2.748,3.705-5.024l1.353,9.405c-1.16,1.804-2.588,3.286-4.284,4.445
		c-1.698,1.159-3.662,2.029-5.895,2.608c-2.233,0.58-4.746,0.87-7.537,0.87C358.905,73.572,352.741,71.864,348.661,68.45z
		 M383.513,30.217c0-4.38-1.171-7.784-3.512-10.21c-2.342-2.426-5.659-3.64-9.953-3.64c-2.663,0-5.272,0.409-7.827,1.224
		c-2.555,0.817-4.821,1.955-6.796,3.414l-9.599-6.57c2.534-3.049,5.872-5.421,10.018-7.118c4.144-1.696,8.75-2.545,13.818-2.545
		c5.539,0,10.285,0.978,14.236,2.931c3.951,1.955,6.958,4.789,9.02,8.503c2.062,3.715,3.092,8.193,3.092,13.432v42.968h-12.497
		V30.217z"/>
	<path fill="#8C5FA8" d="M278.772,49.851h13.142v101.732h-13.142V49.851z M284.44,126.202l34.4-41.486h15.461l-50.698,57.076
		L284.44,126.202z M299.966,112.995l8.438-8.761l29.184,47.349h-14.301L299.966,112.995z"/>
	<path fill="#8C5FA8" d="M366.64,152.55c0,0-2.19-1.16-6.57-3.479c-4.381-2.32-7.721-5.723-10.019-10.211
		c-2.297-4.487-3.446-9.91-3.446-16.266v-7.537c0-6.613,1.105-12.262,3.318-16.943c2.212-4.68,5.421-8.245,9.631-10.693
		c4.208-2.448,9.276-3.672,15.203-3.672c5.582,0,10.35,1.396,14.3,4.188c3.951,2.791,6.968,6.828,9.053,12.11
		c2.082,5.282,3.124,11.618,3.124,19.005v4.381H356.14v-10.566h32.597c-0.386-5.453-1.794-9.695-4.219-12.723
		c-2.428-3.027-5.681-4.541-9.761-4.541c-4.982,0-8.837,1.633-11.563,4.896c-2.728,3.265-4.09,7.882-4.09,13.851v8.504
		c0,5.539,1.459,9.791,4.38,12.754c2.921,2.964,7.064,4.445,12.434,4.445c2.662,0,5.304-0.536,7.924-1.609
		c2.618-1.073,4.961-2.577,7.021-4.51l8.634,8.632c-3.308,3.179-7.023,5.637-11.145,7.376c-4.124,1.739-8.269,2.609-12.434,2.609
		C369.733,152.55,366.64,152.55,366.64,152.55z"/>
</g>
</svg>
