<?xml version="1.0" encoding="utf-8"?>
<!-- Generator: Adobe Illustrator 16.0.0, SVG Export Plug-In . SVG Version: 6.00 Build 0)  -->
<!DOCTYPE svg PUBLIC "-//W3C//DTD SVG 1.1//EN" "http://www.w3.org/Graphics/SVG/1.1/DTD/svg11.dtd">
<svg version="1.1" id="Calque_1" xmlns="http://www.w3.org/2000/svg" xmlns:xlink="http://www.w3.org/1999/xlink" x="0px" y="0px"
	 width="350.5px" height="710.5px" viewBox="0 -76.5 350.5 710.5" enable-background="new 0 -76.5 350.5 710.5"
	 xml:space="preserve">
<g>
	<path fill="#C69F75" stroke="#3D3D3D" stroke-width="2" stroke-miterlimit="10" d="M35.55,556.183
		c-0.321-0.155-0.653-0.311-0.984-0.291c-0.86,0.072-1.256,1.223-1.474,2.2c-0.674,2.985-1.349,5.962-2.021,8.949
		c1.586-0.188,3.245,0.238,4.676,1.192c-1.098,8.961-1.234,18.159-0.403,27.307c-1.339,0.259-2.677,0.518-4.014,0.767
		c0.155,2.353,0.444,4.707,0.86,7.031c0.094,0.539,0.238,1.142,0.643,1.432c0.271,0.187,0.591,0.197,0.893,0.187
		c2.778-0.021,5.569-0.04,8.348-0.051c-3.101-15.64,6.024-29.359,4.19-44.635C42.467,559.284,39.241,557.986,35.55,556.183z"/>
	<path fill="#C69F75" stroke="#3D3D3D" stroke-width="2" stroke-miterlimit="10" d="M56.633,524.107
		c-0.259-0.157-0.539-0.312-0.84-0.342c-0.779-0.063-1.298,0.748-1.649,1.44c-1.047,2.125-2.104,4.252-3.152,6.379
		c1.441,0.062,2.862,0.578,3.992,1.473c-2.333,6.502-3.838,13.306-4.48,20.19c-1.234,0.022-2.468,0.042-3.702,0.063
		c-0.218,1.763-0.321,3.547-0.29,5.32c0,0.415,0.042,0.871,0.353,1.141c0.207,0.176,0.499,0.216,0.769,0.248
		c2.488,0.332,4.966,0.675,7.455,1.007c-0.396-11.979,9.81-21.011,10.474-32.564C62.326,527.27,59.651,525.901,56.633,524.107z"/>
	<path fill="#232323" stroke="#3D3D3D" stroke-width="2" stroke-miterlimit="10" d="M102.833,118.041
		c-2.936,2.115-6.067,4.315-9.677,4.595c-3.607,0.28-7.685-2.23-7.694-5.85c-0.011-2.809,2.281-5.029,4.408-6.885
		c7.455-6.533,14.912-13.066,22.368-19.589c0.727-0.633,1.503-1.369,1.566-2.323c0.041-0.52-0.146-1.017-0.322-1.504
		c-8.078-21.529-25.626-38.256-35.124-59.194c-4.47-9.841-11.771-22.006-16.147-31.9c-4.998-11.272-7.509-19.837-13.294-30.738
		c-0.716-1.338-1.422-2.841-1.079-4.324c0.248-1.089,1.037-1.97,1.846-2.749c3.755-3.66,8.442-6.336,13.502-7.705
		c3.112-0.851,6.513-1.192,9.54-0.063c2.677,0.996,4.823,3.028,6.834,5.051c30.034,30.365,46.647,71.338,72.573,105.28
		c1.421,1.856,3.266,3.89,5.601,3.712c1.171-0.083,2.209-0.726,3.204-1.348c6.035-3.797,12.083-7.592,18.118-11.398
		c3.392-2.137,7.456-4.345,11.188-2.882c3.383,1.327,5.062,5.476,4.365,9.053c-0.694,3.567-3.287,6.523-6.283,8.586"/>
	<path fill="#232323" stroke="#3D3D3D" stroke-width="2" stroke-miterlimit="10" d="M132.327,460.08
		c-0.271,7.425-0.125,14.985,1.98,22.109c2.116,7.126,6.409,13.855,12.851,17.559c3.339-11.148,10.702-22.287,22.017-25.014
		c3.12-0.748,6.366-0.81,9.53-1.368c3.163-0.553,6.387-1.702,8.494-4.127c2.105-2.428,2.664-6.39,0.561-8.815
		c-0.602-0.695-1.369-1.213-2.136-1.721c-9.904-6.493-21.364-10.558-33.114-11.938C139.036,445.209,132.866,445.468,132.327,460.08z
		"/>
	<path fill="#FFFFFF" stroke="#3D3D3D" stroke-width="2" stroke-miterlimit="10" d="M60.459,529.292
		c-2.634,2.791-3.495,6.764-4.251,10.527c-1.557,7.777-3.081,15.939-0.788,23.54c1.181,3.92,3.648,7.778,7.508,9.146
		c3.857,1.369,9.012-0.923,9.427-4.997c0.186-1.847-0.56-3.64-1.245-5.361c-1.451-3.64-2.707-7.55-2.104-11.419
		c0.591-3.867,3.589-7.642,7.509-7.85c0.414-2.759,0.828-5.601,0.165-8.318C75.094,528.111,65.396,524.065,60.459,529.292z"/>
	<path fill="#FFFFFF" stroke="#3D3D3D" stroke-width="2" stroke-miterlimit="10" d="M42.56,562.924
		c-2.635,2.791-3.496,6.762-4.252,10.526c-1.556,7.778-3.08,15.938-0.787,23.541c1.183,3.921,3.648,7.776,7.509,9.146
		c3.856,1.369,9.012-0.924,9.426-4.999c0.188-1.846-0.561-3.64-1.245-5.361c-1.453-3.64-2.707-7.55-2.104-11.417
		c0.601-3.869,3.586-7.643,7.506-7.852c0.417-2.756,0.831-5.6,0.167-8.316C57.183,561.742,47.497,557.708,42.56,562.924z"/>
	<path fill="#2F91D3" stroke="#3D3D3D" stroke-width="2" stroke-miterlimit="10" d="M144.221,303.538
		c0.177,2.25,0.363,4.573,1.41,6.564c3.477,6.596,13.047,5.621,20.274,3.857c42.581-10.359,86.634-14.673,130.42-12.776
		c5.765,0.249,12.277,0.975,15.805,5.549c3.535,4.573-0.186,13.451-5.693,11.719c0.03-2.458-2.417-4.646-4.854-4.334
		c-3.723,4.967,4.241,12.019,9.862,9.384c5.62-2.634,7.218-10.068,6.086-16.178c0.447,7.114-3.183,14.353-9.156,18.253
		c3.993,2.332,9.396,0.082,12.103-3.672s3.391-8.545,4.003-13.14c0.342,6.067-2.893,12.196-8.088,15.327
		c9.073,0.404,13.813-12.342,9.498-20.337c-4.314-7.995-13.522-11.812-22.12-14.768c-9.872-3.391-19.942-6.45-30.323-7.632
		c-28.603-3.268-57.005,7.798-85.795,7.56c-5.808-0.052-12.111-0.768-16.322-4.771c-9.727-9.219,4.905-46.387-17.443-38.816
		C136.941,251.095,142.885,290.139,144.221,303.538z"/>
	<path fill="#656666" stroke="#3D3D3D" stroke-width="2" stroke-miterlimit="10" d="M176.215,371.744
		c3.92-0.258,7.984-0.486,11.636,0.944c3.09,1.212,5.589,3.526,8.026,5.786c19.146,17.796,38.298,35.592,57.441,53.377
		c2.553,2.375,5.237,4.967,5.975,8.379c0.696,3.194-0.477,6.472-1.824,9.447c-8.899,19.673-25.947,34.451-43.868,46.501
		c-45.454,30.552-99.908,47.528-154.664,48.214c-2.396-6.099,2.063-13.12,7.934-16.034c5.868-2.913,12.692-2.861,19.246-3.09
		c39.242-1.358,77.944-15.338,108.993-39.376c6.035-4.668,12.02-10.039,14.571-17.215c5.342-14.985-6.503-31.049-20.378-38.828
		c-13.877-7.779-30.138-10.722-43.67-19.091c-8.659-5.363-26.787-24.703-16.044-34.866
		C136.88,369.006,166.664,372.377,176.215,371.744z"/>
	<path fill="#848484" stroke="#3D3D3D" stroke-width="2" stroke-miterlimit="10" d="M165.689,407.781
		c3.92-0.258,7.985-0.487,11.636,0.943c3.091,1.213,5.589,3.527,8.027,5.786c19.145,17.796,38.297,35.593,57.441,53.377
		c2.552,2.375,5.237,4.968,5.975,8.38c0.695,3.193,0.352,6.348-0.994,9.322c-8.9,19.674-26.778,34.587-44.697,46.627
		c-45.456,30.549-99.911,47.526-154.666,48.21c-2.396-6.098,2.063-13.117,7.933-16.033c5.869-2.914,12.693-2.861,19.247-3.089
		c39.242-1.36,77.946-15.337,108.993-39.377c6.037-4.667,12.021-10.039,14.571-17.215c5.342-14.985-6.501-31.048-20.379-38.828
		c-13.875-7.776-30.136-10.723-43.67-19.092c-8.659-5.361-26.786-24.702-16.043-34.864
		C126.344,405.044,156.138,408.415,165.689,407.781z"/>
	<path fill="#D8D8D8" stroke="#3D3D3D" stroke-width="2" stroke-miterlimit="10" d="M205.397,253.749
		c4.076,5.041,8.151,10.09,12.228,15.131c2.955,3.661,6.108,7.965,5.392,12.663c-0.362,2.406-1.72,4.521-3.141,6.471
		c-3.019,4.168-6.431,8.037-10.185,11.512c-3.982-14.322-12.506-26.818-18.283-40.486c-2.042-4.823-3.732-9.8-5.07-14.882
		c-2.292-8.7,2.239-7.353,7.477-2.975C198.18,244.82,201.819,249.311,205.397,253.749z"/>
	<path fill="#31A2FF" stroke="#3D3D3D" stroke-width="2" stroke-miterlimit="10" d="M234.011,137.537
		c4.065,25.843-7.613,53.533-28.965,68.653c-10.413,7.374-24.34,14.218-25.046,26.964c-0.445,8.068,4.098,18.49-2.748,22.784
		c-6.118,3.847-13.751-3.35-15.119-10.454c-1.36-7.093,0.269-14.819-2.759-21.384c-4.314-9.386-15.847-12.351-24.993-17.163
		c-21.674-11.387-32.916-38.206-28.945-62.357c3.974-24.154,21.396-44.904,43.123-56.188c20.263-10.516,37.727-10.817,56.248,2.509
		C220.061,101.863,231.084,118.913,234.011,137.537z"/>
	<path fill="#FFFFFF" stroke="#3D3D3D" stroke-width="2" stroke-miterlimit="10" d="M106.151,291.062
		c6.202,4.325,12.673,8.266,19.362,11.792c1.036,0.55,2.178,0.902,3.35,0.944c8.659,0.3,6.824-13.98,13.638-18.491
		c-7.082,20.948-14.165,41.887-21.249,62.835c-3.328,9.851-6.69,19.808-7.676,30.136c-1.037,10.908,0.603,21.913,3.06,32.594
		c0.385,1.669,0.841,3.434,2.054,4.646c1.618,1.628,4.148,1.878,6.45,2.032c26.87,1.824,55.917,3.11,78.484-11.512
		c2.499-1.616,4.977-3.525,6.306-6.18c1.867-3.743,1.13-8.173,0.55-12.3c-4.667-33.029,3.836-66.766,0.218-99.929
		c-2.023-18.553-8.972-38.039-23.666-49.167c-1.783-1.348-6.214-0.197-6.564,2.001c-0.871,5.382-2.48,10.257-7.736,11.542
		c-5.724,1.4-9.417-4.574-10.993-9.499c-0.819-2.541-4.334-2.032-6.938-1.41C132.036,246.542,112.375,270.021,106.151,291.062z"/>
	
		<ellipse transform="matrix(-0.9957 0.0931 -0.0931 -0.9957 410.668 267.8026)" fill="#3D3D3D" cx="199.09" cy="143.477" rx="0.871" ry="3.132"/>
	
		<ellipse transform="matrix(-0.9957 0.0931 -0.0931 -0.9957 363.4251 274.4461)" fill="#3D3D3D" cx="175.313" cy="145.697" rx="0.871" ry="3.132"/>
	<path fill="none" stroke="#3D3D3D" stroke-width="2" stroke-miterlimit="10" d="M196.469,170.868
		c-1.586,2.665-4.5,4.49-7.602,4.749c-3.102,0.26-6.275-1.067-8.275-3.432"/>
	<circle fill="#FF78E6" cx="153.514" cy="158.134" r="5.237"/>
	<circle fill="#FF78E6" cx="219.273" cy="151.984" r="5.237"/>
	<path fill="#31A2FF" stroke="#3D3D3D" stroke-width="2" stroke-miterlimit="10" d="M109.74,332.336
		c0.177,2.25,0.363,4.573,1.411,6.564c3.474,6.596,13.047,5.621,20.273,3.857c42.581-10.361,86.636-14.674,130.419-12.777
		c5.767,0.249,12.279,0.976,15.806,5.549c3.535,4.573-0.187,13.451-5.692,11.718c0.029-2.457-2.417-4.645-4.854-4.335
		c-3.725,4.967,4.24,12.02,9.861,9.385c5.621-2.633,7.218-10.068,6.087-16.178c0.445,7.115-3.185,14.354-9.158,18.252
		c3.993,2.334,9.396,0.083,12.103-3.67c2.708-3.755,3.392-8.545,4.004-13.139c0.341,6.066-2.895,12.195-8.09,15.325
		c9.075,0.405,13.813-12.34,9.5-20.335c-4.314-7.996-13.523-11.813-22.121-14.769c-9.871-3.391-19.941-6.449-30.323-7.632
		c-28.6-3.266-57.006,7.799-85.794,7.561c-5.809-0.053-12.113-0.768-16.324-4.77c-9.727-9.22,4.905-46.388-17.442-38.817
		C102.46,279.893,108.401,318.938,109.74,332.336z"/>
	<path fill="#232323" stroke="#3D3D3D" stroke-width="2" stroke-miterlimit="10" d="M221.149,279.592
		c30.294-4.054,63.032-4.148,88.907,13.347c-5.382,5.33-10.755,10.65-16.137,15.98c-0.737,0.727-1.494,1.473-2.438,1.826
		c-1.492,0.56-3.12,0.031-4.623-0.467c-24.154-7.975-50.392-8.473-74.794-1.432c-1.067,0.312-2.209,0.634-3.256,0.271
		c-1.835-0.623-2.581-2.925-3.079-4.926c-2.084-8.285-22.368-64.566-16.894-67.709c4.906-2.822,18.948,13.016,21.551,16.448
		C211.67,254.641,223.878,279.219,221.149,279.592z"/>
	<path fill="#232323" stroke="#3D3D3D" stroke-width="2" stroke-miterlimit="10" d="M203.832,367.213
		c0.425,7.85,0.04,16.479,4.956,22.616c1.648,2.054,3.774,3.662,5.829,5.31c4.271,3.434,8.296,7.166,12.029,11.159
		c1.348-13.575,2.313-27.182,2.902-40.798c0.157-3.586,0.291-7.176,0.146-10.764c-0.271-7.146-1.617-14.238-3.962-20.99
		c-0.715-2.064-1.69-4.273-3.65-5.217c-1.328-0.642-2.883-0.58-4.355-0.394c-6.42,0.82-17.766,5.259-19.332,12.332
		C197.069,346.471,203.457,360.306,203.832,367.213z"/>
	<path fill="#232323" stroke="#3D3D3D" stroke-width="2" stroke-miterlimit="10" d="M168.021,391.458
		c-13.781,17.372-37.747,22.359-56.051,34.867c-24.92,17.018-38.226,49.487-32.418,79.094
		c-10.641-3.036-13.553-16.633-13.492-27.688c0.052-8.296,0.716-16.706,3.432-24.547c4.159-11.988,12.808-21.819,19.03-32.885
		c12.683-22.565,14.935-49.508,25.108-73.308c0.788-1.856,1.659-3.733,3.101-5.134c1.565-1.535,3.67-2.375,5.745-3.11
		c20.201-7.177,44.105-8.442,64.555-1.472c-0.352,4.117-3.183,5.019-4.552,8.73c-1.836,4.947-1.44,11.324-2.479,16.551
		C177.968,372.865,174.66,383.109,168.021,391.458z"/>
	<g>
		<path fill="#232323" stroke="#3D3D3D" stroke-width="2" stroke-miterlimit="10" d="M262.745,331.838
			c-0.787,1.338-1.626,2.707-2.892,3.599c-1.897,1.318-4.386,1.318-6.688,1.276c-39.791-0.684-79.666,4.087-118.161,14.145
			c-7.343,1.92-15.266,4.003-22.339,1.256c-8.99-3.496-13.48-13.67-15.016-23.2c-3.039-18.926,2.022-38.475,10.992-55.42
			c8.836-16.686,23.894-32.573,42.778-32.832c12.372,14.207,24.817,28.343,37.343,42.405c6.369-15.152,4.772-33.393-4.125-47.217
			c15.928,20.389,26.236,45.134,29.471,70.81c14.646-1.919,29.556-1.473,44.077,1.213
			C277.689,311.482,271.167,317.662,262.745,331.838z"/>
		<path fill="none" stroke="#3D3D3D" stroke-width="2" stroke-miterlimit="10" d="M144.646,275.423
			c-8.409,11.479-14.466,24.671-17.682,38.526c-0.321,1.401-0.508,3.132,0.613,4.025c0.89,0.706,2.178,0.497,3.286,0.247
			c11.718-2.602,23.386-5.774,35.365-6.501c14.569-0.871,29.597,1.867,43.575-2.323"/>
	</g>
	<path fill="#EDD19F" stroke="#3D3D3D" stroke-width="2" stroke-miterlimit="10" d="M217.251,120.986
		c-2.925-7.446-10.248-12.953-18.047-13.223c9.885-1.773,20.077,4.148,25.585,12.839c4.854,7.675,6.502,17.08,6.191,26.3
		c-0.022,0.56,0.778,0.674,0.922,0.135c1.806-6.876,1.317-14.394-1.439-20.938c2.562,7.073,5.154,14.259,5.808,21.788
		c0.652,7.529,8.224,8.525,3.422,14.218c8.08-8.805,3.557-13.553,5.496-25.532c1.15-7.104,1.421-14.517-0.653-21.393
		c-2.075-6.876-6.772-13.161-13.284-15.681c5.301-2.012,11.656-0.228,15.473,4.033c0.374,0.415,1.036,0.042,0.871-0.487
		c-4.356-14.54-16.427-26.403-30.738-29.928c2.624-3.454,7.561-2.261,11.595-0.27c0.466,0.227,0.941-0.312,0.641-0.737
		c-5.691-8.182-15.037-13.574-24.763-14.188c-10.381-0.643-20.938,4.159-27.503,12.527c-1.151-4.967-5.641-8.887-10.558-9.229
		c-4.229-0.291-8.492,2.105-10.722,5.818c-0.343,0.571,0.26,1.244,0.859,0.955c3.341-1.618,7.271-2.563,9.636,0.093
		c1.836,2.053-3.869,6.222-5.383,8.535c-1.524,2.313,0.56-0.82-1.897,0.332c-8.826,4.086-17.361-5.32-26.528-2.147
		c-8.037,2.79-20.036,9.624-25.617,17.381c-0.435,0.602,0.199,1.412,0.883,1.14c4.18-1.648,7.903,3.724,14.445,5.496
		c-13.72,3.714-16.842,12.611-25.262,24.435c-7.986,11.2-10.994,26.662-6.006,39.5c0.157,0.405,0.758,0.28,0.747-0.155
		c-0.125-7.446,3.434-14.923,9.313-19.238c-4.45,10.754-3.815,23.188-0.528,34.378c2.904,9.883,7.715,19,12.724,27.949
		c0.373,0.675,1.41,0.3,1.276-0.456c-1.681-9.396-3.079-18.916-2.084-28.384c1.13-10.827,5.858-21.778,14.685-27.69l3.193,5.175
		c0.136,0.219,0.456,0.136,0.487-0.114c1.38-16.23,11.574-31.37,25.834-38.267c4.065,3.785,4.428,10.827,1.368,15.379
		c-0.206,0.312,0.198,0.674,0.488,0.436c8.255-6.741,12.392-18.708,9.77-29.317c1.514,6.15,19.102-3.691,21.155-5.351
		c-1.233,3.909-5.757,10.193-3.452,14.415c3.722,6.825,22.141,5.02,30.509,10.391C216.764,122.303,217.522,121.681,217.251,120.986z
		"/>
	<path fill="#FFFFFF" d="M118.556,50.229c6.544-3.06,13.388-9.614,17.235-13.46c0.767-0.768,1.618-1.329,2.239-0.436
		c3.144,4.491,5.851,11.387,10.236,14.893c-10.774,10.184-22.971,19.081-36.204,26.413c-0.693,0.384-1.43,0.778-2.25,0.831
		c-2.406,0.134-3.661-2.5-4.471-4.594c-1.411-3.65-7.374-9.385-4.542-13.336C102.999,57.478,114.593,52.075,118.556,50.229z"/>
	
		<ellipse transform="matrix(-0.9957 0.0931 -0.0931 -0.9957 376.6568 233.7024)" fill="#3BFFF5" cx="182.88" cy="125.633" rx="2.002" ry="3.194"/>
	
		<ellipse transform="matrix(-0.061 0.9981 -0.9981 -0.061 355.6729 -47.8497)" opacity="0.45" fill="#FFFFFF" enable-background="new    " cx="200.343" cy="143.371" rx="15.066" ry="12.775"/>
	
		<ellipse transform="matrix(-0.061 0.9981 -0.9981 -0.061 356.433 -46.9456)" fill="none" stroke="#874600" stroke-width="5" stroke-miterlimit="10" cx="200.298" cy="144.179" rx="16" ry="13.573"/>
	<path fill="none" stroke="#3D3D3D" stroke-width="2" stroke-miterlimit="10" d="M202.357,159.451
		c-0.662,1.005-0.767,2.354-0.258,3.442c0.218,0.478,0.55,0.912,0.964,1.245c1.245,0.975,3.246,0.788,4.284-0.404
		c1.036-1.193,0.953-3.194-0.188-4.294"/>
	<path fill="none" stroke="#A0A0A0" stroke-width="2" stroke-miterlimit="10" d="M205.531,164.045
		c-0.518-0.54-1.555,0.072-1.545,0.819c0.011,0.747,0.717,1.328,1.442,1.494c0.485,0.114,1.047,0.072,1.44-0.238
		c0.394-0.312,0.551-0.945,0.24-1.338"/>
	<path fill="none" stroke="#A0A0A0" stroke-width="2" stroke-miterlimit="10" d="M206.114,166.451
		c-3.226,3.744-2.926,9.479-0.946,14.001c1.992,4.521,5.374,8.255,8.112,12.362c6.418,9.624,9.271,21.57,7.891,33.05
		c-0.485,4.034-1.473,7.995-2.664,11.886c-2.645,8.586-6.348,16.852-10.982,24.557c-1.847,3.06-3.848,6.057-5.155,9.385
		c-1.306,3.329-1.875,7.082-0.757,10.474"/>
	<path fill="none" stroke="#3D3D3D" stroke-width="2" stroke-miterlimit="10" d="M194.883,281.863
		c-0.291,0.321-0.322,0.788-0.343,1.224c-0.177,3.951-0.352,7.923,0.155,11.843c0.177,1.348,0.437,2.707,1.019,3.94
		c1.409,2.986,4.802,4.896,8.078,4.563c1.556-0.156,3.101-0.82,4.085-2.033c1.464-1.794,1.422-4.335,1.225-6.638
		c-0.362-4.055-1.018-8.078-1.959-12.03c-0.125-0.518-0.271-1.068-0.686-1.41c-0.942-0.788-4.334,0.82-5.394,0.995
		C200.451,282.423,194.716,282.05,194.883,281.863z"/>
	<path fill="none" stroke="#3D3D3D" stroke-width="2" stroke-miterlimit="10" d="M47.994,599.915
		c2.293,0.665,3.671,3.505,2.77,5.715"/>
	<path fill="none" stroke="#3D3D3D" stroke-width="2" stroke-miterlimit="10" d="M55.159,560.725
		c2.854,0.041,5.746,0.053,8.484-0.602c2.738-0.653,5.361-2.083,6.638-4.252"/>
	<path fill="none" stroke="#3D3D3D" stroke-width="2" stroke-miterlimit="10" d="M63.445,560.228
		c-0.186,0.527-0.135,1.141,0.146,1.627"/>
	<path fill="none" stroke="#3D3D3D" stroke-width="2" stroke-miterlimit="10" d="M36.711,597.842
		c1.681,1.036,3.713,1.274,5.673,1.482c1.711,0.186,3.422,0.363,5.134,0.55c0.425,0.041,0.871,0.093,1.275-0.071
		c0.353-0.146,0.621-0.426,0.871-0.707c1.255-1.431,2.261-3.089,2.956-4.863"/>
	<path fill="none" stroke="#ED246D" stroke-width="0.75" stroke-miterlimit="10" d="M156.853,311.534
		c-1.971-0.902-3.712-2.291-5.03-4.003c-0.227-0.3-0.455-0.653-0.384-1.026c0.051-0.259,0.25-0.466,0.457-0.633
		c0.852-0.684,2.086-0.871,3.1-0.478c1.017,0.394,1.796,1.369,1.96,2.448"/>
	<path fill="none" stroke="#ED246D" stroke-width="0.75" stroke-miterlimit="10" d="M156.896,310.123
		c1.1,0.882,2.8,0.737,3.962-0.072c1.162-0.808,1.855-2.146,2.251-3.495c0.258-0.871,0.393-1.835,0.029-2.654
		c-0.341-0.778-1.077-1.307-1.814-1.752c-0.579-0.353-1.213-0.674-1.888-0.665c-0.943,0.021-1.752,0.727-2.188,1.556
		c-0.425,0.84-0.55,1.795-0.664,2.729"/>
	<path fill="none" stroke="#ED246D" stroke-width="0.75" stroke-miterlimit="10" d="M154.218,303.91
		c-0.88-0.695-1.129-1.969-0.86-3.059c0.27-1.089,0.975-2.012,1.721-2.841c0.893-0.985,2.044-1.949,3.382-1.867
		c1.493,0.093,2.572,1.441,3.95,2.032c2.147,0.923,4.928-0.063,6.793,1.359c1.721,1.306,1.577,4.179,0.105,5.755
		c-1.474,1.576-3.827,2.054-5.984,1.876"/>
	<path fill="none" stroke="#ED246D" stroke-width="0.75" stroke-miterlimit="10" d="M155.649,297.295
		c-1.389-0.281-2.354-1.649-3.743-1.929c-1.494-0.301-2.914,0.778-3.909,1.929c-0.622,0.715-1.192,1.648-0.934,2.561
		c0.249,0.85,1.119,1.327,1.794,1.909c0.675,0.58,1.172,1.669,0.55,2.302c-0.28,0.28-0.685,0.373-1.048,0.529
		c-1.607,0.705-2.043,3.069-0.976,4.459c1.068,1.39,3.216,1.669,4.752,0.829"/>
	<path fill="none" stroke="#ED246D" stroke-width="0.75" stroke-miterlimit="10" d="M151.222,295.169
		c2.862-2.219,6.522-2.489,9.977-2.447c1.546,0.021,3.143,0.104,4.531,0.891c1.391,0.788,2.509,2.468,2.345,4.241
		c-0.072,0.716-0.427,1.462-1.027,1.628c-1.005,0.26-1.648-1.13-2.135-2.167c-0.799-1.722-2.137-3.101-3.691-3.837"/>
	<path fill="none" stroke="#ED246D" stroke-width="0.75" stroke-miterlimit="10" d="M148.204,295.802
		c-0.197-1.939,0.238-3.93,1.203-5.611c0.591-1.026,1.608-2.032,2.779-1.845c1.452,0.238,2.334,2.209,3.795,2.001
		c0.374-0.051,0.716-0.249,1.06-0.425c1.46-0.758,3.214-1.079,4.779-0.561c1.566,0.52,2.863,1.981,2.884,3.631"/>
	<path fill="none" stroke="#ED246D" stroke-width="0.75" stroke-miterlimit="10" d="M148.026,291.57
		c-2.622,0.612-5.091,2.437-5.88,5.02c-0.248,0.83-0.33,1.701-0.341,2.572c-0.021,1.731,0.259,3.525,1.172,4.999
		c0.913,1.473,2.551,2.582,4.282,2.499"/>
	<path fill="none" stroke="#ED246D" stroke-width="0.75" stroke-miterlimit="10" d="M167.918,294.982
		c1.328,0.561,2.677,1.141,3.766,2.074c1.088,0.934,1.907,2.313,1.814,3.755c-0.093,1.44-1.308,2.831-2.749,2.778"/>
	<path fill="none" stroke="#ED246D" stroke-width="0.75" stroke-miterlimit="10" d="M144.024,305.871
		c-1.203-0.156-2.261,0.903-2.676,2.053c-0.414,1.152-0.393,2.395-0.694,3.568c-0.155,0.633-0.404,1.255-0.354,1.897
		c0.052,0.643,0.541,1.329,1.193,1.296"/>
	<path fill="none" stroke="#ED246D" stroke-width="0.75" stroke-miterlimit="10" d="M169.765,305.229
		c-0.727,0.643-0.207,1.847,0.444,2.561c0.644,0.726,1.464,1.577,1.172,2.51"/>
	<path fill="none" stroke="#ED246D" stroke-width="0.75" stroke-miterlimit="10" d="M173.123,302.532
		c0.302,1.191,0.603,2.404,0.457,3.629c-0.145,1.213-0.841,2.447-1.981,2.884"/>
	<path fill="none" stroke="#648428" stroke-width="0.75" stroke-miterlimit="10" d="M141.225,302.821
		c-1.15-0.372-2.436-0.477-3.557-0.009c-1.784,0.747-2.695,2.707-3.463,4.479c-0.767,1.773-1.742,3.725-3.578,4.366
		c0.924,0.197,1.847,0.393,2.769,0.592c1.825,0.384,3.972,0.694,5.362-0.55c0.238-0.218,0.437-0.466,0.643-0.716"/>
	<path fill="none" stroke="#648428" stroke-width="0.75" stroke-miterlimit="10" d="M163.946,291.85
		c-0.123-1.731,1.337-3.184,2.914-3.919c1.566-0.736,3.329-1.006,4.854-1.826c1.794-0.953,3.173-2.665,3.724-4.625
		c0.384,2.479-0.52,4.979-0.52,7.477c0,1.566,0.353,3.122,0.228,4.687c-0.113,1.567-0.86,3.226-2.313,3.806"/>
	<path fill="none" stroke="#648428" stroke-width="0.75" stroke-miterlimit="10" d="M174.379,304.378
		c0.312,1.866,2.229,2.975,4.024,3.577c1.794,0.601,3.786,1.058,4.988,2.51"/>
	<path fill="none" stroke="#648428" stroke-width="0.75" stroke-miterlimit="10" d="M167.784,294.07
		c0.976-1.878,2.801-3.309,4.854-3.806"/>
	<path fill="none" stroke="#648428" stroke-width="0.75" stroke-miterlimit="10" d="M137.472,309.283
		c0.756-2.395,2.893-4.304,5.36-4.78"/>
	<g>
		<path fill="none" stroke="#FFDCEA" stroke-width="0.75" stroke-miterlimit="10" d="M156.252,278.369
			c-0.902-0.508-1.68-1.213-2.271-2.063c-0.146-0.208-0.281-0.425-0.281-0.675c0-0.528,0.624-0.87,1.141-0.788
			c0.52,0.093,0.934,0.466,1.317,0.829c-0.373-0.393-0.539-0.995-0.32-1.493c0.218-0.497,0.869-0.777,1.348-0.507
			c0.467,0.26,0.581,0.871,0.643,1.401c0.063,0.528,0.124,1.068,0.011,1.575c-0.124,0.519-0.466,1.017-0.965,1.171"/>
		<path fill="none" stroke="#FFDCEA" stroke-width="0.75" stroke-miterlimit="10" d="M156.116,278.172
			c-1.109-1.151-3.038-1.4-4.396-0.56c-0.457,0.28-0.871,0.913-0.509,1.307c0.196,0.208,0.509,0.217,0.798,0.229
			c0.851,0,1.689,0,2.541,0.009c-0.591-0.176-1.224-0.238-1.814-0.051c-0.581,0.186-1.1,0.643-1.244,1.246
			c-0.031,0.144-0.052,0.31,0,0.445c0.112,0.321,0.497,0.456,0.84,0.498c1.555,0.187,3.163-0.809,3.703-2.281"/>
		<path fill="none" stroke="#FFDCEA" stroke-width="0.75" stroke-miterlimit="10" d="M156.17,279.416
			c-0.635,0.872-1.038,1.898-1.163,2.967c-0.031,0.269,0,0.622,0.26,0.715c0.124,0.042,0.269,0,0.393-0.063
			c0.675-0.332,0.903-1.172,1.059-1.908c0.197,0.456,0.063,0.975,0,1.462c-0.063,0.487-0.021,1.078,0.394,1.359
			c0.508,0.352,1.255-0.042,1.483-0.624c0.229-0.569,0.071-1.224-0.114-1.804c-0.332-1.038-0.777-2.032-1.327-2.966"/>
		<path fill="none" stroke="#FFDCEA" stroke-width="0.75" stroke-miterlimit="10" d="M157.143,278.12
			c0.944-0.404,1.909-0.767,2.884-1.058c0.684-0.208,1.535-0.342,2.002,0.197c0.062,0.072,0.112,0.166,0.103,0.259
			c-0.021,0.114-0.135,0.187-0.227,0.239c-0.747,0.383-1.618,0.518-2.449,0.373c-0.135,0.187,0.011,0.456,0.207,0.559
			c0.199,0.114,0.436,0.125,0.643,0.208c0.488,0.186,0.768,0.694,0.934,1.182c0.197,0.57,0.207,1.369-0.342,1.617
			c-0.538,0.239-1.121-0.259-1.41-0.767c-0.291-0.509-0.519-1.131-1.058-1.368"/>
	</g>
	<g>
		<path fill="none" stroke="#FFDCEA" stroke-width="0.75" stroke-miterlimit="10" d="M125.43,365.895
			c-0.9-0.508-1.68-1.212-2.271-2.063c-0.145-0.207-0.279-0.426-0.279-0.675c0-0.528,0.622-0.87,1.14-0.789
			c0.521,0.095,0.935,0.468,1.317,0.831c-0.372-0.395-0.538-0.995-0.32-1.494c0.217-0.497,0.871-0.777,1.349-0.508
			c0.467,0.258,0.581,0.871,0.643,1.399c0.063,0.528,0.125,1.068,0.01,1.575c-0.124,0.52-0.467,1.018-0.964,1.172"/>
		<path fill="none" stroke="#FFDCEA" stroke-width="0.75" stroke-miterlimit="10" d="M125.296,365.697
			c-1.11-1.151-3.038-1.398-4.397-0.561c-0.456,0.281-0.87,0.913-0.508,1.307c0.196,0.209,0.508,0.219,0.797,0.229
			c0.852,0,1.691,0,2.542,0.012c-0.592-0.178-1.225-0.24-1.815-0.054c-0.581,0.188-1.1,0.644-1.244,1.245
			c-0.031,0.146-0.051,0.311,0,0.447c0.114,0.32,0.498,0.455,0.84,0.497c1.557,0.186,3.164-0.81,3.703-2.282"/>
		<path fill="none" stroke="#FFDCEA" stroke-width="0.75" stroke-miterlimit="10" d="M125.347,366.942
			c-0.632,0.871-1.036,1.897-1.161,2.967c-0.03,0.269,0,0.621,0.26,0.715c0.124,0.04,0.271,0,0.394-0.063
			c0.675-0.332,0.903-1.17,1.059-1.906c0.196,0.456,0.063,0.975,0,1.462c-0.063,0.485-0.021,1.078,0.393,1.356
			c0.509,0.354,1.256-0.041,1.483-0.62c0.228-0.569,0.071-1.224-0.114-1.804c-0.331-1.038-0.777-2.031-1.326-2.967"/>
		<path fill="none" stroke="#FFDCEA" stroke-width="0.75" stroke-miterlimit="10" d="M126.322,365.647
			c0.943-0.404,1.909-0.768,2.883-1.059c0.685-0.206,1.535-0.342,2.002,0.198c0.063,0.072,0.113,0.164,0.103,0.258
			c-0.021,0.115-0.134,0.187-0.229,0.24c-0.746,0.383-1.617,0.518-2.446,0.373c-0.135,0.188,0.01,0.456,0.207,0.561
			c0.196,0.114,0.435,0.123,0.643,0.207c0.486,0.186,0.767,0.695,0.933,1.182c0.196,0.568,0.207,1.369-0.341,1.617
			c-0.541,0.239-1.12-0.26-1.412-0.768c-0.29-0.508-0.518-1.131-1.057-1.368"/>
	</g>
	<g>
		<path fill="none" stroke="#FF88B6" stroke-width="0.75" stroke-miterlimit="10" d="M110.611,413.9
			c0.788-1.006,1.805-1.836,2.946-2.406c0.279-0.135,0.58-0.27,0.881-0.218c0.644,0.093,0.954,0.924,0.746,1.546
			c-0.207,0.621-0.746,1.059-1.255,1.462c0.55-0.384,1.328-0.486,1.889-0.123c0.56,0.362,0.788,1.211,0.383,1.752
			c-0.404,0.529-1.172,0.55-1.835,0.539c-0.653-0.02-1.327-0.041-1.939-0.28c-0.611-0.238-1.162-0.757-1.254-1.399"/>
		<path fill="none" stroke="#FF88B6" stroke-width="0.75" stroke-miterlimit="10" d="M110.87,413.775
			c1.618-1.15,2.271-3.474,1.504-5.299c-0.26-0.613-0.955-1.234-1.504-0.86c-0.291,0.197-0.363,0.579-0.426,0.933
			c-0.155,1.038-0.32,2.074-0.476,3.121c0.32-0.684,0.519-1.462,0.393-2.208c-0.124-0.747-0.592-1.474-1.296-1.764
			c-0.177-0.072-0.364-0.114-0.549-0.072c-0.414,0.083-0.653,0.529-0.758,0.934c-0.519,1.867,0.405,4.033,2.116,4.957"/>
		<path fill="none" stroke="#FF88B6" stroke-width="0.75" stroke-miterlimit="10" d="M109.336,413.61
			c-0.945-0.945-2.138-1.628-3.434-1.972c-0.332-0.083-0.768-0.113-0.923,0.197c-0.072,0.146-0.052,0.332,0,0.487
			c0.291,0.892,1.276,1.316,2.147,1.649c-0.592,0.156-1.204-0.105-1.793-0.27c-0.592-0.166-1.317-0.217-1.734,0.229
			c-0.527,0.56-0.175,1.556,0.488,1.938c0.663,0.385,1.482,0.312,2.239,0.188c1.327-0.219,2.635-0.581,3.889-1.09"/>
		<path fill="none" stroke="#FF88B6" stroke-width="0.75" stroke-miterlimit="10" d="M110.746,415.04
			c0.33,1.234,0.58,2.48,0.768,3.745c0.124,0.871,0.135,1.95-0.612,2.417c-0.104,0.063-0.218,0.114-0.332,0.071
			c-0.136-0.041-0.208-0.198-0.249-0.332c-0.333-0.984-0.341-2.084,0-3.071c-0.198-0.196-0.561-0.07-0.727,0.146
			s-0.228,0.508-0.375,0.757c-0.32,0.561-0.983,0.809-1.627,0.923c-0.736,0.135-1.71,0-1.919-0.727
			c-0.196-0.704,0.519-1.327,1.204-1.586c0.685-0.258,1.481-0.425,1.867-1.048"/>
	</g>
	<g>
		<path fill="none" stroke="#FF88B6" stroke-width="0.75" stroke-miterlimit="10" d="M160.482,361.002
			c0.996,0.797,1.814,1.824,2.376,2.977c0.134,0.28,0.259,0.58,0.206,0.881c-0.104,0.643-0.934,0.943-1.556,0.736
			c-0.612-0.207-1.048-0.756-1.451-1.275c0.383,0.549,0.466,1.339,0.093,1.898c-0.363,0.559-1.225,0.775-1.752,0.361
			c-0.52-0.414-0.54-1.182-0.509-1.844c0.03-0.654,0.052-1.328,0.312-1.939c0.248-0.611,0.768-1.151,1.421-1.234"/>
		<path fill="none" stroke="#FF88B6" stroke-width="0.75" stroke-miterlimit="10" d="M160.608,361.27
			c1.129,1.628,3.441,2.313,5.278,1.567c0.611-0.249,1.245-0.944,0.882-1.493c-0.197-0.289-0.579-0.373-0.923-0.436
			c-1.037-0.176-2.073-0.342-3.111-0.52c0.684,0.332,1.452,0.529,2.209,0.426s1.482-0.568,1.773-1.275
			c0.072-0.175,0.112-0.363,0.083-0.549c-0.083-0.415-0.519-0.654-0.925-0.768c-1.866-0.539-4.033,0.365-4.987,2.055"/>
		<path fill="none" stroke="#FF88B6" stroke-width="0.75" stroke-miterlimit="10" d="M160.795,359.734
			c0.953-0.934,1.648-2.125,2.011-3.4c0.093-0.332,0.114-0.758-0.176-0.922c-0.146-0.085-0.332-0.063-0.486-0.012
			c-0.893,0.28-1.339,1.254-1.67,2.125c-0.146-0.603,0.113-1.203,0.29-1.794s0.239-1.308-0.207-1.743
			c-0.549-0.528-1.557-0.197-1.939,0.457c-0.394,0.653-0.332,1.481-0.217,2.24c0.207,1.327,0.549,2.644,1.037,3.898"/>
		<path fill="none" stroke="#FF88B6" stroke-width="0.75" stroke-miterlimit="10" d="M159.331,361.135
			c-1.233,0.313-2.489,0.551-3.742,0.727c-0.871,0.114-1.95,0.114-2.406-0.643c-0.062-0.104-0.104-0.217-0.073-0.332
			c0.042-0.135,0.197-0.207,0.332-0.249c0.996-0.322,2.086-0.312,3.069,0.03c0.196-0.197,0.084-0.561-0.144-0.727
			c-0.218-0.177-0.51-0.238-0.746-0.384c-0.562-0.321-0.799-0.995-0.903-1.639c-0.125-0.735,0.021-1.71,0.746-1.907
			c0.706-0.188,1.317,0.539,1.566,1.213c0.249,0.673,0.404,1.482,1.016,1.888"/>
	</g>
	<g>
		<path fill="none" stroke="#FFDCEA" stroke-width="0.75" stroke-miterlimit="10" d="M110.361,389.611
			c-0.902-0.507-1.679-1.212-2.271-2.064c-0.145-0.205-0.28-0.425-0.28-0.671c0-0.531,0.623-0.872,1.142-0.79
			c0.518,0.093,0.933,0.468,1.317,0.83c-0.374-0.394-0.539-0.996-0.322-1.493c0.218-0.497,0.871-0.778,1.348-0.508
			c0.467,0.258,0.581,0.871,0.645,1.398c0.062,0.529,0.123,1.069,0.011,1.576c-0.125,0.518-0.468,1.018-0.966,1.172"/>
		<path fill="none" stroke="#FFDCEA" stroke-width="0.75" stroke-miterlimit="10" d="M110.237,389.415
			c-1.11-1.15-3.038-1.399-4.396-0.56c-0.457,0.28-0.871,0.913-0.508,1.307c0.196,0.206,0.508,0.217,0.798,0.228
			c0.85,0,1.69,0,2.541,0.011c-0.592-0.176-1.224-0.238-1.815-0.052c-0.58,0.188-1.099,0.644-1.244,1.244
			c-0.03,0.146-0.052,0.312,0,0.446c0.114,0.321,0.499,0.457,0.84,0.499c1.556,0.186,3.163-0.81,3.702-2.283"/>
		<path fill="none" stroke="#FFDCEA" stroke-width="0.75" stroke-miterlimit="10" d="M110.289,390.671
			c-0.633,0.871-1.036,1.897-1.162,2.965c-0.029,0.271,0,0.623,0.261,0.716c0.124,0.041,0.27,0,0.394-0.063
			c0.674-0.332,0.902-1.171,1.058-1.908c0.197,0.457,0.063,0.977,0,1.464c-0.063,0.486-0.021,1.077,0.395,1.357
			c0.508,0.353,1.255-0.042,1.482-0.62c0.229-0.571,0.073-1.225-0.114-1.806c-0.332-1.036-0.777-2.031-1.328-2.965"/>
		<path fill="none" stroke="#FFDCEA" stroke-width="0.75" stroke-miterlimit="10" d="M111.265,389.364
			c0.942-0.405,1.908-0.768,2.883-1.059c0.685-0.207,1.534-0.341,2.002,0.198c0.062,0.072,0.113,0.165,0.104,0.258
			c-0.021,0.115-0.136,0.188-0.228,0.239c-0.747,0.385-1.618,0.519-2.446,0.374c-0.137,0.187,0.011,0.455,0.207,0.561
			c0.196,0.112,0.436,0.123,0.643,0.207c0.486,0.186,0.768,0.694,0.933,1.182c0.199,0.569,0.208,1.368-0.342,1.618
			c-0.54,0.238-1.12-0.261-1.411-0.768c-0.29-0.508-0.519-1.131-1.057-1.37"/>
	</g>
	<path fill="#B5945B" stroke="#3D3D3D" stroke-width="2" stroke-miterlimit="10" d="M178.247,405.106
		c10.351-2.759,20.255-8.038,26.799-16.271c0.561-0.707,1.233-1.505,2.157-1.527c0.485-0.009,0.942,0.208,1.358,0.446
		c5.31,3.069,6.668,10.411,4.293,15.93c-2.374,5.517-7.611,9.438-13.098,12.194c-15.514,7.829-33.756,8.275-51.251,8.4
		c-8.338,0.063-18.076-0.59-22.732-7.28c8.682-0.942,12.154-9.758,21.188-9.819C157.673,407.118,167.464,407.979,178.247,405.106z"
		/>
	<path fill="#FFF0B3" stroke="#3D3D3D" stroke-width="2" stroke-miterlimit="10" d="M142.646,367.42
		c5.88-0.52,11.811,1.213,16.788,4.896c0.55,0.404,1.12,0.881,1.369,1.615c0.237,0.716,0.134,1.557,0.021,2.345
		c-0.912,6.141-2.313,12.176-4.18,18.013c-0.954-0.443-1.972-0.694-2.997-0.736c0.705,0.778,1.4,1.567,2.105,2.346
		c-5.29,14.55-10.579,29.088-15.868,43.639c-0.187,0.527-0.394,1.068-0.746,1.432c-0.769,0.778-1.868,0.446-2.779,0.063
		c-4.262-1.773-8.805-3.797-11.377-8.35c-2.54-4.488-2.54-10.308-2.063-15.681c0.509-5.785,3.34-10.048,5.672-15.057
		c2.623-5.641,5.123-11.375,7.488-17.185C136.818,382.903,141.692,367.503,142.646,367.42z"/>
	<path fill="#B5945B" stroke="#3D3D3D" stroke-width="2" stroke-miterlimit="10" d="M138.342,410.655
		c4.894,1.917,10.215,2.457,15.462,2.799c-9.54,26.767-23.602,51.646-37.603,76.379c-1.224,2.158-3.568,4.667-5.703,3.411
		c-3.753-9.404-2.334-19.983-0.86-30.001c2.063-13.99,4.138-28.021,7.84-41.679c0.933-3.454,1.981-6.887,3.143-10.268
		c0.726-2.095,1.981-8.41,3.89-9.499c2.468-1.421,4.512,2.428,5.951,3.838C132.71,407.834,135.418,409.503,138.342,410.655z"/>
	<path fill="none" stroke="#AF9D80" stroke-width="0.75" stroke-miterlimit="10" d="M138.996,378.641
		c-0.436,1.285,0.798,2.53,2.032,3.091c1.233,0.56,2.695,0.922,3.433,2.063c0.237,0.363,0.372,0.818,0.249,1.224
		c-0.083,0.258-0.271,0.477-0.435,0.705c-1.879,2.603-0.654,6.222-1.091,9.396c-0.124,0.892-0.414,1.814-1.119,2.386
		c-1.317,1.068-3.235,0.373-4.863-0.104c-1.701-0.498-3.496-0.696-5.259-0.582"/>
	<path fill="none" stroke="#AF9D80" stroke-width="0.75" stroke-miterlimit="10" d="M137.844,382.488
		c-0.456,0.695,0.021,1.597,0.488,2.282c0.362,0.538,0.736,1.088,1.1,1.627c0.747,1.11,1.535,2.416,1.161,3.703
		c-0.332,1.142-1.524,1.866-2.707,1.981c-1.183,0.114-2.355-0.26-3.453-0.695"/>
	<path fill="none" stroke="#AF9D80" stroke-width="0.75" stroke-miterlimit="10" d="M151.544,369.327
		c-0.571,1.879,0.071,4.067,1.565,5.32c0.684,0.571,1.504,0.954,2.313,1.34c1.339,0.62,2.676,1.245,4.013,1.866"/>
	<path fill="none" stroke="#AF9D80" stroke-width="0.75" stroke-miterlimit="10" d="M154.624,370.613
		c-0.395,1.078,0.259,2.313,1.203,2.955c0.944,0.644,2.114,0.842,3.246,1.018"/>
	<path fill="none" stroke="#AF9D80" stroke-width="0.75" stroke-miterlimit="10" d="M136.205,406.247
		c0.011,0,0.011-0.011,0.021-0.011c4.272-2.448,8.689-4.636,13.211-6.565"/>
	<path fill="none" stroke="#AF9D80" stroke-width="0.75" stroke-miterlimit="10" d="M137.979,399.683
		c2.687,3.193,5.528,6.253,8.494,9.177"/>
	<path fill="none" stroke="#B70042" stroke-width="0.75" stroke-miterlimit="10" d="M141.702,401.404
		c-0.053-1.254,0.591-2.512,1.639-3.206"/>
	<path fill="none" stroke="#B70042" stroke-width="0.75" stroke-miterlimit="10" d="M145.561,396.271
		c0.673-0.354,1.348-0.706,2.031-1.058"/>
	<path fill="none" stroke="#B70042" stroke-width="0.75" stroke-miterlimit="10" d="M150.227,393.813
		c0.717,0.03,1.442-0.199,2.023-0.624"/>
	<path fill="none" stroke="#B70042" stroke-width="0.75" stroke-miterlimit="10" d="M154.572,391.168
		c0.569-0.736,0.995-1.587,1.243-2.479"/>
	<path fill="none" stroke="#B70042" stroke-width="0.75" stroke-miterlimit="10" d="M155.474,386.657
		c0.487-0.81,0.364-1.94-0.301-2.614"/>
	<path fill="none" stroke="#B70042" stroke-width="0.75" stroke-miterlimit="10" d="M153.627,382.332
		c-1.171-1.078-2.177-2.332-2.977-3.701"/>
	<path fill="none" stroke="#B70042" stroke-width="0.75" stroke-miterlimit="10" d="M149.304,376.121
		c-0.405-0.725-0.82-1.452-1.224-2.177"/>
	<path fill="none" stroke="#B70042" stroke-width="0.75" stroke-miterlimit="10" d="M147.478,371.309
		c-0.196-0.83-0.145-1.711,0.135-2.51"/>
	<path fill="none" stroke="#B70042" stroke-width="0.75" stroke-miterlimit="10" d="M142.179,402.005
		c-0.518-0.312-1.223-0.083-1.629,0.363c-0.403,0.446-0.579,1.048-0.756,1.628c-0.125,0.426-0.239,0.924,0.021,1.286
		c0.135,0.187,0.342,0.311,0.569,0.384c1.337,0.456,2.8-0.684,3.163-2.053c0.104-0.385,0.137-0.82-0.052-1.173
		c-0.187-0.352-0.643-0.59-1.006-0.415"/>
	<path fill="#EAEAEA" stroke="#3D3D3D" stroke-width="2" stroke-miterlimit="10" d="M244.578,415.818
		c7.072,0.85,14.33,1.96,20.447,5.569c11.119,6.563,16.46,20.223,27.731,26.549c5.455,3.058,11.886,4.147,17.267,7.342
		c8.545,5.062,13.389,15.566,11.638,25.232c-1.982,10.879-11.035,19.061-20.16,25.512c-10.827,7.653-22.815,14.237-35.955,16.405
		c-13.14,2.167-27.638-0.643-37.263-9.707c7.365-6.74,13.474-14.797,17.953-23.655c1.949-3.856,3.619-8.338,2.105-12.383
		c-0.861-2.302-2.645-4.137-4.388-5.89c-7.695-7.737-15.462-15.4-23.301-22.98c-7.654-7.396-14.261-12.196-21.032-20.357
		c-7.155-8.607-13.844-3.952,14.041-12.568C223.526,411.827,234.341,414.585,244.578,415.818z"/>
	<path fill="#EAEAEA" stroke="#3D3D3D" stroke-width="2" stroke-miterlimit="10" d="M127.992,479.743
		c-2.563,6.377-4.479,13.263-9.364,18.261c-4.614,4.719-11.222,7.063-17.35,9.82c-6.119,2.759-12.382,6.502-14.842,12.507
		c-0.352,0.849-0.621,1.804,0.208,2.664c0.58,0.613,1.483,0.86,2.334,0.757c1.67-0.218,2.853-1.432,3.93-2.593
		c2.5-2.675,4.988-5.353,7.488-8.026c-2.301,4.957-4.209,10.089-5.693,15.317c-0.497,1.753,1.774,3.028,3.152,1.773
		c4.263-3.878,6.077-11.429,11.843-13.597c-3.1,5.423-4.811,11.563-4.925,17.744c-0.021,0.901,0.332,1.793,1.025,2.416
		c1.701,1.514,3.879,0.217,5.248-1.183c1.825-1.887,3.245-4.127,4.138-6.554c1.017-2.758,1.357-5.744,2.822-8.308
		c2.374-4.159,7.342-6.481,12.277-7.134c4.925-0.653,9.925,0.094,14.871,0.653c12.257,1.37,24.661,1.493,36.95,0.394
		c6.449-0.581,13.679-1.981,17.142-7.188c3.174-4.791,1.939-11.033,0.177-16.446c-2.209-6.762-5.236-13.523-10.598-18.428
		c-5.538-5.062-13.004-7.653-20.244-10.111c-6.771-2.302-20.449-10.258-26.735-5.827
		C137.211,459.895,127.992,474.184,127.992,479.743z"/>
	<path fill="#EAEAEA" stroke="#3D3D3D" stroke-width="2" stroke-miterlimit="10" d="M244.742,491.43
		c-4.655,4.025-11.686,2.252-17.837,2.064c-3.991-0.125-7.994,0.528-11.737,1.919c-0.984,0.362-2.148,1.109-1.949,2.147
		c0.176,0.941,1.336,1.274,2.293,1.431c3.564,0.55,7.122,1.1,10.689,1.639c-1.431,2.986-5.652,2.624-8.95,2.831
		c-3.307,0.198-6.544,1.462-9.105,3.557c0.57,1.349,2.282,1.721,3.745,1.825c4.843,0.343,9.748-0.3,14.34-1.877
		c-3.959,1.192-7.92,2.396-11.883,3.588c-2.934,0.892-6.431,2.448-6.595,5.519c-0.032,0.497,0.062,1.036,0.415,1.39
		c0.58,0.58,1.555,0.393,2.343,0.177c3.517-0.996,7.032-1.982,10.546-2.979c-1.565,1.152-3.617,1.358-5.4,2.137
		c-1.782,0.778-3.434,2.708-2.708,4.512c0.52,1.285,1.98,1.866,3.318,2.219c8.265,2.189,17.443,0.623,24.516-4.179
		c7.073-4.802,11.906-12.767,12.912-21.26"/>
	
		<ellipse transform="matrix(-0.8456 0.5338 -0.5338 -0.8456 730.228 686.6993)" fill="#3D3D3D" cx="265.803" cy="448.956" rx="0.871" ry="3.133"/>
	
		<ellipse transform="matrix(-0.8457 0.5337 -0.5337 -0.8457 746.0745 671.0098)" fill="#3D3D3D" cx="276.027" cy="443.368" rx="0.87" ry="3.133"/>
	<circle fill="#FF78E6" cx="260.599" cy="466.146" r="5.237"/>
	
		<ellipse transform="matrix(-0.8459 0.5333 -0.5333 -0.8459 814.4838 686.5009)" fill="#3D3D3D" cx="308.069" cy="460.912" rx="2.095" ry="0.997"/>
	<path fill="none" stroke="#3D3D3D" stroke-miterlimit="10" d="M310.699,454.625c2.332-2.79,5.725-4.584,9.25-5.455
		c3.527-0.871,7.228-0.881,10.858-0.568"/>
	<path fill="none" stroke="#3D3D3D" stroke-miterlimit="10" d="M301.47,465.037c-8.661,2.012-16.2,8.357-19.643,16.551"/>
	<path fill="none" stroke="#3D3D3D" stroke-miterlimit="10" d="M309.195,453.64c-0.321-0.03-0.373-0.485-0.3-0.798
		c0.497-2.345,2.271-4.188,4.002-5.85"/>
	<path fill="none" stroke="#3D3D3D" stroke-miterlimit="10" d="M304.518,466.551c-4.096,1.889-6.979,6.17-7.187,10.681"/>
	<path fill="none" stroke="#3D3D3D" stroke-miterlimit="10" d="M316.278,459.385c3.4-2.043,8.067-1.731,11.169,0.756"/>
	<path fill="none" stroke="#3D3D3D" stroke-miterlimit="10" d="M308.708,467.411c-2.853,1.193-4.284,4.46-4.647,7.53
		c-0.361,3.07,0.063,6.201-0.403,9.262"/>
	<path fill="none" stroke="#B5945B" stroke-width="2" stroke-miterlimit="10" d="M278.883,340.333
		c-11.387,3.515-18.75,14.259-25.014,24.401c-15.475,25.044-29.921,51.126-37.822,79.48"/>
	<path fill="none" stroke="#B5945B" stroke-width="2" stroke-miterlimit="10" d="M293.028,343.257
		c0.051,3.753,1.005,7.487,2.75,10.794c0.651,1.234,1.491,2.48,2.756,3.02c1.856,0.789,4.086-0.239,5.311-1.867
		c1.224-1.628,1.659-3.711,2.002-5.734c1.296-7.726,1.605-15.618,0.922-23.416c-0.321-3.703-0.415-8.338,2.811-10.101
		c0.519-0.28,1.192-0.457,1.69-0.126c0.497,0.333,0.467,1.296-0.124,1.391"/>
	<path fill="none" stroke="#B5945B" stroke-width="2" stroke-miterlimit="10" d="M321.028,324.568
		c4.999,12.569,1.898,26.912-3.143,39.48c-7.404,18.481-18.895,35.313-33.403,48.939c-4.616,4.324-9.573,8.4-13.13,13.638"/>
	<path fill="#B5945B" stroke="#3D3D3D" stroke-width="2" stroke-miterlimit="10" d="M231.292,420.465
		c4.666-4.926,10.287-9.521,17.018-10.442c6.729-0.924,14.488,3.235,15.337,9.966c-3.017,0.331-5.891-1.89-8.896-1.525
		c-1.992,0.236-3.662,1.566-5.186,2.861c-9.77,8.275-18.75,17.475-26.807,27.42c-0.25,0.312-5.725-5.082-5.869-5.684
		c-0.677-2.676,1.514-5.061,2.84-7.436C222.789,430.141,226.979,425.018,231.292,420.465z"/>
</g>
</svg>
