<?xml version="1.0" encoding="utf-8"?>
<!-- Generator: Adobe Illustrator 25.0.0, SVG Export Plug-In . SVG Version: 6.00 Build 0)  -->
<svg version="1.1" id="Calque_1" xmlns="http://www.w3.org/2000/svg" xmlns:xlink="http://www.w3.org/1999/xlink" x="0px" y="0px"
	 viewBox="0 0 557.8 465.6" style="enable-background:new 0 0 557.8 465.6;" xml:space="preserve">
<style type="text/css">
	.st0{fill:#D3D3D3;stroke:#2D2D2D;stroke-width:3;stroke-miterlimit:10;}
	.st1{fill:#FFFFFF;stroke:#2D2D2D;stroke-width:3;stroke-miterlimit:10;}
	.st2{fill:none;stroke:#2D2D2D;stroke-width:3;stroke-miterlimit:10;}
	.st3{fill:#8B00E5;stroke:#2D2D2D;stroke-width:3;stroke-miterlimit:10;}
	.st4{fill:#3D3D3D;}
	.st5{fill:#FF78E6;}
	.st6{fill:#FC27B5;stroke:#2D2D2D;stroke-width:3;stroke-miterlimit:10;}
	.st7{fill:#33FFDD;stroke:#2D2D2D;stroke-width:3;stroke-miterlimit:10;}
	.st8{fill:#FFFCBB;stroke:#2D2D2D;stroke-width:3;stroke-miterlimit:10;}
</style>
<g>
	<path class="st0" d="M191.6,376.1c0,12-0.1,24.1-0.1,36.1c0,1.8,0,3.7,0.7,5.4c0.8,1.9,2.4,3.3,4.1,4.5c6.4,4.7,14.1,7.7,22,8.5
		c1.7,0.2,3.6,0.2,5.1-0.8c2.1-1.6,2.2-4.9,0.9-7.2s-3.5-4-5.4-5.8c-11.8-11-13.3-31.3-3.3-44"/>
	<path class="st0" d="M330.7,382.1c0,12-0.1,24.1-0.1,36.1c0,1.8,0,3.7,0.7,5.4c0.8,1.9,2.4,3.3,4.1,4.5c6.4,4.7,14.1,7.7,22,8.5
		c1.7,0.2,3.6,0.2,5.1-0.8c2.1-1.6,2.2-4.9,0.9-7.2c-1.3-2.3-3.5-4-5.4-5.8c-11.8-11-13.3-31.3-3.3-44"/>
	<path class="st1" d="M200.3,118.6c44.9-13.2,94.1-8.5,137.7,8.6c38.8,15.2,76.9,45.1,81.6,86.5c30.2,8.3,60.4,16.7,90.7,25
		c5.1,1.4,10.2,2.8,14.9,5.3c16.8,8.8,24.5,29.9,22.3,48.8c-2.2,18.9-12.3,35.9-23.7,51.1c-18.1,24.1-41.9,46.6-71.7,51.2
		c-29.8,4.6-64.5-16.2-64.9-46.3c-37.4,56.1-111.7,84.7-177,68.1c-73-18.5-125.4-89.3-123.5-164.1
		C88.4,185.6,136.1,137.6,200.3,118.6z"/>
	<path class="st2" d="M438.4,309.1c-6-2.8-12.6-5.6-19.1-4.4c-6.5,1.2-12.3,8.4-9.4,14.4c1.5,3.2,4.8,5,8.1,6.3
		c8.8,3.5,18.5,4.8,27.9,3.5"/>
	<path class="st2" d="M348,249.6c-15.4-1.4-26-17.1-41.1-20.3c-1.5-0.3-3.2-0.5-4.7,0.1c-2.7,1.2-3.5,4.7-3.9,7.6
		c-1.3,9.4-2.6,19.1-0.8,28.4c1.8,9.3,7.4,18.5,16.2,22.1c10.3,4.2,21.8,0,32.1-4.1"/>
	<path class="st0" d="M415.3,196.8c7.9-14.8,20.4-27.1,35.3-34.9c7.3,18.3,5.7,39.9-4,57"/>
	<path class="st3" d="M407.3,178.9c15.5-4.4,33.2-0.1,44.1,15.5c6.9,9.8,10.5,23.7,9.8,37.1c-0.5,9.5-3.8,19.6-10.3,23.6
		c-14.4-14.3-32.8-20.9-50.6-18.3c-12,1.8-32.9-0.9-30.9-24.6C371.1,193.2,395.9,182.1,407.3,178.9z"/>
	<ellipse transform="matrix(0.9894 -0.1454 0.1454 0.9894 -34.2399 61.4641)" class="st4" cx="403.4" cy="265" rx="2" ry="3.9"/>
	<circle class="st5" cx="384.3" cy="291.4" r="6"/>
	<path class="st3" d="M128.8,110.7C122,90.1,105.1,73.7,82,73.3c-14.7-0.3-30.9,6.1-43.7,17.1c-9,7.8-16.7,18.9-16,29.1
		c24.4,5.2,44.1,20.7,54.2,42.4c6.8,14.6,24.4,35.8,46.4,15.8C140.5,161.7,133.7,125.7,128.8,110.7z"/>
	<path class="st6" d="M116.6,128.7c-13-16.5-33.5-26.2-53.8-19.9c-12.9,4-25,14.4-32.4,27.8c-5.2,9.5-8.1,21.8-3.9,30.6
		c23.1-2.3,45.8,5.8,62.1,22.3c11,11.1,33.7,25,46.1,0.7C144.5,171,126.2,140.8,116.6,128.7z"/>
	<path class="st7" d="M67.9,156c-20.9,1.5-40.5,13-46.7,33.4c-3.9,12.9-2.1,28.7,4.9,42.4c5,9.7,13.5,18.9,23.2,20.4
		c11.1-20.5,30.5-34.7,53.3-38.9c15.4-2.9,39.6-13.9,26.4-37.7C118.5,156.6,83.2,154.9,67.9,156z"/>
	<path class="st1" d="M258.1,402.6c0,12-0.1,24.1-0.1,36.1c0,1.8,0,3.7,0.7,5.4c0.8,1.9,2.4,3.3,4.1,4.5c6.4,4.7,14.1,7.7,22,8.5
		c1.7,0.2,3.6,0.2,5.1-0.8c2.1-1.6,2.2-4.9,0.9-7.2c-1.3-2.3-3.5-4-5.4-5.8c-11.8-11-13.3-31.3-3.3-44"/>
	<path class="st1" d="M143.3,374.7c0,12-0.1,24.1-0.1,36.1c0,1.8,0,3.7,0.7,5.4c0.8,1.9,2.4,3.3,4.1,4.5c6.4,4.7,14.1,7.7,22,8.5
		c1.7,0.2,3.6,0.2,5.1-0.8c2.1-1.6,2.2-4.9,0.9-7.2c-1.3-2.3-3.5-4-5.4-5.8c-11.8-11-13.3-31.3-3.3-44"/>
	<g>
		<ellipse transform="matrix(0.908 -0.419 0.419 0.908 -49.4195 197.685)" class="st8" cx="425.3" cy="211.4" rx="13.8" ry="18.5"/>
		
			<ellipse transform="matrix(0.908 -0.419 0.419 0.908 -46.2583 204.3987)" class="st8" cx="442.2" cy="207.5" rx="13.8" ry="18.5"/>
		
			<ellipse transform="matrix(0.908 -0.419 0.419 0.908 -43.7097 209.8116)" class="st8" cx="455.8" cy="204.4" rx="13.8" ry="18.5"/>
		<path class="st8" d="M462.7,189.8c-2.1-0.1-3.8,1.5-4.4,3.4c-0.6,1.9-0.3,4,0,6c1,6,3.7,13.1,9.8,14.7c4.8,1.2,9.1-1.8,12.7-4.7
			c2.3-1.8,4.6-3.6,6.9-5.5c1.6-1.3,3.3-2.6,4.3-4.5c0.9-1.9,0.9-4.4-0.6-6.1c-1.5-1.6-3.9-2-6.1-2.2c-7.1-0.7-14.3-1.1-21.4-1.3
			c-0.8,0-1.8,0.1-1.9,0.8s1.5,0.8,1.1,0.2"/>
	</g>
	<path class="st6" d="M402,195c15.9,1.6,31.3,11.3,36.8,27.9c3.5,10.5,2.8,23.2-2,34.2c-3.4,7.7-9.5,15-16.7,16.1
		c-9.2-16.7-24.6-28.6-42.1-32.4c-11.8-2.6-30.7-12-21.6-31C363.5,194.6,390.3,193.8,402,195z"/>
</g>
</svg>
