<?xml version="1.0" encoding="utf-8"?>
<!-- Generator: Adobe Illustrator 16.0.0, SVG Export Plug-In . SVG Version: 6.00 Build 0)  -->
<!DOCTYPE svg PUBLIC "-//W3C//DTD SVG 1.1//EN" "http://www.w3.org/Graphics/SVG/1.1/DTD/svg11.dtd">
<svg version="1.1" id="Calque_1" xmlns="http://www.w3.org/2000/svg" xmlns:xlink="http://www.w3.org/1999/xlink" x="0px" y="0px"
	 width="340.75px" height="341.25px" viewBox="0 454.25 340.75 341.25" enable-background="new 0 454.25 340.75 341.25"
	 xml:space="preserve">
<g>
	<g>
		<path fill="#F2FF76" stroke="#3D3D3D" stroke-width="2" stroke-miterlimit="10" d="M137.116,474.232
			c-0.521-0.058-1.098-0.115-1.445,0.231c-0.289,0.29-0.347,0.694-0.405,1.099c-0.29,2.023-0.578,4.047-0.81,6.013
			c-0.636,4.626-1.272,9.311-0.983,13.936c0.462,7.518,3.354,14.86,8.153,20.642c3.123,3.76,29.375-19.947,30.242-24.573
			C173.544,481.865,144.75,475.331,137.116,474.232z"/>
		<path fill="#F2FF76" stroke="#3D3D3D" stroke-width="2" stroke-miterlimit="10" d="M92.998,523.961
			c-0.462,0.115-1.041,0.288-1.272,0.751c-0.174,0.348-0.058,0.751,0,1.156c0.521,1.966,0.983,3.933,1.503,5.898
			c1.156,4.51,2.313,9.077,4.279,13.299c3.238,6.766,8.673,12.49,15.323,16.075c4.337,2.313,19.775-29.49,18.85-34.057
			C129.657,517.369,100.457,522.109,92.998,523.961z"/>
		<path fill="#F2FF76" stroke="#3D3D3D" stroke-width="2" stroke-miterlimit="10" d="M72.875,595.141
			c-0.463,0.23-0.925,0.52-1.041,1.04c-0.058,0.404,0.115,0.752,0.289,1.099c0.983,1.793,1.908,3.585,2.892,5.378
			c2.197,4.104,4.452,8.21,7.459,11.795c4.799,5.783,11.507,9.946,18.792,11.738c4.799,1.156,11.853-33.479,9.771-37.7
			C106.759,579.644,79.641,591.497,72.875,595.141z"/>
		<path fill="#F2FF76" stroke="#3D3D3D" stroke-width="2" stroke-miterlimit="10" d="M73.048,663.197
			c-0.462,0.231-0.925,0.521-1.041,1.04c-0.058,0.405,0.116,0.753,0.29,1.1c0.983,1.793,1.908,3.585,2.891,5.378
			c2.197,4.105,4.453,8.21,7.459,11.796c4.799,5.781,11.506,9.945,18.792,11.737c4.799,1.157,11.854-33.479,9.772-37.7
			C106.933,647.701,79.872,659.554,73.048,663.197z"/>
		<path fill="#F2FF76" stroke="#3D3D3D" stroke-width="2" stroke-miterlimit="10" d="M64.954,699.163
			c-0.347-0.058-0.809-0.058-1.041,0.173c-0.231,0.232-0.231,0.521-0.289,0.811c-0.174,1.503-0.347,2.948-0.463,4.452
			c-0.347,3.41-0.752,6.881-0.462,10.292c0.52,5.551,2.775,10.871,6.476,15.034c2.429,2.717,21.221-15.323,21.742-18.735
			C92.015,704.021,70.62,699.799,64.954,699.163z"/>
		<path fill="#F2FF76" stroke="#3D3D3D" stroke-width="2" stroke-miterlimit="10" d="M29.335,734.03
			c-0.347-0.058-0.81-0.058-1.041,0.173c-0.231,0.232-0.231,0.521-0.29,0.811c-0.173,1.503-0.347,2.948-0.462,4.451
			c-0.347,3.412-0.751,6.882-0.462,10.292c0.521,5.552,2.775,10.872,6.477,15.035c2.428,2.718,21.22-15.323,21.741-18.735
			C56.396,738.829,35.001,734.667,29.335,734.03z"/>
	</g>
	<path fill="#787C53" stroke="#3D3D3D" stroke-width="2" stroke-miterlimit="10" d="M241.486,571.259
		c7.979-4.279,15.092-9.367,23.649-12.952c18.099-7.633,39.088-9.077,59.442-9.193c2.024,0,4.568-0.404,5.898-1.388
		c0.867-0.637,0.346-1.851-0.867-1.908c-3.702-0.173-7.402-0.348-11.045-0.521c-0.116,0-0.116-0.115,0-0.115l11.854-0.115
		c0.752,0,1.156-0.753,0.577-1.215c-3.469-2.774-8.21-3.7-13.414-2.774l12.72-0.175c0.521,0,0.868-0.521,0.579-0.866
		c-2.024-2.372-6.303-3.064-10.003-3.18c-34.116-1.389-73.319,12.257-99.687,29.604c-0.058,0-0.058,0.058,0,0.116"/>
	<path fill="#A5AD74" stroke="#3D3D3D" stroke-width="2" stroke-miterlimit="10" d="M85.134,705.466
		c-10.234,12.315-23.129,22.03-35.214,32.496s-23.708,22.204-30.126,36.833c-1.156,2.603-1.965,5.956,0.059,7.922
		c1.619,1.62,4.278,1.388,6.591,1.041c24.979-3.932,49.323-11.507,72.163-22.32c14.456-6.88,29.258-16.017,35.387-30.819
		c1.041-2.428,1.792-5.088,1.446-7.748c-0.231-1.85-0.983-3.585-1.735-5.318c-3.931-8.848-8.211-17.521-12.779-26.021
		c-3.006-5.552-8.962-21.915-14.629-24.748c-6.592-3.296-6.187,11.159-7.748,15.67C95.6,690.952,90.8,698.643,85.134,705.466z"/>
	<path fill="#787C53" stroke="#3D3D3D" stroke-width="2" stroke-miterlimit="10" d="M185.283,765.196
		c-1.909,5.552-4.511,12.027-1.272,17c1.792-0.174,3.758-0.347,5.319,0.637c1.562,0.983,2.082,3.585,0.521,4.51
		c-0.577,0.347-1.33,0.404-1.965,0.462c-2.023,0.116-3.99,0.175-6.014,0.29c-2.313,0.115-4.742,0.23-6.938-0.578
		c-2.198-0.81-4.221-2.659-4.395-4.973c-0.115-1.446,0.463-2.892,0.984-4.221c2.833-7.575,3.412-15.844,3.99-23.939
		c0.809-11.506,1.503-23.591-3.47-34c12.894-5.261,15.034,1.446,16.479,13.185C189.851,744.149,188.81,755.078,185.283,765.196z"/>
	<path fill="#A5AD74" stroke="#3D3D3D" stroke-width="2" stroke-miterlimit="10" d="M233.912,618.096
		c7.806,25.615,2.543,54.873-13.762,76.152c-16.306,21.279-43.193,34-69.966,33.075c2.429,18.503,1.909,37.47-1.502,55.798
		c4.625-0.693,9.598,1.967,11.623,6.188c-3.354,7.633-16.075,3.354-18.909-4.451c-2.775-7.807-0.231-16.538-0.983-24.808
		c-1.33-14.687-12.547-26.134-20.411-38.626c-12.085-19.139-16.653-41.979-18.966-64.472
		c-5.898-57.707,5.262-123.162,51.462-158.202c16.133-12.259,37.238-19.949,56.84-14.688c14.687,3.932,26.598,14.629,36.948,25.73
		c9.31,10.003,18.272,21.684,19.024,35.331c0.231,4.567-0.405,9.425,1.792,13.414c1.676,3.064,4.741,5.089,7.343,7.518
		c11.854,11.217,10.697,32.38-0.867,43.887c-11.565,11.564-30.704,13.473-45.507,6.592c-11.507-5.319-20.354-15.091-26.02-26.482
		c-2.718-5.494-0.521-12.144,4.915-15.033c0.577-0.29,1.157-0.636,1.734-0.926"/>
	<path fill="#A5AD74" stroke="#3D3D3D" stroke-width="2" stroke-miterlimit="10" d="M140.817,606.646"/>
	<path fill="none" stroke="#3D3D3D" stroke-width="2" stroke-miterlimit="10" d="M240.272,582.188
		c-2.66-2.892-6.592-4.568-10.523-4.337c-0.81,0.058-1.62,0.174-2.197,0.694c-0.579,0.521-0.752,1.271-0.868,2.023
		c-0.983,6.244,4.799,12.605,11.16,12.258"/>
	<path fill="#F2FF76" stroke="#3D3D3D" stroke-width="2" stroke-miterlimit="10" d="M235.762,491.868
		c0.231-9.02-1.677-18.214-6.765-25.674c-0.694-1.04-1.504-2.081-2.602-2.774c-2.602-1.562-5.898-0.693-8.79,0.288
		c-7.516,2.486-15.091,4.974-21.741,9.194c-6.649,4.222-12.432,10.408-14.514,18.04c3.295,4.973,8.558,8.269,13.704,11.333
		c5.609,3.412,11.218,6.767,16.768,10.177c4.684,2.834,14.399,9.078,19.082,4.396C235.126,512.627,235.588,497.593,235.762,491.868z
		"/>
	
		<ellipse transform="matrix(-0.9775 0.2111 -0.2111 -0.9775 596.6509 1018.7234)" fill="#3D3D3D" cx="243.958" cy="541.204" rx="0.521" ry="1.851"/>
	
		<ellipse transform="matrix(-0.9776 0.2104 -0.2104 -0.9776 569.2632 1027.8646)" fill="#3D3D3D" cx="229.964" cy="544.209" rx="0.52" ry="1.85"/>
	<circle fill="#FF78E6" cx="191.18" cy="555.589" r="3.123"/>
	<g>
		<path fill="#515150" stroke="#3D3D3D" stroke-width="2" stroke-miterlimit="10" d="M202.977,546.165
			c1.619,7.342,3.296,14.744,6.708,21.45c0.405,0.753,0.983,1.621,1.851,1.562c0.52-0.058,0.983-0.521,1.329-0.924
			c1.561-1.851,3.181-3.643,4.742-5.494c1.966-2.254,3.933-4.567,4.742-7.4c0.751-2.66,0.346-5.552-0.232-8.27
			c-1.157-5.436-5.088-21.914-12.201-21.972C200.028,525.002,201.705,540.44,202.977,546.165z"/>
		<path fill="#3F3F3E" stroke="#3D3D3D" stroke-width="2" stroke-miterlimit="10" d="M222.983,568.715
			c12.836-0.462,26.599-1.271,36.775-9.077c0.983-0.753,1.908-1.562,2.486-2.66c0.521-0.983,0.693-2.081,0.809-3.181
			c0.405-3.643,0.058-7.343-0.925-10.871c-0.405-1.387-0.983-2.833-2.197-3.585c-0.925-0.577-2.082-0.577-3.122-0.636
			c-11.218-0.059-22.146,3.238-32.901,6.534c-1.446,0.462-2.95,0.926-4.222,1.734c-2.602,1.677-3.989,4.625-5.262,7.402
			c-1.271,2.89-4.8,9.887-2.717,13.009C213.731,570.393,219.629,568.831,222.983,568.715z"/>
		<path fill="#757575" stroke="#3D3D3D" stroke-width="2" stroke-miterlimit="10" d="M241.603,521.242
			c4.799-2.718,9.83-6.823,15.091-5.319c5.205,1.504,7.228,7.691,8.442,12.953c0.984,4.277,1.909,8.673,1.678,13.067
			c-0.232,4.394-1.793,8.904-5.089,11.796c-2.082,1.85-4.684,2.891-7.286,3.874c-9.194,3.296-18.965,5.146-28.738,5.319
			c-3.412,0.059-7.112-0.173-9.772-2.37c-1.735-1.445-2.776-3.585-3.701-5.666c-2.949-6.65-10.813-26.311-1.677-31.397
			c3.18-1.793,8.326,0.982,11.622,1.328C228.997,525.522,235.588,524.655,241.603,521.242z"/>
		<path fill="#9B9B9B" stroke="#3D3D3D" stroke-width="2" stroke-miterlimit="10" d="M225.123,518.005
			c3.585,2.717,5.436,7.458,4.626,11.854c3.527,0.405,7.054,0.23,10.523-0.405c1.966-6.244-1.215-13.646-7.055-16.537
			c-1.908,2.602-4.857,4.396-8.037,4.799"/>
		<path fill="#9B9B9B" stroke="#3D3D3D" stroke-width="2" stroke-miterlimit="10" d="M205.752,547.205
			c-0.925-3.007-1.272-6.245-1.098-9.367c-12.258-0.983-24.633-3.585-35.561-9.252c-10.929-5.666-20.353-14.802-24.979-26.193
			c-2.313,2.485-8.327,7.864-8.79,11.275c-0.463,3.354,3.18,6.996,5.262,9.54c5.205,6.36,11.623,11.681,18.677,15.787
			c6.939,3.989,14.629,6.88,22.551,8.326C183.837,547.609,206.099,548.419,205.752,547.205z"/>
		<g opacity="0.48">
			<path fill="#FFFFFF" d="M230.731,541.827l0.925-0.23l2.949,6.13l-0.636-6.766l0.925-0.232l0.579,8.27l-1.041,0.29
				L230.731,541.827z"/>
			<path fill="#FFFFFF" d="M239.405,544.372l0.231,0.867l-2.776,0.751l-0.231-0.866L239.405,544.372z"/>
			<path fill="#FFFFFF" d="M239.29,539.457l0.925-0.231l2.139,7.806l-0.925,0.231L239.29,539.457z M240.793,542.984l1.445-0.404
				c0.231-0.059,0.347-0.175,0.52-0.29c0.116-0.115,0.231-0.289,0.231-0.405c0.058-0.174,0-0.346,0-0.578l-0.231-0.809
				c-0.058-0.231-0.173-0.405-0.289-0.521c-0.115-0.116-0.289-0.231-0.462-0.29c-0.173-0.058-0.347-0.058-0.578,0l-1.446,0.405
				l-0.231-0.867l1.388-0.405c0.405-0.116,0.81-0.116,1.099-0.059c0.347,0.059,0.636,0.175,0.867,0.405
				c0.231,0.231,0.405,0.521,0.521,0.868l0.231,0.925c0.116,0.404,0.116,0.751,0.058,1.041c-0.058,0.288-0.231,0.578-0.52,0.81
				c-0.231,0.231-0.578,0.404-0.983,0.521l-1.388,0.405L240.793,542.984z M242.412,543.157l0.752-0.462l2.313,3.47l-0.983,0.289
				L242.412,543.157z"/>
			<path fill="#FFFFFF" d="M244.262,538.069l0.926-0.231l2.139,7.807l-0.925,0.23L244.262,538.069z M244.782,537.954l2.834-0.753
				l0.231,0.867l-2.833,0.752L244.782,537.954z M245.766,541.422l2.544-0.693l0.232,0.868l-2.545,0.693L245.766,541.422z
				 M246.749,544.892l2.833-0.751l0.231,0.866l-2.833,0.753L246.749,544.892z"/>
			<path fill="#FFFFFF" d="M251.085,540.902l-0.231-0.23l-2.891-3.644l0.983-0.29l2.082,2.834l0.289,0.23l3.064,3.817l-0.983,0.288
				L251.085,540.902z M250.738,539.92l0.346-3.702l0.984-0.288l-0.636,4.741l-0.463,3.99l-0.982,0.288L250.738,539.92z"/>
		</g>
	</g>
	<path fill="#A5AD74" stroke="#3D3D3D" stroke-width="2" stroke-miterlimit="10" d="M142.494,604.912
		c7.865-3.989,15.901-6.881,23.477-11.738c16.075-10.234,28.564-26.31,39.667-42.558c1.099-1.619,2.775-3.411,4.336-3.932
		c1.041-0.348,1.734,0.751,1.099,1.734c-1.851,3.064-3.701,6.129-5.552,9.137c-0.058,0.057,0.059,0.115,0.117,0.057l6.476-9.424
		c0.404-0.637,1.271-0.521,1.33,0.173c0.462,4.337-1.388,8.674-4.915,12.316l6.996-10.062c0.289-0.462,0.868-0.404,1.041,0
		c0.868,2.949-0.867,6.766-2.775,9.829c-17.231,28.103-49.67,51.925-78.234,63.434c-0.058,0-0.058,0-0.058-0.059"/>
</g>
</svg>
