<?xml version="1.0" encoding="utf-8"?>
<!-- Generator: Adobe Illustrator 16.0.0, SVG Export Plug-In . SVG Version: 6.00 Build 0)  -->
<!DOCTYPE svg PUBLIC "-//W3C//DTD SVG 1.1//EN" "http://www.w3.org/Graphics/SVG/1.1/DTD/svg11.dtd">
<svg version="1.1" id="Calque_1" xmlns="http://www.w3.org/2000/svg" xmlns:xlink="http://www.w3.org/1999/xlink" x="0px" y="0px"
	 width="1870.204px" height="1346.929px" viewBox="-1087.48 -746.929 1870.204 1346.929"
	 enable-background="new -1087.48 -746.929 1870.204 1346.929" xml:space="preserve">
<g>
	<path fill="#EAEAEA" stroke="#3D3D3D" stroke-width="7" stroke-miterlimit="10" d="M665.283-54.274
		c9.172-16.873,12.874-36.113,16.278-54.981c4.289-23.789,8.251-47.656,11.945-71.518c0.932-6.107,1.669-13.026-2.104-17.908
		c-2.735-3.553-7.213-5.18-11.542-6.327c-39.146-10.362-80.662,5.955-114.292,28.525c-5.145,3.44-10.359,7.252-13.14,12.803
		c-2.438,4.917-2.66,10.617-2.806,16.091c-0.667,23.016-1.259,46.511,5.66,68.45c5.364,17.015,31.778,74.073,51.279,79.323
		C630.837,6.663,655.848-36.922,665.283-54.274z"/>
	<path fill="#EAEAEA" stroke="#3D3D3D" stroke-width="7" stroke-miterlimit="10" d="M242.12,523.691
		c21.61,4.767,41.442,17.386,54.91,34.958c6.03,7.847,10.32,20.245,2.771,26.64c-5.587,4.737-14.026,2.774-21.012,0.596
		c-17.32-5.478-34.632-10.954-51.949-16.428c-11.51-3.663-24.09-8.102-30.116-18.537c-3.593-6.218-4.294-13.614-4.92-20.757
		c-4-46.358-7.996-92.718-12.024-139.08c-0.33-3.992-0.626-8.251,1.219-11.8c1.959-3.698,5.884-5.885,9.586-7.847
		c14.688-7.695,31.483-15.061,47.323-10.175c24.122,7.439,4.474,52.908,2.845,71.632
		C240.012,441.771,234.464,522.022,242.12,523.691z"/>
	<path fill="#EAEAEA" stroke="#3D3D3D" stroke-width="7" stroke-miterlimit="10" d="M-374.579,415.574
		c21.606,4.774,41.438,17.393,54.907,34.969c6.03,7.843,10.323,20.238,2.774,26.64c-5.587,4.733-14.022,2.771-21.015,0.592
		c-17.316-5.478-34.633-10.953-51.945-16.431c-11.51-3.66-24.088-8.098-30.12-18.534c-3.588-6.218-4.292-13.614-4.922-20.761
		c-3.994-46.354-7.992-92.717-12.023-139.076c-0.331-3.996-0.627-8.254,1.22-11.803c1.961-3.699,5.885-5.881,9.585-7.843
		c14.689-7.695,31.485-15.061,47.321-10.179c24.122,7.443,4.478,52.912,2.848,71.633
		C-376.687,333.661-382.238,413.912-374.579,415.574z"/>
	<path fill="#FFFFFF" stroke="#3D3D3D" stroke-width="7" stroke-miterlimit="10" d="M-882.688-286.666
		c-86.578,101.414-136.343,233.611-138.155,366.92c-0.556,42.178,4.256,86.394,24.53,122.801c4.405,7.914,16.282,5.919,18.168-2.926
		c4.07-19.166-0.741-59.714-11.211-76.329c3.7,30.789,25.9,78.295,53.502,92.019c10.84,5.399,22.421-5.402,17.647-16.541
		c-11.62-27.044-40.735-45.175-46.658-76.811c11.471,26.088,23.792,44.583,49.395,57.019c10.396,5.03,22.014-5.031,18.203-15.95
		c-5.363-15.428-18.166-30.08-26.972-44.693c-23.681-39.295-19.5-88.686-13.914-134.227
		c10.322-84.176,26.529-175.345,89.724-231.878c13.69-12.282,29.452-22.68,40.143-37.665
		c14.617-20.494,36.666-87.463,23.534-108.851C-818.347-360.073-851.648-323.038-882.688-286.666z"/>
	<path fill="#FFFFFF" stroke="#3D3D3D" stroke-width="7" stroke-miterlimit="10" d="M331.142-469.777
		c-226.77-186.254-553.36-242.64-829.446-143.186c-145.295,52.356-282.712,154.249-331.254,300.875
		c-49.246,148.74,1.922,313.791,83.988,447.284c51.762,84.173,119.875,163.906,212.079,199.425
		c-9.583,48.357-19.056,99.009-5.071,146.257c13.988,47.248,59.682,89.093,108.296,80.952c17.908-17.979-8.51-44.393-27.417-61.34
		c-47.801-42.846-52.611-125.207-10.061-173.309c36.813-41.626,96.271-53.423,151.475-59.714
		c75.66-8.623,169.677-1.591,202.829,66.969c30.931,63.973-11.803,146.406,21.423,209.23c15.538,29.376,47.393,49.427,80.584,50.763
		c27.083,1.07,59.424-29.821,39.479-48.138c-5.661-5.183-13.618-6.695-20.796-9.324c-48.547-17.759-57.649-81.285-58.754-132.939
		c-1.073-49.65,3.773-109.846,48.024-132.377c39.848-20.317,89.1,4.36,118.249,38.292c29.152,33.888,46.95,76.623,77.587,109.184
		c149.035,158.394,434.704-62.899,447.911-238.199C658.325-58.493,510.92-322.075,331.142-469.777z"/>
	<path fill="#F9C68A" stroke="#3D3D3D" stroke-width="7" stroke-miterlimit="10" d="M576.709,252.669
		c45.8,25.383,76.213,73.113,90.273,123.577c6.586,23.679,9.92,49.173,2.888,72.702c-11.213,37.594-46.473,63.048-82.657,78.146
		c-102.601,42.771-223.22,22.089-321.121-30.563c-32.783-17.613-65.156-40.219-81.356-73.742
		c-12.027-24.901-13.95-53.274-15.389-80.914c-1.778-33.818-1.817-71.667,21.418-96.342c19.538-20.759,50.504-26.052,78.993-25.386
		c56.094,1.335,115.365,45.618,165.091,42.55C489.607,259.329,511.625,216.598,576.709,252.669z"/>
	<path fill="#9B6C5F" stroke="#3D3D3D" stroke-width="7" stroke-miterlimit="10" d="M544.444,351.679
		c23.827,4.553,38.738,32.298,33.484,55.945c-5.253,23.679-26.715,41.548-50.248,47.322c-8.839,2.182-18.646,2.773-26.637-1.594
		c-8.808-4.812-13.688-14.688-15.871-24.495C477.548,394.119,502.783,343.688,544.444,351.679z"/>
	<path fill="#9B6C5F" stroke="#3D3D3D" stroke-width="7" stroke-miterlimit="10" d="M347.863,351.679
		c-23.82,4.553-38.731,32.298-33.484,55.945c5.261,23.64,26.714,41.548,50.248,47.322c8.846,2.182,18.649,2.773,26.638-1.594
		c8.807-4.812,13.693-14.688,15.871-24.495C414.798,394.119,389.528,343.688,347.863,351.679z"/>
	<path fill="none" stroke="#3D3D3D" stroke-width="7" stroke-miterlimit="10" d="M253.74-93.239
		c-40.4-40.51-94.167-67.558-150.774-75.883c-3.809-0.556-8.141-0.886-11.138,1.555c-2.143,1.778-3.032,4.627-3.772,7.287
		c-14.946,55.871,8.25,119.878,55.463,153.25"/>
	<path fill="#3D3D3D" d="M477.208,113.367c-0.325-7.595,1.112-13.824,3.213-13.916c2.104-0.092,4.074,5.991,4.403,13.586
		c0.326,7.599-1.115,13.827-3.217,13.916C479.503,127.044,477.534,120.962,477.208,113.367z"/>
	<path fill="#3D3D3D" d="M372.499,117.883c-0.329-7.596,1.109-13.827,3.21-13.916c2.104-0.092,4.075,5.991,4.404,13.59
		c0.329,7.592-1.112,13.823-3.213,13.916C374.798,131.561,372.822,125.479,372.499,117.883z"/>
	<path fill="#FF78E6" d="M187.362,71.928c12.714,0,23.016,10.306,23.016,23.017c0,12.707-10.302,23.013-23.016,23.013
		c-12.707,0-23.009-10.306-23.009-23.013C164.353,82.234,174.655,71.928,187.362,71.928z"/>
	<path fill="#FF78E6" d="M594.579,42.773c12.711,0,23.013,10.305,23.013,23.013c0,12.715-10.302,23.016-23.013,23.016
		c-12.706,0-23.017-10.301-23.017-23.016C571.562,53.078,581.873,42.773,594.579,42.773z"/>
	<path d="M298.289-414.866c4.364,24.972,11.177,52.533-1.849,74.292c-11.769,19.605-36.337,27.675-59.162,28.861
		c-22.829,1.145-45.771-3-68.529-0.744c-34.774,3.443-66.665,21.61-101.297,26.159c-50.84,6.66-101.343-16.945-141.634-48.69
		c-41.622-32.783-77.18-77.736-83.691-130.311c-2.593-21.015,0.036-43.732,12.764-60.678c23.531-31.34,71.557-32.521,99.934-59.495
		c16.69-15.873,28.345-41.366,51.244-43.658c7.809-0.778,15.538,1.518,23.014,3.845c50.354,15.802,99.49,35.447,146.923,58.609
		c41.399,20.239,108.701,46.435,137.673,82.731C296.106-464.3,293.846-440.324,298.289-414.866z"/>
	<path d="M-379.723-482.059c21.277,3.81,43.549,3.994,63.53,12.286c24.788,10.249,43.993,33.112,49.798,59.307
		c5.81,26.197-1.962,55.02-20.125,74.777c-23.789,25.861-61.234,34.222-96.349,35.259c-50.133,1.478-101.634-9.767-142.776-38.44
		c-41.146-28.639-70.558-76.035-71.039-126.167c-0.111-11.436,1.258-23.017,5.734-33.563c9.138-21.458,30.116-35.814,51.912-44.102
		c21.826-8.289,45.176-11.656,67.558-18.24c3.071-0.926,6.327-1.886,9.438-1.187c3.624,0.817,6.363,3.739,8.731,6.625
		c12.656,15.465,14.541,36.223,26.16,50.801C-416.277-491.049-396.154-484.982-379.723-482.059z"/>
	<path d="M-736.541-235.352c-2.22,30.786-18.647,63.158-4.883,90.797c5.363,10.805,14.763,19.091,20.867,29.493
		c6.584,11.244,8.953,24.416,10.137,37.368c2.257,24.901,0,51.467-14.094,72.11c-14.098,20.646-42.588,32.858-65.192,22.162
		c-19.388-9.179-28.788-31.114-35.26-51.538c-19.906-62.711-28.082-129.128-24.088-194.798c1.738-28.27,5.4-111.443,47.951-104.082
		C-761.035-326.886-733.953-271.646-736.541-235.352z"/>
	<path d="M-119.691,65.97c7.029-30.226,5.253-63.636-11.064-90.05c-25.046-40.591-84.583-54.91-125.316-30.155
		c-12.098,7.322-22.386,17.426-34.632,24.455c-22.974,13.172-50.911,14.504-77.215,11.545c-28.639-3.22-57.868-11.063-85.767-3.925
		c-27.933,7.146-52.833,37.375-41.215,63.753c3.515,7.993,9.879,14.468,13.8,22.276c9.585,19.091,3.182,42.175-5.735,61.603
		c-8.918,19.393-20.423,38.668-20.903,60.013c-0.519,24.348,13.762,46.805,31.411,63.604c14.137,13.426,31.156,24.529,50.245,28.377
		c21.904,4.402,44.437-0.89,66.157-6.18c28.486-6.953,57.014-13.872,85.504-20.83c28.376-6.919,57.493-14.17,81.36-31.041
		c26.79-18.942,29.822-40.368,38.146-69.077C-146.445,121.025-126.794,96.458-119.691,65.97z"/>
</g>
</svg>
