<?xml version="1.0" encoding="utf-8"?>
<!-- Generator: Adobe Illustrator 25.0.0, SVG Export Plug-In . SVG Version: 6.00 Build 0)  -->
<svg version="1.1" id="Calque_1" xmlns="http://www.w3.org/2000/svg" xmlns:xlink="http://www.w3.org/1999/xlink" x="0px" y="0px"
	 viewBox="0 0 374.4 522" style="enable-background:new 0 0 374.4 522;" xml:space="preserve">
<style type="text/css">
	.st0{fill:#B4D8D6;stroke:#3D3D3D;stroke-width:2;stroke-miterlimit:10;}
	.st1{fill:#847B56;stroke:#3D3D3D;stroke-width:2;stroke-miterlimit:10;}
	.st2{fill:#D82B72;}
	.st3{fill:#75654C;stroke:#3D3D3D;stroke-width:2;stroke-miterlimit:10;}
	.st4{fill:#56472C;stroke:#3D3D3D;stroke-width:2;stroke-miterlimit:10;}
	.st5{fill:#759100;stroke:#3D3D3D;stroke-width:2;stroke-miterlimit:10;}
	.st6{fill:#D30051;stroke:#3D3D3D;stroke-width:2;stroke-miterlimit:10;}
	.st7{fill:#FFF3AB;stroke:#3D3D3D;stroke-width:2;stroke-miterlimit:10;}
	.st8{fill:#3D3D3D;}
	.st9{fill:none;stroke:#3D3D3D;stroke-width:2;stroke-miterlimit:10;}
	.st10{fill:#FF78E6;}
	.st11{fill:#FF6CA8;stroke:#3D3D3D;stroke-width:2;stroke-miterlimit:10;}
</style>
<g>
	<g>
		<path class="st0" d="M16.7,396.7c10.2-21,21.3-41.8,33.2-62.3c1.2,0.2,2.4,0.3,3.6,0.5c0.1-1.5-0.5-2.8-1.4-3.4
			c10.7-13.9,23.5-25.8,36.4-33.8c1.2-0.8,2.5-1.5,3.6-1.6c1-0.1,1.8,0.4,2.4,1c3.4,2.9,7.8,11.2,2.8,19
			c-5.5,8.6-18.3,19.1-25.3,26.3C53.8,361,35.4,379.1,16.7,396.7z"/>
		<path class="st1" d="M104.6,278.8c0.7-0.5,1.5-1.1,2.4-1.1c1.2,0,2.2,0.9,3.1,1.7c3.8,3.9,7.7,7.7,11.5,11.6
			c0.7,0.7,1.5,1.6,1.5,2.6c0,0.9-0.7,1.7-1.4,2.4c-7.4,7.4-15.2,14.4-23.5,20.8c-0.7,0.6-1.5,1.2-2.4,1.2c-0.9,0-1.7-0.5-2.4-1
			c-3.8-2.7-7.2-6-10-9.7c-3.6-4.6-3.9-5-0.7-9.1C88.4,290.8,97.2,284.5,104.6,278.8z"/>
		<path class="st2" d="M55.7,323.4c-0.7-1.9-0.4-4.9,1.5-5.2c1-0.1,2.2,0.6,2.9-0.1c0.7-0.6,0.4-1.9,0.4-2.9c0-2.4,1.8-4.4,3.8-5.1
			c2-0.7,4.2-0.5,6.3-0.2c0.2-1.6,1.2-3.5,2.7-3.4c1.6,0.2,2.2,2.6,1.5,4.2c-0.7,1.6-2.1,2.6-3.4,3.7c-3.2,2.9-5.5,7-6.2,11.5
			c-0.3,1.6-0.4,3.3-1.4,4.4C61.2,333.8,56.5,325.7,55.7,323.4z"/>
		<path class="st2" d="M31.6,362c-1.5,2.7-0.7,6.4-2.5,9c-1.5,2.1-4.2,2.9-6.3,4.3s-3.7,4.7-1.8,6.5c0.5,0.5,1.2,0.8,1.5,1.4
			c0.2,0.6,0,1.2-0.3,1.8c-3.3,7-10,12.3-12.1,19.7c-1,3.5-0.2,8.3,3.4,9c2.9,0.6,5.5-2.1,6.1-5s0-5.8,0-8.7
			c-0.2-8.3,4.2-15.9,8.4-23.1c2.6-4.4,5.2-8.8,7.8-13.3c1.1,1.9,4.3,1.5,5.5-0.3C45.7,356.3,34.4,356.8,31.6,362z"/>
	</g>
	<path class="st3" d="M159.2,496.5c0.7,2.5,1.5,5.2,3.4,7.1c2.2,2.3,5.6,3.2,8.8,4c31.9,7.5,66.2,5.4,96.6-6
		c12.4-4.6,24.4-11,32.5-20.8c3.1-3.7,5.6-8,6.1-12.7c0.3-3.4-0.4-6.8-1.1-10.1c-5.4-24.1-11.9-48.1-19.3-71.8c-0.3-1-0.7-2-1.5-2.7
		c-1.5-1.1-3.7-0.5-5.5,0.2c-35.7,13.5-73.6,22.4-112,26.1c-20.3,2-31.8,10.4-24.9,29.3C149,457.8,153.7,477.4,159.2,496.5z"/>
	<path class="st3" d="M119.9,427.7c1.6,2.8,3.4,5.6,6.2,7.2c2.6,1.5,5.8,1.8,8.9,2c53.1,2.8,106-15.1,150.7-43.9
		c8.4-5.4,17-11.8,20.1-21.3c2.2-6.7,1.2-14.1-0.4-21c-2-8.8-4.9-17.5-10.2-24.9c-8.2-11.5-21.8-18.9-35.9-19.5
		c-7.5-0.3-14.9,1.2-22.2,2.8c-32.2,7.3-63.6,17.8-93.7,31.2c-7.6,3.4-15.3,7.1-21.6,12.6C101.1,370.8,108,406.5,119.9,427.7z"/>
	<path class="st4" d="M144.1,322.7c-11.7,5.3-23.4,11.9-30.7,22.4c-7.3,10.5-9,26-0.7,35.7c6.8,8,18.2,10.3,28.8,11
		c48.1,3.6,97.4-13.1,133.5-45.2c7-6.2,13.9-14,13.9-23.4c0-8.5-6.2-16.1-13.7-20.1c-7.5-4-16.2-5-24.8-5.5
		c-19.4-1.1-39,0.4-58.1,4.3C174.9,305.5,160.3,315.3,144.1,322.7z"/>
	<path class="st5" d="M191.4,241.4c11.4-1.1,22.1-3.3,34-3.4c25.3-0.3,52,7.1,77.5,15.5c2.5,0.8,5.8,1.5,7.9,1
		c1.3-0.3,1.1-1.8-0.4-2.3c-4.5-1.7-9.1-3.5-13.6-5.2c-0.1,0-0.1-0.2,0-0.1l14.8,4.9c1,0.3,1.7-0.3,1.2-1c-3.4-4.3-9-7.3-15.8-8.5
		l15.9,5.1c0.7,0.2,1.3-0.1,1-0.6c-1.7-3.3-6.8-5.8-11.4-7.5c-42.2-15.8-95.9-18.1-134.9-11.4c-0.1,0-0.1,0.1,0,0.1"/>
	<path class="st5" d="M169.8,258c-2.7,17.9-1,37,7.9,52.8c1.7,3,3.6,6,3.7,9.4c0,6.2-6.3,10.4-12,12.9c-5.7,2.5-12.3,5.3-14.1,11.3
		c-1.4,4.8,1,10.1,4.9,13.2c3.9,3.1,8.9,4.5,13.8,5.2c18.5,2.9,38.1-1.6,53.5-12.3c8.4-5.8,16.1-16,12.2-25.4
		c-2.6-6.1-9.3-9.4-15.9-10.3c-6.5-0.9-13.2,0.2-19.8,0.1c-2.6,0-5.3-0.3-7.5-1.7c-2.2-1.4-3.5-3.9-4.7-6.3
		c-13.7-29.8-6.2-67.9,17.6-90.4c-3.6-4.4-10.6-9.9-16.6-10c-8.1-0.1-7.3,1.8-10.5,9.2C176.5,229,172,243.5,169.8,258z"/>
	<g>
		<ellipse class="st6" cx="192.7" cy="46.5" rx="37.6" ry="33.7"/>
		<ellipse class="st6" cx="248.4" cy="43.7" rx="37.6" ry="33.7"/>
		<ellipse class="st6" cx="155" cy="80.9" rx="37.6" ry="33.7"/>
		<ellipse class="st6" cx="148.2" cy="138.7" rx="37.6" ry="33.7"/>
		<ellipse class="st6" cx="173.1" cy="182.9" rx="37.6" ry="33.7"/>
		<ellipse class="st6" cx="223.5" cy="203.2" rx="37.6" ry="33.7"/>
		<ellipse class="st6" cx="298.8" cy="66.4" rx="37.6" ry="33.7"/>
		<ellipse class="st6" cx="323.7" cy="108.6" rx="37.6" ry="33.7"/>
		<ellipse class="st6" cx="312.8" cy="160.8" rx="37.6" ry="33.7"/>
		<ellipse class="st6" cx="275.2" cy="193.1" rx="37.6" ry="33.7"/>
	</g>
	<ellipse class="st7" cx="236" cy="122" rx="75.3" ry="67.4"/>
	<path class="st5" d="M178.4,239.9c-8.6,4.5-17.3,7.7-25.6,13.1c-17.5,11.4-31.2,29.1-43.2,47c-1.2,1.8-3,3.8-4.7,4.4
		c-1.1,0.4-1.9-0.8-1.2-1.9c2-3.4,4-6.7,6-10.1c0.1-0.1-0.1-0.2-0.1-0.1l-7,10.4c-0.5,0.7-1.4,0.6-1.4-0.2
		c-0.5-4.7,1.5-9.5,5.3-13.6l-7.6,11.1c-0.3,0.5-1,0.5-1.1,0c-1-3.2,0.9-7.4,3-10.8c18.8-31,54.2-57.4,85.3-70.3c0,0,0.1,0,0.1,0.1"
		/>
	<ellipse transform="matrix(0.9894 -0.1454 0.1454 0.9894 -14.6993 35.9454)" class="st8" cx="238.6" cy="118.5" rx="1" ry="3.5"/>
	<ellipse transform="matrix(0.9894 -0.1454 0.1454 0.9894 -13.8583 39.7268)" class="st8" cx="264.9" cy="114.7" rx="1" ry="3.5"/>
	<path class="st9" d="M248.1,141.2c2.5,2.3,6.2,3.4,9.6,2.7c3.4-0.7,6.4-3.1,7.7-6.3"/>
	<circle class="st10" cx="217.7" cy="132.9" r="5.8"/>
	<circle class="st10" cx="293" cy="118.4" r="5.8"/>
	<path class="st11" d="M307.1,172c-8.3-2.5-18.2,1-23,8.2c-6.7,9.9-3.6,23.3,0.7,34.5c3.8,10.2,8.4,20.2,15.3,28.6
		c1.6,2,3.4,3.9,5.7,5.1c2.1,1.1,4.4,1.5,6.7,1.7c19.7,2,40.2-8.5,50-25.8c2.3-4,4-8.3,4.6-12.9c1.3-10.6-4.7-21.7-14.2-26.4
		c-10.4-5.2-22.2-2.2-30.6,5.1C319.1,182.3,316.2,174.7,307.1,172z"/>
</g>
</svg>
