<?xml version="1.0" encoding="utf-8"?>
<!-- Generator: Adobe Illustrator 25.0.0, SVG Export Plug-In . SVG Version: 6.00 Build 0)  -->
<svg version="1.1" id="Calque_1" xmlns="http://www.w3.org/2000/svg" xmlns:xlink="http://www.w3.org/1999/xlink" x="0px" y="0px"
	 viewBox="0 0 485.99 357" style="enable-background:new 0 0 485.99 357;" xml:space="preserve">
<style type="text/css">
	.st0{fill:#EAEAEA;stroke:#3D3D3D;stroke-width:2;stroke-miterlimit:10;}
	.st1{fill:#FFFFFF;stroke:#3D3D3D;stroke-width:2;stroke-miterlimit:10;}
	.st2{fill:#F9C68A;stroke:#3D3D3D;stroke-width:2;stroke-miterlimit:10;}
	.st3{fill:#9B6C5F;stroke:#3D3D3D;stroke-width:2;stroke-miterlimit:10;}
	.st4{fill:none;stroke:#3D3D3D;stroke-width:2;stroke-miterlimit:10;}
	.st5{fill:#3D3D3D;}
	.st6{fill:#FF78E6;}
</style>
<g>
	<path class="st0" d="M470.02,175.66c2.48-4.56,3.48-9.76,4.4-14.86c1.16-6.43,2.23-12.88,3.23-19.33c0.25-1.65,0.45-3.52-0.57-4.84
		c-0.74-0.96-1.95-1.4-3.12-1.71c-10.58-2.8-21.8,1.61-30.89,7.71c-1.39,0.93-2.8,1.96-3.55,3.46c-0.66,1.33-0.72,2.87-0.76,4.35
		c-0.18,6.22-0.34,12.57,1.53,18.5c1.45,4.6,8.59,20.02,13.86,21.44C460.71,192.13,467.47,180.35,470.02,175.66z"/>
	<path class="st0" d="M355.65,331.87c5.84,1.29,11.2,4.7,14.84,9.45c1.63,2.12,2.79,5.47,0.75,7.2c-1.51,1.28-3.79,0.75-5.68,0.16
		c-4.68-1.48-9.36-2.96-14.04-4.44c-3.11-0.99-6.51-2.19-8.14-5.01c-0.97-1.68-1.16-3.68-1.33-5.61
		c-1.08-12.53-2.16-25.06-3.25-37.59c-0.09-1.08-0.17-2.23,0.33-3.19c0.53-1,1.59-1.59,2.59-2.12c3.97-2.08,8.51-4.07,12.79-2.75
		c6.52,2.01,1.21,14.3,0.77,19.36C355.08,309.73,353.58,331.42,355.65,331.87z"/>
	<path class="st0" d="M188.97,302.65c5.84,1.29,11.2,4.7,14.84,9.45c1.63,2.12,2.79,5.47,0.75,7.2c-1.51,1.28-3.79,0.75-5.68,0.16
		c-4.68-1.48-9.36-2.96-14.04-4.44c-3.11-0.99-6.51-2.19-8.14-5.01c-0.97-1.68-1.16-3.68-1.33-5.61
		c-1.08-12.53-2.16-25.06-3.25-37.59c-0.09-1.08-0.17-2.23,0.33-3.19c0.53-1,1.59-1.59,2.59-2.12c3.97-2.08,8.51-4.07,12.79-2.75
		c6.52,2.01,1.21,14.3,0.77,19.36C188.4,280.51,186.9,302.2,188.97,302.65z"/>
	<path class="st1" d="M51.64,112.85c-23.4,27.41-36.85,63.14-37.34,99.17c-0.15,11.4,1.15,23.35,6.63,33.19
		c1.19,2.14,4.4,1.6,4.91-0.79c1.1-5.18-0.2-16.14-3.03-20.63c1,8.32,7,21.16,14.46,24.87c2.93,1.46,6.06-1.46,4.77-4.47
		c-3.14-7.31-11.01-12.21-12.61-20.76c3.1,7.05,6.43,12.05,13.35,15.41c2.81,1.36,5.95-1.36,4.92-4.31
		c-1.45-4.17-4.91-8.13-7.29-12.08c-6.4-10.62-5.27-23.97-3.76-36.28c2.79-22.75,7.17-47.39,24.25-62.67
		c3.7-3.32,7.96-6.13,10.85-10.18c3.95-5.54,9.91-23.64,6.36-29.42C69.03,93.01,60.03,103.02,51.64,112.85z"/>
	<path class="st1" d="M379.71,63.36c-61.29-50.34-149.56-65.58-224.18-38.7c-39.27,14.15-76.41,41.69-89.53,81.32
		c-13.31,40.2,0.52,84.81,22.7,120.89c13.99,22.75,32.4,44.3,57.32,53.9c-2.59,13.07-5.15,26.76-1.37,39.53s16.13,24.08,29.27,21.88
		c4.84-4.86-2.3-12-7.41-16.58c-12.92-11.58-14.22-33.84-2.72-46.84c9.95-11.25,26.02-14.44,40.94-16.14
		c20.45-2.33,45.86-0.43,54.82,18.1c8.36,17.29-3.19,39.57,5.79,56.55c4.2,7.94,12.81,13.36,21.78,13.72
		c7.32,0.29,16.06-8.06,10.67-13.01c-1.53-1.4-3.68-1.81-5.62-2.52c-13.12-4.8-15.58-21.97-15.88-35.93
		c-0.29-13.42,1.02-29.69,12.98-35.78c10.77-5.49,24.08,1.18,31.96,10.35c7.88,9.16,12.69,20.71,20.97,29.51
		c40.28,42.81,117.49-17,121.06-64.38C468.14,174.52,428.3,103.28,379.71,63.36z"/>
	<path class="st2" d="M446.08,258.62c12.38,6.86,20.6,19.76,24.4,33.4c1.78,6.4,2.68,13.29,0.78,19.65
		c-3.03,10.16-12.56,17.04-22.34,21.12c-27.73,11.56-60.33,5.97-86.79-8.26c-8.86-4.76-17.61-10.87-21.99-19.93
		c-3.25-6.73-3.77-14.4-4.16-21.87c-0.48-9.14-0.49-19.37,5.79-26.04c5.28-5.61,13.65-7.04,21.35-6.86
		c15.16,0.36,31.18,12.33,44.62,11.5C422.54,260.42,428.49,248.87,446.08,258.62z"/>
	<path class="st3" d="M437.36,285.38c6.44,1.23,10.47,8.73,9.05,15.12c-1.42,6.4-7.22,11.23-13.58,12.79
		c-2.39,0.59-5.04,0.75-7.2-0.43c-2.38-1.3-3.7-3.97-4.29-6.62C419.28,296.85,426.1,283.22,437.36,285.38z"/>
	<path class="st3" d="M384.23,285.38c-6.44,1.23-10.47,8.73-9.05,15.12s7.22,11.23,13.58,12.79c2.39,0.59,5.04,0.75,7.2-0.43
		c2.38-1.3,3.7-3.97,4.29-6.62C402.32,296.85,395.49,283.22,384.23,285.38z"/>
	<path class="st4" d="M358.79,165.13c-10.92-10.95-25.45-18.26-40.75-20.51c-1.03-0.15-2.2-0.24-3.01,0.42
		c-0.58,0.48-0.82,1.25-1.02,1.97c-4.04,15.1,2.23,32.4,14.99,41.42"/>
	
		<ellipse transform="matrix(0.9991 -0.0431 0.0431 0.9991 -9.1318 18.3167)" class="st5" cx="420.2" cy="220.93" rx="1.03" ry="3.72"/>
	
		<ellipse transform="matrix(0.9991 -0.0431 0.0431 0.9991 -9.2107 17.0979)" class="st5" cx="391.9" cy="222.15" rx="1.03" ry="3.72"/>
	<circle class="st6" cx="340.85" cy="215.99" r="6.22"/>
	<circle class="st6" cx="450.91" cy="208.11" r="6.22"/>
	<path d="M370.83,78.2c1.18,6.75,3.02,14.2-0.5,20.08c-3.18,5.3-9.82,7.48-15.99,7.8c-6.17,0.31-12.37-0.81-18.52-0.2
		c-9.4,0.93-18.02,5.84-27.38,7.07c-13.74,1.8-27.39-4.58-38.28-13.16c-11.25-8.86-20.86-21.01-22.62-35.22
		c-0.7-5.68,0.01-11.82,3.45-16.4c6.36-8.47,19.34-8.79,27.01-16.08c4.51-4.29,7.66-11.18,13.85-11.8c2.11-0.21,4.2,0.41,6.22,1.04
		c13.61,4.27,26.89,9.58,39.71,15.84c11.19,5.47,29.38,12.55,37.21,22.36C370.24,64.84,369.63,71.32,370.83,78.2z"/>
	<path d="M187.58,60.04c5.75,1.03,11.77,1.08,17.17,3.32c6.7,2.77,11.89,8.95,13.46,16.03c1.57,7.08-0.53,14.87-5.44,20.21
		c-6.43,6.99-16.55,9.25-26.04,9.53c-13.55,0.4-27.47-2.64-38.59-10.39c-11.12-7.74-19.07-20.55-19.2-34.1
		c-0.03-3.09,0.34-6.22,1.55-9.07c2.47-5.8,8.14-9.68,14.03-11.92c5.9-2.24,12.21-3.15,18.26-4.93c0.83-0.25,1.71-0.51,2.55-0.32
		c0.98,0.22,1.72,1.01,2.36,1.79c3.42,4.18,3.93,9.79,7.07,13.73C177.7,57.61,183.14,59.25,187.58,60.04z"/>
	<path d="M91.14,126.72c-0.6,8.32-5.04,17.07-1.32,24.54c1.45,2.92,3.99,5.16,5.64,7.97c1.78,3.04,2.42,6.6,2.74,10.1
		c0.61,6.73,0,13.91-3.81,19.49c-3.81,5.58-11.51,8.88-17.62,5.99c-5.24-2.48-7.78-8.41-9.53-13.93
		c-5.38-16.95-7.59-34.9-6.51-52.65c0.47-7.64,1.46-30.12,12.96-28.13C84.52,101.98,91.84,116.91,91.14,126.72z"/>
	<path d="M257.86,208.16c1.9-8.17,1.42-17.2-2.99-24.34c-6.77-10.97-22.86-14.84-33.87-8.15c-3.27,1.98-6.05,4.71-9.36,6.61
		c-6.21,3.56-13.76,3.92-20.87,3.12c-7.74-0.87-15.64-2.99-23.18-1.06c-7.55,1.93-14.28,10.1-11.14,17.23
		c0.95,2.16,2.67,3.91,3.73,6.02c2.59,5.16,0.86,11.4-1.55,16.65c-2.41,5.24-5.52,10.45-5.65,16.22
		c-0.14,6.58,3.72,12.65,8.49,17.19c3.82,3.63,8.42,6.63,13.58,7.67c5.92,1.19,12.01-0.24,17.88-1.67
		c7.7-1.88,15.41-3.75,23.11-5.63c7.67-1.87,15.54-3.83,21.99-8.39c7.24-5.12,8.06-10.91,10.31-18.67
		C250.63,223.04,255.94,216.4,257.86,208.16z"/>
</g>
</svg>
