<?xml version="1.0" encoding="utf-8"?>
<!-- Generator: Adobe Illustrator 16.0.0, SVG Export Plug-In . SVG Version: 6.00 Build 0)  -->
<!DOCTYPE svg PUBLIC "-//W3C//DTD SVG 1.1//EN" "http://www.w3.org/Graphics/SVG/1.1/DTD/svg11.dtd">
<svg version="1.1" id="Calque_1" xmlns="http://www.w3.org/2000/svg" xmlns:xlink="http://www.w3.org/1999/xlink" x="0px" y="0px"
	 width="194px" height="445.5px" viewBox="222.5 154.5 194 445.5" enable-background="new 222.5 154.5 194 445.5"
	 xml:space="preserve">
<g>
	<path fill="#FCD2B4" stroke="#3D3D3D" stroke-width="2" stroke-miterlimit="10" d="M321.219,282.073
		c4.41-2.43,10.26-0.27,13.59,3.6c3.33,3.781,4.77,8.91,6.029,13.771c3.69,13.59,7.291,27.09,10.981,40.681
		c11.61-17.551,19.619-37.351,23.58-57.961c1.259-6.48,2.249-13.5,6.209-18.63c0.54-0.72,1.801-0.36,1.891,0.54
		c0.27,4.32-0.181,8.73-1.351,12.871l1.62-10.26c0.181-0.99,0.99-1.71,1.979-1.71c1.62,0,1.891,2.16,1.711,3.69l-1.08,7.65
		c-0.09,0.36-0.54,0.36-0.631,0c-0.27-2.97,0.9-6.12,2.971-8.28c0.631-0.72,1.801-0.09,1.71,0.81
		c-4.05,27.9-13.14,54.99-26.73,79.65c-1.709,3.15-3.599,6.21-6.39,8.461c-2.79,2.159-6.75,3.239-9.99,1.619
		c-1.979-0.99-3.33-2.79-4.589-4.499c-5.76-8.28-9.63-18.001-11.07-27.991c2.43,22.591,4.86,45.181,7.2,67.771
		c-18.271,3.42-36.99,4.501-55.531,3.33c1.62-11.25,3.24-22.5,4.86-33.75c0.36-2.34,0.63-4.681,0.45-7.021
		c-0.271-2.699-1.35-5.22-2.16-7.739c-5.31-17.101,0.54-35.641,8.91-51.39C298.989,290.443,313.749,282.793,321.219,282.073"/>
	<path fill="#F99900" stroke="#3D3D3D" stroke-width="2" stroke-miterlimit="10" d="M327.429,164.712
		c11.431,5.041,20.61,14.67,25.11,26.371c2.969,7.83,3.78,16.2,4.32,24.57c0.539,8.73,0.72,17.46,0.899,26.28
		c0.181,9,0.45,18,0.63,27c-2.7,2.431-7.2,0-8.549-3.33c-1.35-3.33-0.811-7.11-1.35-10.62c-0.631-4.05-2.61-7.83-5.67-10.53
		c-4.05,8.28-4.141,18.271-0.271,26.641c-7.2,1.169-15.48,2.07-21.06-2.61c-7.291-6.03-5.851-17.28-5.581-26.73
		c0.63-21.24-7.74-41.4-17.37-59.94c-3.96-7.65-11.25-16.11,0.27-19.8C307.539,159.042,319.149,161.113,327.429,164.712z"/>
	<path fill="#FFEABB" stroke="#3D3D3D" stroke-width="2" stroke-miterlimit="10" d="M342.549,454.784
		c-0.27,16.83-0.63,33.75-2.88,50.31c-1.08,8.01-2.61,15.93-4.05,23.851c-2.521,13.14-4.95,26.279-7.471,39.33
		c-1.62,1.89-4.679,0.63-5.85-1.8c-1.17-2.431-0.81-5.311-0.54-8.011c3.149-28.44,5.67-56.971,8.28-85.59
		c0.36-4.5,0.809-8.91,0.809-13.409c0.09-10.711-2.069-21.421-6.119-30.961c-0.36-0.81-0.72-1.619-1.44-2.07
		c-0.63-0.359-1.439-0.27-2.16-0.18c-8.82,1.259-17.73,2.521-26.55,3.87c4.05,7.74,6.93,16.29,8.46,25.199
		c1.529,8.911,1.71,18.091,1.8,27.181c0.27,25.83-0.36,52.2-7.65,76.5c-0.45,1.531-0.99,3.15-1.98,4.41
		c-1.98,2.52-5.22,2.971-8.1,3.24c-0.54,0.09-1.17,0.09-1.62-0.27c-0.9-0.721-0.72-2.25-0.45-3.42
		c5.85-24.931,8.1-51.12,6.66-76.951c-0.45-7.83-1.17-15.569-3.06-23.13c-2.25-9.359-6.12-18.18-8.1-27.63
		c-2.43-12.061-1.98-24.931,1.53-36.63c0.271-1.08,0.63-2.16,1.351-2.881c1.259-1.439,3.24-1.53,5.04-1.62
		c8.37-0.18,16.65-1.709,24.75-3.689c6.84-1.619,15.211-5.85,22.321-4.41c11.7,2.25,7.56,27.091,7.47,36.181
		C342.819,433.094,342.729,443.894,342.549,454.784z"/>
	<path fill="#FCD2B4" stroke="#3D3D3D" stroke-width="2" stroke-miterlimit="10" d="M345.249,210.523
		c3.24,16.83-3.78,35.19-17.46,45.54c-6.66,5.04-15.66,9.81-15.841,18.18c-0.089,5.31,3.061,11.97-1.26,14.94
		c-3.96,2.609-9.09-1.891-10.08-6.48c-1.08-4.59-0.18-9.72-2.25-13.95c-3.06-6.03-10.62-7.74-16.74-10.71
		c-14.4-7.02-22.41-24.3-20.34-40.14c2.07-15.84,13.05-29.88,27-37.71c13.05-7.29,24.48-7.92,36.901,0.36
		C335.349,187.482,342.909,198.463,345.249,210.523z"/>
	
		<ellipse transform="matrix(-0.1264 -0.992 0.992 -0.1264 149.87 562.3937)" fill="#3D3D3D" cx="322.567" cy="215.206" rx="2.07" ry="0.539"/>
	
		<ellipse transform="matrix(-0.1264 -0.992 0.992 -0.1264 130.3607 549.1858)" fill="#3D3D3D" cx="306.997" cy="217.193" rx="2.07" ry="0.54"/>
	<circle fill="#FF78E6" cx="293.049" cy="225.823" r="3.42"/>
	<circle fill="#FF78E6" cx="335.979" cy="220.333" r="3.42"/>
	<path fill="none" stroke="#3D3D3D" stroke-width="2" stroke-miterlimit="10" d="M297.278,216.463c3.24-0.81,6.57-1.08,9.811-1.44
		c6.12-0.63,12.239-1.35,18.36-1.98"/>
	<path fill="none" stroke="#3D3D3D" stroke-width="2" stroke-miterlimit="10" d="M313.929,235.273c1.44,0,2.88,0,4.23,0"/>
	<path fill="#F99900" stroke="#3D3D3D" stroke-width="2" stroke-miterlimit="10" d="M267.128,169.212
		c-8.82,6.03-14.67,15.571-18.72,25.561c-9.72,23.94-9.9,51.75-0.27,75.78c2.25,5.67,7.29,12.15,12.96,10.08
		c-3.96-14.04-5.85-28.71-5.761-43.29c1.17,11.609,3.511,23.04,6.931,34.109c0.54,1.801,1.26,3.78,2.7,4.951
		c1.35,1.08,3.15,1.35,4.86,1.44c13.14,0.99,26.55-6.21,33.21-17.64c-7.92,1.08-15.841-3.42-20.521-9.9
		c-4.59-6.48-6.3-14.67-6.57-22.68c-0.54-17.64,5.58-35.37,16.92-48.87C308.619,160.123,277.119,162.373,267.128,169.212z"/>
	<path fill="#F99900" stroke="#3D3D3D" stroke-width="2" stroke-miterlimit="10" d="M340.119,178.753
		c7.651,7.92,11.34,20.25,7.651,30.78c-2.25,0-4.411,0-6.661-0.09c1.71-3.33,1.08-7.47-0.63-10.8s-4.41-5.94-7.11-8.46
		c-0.45,3.69,1.8,7.11,2.7,10.71c0.9,3.6-0.63,8.64-4.23,8.64c-0.089-5.129-0.18-10.53-2.071-15.3c-1.889-4.77-6.209-8.91-11.159-9
		c4.41,7.38,5.94,16.56,4.32,25.02c-2.431-4.59-2.791-9.9-4.5-14.85c-1.71-4.86-5.58-9.72-10.62-9.54
		c3.689,7.56,3.33,17.01-0.9,24.21c0.63-8.73-2.43-17.73-8.1-24.12c-1.26,3.24-0.45,6.839,0.54,10.08c0.99,3.24,2.25,6.66,1.8,10.08
		c-0.45,3.42-3.15,6.84-6.39,6.57c1.35-7.38,0.54-15.21-2.431-22.05c-1.529,7.02-3.059,13.95-4.5,20.97
		c-0.271,1.08-0.45,2.16-1.26,2.88c-0.9,0.9-2.16,0.99-3.42,1.08c-10.53,0.631-21.06,0.181-31.5-1.26
		c1.17-14.58,8.55-28.62,19.711-37.62C290.079,161.833,322.749,160.663,340.119,178.753z"/>
	<path fill="#FCD2B4" stroke="#3D3D3D" stroke-width="2" stroke-miterlimit="10" d="M277.659,296.743
		c-3.06,1.71-6.21,3.33-8.91,5.58c-3.69,3.06-6.39,6.93-9.09,10.8c-9.63,13.77-19.26,27.631-28.89,41.4
		c-1.71,2.431-3.42,5.49-2.07,8.1c0.63,1.08,1.71,1.89,2.791,2.61c9.99,6.931,20.25,13.591,31.68,17.91
		c11.43,4.32,24.21,6.21,36.18,3.33c2.43-0.54,5.31-2.34,4.5-4.591c-3.51,0.811-7.02,1.53-10.53,2.34c3.87,0,7.65-1.89,9.9-4.949
		c-4.68,0.721-9.27,1.89-13.68,3.51c3.78-0.359,7.38-2.069,9.99-4.77c-4.23-1.891-8.91,1.71-13.59,2.07
		c-1.98,0.18-3.87-0.27-5.76-0.721c-11.79-3.06-22.77-8.91-31.589-17.01c-1.08-0.99-2.16-2.069-2.61-3.42
		c-0.63-2.07,0.36-4.23,1.44-6.21c5.58-10.08,12.33-19.621,20.25-28.171c2.7-2.88,5.939-5.939,9.99-6.029
		c4.95-0.181,9.45,3.96,14.22,2.971c3.69-0.811,5.94-4.321,7.74-7.471c2.43-4.32,4.95-8.641,7.38-12.96
		c1.891-3.42,3.87-7.021,3.51-10.89C308.979,274.603,283.599,293.593,277.659,296.743z"/>
	<path fill="#DBDBDB" stroke="#3D3D3D" stroke-width="2" stroke-miterlimit="10" d="M330.669,281.713
		c6.66,3.51,9.539,11.34,11.879,18.54c0.721,2.34,1.53,4.77,2.25,7.11c0.72,2.25,1.439,4.77,0.27,6.75
		c-0.629,1.08-1.62,1.891-2.701,2.61c-3.419,2.249-7.199,3.689-11.249,4.32c-0.54,0.09-1.08,0.09-1.44-0.181
		c-0.36-0.27-0.45-0.72-0.54-1.08c-1.17-5.22-1.98-10.53-3.69-15.57c-1.71-5.04-4.23-9.99-8.37-13.41
		c-3.42-2.88-8.821-7.56-2.97-10.53C318.249,278.293,326.889,279.823,330.669,281.713z"/>
	<path fill="#F7F7F7" stroke="#3D3D3D" stroke-width="2" stroke-miterlimit="10" d="M265.688,327.704
		c0.72,0.359,1.53,0.629,2.25,0.539c0.72-0.18,1.26-0.63,1.8-1.17c1.8-1.89,3.15-4.23,5.22-5.851c2.07-1.619,5.13-2.339,7.02-0.539
		c0.54,11.97,1.98,23.94,4.5,35.64c13.771-1.351,27.63-2.609,41.22-5.31c2.79-0.541,6.12-1.53,7.2-4.23
		c0.45-1.259,0.45-2.609,0.36-3.96c-0.99-18.99-1.979-37.979-2.97-56.97c-0.09-2.43-0.36-5.22-2.25-6.84
		c-1.71-1.44-12.511-3.06-13.86-1.26c-1.89,2.521-12.96,11.07-16.74,1.62c-1.26,1.8-2.07,3.33-4.14,4.05
		c-9.271,3.51-18.36,7.65-27.18,12.24c-3.15,1.62-6.39,3.419-8.641,6.209C251.469,311.593,255.249,322.573,265.688,327.704z"/>
	<path fill="#3A3A3A" stroke="#3D3D3D" stroke-width="2" stroke-miterlimit="10" d="M277.929,402.043
		c9.629,3.781,20.34-0.18,30.69-0.989c7.02-0.54,14.13,0.36,21.24-0.36c3.78-0.359,7.56-1.169,11.161-2.52
		c0.72-0.27,1.53-0.539,1.98-1.17c0.539-0.631,0.63-1.44,0.721-2.25c0.269-3.24-0.271-6.48-1.44-9.45
		c-0.271-0.72-0.631-1.439-1.26-1.801c-0.811-0.449-1.891-0.359-2.88-0.09c-4.32,0.9-8.73,1.71-13.05,2.61
		c-10.351,2.07-20.791,4.05-31.321,5.04C282.608,392.054,280.809,391.244,277.929,402.043z"/>
	<path fill="none" stroke="#3D3D3D" stroke-width="5" stroke-miterlimit="10" d="M329.048,398.444
		c5.311,13.319,8.641,27.72,9.811,42.21c0.72,8.819,0.54,17.729,0.09,26.55c-1.531,25.83-6.301,51.21-11.07,76.59"/>
	<path fill="none" stroke="#3D3D3D" stroke-width="5" stroke-miterlimit="10" d="M280.269,401.233
		c6.93,13.229,11.88,27.811,14.76,42.841c1.709,9.18,2.7,18.45,3.24,27.81c1.62,27.271-0.089,54.54-1.8,81.72"/>
	<path fill="#282828" stroke="#3D3D3D" stroke-width="2" stroke-miterlimit="10" d="M302.049,544.783
		c0.63-0.358,1.26-0.81,1.44-1.529s-0.36-1.62-1.08-1.439c1.53,0,2.7,1.529,2.97,3.15c0.27,1.62-0.27,3.24-0.72,4.769
		c-2.7,8.82-5.49,17.641-8.19,26.461c-0.27,0.811-0.54,1.71-0.27,2.609c0.18,0.721,0.72,1.262,1.26,1.801
		c3.33,3.33,6.66,6.75,9.9,10.08c0.81,0.9,1.8,1.89,1.8,3.15c0,1.8-1.89,2.969-3.51,2.789c-1.62-0.179-3.06-1.35-4.32-2.43
		c-4.5-3.87-9-7.739-13.5-11.61c-1.08-0.899-2.16-1.799-2.88-3.06c-1.259-2.25-1.169-5.04-0.99-7.649
		c0.45-5.49-0.36-18.091,3.06-22.681C290.619,544.514,297.009,547.664,302.049,544.783z"/>
	<path fill="#282828" stroke="#3D3D3D" stroke-width="2" stroke-miterlimit="10" d="M336.699,532.814
		c0.63-0.36,1.259-0.81,1.44-1.529c0.18-0.721-0.36-1.62-1.08-1.44c1.53,0,2.7,1.529,2.97,3.149c0.27,1.621-0.27,3.24-0.72,4.771
		c-2.699,8.82-5.49,17.64-8.189,26.459c-0.271,0.811-0.54,1.71-0.271,2.61c0.181,0.72,0.721,1.26,1.261,1.801
		c3.33,3.33,6.66,6.75,9.9,10.08c0.811,0.899,1.801,1.89,1.801,3.149c0,1.8-1.891,2.971-3.511,2.79c-1.62-0.18-3.06-1.35-4.32-2.43
		c-4.5-3.87-9-7.74-13.5-11.61c-1.08-0.9-2.16-1.8-2.879-3.061c-1.26-2.249-1.17-5.039-0.99-7.649c0.45-5.49-0.36-18.09,3.06-22.68
		C325.269,532.544,331.75,535.604,336.699,532.814z"/>
	<path fill="none" stroke="#3D3D3D" stroke-width="5" stroke-miterlimit="10" d="M290.889,493.844c-0.99,1.62,0.99,3.421,2.7,4.051
		c2.25,0.899,4.68,1.62,7.021,1.08c2.34-0.541,4.59-2.61,4.68-5.22"/>
	<path fill="none" stroke="#3D3D3D" stroke-width="5" stroke-miterlimit="10" d="M325.449,517.064c-0.99,1.62,0.99,3.42,2.7,4.05
		c2.25,0.9,4.681,1.62,7.021,1.08c2.339-0.54,4.59-2.611,4.68-5.221"/>
	<path fill="none" stroke="#3D3D3D" stroke-width="5" stroke-miterlimit="10" d="M327.608,491.145c-0.99,1.62,0.99,3.42,2.7,4.05
		c2.25,0.9,4.681,1.62,7.021,1.079c2.34-0.54,4.59-2.609,4.68-5.22"/>
	<path fill="none" stroke="#3D3D3D" stroke-width="5" stroke-miterlimit="10" d="M291.879,519.765c-0.99,1.62,0.99,3.42,2.7,4.05
		c2.25,0.9,4.68,1.62,7.02,1.08c2.34-0.541,4.59-2.609,4.68-5.22"/>
	<path fill="#F99900" d="M294.129,315.69c2.609,8.952,4.59,18.187,6.3,27.421c5.31,29.305,8.01,59.363,8.19,89.329
		c4.59,1.6,10.62,2.637,13.231-2.262c0.809-1.604,1.08-3.394,1.259-5.276c5.22-43.251,6.57-87.067,7.02-130.884
		c0.09-4.806,0.09-9.894-1.62-14.323c-1.709-4.429-5.67-7.915-9.63-7.067c-1.08,0.283-2.16,0.848-2.791,1.884
		c-0.72,1.131-0.72,2.639-0.81,4.052c-0.99,28.174-1.89,56.444-2.609,84.617c-7.56-27.891-5.94-59.269-17.46-85.275
		c-0.09-0.283-8.1,4.805-8.64,5.37c-3.15,3.393-2.79,3.298-1.71,7.915C286.659,299.483,291.699,307.493,294.129,315.69z"/>
	<path fill="#F99900" d="M296.199,366.403c3.6,0.09,7.11-0.81,10.62-1.8c0.18,1.8,0.36,3.51,0.54,5.31
		c0.09,1.081,0.18,2.341-0.54,3.15c-0.63,0.72-1.62,0.811-2.52,0.991c-5.49,0.81-11.07,1.529-16.47,0.539
		c-0.63-0.091-1.35-0.27-1.89-0.811c-0.63-0.629-0.72-1.529-0.9-2.339c-0.27-2.161-1.26-7.561,1.53-8.461
		C287.469,362.714,294.129,366.313,296.199,366.403z"/>
	<path fill="#F99900" d="M326.439,365.773c3.78,1.08,8.19-0.72,10.08-4.23c1.62,1.44,2.43,3.69,2.16,5.851
		c-0.27,2.16-1.71,4.141-3.689,5.04c-1.8,0.9-3.87,0.9-5.85,0.9c-1.26,0-2.521-0.091-3.781-0.18c-0.359,0-0.809-0.091-1.08-0.361
		c-0.269-0.359-0.269-0.899-0.18-1.349c0.27-1.98,1.17-3.871,2.34-5.491"/>
	<path fill="#F7F7F7" stroke="#3D3D3D" stroke-width="2" stroke-miterlimit="10" d="M398.979,271.093H382.06
		c-5.401,0-9.81-4.41-9.81-9.811v-0.81c0-5.399,4.408-9.81,9.81-9.81h16.919c5.4,0,9.811,4.41,9.811,9.81v0.81
		C408.789,266.683,404.379,271.093,398.979,271.093z"/>
	<path fill="#565656" stroke="#3D3D3D" stroke-width="2" stroke-miterlimit="10" d="M407.979,247.333
		c0.72,0.18,1.439,0.36,1.979,0.81c0.811,0.81,0.9,2.07,0.9,3.241c0,6.39,0,12.689-0.09,19.08c0,0.45,0,0.99-0.36,1.44
		c-0.359,0.359-0.9,0.45-1.351,0.54c-4.859,0.72-9.719,0.81-14.669,0.54c0-1.8-0.271-3.6-0.721-5.4c2.16,0.27,4.409,0.45,6.569,0.72
		c0.721,0.09,1.62,0.09,2.16-0.45c0.271-0.36,0.36-0.9,0.36-1.35c0.09-2.16,0.09-4.32,0.18-6.48c0-0.9,0.091-1.8-0.27-2.61
		c-1.169-3.06-5.58-2.97-8.1-2.34C392.318,246.343,401.77,245.983,407.979,247.333z"/>
	<g>
		<path fill="#B50041" d="M380.619,254.983h0.989v6.12h-0.899v-4.23l0.09,0.27l-0.899,2.88h-0.54l-0.9-2.79l0.09-0.36v4.23h-0.99
			v-6.12h0.99l0.99,3.33L380.619,254.983z"/>
		<path fill="#B50041" d="M382.959,261.013c-0.18-0.09-0.36-0.271-0.54-0.541c-0.09-0.27-0.18-0.54-0.18-0.81v-4.589h1.079v4.68
			c0,0.18,0,0.27,0.091,0.36c0.09,0.09,0.18,0.09,0.271,0.09c0.089,0,0.27,0,0.27-0.09c0.09-0.09,0.09-0.18,0.09-0.36v-4.68h1.08
			v4.589c0,0.36-0.09,0.631-0.181,0.81c-0.089,0.27-0.27,0.451-0.539,0.541c-0.181,0.09-0.45,0.18-0.811,0.18
			C383.499,261.193,383.229,261.103,382.959,261.013z"/>
		<path fill="#B50041" d="M385.839,254.983h1.08v6.12h-1.08V254.983z M386.199,260.113h2.16v0.99h-2.16V260.113z"/>
		<path fill="#B50041" d="M388.269,254.983h3.061v0.99h-3.061V254.983z M389.35,255.522h1.079v5.581h-1.079V255.522z"/>
		<path fill="#B50041" d="M392.77,261.103h-1.08v-6.12h1.08V261.103z"/>
		<path fill="#B50041" d="M377.648,261.913h1.081v6.12h-1.081V261.913z M378.099,264.613h1.08c0.09,0,0.181,0,0.181-0.09
			c0.09,0,0.09-0.09,0.18-0.18c0-0.09,0.091-0.18,0.091-0.271v-0.72c0-0.09,0-0.18-0.091-0.27c0-0.09-0.09-0.18-0.18-0.18
			c-0.091,0-0.181-0.09-0.181-0.09h-1.08v-0.99h1.08c0.271,0,0.54,0.09,0.81,0.18c0.181,0.09,0.361,0.27,0.451,0.45
			c0.09,0.18,0.18,0.45,0.18,0.72v0.99c0,0.27-0.09,0.54-0.18,0.72c-0.09,0.181-0.271,0.36-0.451,0.45
			c-0.18,0.09-0.449,0.18-0.81,0.18h-1.08V264.613z"/>
		<path fill="#B50041" d="M382.148,261.913h0.721l1.439,6.12h-0.99l-0.81-3.96l-0.81,3.96h-0.99L382.148,261.913z M381.699,266.053
			h1.619v0.99h-1.619V266.053z"/>
		<path fill="#B50041" d="M385.029,267.853c-0.271-0.09-0.36-0.27-0.54-0.54c-0.09-0.18-0.181-0.45-0.181-0.81v-0.36h0.991v0.36
			c0,0.18,0,0.27,0.09,0.36c0.089,0.09,0.18,0.09,0.358,0.09c0.181,0,0.271,0,0.361-0.09c0.09-0.09,0.09-0.18,0.09-0.36v-0.54
			c0-0.09,0-0.18-0.09-0.27c-0.09-0.09-0.181-0.18-0.271-0.18c-0.091-0.09-0.27-0.09-0.36-0.18l0,0l0,0h-0.089
			c-0.271-0.09-0.451-0.27-0.54-0.36c-0.181-0.09-0.27-0.27-0.36-0.45c-0.09-0.18-0.181-0.45-0.181-0.72v-0.27
			c0-0.27,0.091-0.54,0.181-0.81c0.091-0.18,0.27-0.36,0.54-0.54c0.271-0.09,0.54-0.18,0.81-0.18c0.271,0,0.54,0.09,0.81,0.18
			c0.181,0.09,0.361,0.27,0.541,0.54c0.09,0.18,0.179,0.45,0.179,0.81v0.36h-0.989v-0.36c0-0.18,0-0.27-0.09-0.36
			c-0.09-0.09-0.18-0.09-0.36-0.09s-0.27,0-0.359,0.09c-0.091,0.09-0.091,0.18-0.091,0.36v0.45c0,0.089,0,0.18,0.091,0.27
			c0.09,0.09,0.179,0.179,0.27,0.179c0.09,0.09,0.181,0.09,0.36,0.181c0,0,0.09,0,0.09,0.09c0,0,0.09,0,0.09,0.09l0,0l0,0
			c0.27,0.09,0.45,0.271,0.54,0.36c0.18,0.09,0.271,0.271,0.36,0.45c0.089,0.18,0.18,0.45,0.18,0.72v0.54
			c0,0.36-0.091,0.54-0.18,0.81c-0.09,0.18-0.27,0.36-0.54,0.54c-0.271,0.18-0.54,0.18-0.811,0.18
			C385.569,268.033,385.3,267.943,385.029,267.853z"/>
		<path fill="#B50041" d="M388.63,267.853c-0.271-0.09-0.361-0.27-0.541-0.54c-0.09-0.18-0.18-0.45-0.18-0.81v-0.36h0.99v0.36
			c0,0.18,0,0.27,0.089,0.36c0.09,0.09,0.181,0.09,0.361,0.09c0.179,0,0.27,0,0.359-0.09c0.09-0.09,0.09-0.18,0.09-0.36v-0.54
			c0-0.09,0-0.18-0.09-0.27c-0.09-0.09-0.181-0.18-0.27-0.18c-0.09-0.09-0.271-0.09-0.361-0.18l0,0l0,0h-0.09
			c-0.27-0.09-0.449-0.27-0.539-0.36c-0.181-0.09-0.271-0.27-0.36-0.45c-0.09-0.18-0.18-0.45-0.18-0.72v-0.27
			c0-0.27,0.09-0.54,0.18-0.81c0.09-0.18,0.271-0.36,0.541-0.54c0.27-0.09,0.539-0.18,0.81-0.18c0.27,0,0.539,0.09,0.81,0.18
			c0.18,0.09,0.36,0.27,0.54,0.54c0.09,0.18,0.18,0.45,0.18,0.81v0.36h-0.99v-0.36c0-0.18,0-0.27-0.09-0.36
			c-0.09-0.09-0.18-0.09-0.36-0.09c-0.179,0-0.27,0-0.359,0.09c-0.091,0.09-0.091,0.18-0.091,0.36v0.45c0,0.089,0,0.18,0.091,0.27
			c0.09,0.09,0.181,0.179,0.271,0.179c0.089,0.09,0.18,0.09,0.359,0.181c0,0,0.09,0,0.09,0.09c0,0,0.09,0,0.09,0.09l0,0l0,0
			c0.271,0.09,0.45,0.271,0.541,0.36c0.179,0.09,0.27,0.271,0.359,0.45c0.09,0.18,0.181,0.45,0.181,0.72v0.54
			c0,0.36-0.091,0.54-0.181,0.81c-0.09,0.18-0.27,0.36-0.54,0.54c-0.27,0.18-0.54,0.18-0.811,0.18
			C389.078,268.033,388.809,267.943,388.63,267.853z"/>
	</g>
</g>
</svg>
