<?xml version="1.0" encoding="utf-8"?>
<!-- Generator: Adobe Illustrator 25.0.0, SVG Export Plug-In . SVG Version: 6.00 Build 0)  -->
<svg version="1.1" id="Calque_1" xmlns="http://www.w3.org/2000/svg" xmlns:xlink="http://www.w3.org/1999/xlink" x="0px" y="0px"
	 viewBox="0 0 429.6 525.6" style="enable-background:new 0 0 429.6 525.6;" xml:space="preserve">
<style type="text/css">
	.st0{fill:#F2FF76;stroke:#3D3D3D;stroke-width:2;stroke-miterlimit:10;}
	.st1{fill:#787C53;stroke:#3D3D3D;stroke-width:2;stroke-miterlimit:10;}
	.st2{fill:#A5AD74;stroke:#3D3D3D;stroke-width:2;stroke-miterlimit:10;}
	.st3{fill:none;stroke:#3D3D3D;stroke-width:2;stroke-miterlimit:10;}
	.st4{fill:#3D3D3D;}
	.st5{fill:#FF78E6;}
</style>
<g>
	<g>
		<path class="st0" d="M192.26,23.97c-0.78-0.11-1.68-0.18-2.26,0.36c-0.45,0.42-0.56,1.08-0.65,1.69c-0.43,3.14-0.87,6.28-1.3,9.42
			c-1,7.22-2,14.5-1.56,21.78c0.7,11.73,5.25,23.2,12.77,32.23c4.92,5.9,45.93-31.18,47.23-38.37
			C249.24,35.86,204.18,25.66,192.26,23.97z"/>
		<path class="st0" d="M123.31,101.62c-0.77,0.19-1.62,0.46-1.96,1.17c-0.26,0.56-0.12,1.21,0.03,1.81
			c0.77,3.07,1.55,6.15,2.32,9.22c1.78,7.07,3.57,14.2,6.7,20.78c5.04,10.62,13.55,19.55,23.9,25.11
			c6.77,3.63,30.93-46.1,29.45-53.25C180.6,91.33,135,98.73,123.31,101.62z"/>
		<path class="st0" d="M91.86,212.87c-0.69,0.37-1.46,0.85-1.61,1.62c-0.12,0.61,0.19,1.2,0.48,1.75c1.51,2.79,3.02,5.57,4.54,8.36
			c3.48,6.41,6.99,12.86,11.65,18.47c7.52,9.03,17.98,15.57,29.39,18.38c7.46,1.84,18.51-52.33,15.3-58.9
			C144.81,188.67,102.47,207.16,91.86,212.87z"/>
		<path class="st0" d="M92.19,319.22c-0.69,0.37-1.46,0.85-1.61,1.62c-0.12,0.61,0.19,1.2,0.48,1.75c1.51,2.79,3.02,5.57,4.54,8.36
			c3.48,6.41,6.99,12.86,11.65,18.47c7.52,9.03,17.98,15.57,29.39,18.38c7.46,1.84,18.51-52.33,15.3-58.9
			C145.13,295.02,102.8,313.51,92.19,319.22z"/>
		<path class="st0" d="M79.5,375.45c-0.58-0.06-1.24-0.1-1.66,0.31c-0.32,0.32-0.39,0.81-0.44,1.26c-0.25,2.32-0.5,4.65-0.75,6.97
			c-0.58,5.35-1.16,10.74-0.68,16.09c0.77,8.63,4.37,16.99,10.12,23.48c3.75,4.24,33.19-23.98,33.99-29.32
			C121.77,382.98,88.33,376.44,79.5,375.45z"/>
		<path class="st0" d="M23.88,429.9c-0.58-0.06-1.24-0.1-1.66,0.31c-0.32,0.32-0.39,0.81-0.44,1.26c-0.25,2.32-0.5,4.65-0.75,6.97
			c-0.58,5.35-1.16,10.74-0.68,16.09c0.77,8.63,4.37,16.99,10.12,23.48c3.75,4.24,33.19-23.98,33.99-29.32
			C66.15,437.43,32.71,430.89,23.88,429.9z"/>
	</g>
	<path class="st1" d="M322.6,248.85c6.25,12.67,13.8,24.08,18.97,37.6c10.97,28.67,12.11,61.53,11.28,93.34
		c-0.08,3.17,0.38,7.12,1.9,9.28c0.99,1.41,2.86,0.62,3.02-1.26c0.46-5.75,0.93-11.5,1.39-17.25c0.01-0.15,0.19-0.14,0.19,0.01
		l-0.44,18.48c-0.03,1.21,1.12,1.84,1.83,1c4.5-5.25,6.21-12.67,5.08-20.84l-0.37,19.85c-0.02,0.86,0.74,1.4,1.32,0.94
		c3.83-3.04,5.08-9.72,5.51-15.5c3.91-53.24-15.36-115.16-40.99-157.22c-0.04-0.06-0.11-0.06-0.15,0"/>
	<path class="st2" d="M111.07,385.3c-15.97,19.24-36.16,34.41-55.06,50.78s-37.07,34.66-47.07,57.58c-1.76,4.04-3.05,9.29,0.07,12.4
		c2.56,2.55,6.72,2.21,10.29,1.65c38.99-6.18,77.09-17.94,112.77-34.84c22.62-10.71,45.7-25.05,55.3-48.16
		c1.59-3.82,2.78-7.96,2.27-12.07c-0.36-2.9-1.54-5.62-2.73-8.29c-6.15-13.79-12.8-27.35-19.93-40.66
		c-4.67-8.71-13.98-34.2-22.87-38.66c-10.35-5.19-9.65,17.48-12.11,24.46C127.38,362.6,119.92,374.65,111.07,385.3z"/>
	<path class="st1" d="M267.54,478.62c-3.03,8.72-7.04,18.84-1.98,26.55c2.82-0.3,5.88-0.55,8.27,0.96c2.39,1.52,3.24,5.57,0.84,7.07
		c-0.91,0.57-2.04,0.64-3.11,0.7c-3.12,0.16-6.24,0.31-9.36,0.47c-3.66,0.18-7.42,0.35-10.88-0.86c-3.46-1.21-6.57-4.15-6.84-7.8
		c-0.17-2.28,0.76-4.49,1.57-6.63c4.44-11.88,5.36-24.73,6.24-37.39c1.24-17.96,2.32-36.85-5.43-53.1
		c20.16-8.2,23.48,2.27,25.77,20.56C274.71,445.75,273.02,462.82,267.54,478.62z"/>
	<path class="st2" d="M343.54,248.74c12.21,40.04,3.94,85.75-21.53,118.98c-25.47,33.22-67.46,53.09-109.3,51.7
		c3.78,28.96,2.99,58.51-2.34,87.22c7.27-1.07,15,3.04,18.18,9.67c-5.22,11.91-25.13,5.28-29.51-6.96
		c-4.38-12.24-0.34-25.8-1.49-38.75c-2.04-22.94-19.61-40.87-31.91-60.34c-18.87-29.87-26-65.62-29.61-100.77
		c-9.25-90.18,8.19-192.5,80.44-247.24c25.24-19.12,58.21-31.19,88.79-22.96c22.97,6.18,41.57,22.82,57.77,40.23
		c14.54,15.63,28.57,33.91,29.73,55.22c0.39,7.11-0.6,14.71,2.82,20.96c2.64,4.81,7.45,7.95,11.43,11.72
		c18.51,17.55,16.7,50.58-1.33,68.62c-18.03,18.04-47.97,21.02-71.12,10.32c-17.95-8.29-31.84-23.61-40.68-41.43
		c-4.26-8.59-0.78-19.02,7.69-23.5c0.92-0.49,1.84-0.97,2.75-1.46"/>
	<path class="st2" d="M198.08,230.9"/>
	<path class="st2" d="M198.08,230.9c-0.72,14.11-3.13,27.58-2.52,42.04c1.29,30.66,13.25,61.3,26.62,90.17
		c1.33,2.88,2.48,6.69,1.93,9.28c-0.35,1.68-2.38,1.7-3.27,0.04c-2.7-5.09-5.41-10.19-8.11-15.28c-0.07-0.13-0.23-0.05-0.17,0.08
		l7.72,16.8c0.51,1.1-0.3,2.13-1.29,1.65c-6.21-3.04-10.72-9.17-12.92-17.12l8.2,18.08c0.35,0.78-0.12,1.58-0.84,1.39
		c-4.72-1.28-8.52-6.91-11.2-12.05c-24.68-47.34-31.52-111.82-24.64-160.6c0.01-0.07,0.08-0.1,0.13-0.06"/>
	<path class="st3" d="M353.51,192.6c-4.12-4.54-10.32-7.11-16.44-6.82c-1.24,0.06-2.55,0.26-3.46,1.1c-0.87,0.79-1.21,2-1.39,3.16
		c-1.52,9.77,7.53,19.73,17.4,19.15"/>
	<path class="st0" d="M346.4,51.55c0.36-14.05-2.66-28.5-10.55-40.13c-1.12-1.65-2.37-3.27-4.06-4.32
		c-4.03-2.48-9.22-1.07-13.71,0.41c-11.72,3.87-23.58,7.79-34.01,14.4c-10.43,6.61-19.44,16.28-22.69,28.19
		c5.13,7.8,13.39,12.89,21.37,17.74c8.75,5.3,17.49,10.61,26.24,15.91c7.33,4.45,22.53,14.21,29.82,6.86
		C345.42,83.94,346.17,60.46,346.4,51.55z"/>
	
		<ellipse transform="matrix(0.9775 -0.2108 0.2108 0.9775 -19.032 78.627)" class="st4" cx="359.28" cy="128.58" rx="0.82" ry="2.93"/>
	
		<ellipse transform="matrix(0.9775 -0.2108 0.2108 0.9775 -20.5179 74.1219)" class="st4" cx="337.41" cy="133.3" rx="0.82" ry="2.93"/>
	<circle class="st5" cx="276.76" cy="151.08" r="4.91"/>
</g>
</svg>
