<?xml version="1.0" encoding="utf-8"?>
<!-- Generator: Adobe Illustrator 16.0.0, SVG Export Plug-In . SVG Version: 6.00 Build 0)  -->
<!DOCTYPE svg PUBLIC "-//W3C//DTD SVG 1.1//EN" "http://www.w3.org/Graphics/SVG/1.1/DTD/svg11.dtd">
<svg version="1.1" id="Calque_1" xmlns="http://www.w3.org/2000/svg" xmlns:xlink="http://www.w3.org/1999/xlink" x="0px" y="0px"
	 width="314.984px" height="349.615px" viewBox="50.617 57.81 314.984 349.615"
	 enable-background="new 50.617 57.81 314.984 349.615" xml:space="preserve">
<g>
	<path fill="#60594D" stroke="#3D3D3D" stroke-width="2" stroke-miterlimit="10" d="M232.328,321.17
		c5.245-14.06,12.273-28.899,25.662-35.649c2.344-1.171,4.854-2.064,6.862-3.737c3.628-2.902,5.3-8.034,4.074-12.553
		c8.982-2.789,18.688-3.067,27.782-0.78c-21.087-9.818-43.459-17.072-66.331-21.367c-4.965-0.947-10.267-1.729-15.008,0
		c-3.683,1.34-6.639,4.074-9.484,6.752c-8.424,8.034-16.345,16.625-23.709,25.661c-4.575,5.634-17.963,18.354-17.184,26.557
		C166.109,317.599,220.893,319.496,232.328,321.17z"/>
	<path fill="#20BC88" stroke="#3D3D3D" stroke-width="2" stroke-miterlimit="10" d="M142.12,185.045
		c3.18,8.146,0.837,17.462-1.172,26.055c-2.008,8.591-3.458,18.298,1.062,25.774c4.127,6.75,12.384,9.762,20.083,9.428
		c4.351-0.168,8.871-1.284,12.218-4.24c3.347-2.902,5.244-7.922,3.794-12.162c-4.462,3.794-10.376,5.745-16.067,5.243
		c-2.008-0.166-4.073-0.669-5.468-2.174c-2.008-2.232-1.729-5.915-0.334-8.649c1.394-2.733,3.626-4.908,5.467-7.307
		c5.912-7.923,7.028-19.303,2.789-28.173c-4.016-8.424-19.971-22.483-29.344-20.308C135.089,174.836,139.943,179.524,142.12,185.045
		z"/>
	<path fill="#20BC88" stroke="#3D3D3D" stroke-width="2" stroke-miterlimit="10" d="M152.663,192.41
		c5.97,1.505,12.385,3.179,16.904,7.42c4.462,4.184,5.244,11.659,0,13.277c-2.902,0.894-6.417-0.225-9.596-1.507
		c-3.18-1.282-6.416-2.844-9.651-2.844c-3.236-0.055-6.248,2.176-5.3,5.076c6.415,1.114,12.832,3.403,18.634,6.638
		c4.072,2.287,8.089,5.077,12.608,5.97c4.686,0.892,9.15-0.613,12.329-3.123c3.181-2.512,5.244-5.858,7.252-9.148
		c1.507-2.512,3.068-5.078,3.515-7.979c1.061-6.471-3.348-13.836-9.372-19.08c-6.026-5.3-13.501-8.926-20.866-12.439
		c-2.398-1.173-4.966-2.344-7.476-2.232c-1.897,0.111-3.459,0.948-4.741,1.953c-5.97,4.629-8.089,12.273-16.179,14.895
		C144.519,190.513,148.702,191.407,152.663,192.41z"/>
	<path fill="#20BC88" stroke="#3D3D3D" stroke-width="2" stroke-miterlimit="10" d="M110.599,193.08
		c1.506,4.742,2.957,9.875,1.339,14.561c-1.618,4.686-7.866,7.978-11.716,4.91c-2.119-1.675-2.789-4.574-3.124-7.254
		c-0.335-2.678-0.502-5.523-1.953-7.81c-1.45-2.287-4.854-3.57-6.973-1.84c2.008,4.91,2.958,10.209,2.845,15.509
		c-0.113,3.683-0.726,7.588,0.613,11.046c1.395,3.628,4.799,6.192,8.48,7.477c3.682,1.282,7.643,1.505,11.493,1.673
		c2.901,0.167,5.915,0.278,8.704-0.5c6.192-1.675,10.655-7.479,12.496-13.612c1.842-6.194,1.561-12.721,1.283-19.193
		c-0.111-2.12-0.223-4.351-1.505-6.024c-0.949-1.283-2.456-2.063-3.961-2.621c-6.918-2.455-14.672-1.116-20.753-5.802
		C108.479,186.663,109.65,189.955,110.599,193.08z"/>
	<path fill="#20BC88" stroke="#3D3D3D" stroke-width="2" stroke-miterlimit="10" d="M121.254,95.227
		c-19.972,4.966-36.82,21.646-40.949,41.787c-4.127,20.14,5.413,42.678,23.264,52.831c14.673,8.368,32.581,8.202,49.318,5.915
		c11.325-1.563,23.319-4.463,31.073-12.832c8.648-9.373,9.931-23.319,9.652-36.04C192.774,111.071,155.565,86.749,121.254,95.227z"
		/>
	<path fill="#28DDA5" stroke="#3D3D3D" stroke-width="2" stroke-miterlimit="10" d="M127.949,128.42
		c6.918-10.599,18.076-18.745,30.572-20.753c19.47-3.124,39.164,9.206,48.869,26.333c9.709,17.127,10.769,37.991,7.589,57.462
		c-1.339,8.144-3.682,16.681-9.819,22.205c-2.064,1.84-5.02,3.347-7.587,2.287c-2.734-1.171-3.57-4.574-3.961-7.531
		c-0.781-6.083-1.171-12.218-1.116-18.356c-1.618,0.224-2.678,1.786-3.291,3.236c-1.953,4.854-1.003,10.378-2.342,15.399
		c-1.339,5.021-7.14,9.762-11.437,6.861c-1.674-1.171-2.566-3.179-3.012-5.188c-1.953-8.704,2.009-20.083-5.245-25.272
		c-3.124,6.864-1.785,14.84-2.9,22.258c-1.116,7.422-7.086,15.565-14.449,13.948c-0.447-8.925-0.894-17.796-1.339-26.721
		c-0.113-2.399-0.279-4.967-1.674-6.973c-2.008-2.847-5.746-3.571-8.981-4.688C113.109,174.224,116.121,146.552,127.949,128.42z"/>
	<path fill="#28DDA5" stroke="#3D3D3D" stroke-width="2" stroke-miterlimit="10" d="M105.689,86.078
		c-7.085-6.024-16.904-7.252-25.496-3.736c-8.591,3.513-15.732,11.546-19.469,21.198c1.897-0.781,3.347-2.566,5.077-3.794
		c1.729-1.226,4.296-1.505,5.356,0.391c0.726,1.228,0.502,2.845,0.223,4.352c-0.781,3.851-1.84,7.644-3.291,11.27
		c3.683-5.021,7.531-10.265,12.719-12.775c1.004-0.501,2.232-0.892,3.18-0.279c2.734,1.729-0.613,7.697,1.673,10.152
		c0.949-3.068,3.961-5.244,6.695-4.797c2.734,0.445,4.908,3.402,4.854,6.638c-0.279-3.404,2.565-6.805,5.466-6.638
		c2.957,0.223,5.133,3.96,4.239,7.252c-0.502,1.841,6.975,0.447,7.922-0.781c1.45-1.896,0.67-7.533,0.334-9.762
		C114.224,97.291,110.878,90.484,105.689,86.078z"/>
	<path fill="#28DDA5" stroke="#3D3D3D" stroke-width="2" stroke-miterlimit="10" d="M159.692,74.083
		c7.084-6.025,16.903-7.252,25.495-3.737c8.593,3.515,15.733,11.547,19.47,21.199c-1.896-0.78-3.347-2.566-5.077-3.793
		c-1.729-1.173-4.295-1.507-5.354,0.39c-0.725,1.228-0.502,2.846-0.223,4.352c0.78,3.85,1.84,7.643,3.29,11.27
		c-3.681-5.021-7.531-10.265-12.718-12.776c-1.005-0.5-2.232-0.892-3.181-0.279c-2.734,1.729,0.614,7.699-1.674,10.154
		c-0.948-3.068-3.96-5.244-6.694-4.797c-2.734,0.445-4.91,3.403-4.854,6.639c0.278-3.404-2.566-6.807-5.468-6.639
		c-2.957,0.223-5.133,3.96-4.239,7.25c0.502,1.842-6.974,0.448-7.921-0.779c-1.45-1.897-0.67-7.533-0.335-9.764
		C151.156,85.297,154.503,78.49,159.692,74.083z"/>
	
		<ellipse transform="matrix(0.1445 0.9895 -0.9895 0.1445 309.9647 -37.1597)" fill="#3D3D3D" cx="176.472" cy="160.672" rx="1.731" ry="0.502"/>
	
		<ellipse transform="matrix(0.1462 0.9893 -0.9893 0.1462 318.8172 -52.0306)" fill="#3D3D3D" cx="189.551" cy="158.684" rx="1.73" ry="0.503"/>
	<circle fill="#FF78E6" cx="166.109" cy="167.807" r="2.902"/>
	<circle fill="#FF78E6" cx="203.542" cy="160.555" r="2.902"/>
	<path fill="#DBC78F" stroke="#3D3D3D" stroke-width="2" stroke-miterlimit="10" d="M176.595,308.17
		c18.188,1.005,36.319,4.071,53.836,9.093c4.129-16.291,15.342-30.683,30.125-38.717c-2.009-2.176-0.558-5.913,2.009-7.363
		c2.565-1.45,5.689-1.171,8.592-0.948c7.308,0.671,14.56,1.34,21.867,2.008c-13.892-9.594-30.069-16.399-46.918-17.404
		c-16.849-1.06-34.42,4.017-46.861,15.397c-7.644,7.028-13.39,15.788-21.758,22.092C170.013,297.96,160.027,307.277,176.595,308.17z
		"/>
	<path fill="#F9E6AC" stroke="#3D3D3D" stroke-width="2" stroke-miterlimit="10" d="M227.252,239.16
		c25.773-0.445,49.093,14.395,69.902,29.625c-8.814-0.893-17.685-1.843-26.499-2.734c-5.857-0.613-13.165-0.502-15.956,4.688
		c-1.004,1.841-1.563,4.462-3.625,4.906c-1.284,0.281-2.566-0.5-3.683-1.171c-11.046-6.526-33.249-4.518-41.617-14.168
		C194.114,246.916,217.935,239.328,227.252,239.16z"/>
	<path fill="#F9E6AC" stroke="#3D3D3D" stroke-width="2" stroke-miterlimit="10" d="M235.229,256.009
		c9.261,3.012,18.689,8.757,21.534,18.075c0.223,0.725,0.39,1.562,0.167,2.286c-0.223,0.782-0.837,1.34-1.395,1.898
		c-5.634,5.188-11.884,9.764-17.071,15.454c-5.132,5.689-9.204,12.886-9.092,20.528c-8.035-1.005-16.013-1.951-24.045-2.956
		c-0.949-0.111-2.01-0.279-2.789-0.837c-2.566-1.954-0.838-7.085-3.794-8.48c-1.06,2.955-2.065,5.969-3.125,8.927
		c-10.042-1.729-20.14-3.46-30.181-5.133c-6.08-1.06,16.848-43.459,20.53-46.751C196.345,249.926,222.064,251.767,235.229,256.009z"
		/>
	<path fill="none" stroke="#3D3D3D" stroke-width="2" stroke-miterlimit="10" d="M207.336,258.796
		c-4.799,0.281-7.532,5.58-8.982,10.155c-1.172,3.736-2.065,8.033,0.167,11.269c1.116,1.618,2.844,2.678,4.63,3.404
		c5.914,2.342,13.278,1.058,17.573-3.627c4.353-4.687,5.021-12.44,1.171-17.519c-3.849-5.076-11.994-6.358-16.959-2.398"/>
	<path fill="none" stroke="#3D3D3D" stroke-width="2" stroke-miterlimit="10" d="M193.5,263.82c3.959,0.946,7.531,3.29,9.986,6.471"
		/>
	<path fill="none" stroke="#3D3D3D" stroke-width="2" stroke-miterlimit="10" d="M213.36,264.098
		c0.502-2.677,1.952-5.134,4.073-6.863"/>
	<path fill="none" stroke="#3D3D3D" stroke-width="2" stroke-miterlimit="10" d="M208.284,276.539
		c-1.171,3.795-2.399,7.589-3.57,11.438"/>
	<path fill="none" stroke="#3D3D3D" stroke-width="2" stroke-miterlimit="10" d="M216.651,270.849
		c4.687,1.339,9.316,3.012,13.78,4.965"/>
	<path fill="none" stroke="#3D3D3D" stroke-width="2" stroke-miterlimit="10" d="M197.963,260.249
		c-0.781,3.235-2.12,6.36-3.851,9.26"/>
	<path fill="none" stroke="#3D3D3D" stroke-width="2" stroke-miterlimit="10" d="M201.198,284.795
		c2.789,0.612,5.635,1.228,8.423,1.84"/>
	<path fill="none" stroke="#3D3D3D" stroke-width="2" stroke-miterlimit="10" d="M224.239,278.771
		c0.224-2.957,1.618-5.803,3.851-7.813"/>
	<path fill="none" stroke="#3D3D3D" stroke-width="2" stroke-miterlimit="10" d="M211.241,257.012
		c3.067,1.061,6.192,2.065,9.26,3.125"/>
	<path fill="none" stroke="#3D3D3D" stroke-width="2" stroke-miterlimit="10" d="M210.403,265.325
		c-3.403-0.223-6.304,3.906-4.908,7.029c1.339,3.126,6.304,3.851,8.479,1.228s0.559-7.363-2.788-8.145"/>
	<path fill="none" stroke="#3D3D3D" stroke-width="2" stroke-miterlimit="10" d="M182.622,282.619
		c-0.726-0.278-1.507-0.612-2.232-0.892c0-1.785,0.615-3.569,1.729-4.965c1.172-1.06,3.18,0,3.571,1.562
		c0.391,1.507-0.278,3.068-1.004,4.52c-0.726,1.452-1.452,2.902-1.173,4.463c2.288,0,4.576-0.055,6.864-0.055
		c-0.391-1.842-1.954-3.46-3.794-3.906c0.669-1.228,1.786-2.176,3.068-2.678c0.726,2.008,2.008,3.849,3.683,5.245"/>
	<path fill="none" stroke="#3D3D3D" stroke-width="2" stroke-miterlimit="10" d="M218.66,287.362
		c1.062,2.843-2.287,6.248-5.133,5.243c0.058-1.282,0.058-2.51,0.112-3.794c2.846,1.452,5.97,2.232,9.149,2.344
		c-0.279-2.064,1.729-4.072,3.793-3.849c0,2.009,0,4.017-0.057,6.025c-1.449,0.278-2.899,0.614-4.351,0.892
		c1.451-1.394,4.185-1.003,5.189,0.726"/>
	<path fill="none" stroke="#3D3D3D" stroke-width="2" stroke-miterlimit="10" d="M229.706,261.811
		c-0.056,1.784-0.056,3.514-0.111,5.299c-1.451,0-2.958,0-4.408,0c0-1.171,0.223-2.398,0.726-3.515
		c1.004,1.842,3.18,3.014,5.3,2.846c-0.056-0.948,0.558-1.952,1.506-2.289c0.392,1.451,1.618,2.679,3.069,3.069
		c-1.228-3.626-4.464-6.416-8.201-7.141c-0.336,1.003-0.615,2.064-0.949,3.068c1.843,0.839,3.905-0.167,5.858-0.725
		c1.953-0.559,4.687-0.168,5.076,1.785"/>
	<path fill="none" stroke="#B2B2B2" stroke-width="6" stroke-miterlimit="10" d="M193.333,317.488
		c-2.9,11.38,3.459,23.598,12.887,30.572c9.428,6.974,21.367,9.596,33.026,10.879c14.002,1.563,28.675,1.283,41.449-4.687
		c16.682-7.81,28.285-26.109,26.722-44.407c-1.562-18.3-17.015-34.979-35.314-36.373"/>
	<path fill="none" stroke="#B2B2B2" stroke-width="5" stroke-miterlimit="10" d="M255.815,305.269
		c-1.785-0.836-4.017-0.168-5.355,1.284c-1.339,1.451-1.786,3.569-1.563,5.522c0.446,4.073,4.072,7.699,8.201,7.923
		c4.128,0.223,8.145-3.235,8.368-7.364c0.167-4.13-3.738-8.033-7.865-7.531"/>
	<path fill="none" stroke="#B2B2B2" stroke-width="6" stroke-miterlimit="10" d="M256.541,311.518
		c25.941,14.561,51.827,29.121,77.769,43.682"/>
	<path fill="none" stroke="#B2B2B2" stroke-width="5" stroke-miterlimit="10" d="M261.395,305.827
		c9.204-8.771,18.838-17.3,28.953-25.458"/>
	<path fill="none" stroke="#B2B2B2" stroke-width="6" stroke-miterlimit="10" d="M252.412,314.808
		c-13.11,18.969-26.221,37.938-39.331,56.903"/>
	<path fill="none" stroke="#B2B2B2" stroke-width="6" stroke-miterlimit="10" d="M224.184,323.792
		c-22.594,5.802-45.188,11.604-67.838,17.405"/>
	<path fill="none" stroke="#B2B2B2" stroke-width="6" stroke-miterlimit="10" d="M169.232,322.731
		c4.63,10.768,9.261,21.534,13.891,32.301c0.224,0.447,0.558,1.005,1.061,1.005s0.334-1.116-0.112-0.78"/>
	<path fill="none" stroke="#B2B2B2" stroke-width="6" stroke-miterlimit="10" d="M213.585,370.429
		c-3.906-1.84-8.871,0.502-11.103,4.185c-2.231,3.681-2.512,8.257-2.176,12.608c0.057,1.061,0.223,2.177,0.726,3.125
		c1.283,2.229,4.574,2.51,6.75,1.282c2.232-1.228,3.57-3.569,4.63-5.913c2.399-5.189,3.794-10.822,4.073-16.513"/>
	<path fill="none" stroke="#B2B2B2" stroke-width="6" stroke-miterlimit="10" d="M331.577,334.056
		c-1.953,0.559-3.126,2.51-4.13,4.296c-6.025,10.878-13.501,20.976-22.147,29.903"/>
	<path fill="none" stroke="#B2B2B2" stroke-width="5" stroke-miterlimit="10" d="M275.843,301.811
		c17.406-4.296,34.979-8.035,52.664-11.159c0.671-0.111,1.339-0.223,1.897-0.669c0.838-0.67,1.06-1.786,1.395-2.846
		c2.064-6.358,10.822-9.372,16.347-5.69c1.896,1.228,3.402,3.571,2.678,5.69c-0.949,2.623-4.408,3.013-7.141,2.957
		c-3.57-0.056-7.086-0.111-10.655-0.168"/>
	<path fill="none" stroke="#B2B2B2" stroke-width="6" stroke-miterlimit="10" d="M278.912,337.347
		c3.682-6.415,7.977-12.496,12.831-18.076"/>
	<path fill="none" stroke="#B2B2B2" stroke-width="6" stroke-miterlimit="10" d="M223.349,338.463
		c7.084,4.408,15.061,7.532,23.318,9.037"/>
	<path fill="none" stroke="#B2B2B2" stroke-width="6" stroke-miterlimit="10" d="M286.889,289.593
		c1.619,5.412,3.962,10.6,6.919,15.453"/>
	<path fill="none" stroke="#B2B2B2" stroke-width="5" stroke-miterlimit="10" d="M300.502,276.205
		c5.97-4.52,11.994-9.095,17.965-13.612"/>
	<path fill="none" stroke="#B2B2B2" stroke-width="6" stroke-miterlimit="10" d="M267.977,362.842
		c1.953,9.037,3.906,18.076,5.913,27.06"/>
	<path fill="none" stroke="#B2B2B2" stroke-width="5" stroke-miterlimit="10" d="M320.027,312.8
		c6.304-0.445,12.719,0.503,18.688,2.622"/>
</g>
</svg>
