<?xml version="1.0" encoding="utf-8"?>
<!-- Generator: Adobe Illustrator 16.0.0, SVG Export Plug-In . SVG Version: 6.00 Build 0)  -->
<!DOCTYPE svg PUBLIC "-//W3C//DTD SVG 1.1//EN" "http://www.w3.org/Graphics/SVG/1.1/DTD/svg11.dtd">
<svg version="1.1" id="Calque_1" xmlns="http://www.w3.org/2000/svg" xmlns:xlink="http://www.w3.org/1999/xlink" x="0px" y="0px"
	 width="567.057px" height="692.359px" viewBox="-49.721 0 567.057 692.359" enable-background="new -49.721 0 567.057 692.359"
	 xml:space="preserve">
<g>
	<g>
		<path fill="#F2FF76" stroke="#3D3D3D" stroke-width="2" stroke-miterlimit="10" d="M206.633,30.594
			c-1.011-0.143-2.178-0.233-2.93,0.466c-0.583,0.544-0.726,1.4-0.843,2.19c-0.557,4.07-1.128,8.141-1.685,12.21
			c-1.296,9.359-2.593,18.796-2.022,28.232c0.908,15.205,6.805,30.073,16.553,41.778c6.378,7.648,59.536-40.417,61.222-49.737
			C280.492,46.006,222.084,32.784,206.633,30.594z"/>
		<path fill="#F2FF76" stroke="#3D3D3D" stroke-width="2" stroke-miterlimit="10" d="M117.258,131.247
			c-0.999,0.247-2.101,0.597-2.541,1.517c-0.337,0.726-0.155,1.568,0.039,2.346c0.999,3.98,2.009,7.972,3.007,11.952
			c2.308,9.165,4.628,18.406,8.685,26.936c6.533,13.766,17.564,25.341,30.98,32.549c8.776,4.706,40.093-59.757,38.174-69.025
			C191.519,117.908,132.411,127.5,117.258,131.247z"/>
		<path fill="#F2FF76" stroke="#3D3D3D" stroke-width="2" stroke-miterlimit="10" d="M76.491,275.454
			c-0.895,0.479-1.893,1.102-2.087,2.1c-0.156,0.791,0.246,1.556,0.622,2.268c1.958,3.617,3.915,7.221,5.885,10.837
			c4.511,8.309,9.061,16.67,15.101,23.941c9.748,11.705,23.307,20.183,38.097,23.825c9.67,2.385,23.994-67.832,19.833-76.349
			C145.126,244.084,90.244,268.052,76.491,275.454z"/>
		<path fill="#F2FF76" stroke="#3D3D3D" stroke-width="2" stroke-miterlimit="10" d="M76.918,413.308
			c-0.895,0.48-1.893,1.103-2.087,2.101c-0.155,0.791,0.246,1.556,0.622,2.269c1.958,3.616,3.915,7.221,5.885,10.837
			c4.511,8.309,9.061,16.67,15.102,23.94c9.748,11.705,23.306,20.183,38.096,23.826c9.67,2.385,23.993-67.832,19.833-76.349
			C145.542,381.939,90.671,405.906,76.918,413.308z"/>
		<path fill="#F2FF76" stroke="#3D3D3D" stroke-width="2" stroke-miterlimit="10" d="M60.469,486.195
			c-0.752-0.077-1.607-0.13-2.152,0.402c-0.415,0.415-0.506,1.05-0.57,1.634c-0.324,3.006-0.648,6.026-0.972,9.034
			c-0.752,6.935-1.504,13.922-0.882,20.856c0.999,11.188,5.665,22.023,13.118,30.436c4.861,5.496,43.022-31.084,44.059-38.005
			C115.261,495.956,71.915,487.479,60.469,486.195z"/>
		<path fill="#F2FF76" stroke="#3D3D3D" stroke-width="2" stroke-miterlimit="10" d="M-11.628,556.776
			c-0.751-0.078-1.607-0.13-2.152,0.401c-0.415,0.415-0.505,1.051-0.57,1.634c-0.324,3.007-0.648,6.026-0.973,9.034
			c-0.751,6.935-1.503,13.922-0.881,20.856c0.999,11.187,5.665,22.023,13.118,30.437c4.861,5.495,43.022-31.085,44.059-38.007
			C43.164,566.537-0.182,558.06-11.628,556.776z"/>
	</g>
	<path fill="#787C53" stroke="#3D3D3D" stroke-width="2" stroke-miterlimit="10" d="M375.585,322.092
		c8.102,16.424,17.888,31.213,24.59,48.739c14.219,37.163,15.697,79.757,14.622,120.99c-0.104,4.109,0.492,9.229,2.463,12.029
		c1.282,1.828,3.707,0.804,3.914-1.634c0.596-7.453,1.205-14.905,1.802-22.359c0.013-0.194,0.246-0.183,0.246,0.013l-0.571,23.954
		c-0.038,1.568,1.453,2.386,2.373,1.297c5.833-6.806,8.05-16.424,6.585-27.014l-0.48,25.73c-0.025,1.114,0.96,1.814,1.711,1.218
		c4.965-3.94,6.586-12.6,7.143-20.091c5.069-69.012-19.91-149.275-53.132-203.795c-0.053-0.078-0.144-0.078-0.194,0"/>
	<path fill="#A5AD74" stroke="#3D3D3D" stroke-width="2" stroke-miterlimit="10" d="M101.392,498.963
		c-20.701,24.94-46.873,44.604-71.371,65.824c-24.499,21.219-48.052,44.927-61.014,74.638c-2.281,5.235-3.954,12.041,0.091,16.073
		c3.318,3.306,8.71,2.864,13.338,2.139c50.54-8.012,99.927-23.256,146.177-45.162c29.321-13.882,59.238-32.47,71.681-62.426
		c2.062-4.952,3.604-10.318,2.943-15.646c-0.466-3.759-1.996-7.284-3.539-10.745c-7.972-17.875-16.592-35.452-25.834-52.706
		c-6.053-11.289-18.122-44.331-29.645-50.111c-13.416-6.728-12.509,22.658-15.698,31.705
		C122.533,469.539,112.863,485.159,101.392,498.963z"/>
	<path fill="#787C53" stroke="#3D3D3D" stroke-width="2" stroke-miterlimit="10" d="M304.213,619.929
		c-3.928,11.303-9.125,24.422-2.566,34.415c3.655-0.389,7.623-0.713,10.72,1.245c3.098,1.97,4.2,7.22,1.089,9.164
		c-1.18,0.738-2.645,0.829-4.031,0.907c-4.045,0.207-8.088,0.402-12.134,0.609c-4.744,0.232-9.618,0.453-14.103-1.115
		s-8.517-5.38-8.867-10.11c-0.22-2.956,0.986-5.82,2.036-8.595c5.755-15.399,6.947-32.056,8.088-48.467
		c1.608-23.279,3.007-47.765-7.039-68.829c26.132-10.629,30.437,2.942,33.404,26.65
		C313.508,577.321,311.317,599.447,304.213,619.929z"/>
	<path fill="#A5AD74" stroke="#3D3D3D" stroke-width="2" stroke-miterlimit="10" d="M402.729,321.949
		c15.826,51.901,5.106,111.152-27.908,154.227c-33.016,43.062-87.444,68.817-141.679,67.016c4.9,37.539,3.875,75.843-3.033,113.059
		c9.424-1.388,19.444,3.939,23.565,12.533c-6.766,15.439-32.574,6.846-38.251-9.021c-5.678-15.866-0.441-33.443-1.932-50.229
		c-2.645-29.736-25.419-52.978-41.363-78.216c-24.46-38.718-33.702-85.059-38.382-130.622
		c-11.99-116.894,10.616-249.525,104.269-320.481c32.717-24.784,75.455-40.43,115.093-29.762
		c29.775,8.011,53.885,29.58,74.884,52.148c18.848,20.26,37.034,43.955,38.537,71.578c0.506,9.216-0.777,19.067,3.656,27.169
		c3.422,6.235,9.656,10.305,14.815,15.192c23.993,22.749,21.647,65.564-1.724,88.948c-23.371,23.384-62.181,27.246-92.189,13.377
		c-23.267-10.746-41.271-30.604-52.729-53.703c-5.522-11.135-1.011-24.654,9.968-30.462c1.192-0.635,2.385-1.257,3.563-1.892"/>
	<path fill="#A5AD74" stroke="#3D3D3D" stroke-width="2" stroke-miterlimit="10" d="M214.177,298.824"/>
	<path fill="#A5AD74" stroke="#3D3D3D" stroke-width="2" stroke-miterlimit="10" d="M214.177,298.824
		c-0.933,18.29-4.057,35.75-3.266,54.494c1.672,39.742,17.175,79.46,34.506,116.882c1.725,3.733,3.215,8.672,2.502,12.029
		c-0.454,2.178-3.085,2.203-4.239,0.052c-3.5-6.598-7.013-13.209-10.513-19.807c-0.09-0.169-0.297-0.064-0.22,0.104l10.007,21.776
		c0.661,1.427-0.389,2.762-1.672,2.14c-8.05-3.941-13.896-11.887-16.748-22.191l10.629,23.436c0.454,1.011-0.156,2.048-1.089,1.802
		c-6.118-1.659-11.044-8.957-14.518-15.62c-31.991-61.363-40.857-144.945-31.939-208.175c0.013-0.091,0.104-0.13,0.169-0.078"/>
	<path fill="none" stroke="#3D3D3D" stroke-width="2" stroke-miterlimit="10" d="M415.651,249.179
		c-5.341-5.885-13.378-9.216-21.311-8.84c-1.606,0.078-3.305,0.337-4.484,1.426c-1.128,1.024-1.568,2.592-1.802,4.096
		c-1.971,12.665,9.76,25.575,22.555,24.823"/>
	<path fill="#F2FF76" stroke="#3D3D3D" stroke-width="2" stroke-miterlimit="10" d="M406.436,66.344
		c0.467-18.212-3.449-36.943-13.676-52.018c-1.452-2.139-3.072-4.239-5.263-5.6c-5.224-3.214-11.951-1.387-17.771,0.532
		c-15.191,5.016-30.565,10.098-44.085,18.666c-13.52,8.568-25.199,21.103-29.411,36.542c6.649,10.11,17.356,16.708,27.7,22.995
		c11.342,6.87,22.671,13.753,34.013,20.623c9.502,5.769,29.205,18.42,38.654,8.892C405.165,108.329,406.137,77.894,406.436,66.344z"
		/>
	
		<ellipse transform="matrix(-0.2107 -0.9775 0.9775 -0.2107 349.8224 614.8272)" fill="#3D3D3D" cx="423.117" cy="166.19" rx="3.798" ry="1.062"/>
	
		<ellipse transform="matrix(-0.2109 -0.9775 0.9775 -0.2109 309.5741 594.532)" fill="#3D3D3D" cx="394.769" cy="172.307" rx="3.798" ry="1.063"/>
	<circle fill="#FF78E6" cx="316.165" cy="195.359" r="6.365"/>
</g>
</svg>
