<?xml version="1.0" encoding="utf-8"?>
<!-- Generator: Adobe Illustrator 16.0.0, SVG Export Plug-In . SVG Version: 6.00 Build 0)  -->
<!DOCTYPE svg PUBLIC "-//W3C//DTD SVG 1.1//EN" "http://www.w3.org/Graphics/SVG/1.1/DTD/svg11.dtd">
<svg version="1.1" id="Calque_1" xmlns="http://www.w3.org/2000/svg" xmlns:xlink="http://www.w3.org/1999/xlink" x="0px" y="0px"
	 width="192.5px" height="450.25px" viewBox="0 43.25 192.5 450.25" enable-background="new 0 43.25 192.5 450.25"
	 xml:space="preserve">
<g>
	<path fill="#6D533C" stroke="#3D3D3D" stroke-width="2" stroke-miterlimit="10" d="M69.743,202.824
		c-10.91,0.103-22.072-4.146-29.135-12.462c9.17,2.672,19.822-0.824,25.622-8.419c-10.446,4.287-23.036,2.884-32.292-3.591
		c5.689-0.25,10.965-3.441,14.72-7.72c3.755-4.288,6.138-9.595,7.963-14.987c0.839-2.477,1.631-5.086,3.426-6.998
		c2.233-2.383,5.737-3.27,8.989-2.939c3.254,0.33,6.295,1.732,9.132,3.354c8.942,5.11,16.497,12.636,21.648,21.556
		c2.438,4.225,4.374,8.998,4.608,13.92c0.109,2.234,0.094,5.573-1.158,7.541c-1.672,2.642-1.781,0.941-3.811,1.457
		c-4.537,1.168-8.92,4.641-13.506,6.278C80.763,201.673,75.276,202.777,69.743,202.824z"/>
	<path fill="#896E52" stroke="#3D3D3D" stroke-width="2" stroke-miterlimit="10" d="M106.111,55.938
		c5.473-1.192,11.123-1.795,16.688-1.207c13.928,1.474,26.516,10.714,33.162,23.036s7.588,27.339,3.692,40.79
		c-0.321,1.105-0.815,2.351-1.911,2.704c-0.637,0.203-1.326,0.047-1.976-0.118c-11.177-2.759-22.456-5.815-32.349-11.695
		c-8.645-5.134-15.918-12.243-23.098-19.282c-5.04-4.937-13.851-13.144-12.588-21.163C88.954,61.276,99.646,57.349,106.111,55.938z"
		/>
	<path fill="#6D533C" stroke="#3D3D3D" stroke-width="2" stroke-miterlimit="10" d="M132.456,72.022
		c10.926,4.185,20.401,12.055,26.516,22.032c6.113,9.978,8.85,21.986,7.635,33.617c-0.385,3.708-1.16,7.369-2.07,10.989
		c-2.586,10.269-6.317,20.411-6.592,31c-0.273,10.59,3.779,22.136,13.074,27.206c-4.844,2.947-11.153,2.799-16.357,0.549
		c-5.205-2.248-9.406-6.371-12.745-10.958c1.097,3.786,2.219,7.61,4.185,11.021c1.969,3.41,4.9,6.428,8.632,7.697
		c-5.401,1.387-10.974,2.791-16.499,2.046c-6.913-0.933-12.91-5.095-18.49-9.272c-3.025-2.265-6.076-4.632-8.184-7.768
		c-3.622-5.377-4.006-12.213-4.906-18.631c-1.615-11.515-5.246-22.669-7.109-34.152c-2.014-12.383-1.912-25.097,0.211-37.458
		c1.693-9.852,3.465-26.532,14.594-29.565C120.274,68.769,126.819,69.858,132.456,72.022z"/>
	<path fill="#6D533C" stroke="#3D3D3D" stroke-width="2" stroke-miterlimit="10" d="M66.458,73.339
		c-9.523,6.333-16.029,16.703-19.768,27.747c-1.137,3.363-2.053,6.834-2.423,10.378c-0.32,3.018-0.243,6.059-0.329,9.093
		c-0.227,7.823-1.521,15.598-3.84,23.043c-1.27,4.076-2.948,8.206-6.076,11.021c-3.369,3.033-8.057,4.131-12.541,3.941
		c2.643,0.125,5.057,1.482,7.431,2.689c9.366,4.758,20.396,7.619,30.185,3.975c8.606-3.207,14.957-11.021,18.828-19.565
		c3.879-8.543,5.65-17.917,7.807-27.096c3.018-12.83,6.842-25.465,11.451-37.779c1.042-2.783,3.395-7.581,1.238-10.252
		c-1.724-2.14-7.384-2.657-9.845-2.909C80.872,66.84,72.933,69.036,66.458,73.339z"/>
	<path fill="#FF9750" stroke="#3D3D3D" stroke-width="2" stroke-miterlimit="10" d="M89.604,469.821
		c1.969,1.168,3.96,2.351,5.599,3.95c1.637,1.599,2.906,3.685,3.095,5.964c0.048,0.597,0,1.247-0.392,1.693
		c-0.275,0.313-0.69,0.478-1.09,0.589c-2.164,0.564-4.414-0.269-6.49-1.09c-3.857-1.529-7.713-3.05-11.577-4.578
		c-2.501-0.988-5.228-2.194-6.316-4.646c-1.263-2.862,0.25-6.13,1.849-8.812c0.328-0.548,0.775-1.16,1.419-1.151
		c1.255,0.022,4.703,3.277,6.208,3.951C84.589,466.874,87.065,468.317,89.604,469.821z"/>
	<path fill="#FF9750" stroke="#3D3D3D" stroke-width="2" stroke-miterlimit="10" d="M125.77,471.482
		c1.968,1.168,3.958,2.352,5.597,3.951c1.638,1.599,2.908,3.684,3.096,5.963c0.047,0.597,0,1.247-0.393,1.693
		c-0.273,0.314-0.689,0.479-1.09,0.589c-2.162,0.564-4.412-0.267-6.49-1.09c-3.856-1.529-7.713-3.049-11.576-4.578
		c-2.5-0.987-5.227-2.194-6.316-4.646c-1.262-2.86,0.249-6.13,1.85-8.811c0.328-0.549,0.775-1.159,1.418-1.151
		c1.254,0.024,4.703,3.276,6.208,3.95C120.761,468.536,123.231,469.972,125.77,471.482z"/>
	<path fill="#548E91" stroke="#3D3D3D" stroke-width="2" stroke-miterlimit="10" d="M132.095,362.769
		c-0.133,15.723-0.354,31.493-2.531,47.045c-1.058,7.509-2.564,14.933-4.068,22.354c-2.5,12.289-4.992,24.573-7.494,36.862
		c-1.715,1.826-4.984,0.627-6.176-1.606s-0.925-4.954-0.635-7.478c3.059-26.625,5.471-53.33,7.895-80.027
		c0.375-4.185,0.758-8.37,0.734-12.572c-0.047-9.977-2.384-19.939-6.764-28.86c-0.359-0.736-0.784-1.521-1.504-1.88
		c-0.684-0.346-1.49-0.252-2.25-0.149c-9.366,1.309-18.742,2.616-28.108,3.928c4.343,7.18,7.454,15.136,9.163,23.404
		c1.715,8.325,1.998,16.875,2.178,25.38c0.503,24.125,0.118,48.735-7.328,71.576c-0.478,1.476-1.01,2.979-2.007,4.156
		c-2.037,2.414-5.463,2.86-8.56,3.151c-0.571,0.055-1.19,0.093-1.685-0.221c-0.964-0.62-0.792-2.092-0.502-3.222
		c5.909-23.388,8.026-47.812,6.239-71.946c-0.541-7.265-1.435-14.54-3.426-21.54c-2.477-8.729-6.615-16.921-8.85-25.723
		c-2.845-11.24-2.453-23.318,1.129-34.299c0.32-0.989,0.69-2,1.396-2.744c1.325-1.404,3.44-1.505,5.345-1.568
		c8.826-0.313,17.559-1.811,26.165-3.762c7.242-1.637,16.052-5.62,23.567-4.42c12.371,1.975,8.24,25.223,8.231,33.72
		C132.229,342.461,132.174,352.61,132.095,362.769z"/>
	<path fill="#FCD2B4" stroke="#3D3D3D" stroke-width="2" stroke-miterlimit="10" d="M143.907,260.302
		c6.756,17.626,6.09,37.059,4.012,55.729c-0.202,1.865-0.045,4.217,0.973,5.598c0.666,0.892,2.085,0.563,2.281-0.535
		c0.603-3.354,1.215-6.702,1.818-10.057c0.016-0.086,0.148-0.07,0.133,0.023l-1.168,10.848c-0.078,0.714,0.736,1.16,1.3,0.714
		c3.552-2.782,5.159-7.031,4.704-11.915l-1.184,11.666c-0.057,0.501,0.479,0.876,0.924,0.642c2.963-1.529,4.193-5.37,4.774-8.748
		c5.329-31.078-6.013-68.858-22.959-95.382c-0.022-0.039-0.078-0.039-0.108-0.008c-6.853,6.805-12.683,8.292-7.736,17.988
		C135.692,244.75,140.726,251.992,143.907,260.302z"/>
	<path fill="#53ADBC" stroke="#3D3D3D" stroke-width="2" stroke-miterlimit="10" d="M130.222,202.282
		c2.735,3.568,5.471,7.133,8.199,10.7c1.982,2.587,4.084,5.628,3.512,8.864c-0.299,1.663-1.277,3.097-2.289,4.43
		c-2.164,2.836-4.6,5.445-7.267,7.789c-2.501-9.992-8.189-18.803-11.944-28.373c-1.325-3.378-2.415-6.858-3.246-10.401
		c-1.434-6.067,1.687-5.056,5.236-1.929C125.377,195.974,127.815,199.149,130.222,202.282z"/>
	<path fill="#FCD2B4" stroke="#3D3D3D" stroke-width="2" stroke-miterlimit="10" d="M60.228,260.434
		c-7.674,17.252-8.026,36.69-6.937,55.439c0.109,1.873-0.173,4.217-1.263,5.534c-0.713,0.862-2.107,0.455-2.249-0.659
		c-0.431-3.378-0.854-6.757-1.284-10.142c-0.01-0.086-0.143-0.079-0.143,0.015l0.596,10.896c0.039,0.714-0.799,1.121-1.34,0.65
		c-3.402-2.963-4.781-7.289-4.067-12.149l0.571,11.711c0.023,0.503-0.524,0.847-0.956,0.596c-2.877-1.677-3.902-5.582-4.304-8.981
		c-3.691-31.315,9.625-68.444,27.942-94.042c0.023-0.039,0.079-0.039,0.109-0.007c6.483,7.148,12.228,8.951,6.781,18.371
		C69.249,245.338,63.849,252.306,60.228,260.434z"/>
	<path fill="#FCD2B4" stroke="#3D3D3D" stroke-width="2" stroke-miterlimit="10" d="M152.129,122.28
		c2.351,17.981-6.239,36.957-21.304,47.044c-7.354,4.923-17.117,9.413-17.84,18.23c-0.455,5.582,2.5,12.878-2.313,15.731
		c-4.311,2.556-9.469-2.57-10.284-7.508c-0.815-4.947,0.446-10.26-1.528-14.861c-2.822-6.584-10.754-8.842-17.009-12.338
		c-14.806-8.277-22.118-27.057-18.938-43.72c3.183-16.665,15.63-30.726,30.882-38.156c14.228-6.921,26.336-6.819,38.932,2.743
		C143.108,97.315,150.429,109.323,152.129,122.28z"/>
	<path fill="#7BE6FF" stroke="#3D3D3D" stroke-width="2" stroke-miterlimit="10" d="M60.792,226.361
		c4.217,3.112,8.63,5.958,13.207,8.521c0.705,0.4,1.488,0.666,2.305,0.714c5.996,0.359,4.978-9.563,9.782-12.573
		c-5.284,14.385-10.565,28.766-15.85,43.148c-2.483,6.766-4.984,13.6-5.854,20.749c-0.918,7.54,0.023,15.189,1.536,22.636
		c0.235,1.168,0.518,2.391,1.339,3.261c1.099,1.151,2.838,1.372,4.43,1.521c18.584,1.74,38.689,3.158,54.584-6.567
		c1.764-1.08,3.512-2.353,4.477-4.171c1.363-2.555,0.924-5.644,0.596-8.512c-2.635-22.974,3.855-46.189,1.942-69.227
		c-1.073-12.894-5.534-26.516-15.521-34.487c-1.215-0.972-4.303-0.251-4.584,1.271c-0.697,3.707-1.904,7.061-5.566,7.861
		c-3.988,0.869-6.443-3.34-7.446-6.781c-0.516-1.778-2.97-1.48-4.78-1.097C79.517,195.981,65.479,211.893,60.792,226.361z"/>
	
		<ellipse transform="matrix(-0.9978 0.0667 -0.0667 -0.9978 263.7769 242.7348)" fill="#3D3D3D" cx="127.836" cy="125.771" rx="0.604" ry="2.172"/>
	
		<ellipse transform="matrix(-0.9977 0.0671 -0.0671 -0.9977 230.8663 246.0288)" fill="#3D3D3D" cx="111.301" cy="126.892" rx="0.604" ry="2.171"/>
	<path fill="none" stroke="#3D3D3D" stroke-width="2" stroke-miterlimit="10" d="M125.519,144.713
		c-1.145,1.819-3.197,3.033-5.344,3.15c-2.15,0.126-4.328-0.847-5.676-2.532"/>
	<circle fill="#FF78E6" cx="95.985" cy="135.111" r="3.629"/>
	<circle fill="#FF78E6" cx="141.657" cy="132.03" r="3.629"/>
	<path fill="#896E52" stroke="#3D3D3D" stroke-width="2" stroke-miterlimit="10" d="M113.801,87.925
		c0.573,7.681-2.735,15.136-6.764,21.696c-9.696,15.763-23.789,28.327-38.517,39.536c-7.869,5.988-16.389,11.82-26.172,13.278
		c9.83-9.5,16.563-22.15,18.969-35.608c2.117-11.89,1.113-24.832,7.307-35.201c3.816-6.396,9.953-11.012,16.083-15.245
		c5.895-4.076,12.714-6.726,19.612-3.441C109.882,75.58,113.354,81.937,113.801,87.925z"/>
</g>
</svg>
