<?xml version="1.0" encoding="utf-8"?>
<!-- Generator: Adobe Illustrator 25.0.0, SVG Export Plug-In . SVG Version: 6.00 Build 0)  -->
<svg version="1.1" id="Calque_1" xmlns="http://www.w3.org/2000/svg" xmlns:xlink="http://www.w3.org/1999/xlink" x="0px" y="0px"
	 viewBox="0 0 204.8 564.8" style="enable-background:new 0 0 204.8 564.8;" xml:space="preserve">
<style type="text/css">
	.st0{fill:#6D533C;stroke:#3D3D3D;stroke-width:2;stroke-miterlimit:10;}
	.st1{fill:#896E52;stroke:#3D3D3D;stroke-width:2;stroke-miterlimit:10;}
	.st2{fill:#FF9750;stroke:#3D3D3D;stroke-width:2;stroke-miterlimit:10;}
	.st3{fill:#548E91;stroke:#3D3D3D;stroke-width:2;stroke-miterlimit:10;}
	.st4{fill:#FCD2B4;stroke:#3D3D3D;stroke-width:2;stroke-miterlimit:10;}
	.st5{fill:#53ADBC;stroke:#3D3D3D;stroke-width:2;stroke-miterlimit:10;}
	.st6{fill:#7BE6FF;stroke:#3D3D3D;stroke-width:2;stroke-miterlimit:10;}
	.st7{fill:#3D3D3D;}
	.st8{fill:none;stroke:#3D3D3D;stroke-width:2;stroke-miterlimit:10;}
	.st9{fill:#FF78E6;}
</style>
<g>
	<path class="st0" d="M65.04,193.84c-13.92,0.13-28.16-5.29-37.17-15.9c11.7,3.41,25.29-1.05,32.69-10.74
		c-13.33,5.47-29.39,3.68-41.2-4.58c7.26-0.32,13.99-4.39,18.78-9.85c4.79-5.47,7.83-12.24,10.16-19.12
		c1.07-3.16,2.08-6.49,4.37-8.93c2.85-3.04,7.32-4.17,11.47-3.75s8.03,2.21,11.65,4.28c11.41,6.52,21.05,16.12,27.62,27.5
		c3.11,5.39,5.58,11.48,5.88,17.76c0.14,2.85,0.12,7.11-1.48,9.62c-2.13,3.37-2.27,1.2-4.86,1.86c-5.79,1.49-11.38,5.92-17.23,8.01
		C79.1,192.37,72.1,193.78,65.04,193.84z"/>
	<path class="st1" d="M111.44,6.44c6.98-1.52,14.19-2.29,21.29-1.54c17.77,1.88,33.83,13.67,42.31,29.39
		c8.48,15.72,9.68,34.88,4.71,52.04c-0.41,1.41-1.04,3-2.44,3.45c-0.81,0.26-1.69,0.06-2.52-0.15
		c-14.26-3.52-28.65-7.42-41.27-14.92c-11.03-6.55-20.31-15.62-29.47-24.6c-6.43-6.3-17.67-16.77-16.06-27
		C89.55,13.25,103.19,8.24,111.44,6.44z"/>
	<path class="st0" d="M145.05,26.96c13.94,5.34,26.03,15.38,33.83,28.11s11.29,28.05,9.74,42.89c-0.49,4.73-1.48,9.4-2.64,14.02
		c-3.3,13.1-8.06,26.04-8.41,39.55c-0.35,13.51,4.82,28.24,16.68,34.71c-6.18,3.76-14.23,3.57-20.87,0.7
		c-6.64-2.87-12-8.13-16.26-13.98c1.4,4.83,2.83,9.71,5.34,14.06c2.51,4.35,6.25,8.2,11.01,9.82c-6.89,1.77-14,3.56-21.05,2.61
		c-8.82-1.19-16.47-6.5-23.59-11.83c-3.86-2.89-7.75-5.91-10.44-9.91c-4.62-6.86-5.11-15.58-6.26-23.77
		c-2.06-14.69-6.69-28.92-9.07-43.57c-2.57-15.8-2.44-32.02,0.27-47.79c2.16-12.57,4.42-33.85,18.62-37.72
		C129.51,22.81,137.86,24.2,145.05,26.96z"/>
	<path class="st0" d="M60.85,28.64C48.7,36.72,40.4,49.95,35.63,64.04c-1.45,4.29-2.62,8.72-3.09,13.24
		c-0.41,3.85-0.31,7.73-0.42,11.6c-0.29,9.98-1.94,19.9-4.9,29.4c-1.62,5.2-3.76,10.47-7.75,14.06c-4.3,3.87-10.28,5.27-16,5.03
		c3.37,0.16,6.45,1.89,9.48,3.43c11.95,6.07,26.02,9.72,38.51,5.07c10.98-4.09,19.08-14.06,24.02-24.96
		c4.95-10.9,7.21-22.86,9.96-34.57c3.85-16.37,8.73-32.49,14.61-48.2c1.33-3.55,4.33-9.67,1.58-13.08
		c-2.2-2.73-9.42-3.39-12.56-3.71C79.24,20.35,69.11,23.15,60.85,28.64z"/>
	<path class="st2" d="M90.38,534.48c2.51,1.49,5.05,3,7.14,5.04c2.09,2.04,3.71,4.7,3.95,7.61c0.06,0.76,0,1.59-0.5,2.16
		c-0.35,0.4-0.88,0.61-1.39,0.75c-2.76,0.72-5.63-0.34-8.28-1.39c-4.92-1.95-9.84-3.89-14.77-5.84c-3.19-1.26-6.67-2.8-8.06-5.93
		c-1.61-3.65,0.32-7.82,2.36-11.24c0.42-0.7,0.99-1.48,1.81-1.47c1.6,0.03,6,4.18,7.92,5.04C83.98,530.72,87.14,532.56,90.38,534.48
		z"/>
	<path class="st2" d="M136.52,536.6c2.51,1.49,5.05,3,7.14,5.04c2.09,2.04,3.71,4.7,3.95,7.61c0.06,0.76,0,1.59-0.5,2.16
		c-0.35,0.4-0.88,0.61-1.39,0.75c-2.76,0.72-5.63-0.34-8.28-1.39c-4.92-1.95-9.84-3.89-14.77-5.84c-3.19-1.26-6.67-2.8-8.06-5.93
		c-1.61-3.65,0.32-7.82,2.36-11.24c0.42-0.7,0.99-1.48,1.81-1.47c1.6,0.03,6,4.18,7.92,5.04
		C130.13,532.84,133.28,534.67,136.52,536.6z"/>
	<path class="st3" d="M144.59,397.9c-0.17,20.06-0.45,40.18-3.23,60.02c-1.35,9.58-3.27,19.05-5.19,28.52
		c-3.19,15.68-6.37,31.35-9.56,47.03c-2.19,2.33-6.36,0.8-7.88-2.05c-1.52-2.85-1.18-6.32-0.81-9.54
		c3.9-33.97,6.98-68.04,10.07-102.1c0.48-5.34,0.97-10.68,0.94-16.04c-0.06-12.73-3.04-25.44-8.63-36.82c-0.46-0.94-1-1.94-1.92-2.4
		c-0.87-0.44-1.9-0.32-2.87-0.19c-11.95,1.67-23.91,3.34-35.86,5.01c5.54,9.16,9.51,19.31,11.69,29.86
		c2.19,10.62,2.55,21.53,2.78,32.38c0.64,30.78,0.15,62.18-9.35,91.32c-0.61,1.88-1.29,3.8-2.56,5.3c-2.6,3.08-6.97,3.65-10.92,4.02
		c-0.73,0.07-1.52,0.12-2.15-0.28c-1.23-0.79-1.01-2.67-0.64-4.11c7.54-29.84,10.24-61,7.96-91.79c-0.69-9.27-1.83-18.55-4.37-27.48
		c-3.16-11.14-8.44-21.59-11.29-32.82c-3.63-14.34-3.13-29.75,1.44-43.76c0.41-1.26,0.88-2.55,1.78-3.5c1.69-1.79,4.39-1.92,6.82-2
		c11.26-0.4,22.4-2.31,33.38-4.8c9.24-2.09,20.48-7.17,30.07-5.64c15.78,2.52,10.51,32.18,10.5,43.02
		C144.76,371.99,144.69,384.94,144.59,397.9z"/>
	<path class="st4" d="M159.66,267.17c8.62,22.49,7.77,47.28,5.12,71.1c-0.26,2.38-0.06,5.38,1.24,7.14
		c0.85,1.14,2.66,0.72,2.91-0.68c0.77-4.28,1.55-8.55,2.32-12.83c0.02-0.11,0.19-0.09,0.17,0.03l-1.49,13.84
		c-0.1,0.91,0.94,1.48,1.66,0.91c4.53-3.55,6.58-8.97,6-15.2l-1.51,14.88c-0.07,0.64,0.61,1.12,1.18,0.82
		c3.78-1.95,5.35-6.85,6.09-11.16c6.8-39.65-7.67-87.85-29.29-121.69c-0.03-0.05-0.1-0.05-0.14-0.01
		c-8.74,8.68-16.18,10.58-9.87,22.95C149.18,247.33,155.6,256.57,159.66,267.17z"/>
	<path class="st5" d="M142.2,193.15c3.49,4.55,6.98,9.1,10.46,13.65c2.53,3.3,5.21,7.18,4.48,11.31c-0.38,2.12-1.63,3.95-2.92,5.65
		c-2.76,3.62-5.87,6.95-9.27,9.94c-3.19-12.75-10.45-23.99-15.24-36.2c-1.69-4.31-3.08-8.75-4.14-13.27
		c-1.83-7.74,2.15-6.45,6.68-2.46C136.02,185.1,139.13,189.15,142.2,193.15z"/>
	<path class="st4" d="M52.9,267.34c-9.79,22.01-10.24,46.81-8.85,70.73c0.14,2.39-0.22,5.38-1.61,7.06
		c-0.91,1.1-2.69,0.58-2.87-0.84c-0.55-4.31-1.09-8.62-1.64-12.94c-0.01-0.11-0.18-0.1-0.18,0.02l0.76,13.9
		c0.05,0.91-1.02,1.43-1.71,0.83c-4.34-3.78-6.1-9.3-5.19-15.5l0.73,14.94c0.03,0.64-0.67,1.08-1.22,0.76
		c-3.67-2.14-4.98-7.12-5.49-11.46c-4.71-39.95,12.28-87.32,35.65-119.98c0.03-0.05,0.1-0.05,0.14-0.01
		c8.27,9.12,15.6,11.42,8.65,23.44C64.41,248.08,57.52,256.97,52.9,267.34z"/>
	<path class="st4" d="M170.15,91.08c3,22.94-7.96,47.15-27.18,60.02c-9.38,6.28-21.84,12.01-22.76,23.26
		c-0.58,7.12,3.19,16.43-2.95,20.07c-5.5,3.26-12.08-3.28-13.12-9.58c-1.04-6.31,0.57-13.09-1.95-18.96
		c-3.6-8.4-13.72-11.28-21.7-15.74c-18.89-10.56-28.22-34.52-24.16-55.78s19.94-39.2,39.4-48.68c18.15-8.83,33.6-8.7,49.67,3.5
		C158.64,59.23,167.98,74.55,170.15,91.08z"/>
	<path class="st6" d="M53.62,223.87c5.38,3.97,11.01,7.6,16.85,10.87c0.9,0.51,1.9,0.85,2.94,0.91c7.65,0.46,6.35-12.2,12.48-16.04
		c-6.74,18.35-13.48,36.7-20.22,55.05c-3.17,8.63-6.36,17.35-7.47,26.47c-1.17,9.62,0.03,19.38,1.96,28.88
		c0.3,1.49,0.66,3.05,1.71,4.16c1.4,1.47,3.62,1.75,5.65,1.94c23.71,2.22,49.36,4.03,69.64-8.38c2.25-1.38,4.48-3,5.71-5.32
		c1.74-3.26,1.18-7.2,0.76-10.86c-3.36-29.31,4.92-58.93,2.48-88.32c-1.37-16.45-7.06-33.83-19.8-44c-1.55-1.24-5.49-0.32-5.85,1.62
		c-0.89,4.73-2.43,9.01-7.1,10.03c-5.09,1.11-8.22-4.26-9.5-8.65c-0.66-2.27-3.79-1.89-6.1-1.4
		C77.51,185.11,59.6,205.41,53.62,223.87z"/>
	
		<ellipse transform="matrix(0.9977 -0.0672 0.0672 0.9977 -6.1072 9.5695)" class="st7" cx="139.15" cy="95.54" rx="0.77" ry="2.77"/>
	
		<ellipse transform="matrix(0.9977 -0.0672 0.0672 0.9977 -6.2503 8.156)" class="st7" cx="118.07" cy="96.96" rx="0.77" ry="2.77"/>
	<path class="st8" d="M136.2,119.7c-1.46,2.32-4.08,3.87-6.82,4.02c-2.74,0.16-5.52-1.08-7.24-3.23"/>
	<circle class="st9" cx="98.52" cy="107.45" r="4.63"/>
	<circle class="st9" cx="156.79" cy="103.52" r="4.63"/>
	<path class="st1" d="M121.25,47.25c0.73,9.8-3.49,19.31-8.63,27.68c-12.37,20.11-30.35,36.14-49.14,50.44
		c-10.04,7.64-20.91,15.08-33.39,16.94c12.54-12.12,21.13-28.26,24.2-45.43c2.7-15.17,1.42-31.68,9.32-44.91
		c4.87-8.16,12.7-14.05,20.52-19.45c7.52-5.2,16.22-8.58,25.02-4.39C116.25,31.5,120.68,39.61,121.25,47.25z"/>
</g>
</svg>
