<?xml version="1.0" encoding="utf-8"?>
<!-- Generator: Adobe Illustrator 25.0.0, SVG Export Plug-In . SVG Version: 6.00 Build 0)  -->
<svg version="1.1" id="Calque_1" xmlns="http://www.w3.org/2000/svg" xmlns:xlink="http://www.w3.org/1999/xlink" x="0px" y="0px"
	 viewBox="0 0 340.8 625.2" style="enable-background:new 0 0 340.8 625.2;" xml:space="preserve">
<style type="text/css">
	.st0{fill:#333333;stroke:#3D3D3D;stroke-width:2;stroke-miterlimit:10;}
	.st1{fill:#7B0099;stroke:#3D3D3D;stroke-width:2;stroke-miterlimit:10;}
	.st2{fill:#FCD2B4;stroke:#3D3D3D;stroke-width:2;stroke-miterlimit:10;}
	.st3{fill:#3D3D3D;}
	.st4{fill:#FF78E6;}
	.st5{fill:none;stroke:#3D3D3D;stroke-width:2;stroke-miterlimit:10;}
	.st6{fill:#338200;stroke:#3D3D3D;stroke-width:2;stroke-miterlimit:10;}
	.st7{fill:#FFFFFF;stroke:#3D3D3D;stroke-width:2;stroke-miterlimit:10;}
	.st8{fill:#515151;stroke:#3D3D3D;stroke-width:2;stroke-miterlimit:10;}
	.st9{fill:#BABABA;stroke:#3D3D3D;stroke-width:2;stroke-miterlimit:10;}
	.st10{fill:#AFAFAF;stroke:#3D3D3D;stroke-width:2;stroke-miterlimit:10;}
	.st11{fill:#48BDCC;stroke:#3D3D3D;stroke-width:2;stroke-miterlimit:10;}
	.st12{fill:none;stroke:#76E2FF;stroke-width:2;stroke-miterlimit:10;}
	.st13{fill:#76E2FF;}
	.st14{opacity:0.1;fill:#1B8CAF;}
</style>
<g>
	<path class="st0" d="M117,608.8c-0.1,1.1-0.2,2.2,0.5,3.2c0.5,0.6,1.4,1,2.3,1.4c5.6,2.4,11.1,4.9,16.7,7.3
		c3.1,1.4,7.2,2.7,10.2,1.1c2.3-1.2,2.7-3.8,1.6-5.7s-3.1-3.5-5.3-4.8C133.2,605,118.9,594.4,117,608.8z"/>
	<path class="st0" d="M166.4,590.6c-0.1,1.2-0.2,2.6,0.5,3.7c0.5,0.7,1.3,1.2,2.1,1.6c5.2,2.8,10.3,5.7,15.5,8.5
		c2.9,1.6,6.7,3.2,9.4,1.3c2.1-1.4,2.5-4.4,1.5-6.7c-1-2.3-2.9-4-4.9-5.6C181.4,586.1,168.1,573.8,166.4,590.6z"/>
	<path class="st1" d="M123.7,28.7c-5.9-9.3-15.9-17.7-26.8-16.1c5.7,3.7,10.5,8.8,13.9,14.7c-15.2-9.1-34.2-12.3-51-6.7
		S29.1,41,26.5,58.5c5.2-9.3,16.3-14.9,26.8-13.7c-9.4,11.7-18.8,23.4-28.2,35.2c-6.3,7.9-12.8,16-16.1,25.6
		c-4,11.5-3.1,24.7,2.6,35.5c0.4-17.3,11.6-33.8,27.4-40.7c-8.7,6.8-11,19-11.2,30c-0.3,23.3,6.3,46.6,18.9,66.3
		c-2.1-7.8-2.1-16.2,0-24c19.3,23.7,30.8,53.7,32.2,84.3c0.2,5.2,0.2,10.7-2,15.4c-2.2,4.8-7,8.7-12.2,8.3
		c-5.2-0.4-9.7-6.4-7.3-11.1c-4.7,5-1.5,14,4.6,17.1s13.6,1.7,19.9-0.9c12.9-5.1,24-14.8,30.9-26.8c3-5.3,5.9-11.5,11.6-13.4
		c-1.8,3.5-3.7,7.1-5.5,10.6c6.6-2.2,11.4-8.1,14-14.5c2.6-6.4,3.3-13.4,4-20.3c2.2-23,4.5-46.1,2.3-69.1
		c-2.1-22.4-10.3-45.7-8.6-68.3C131.9,63.8,135.3,47.3,123.7,28.7z"/>
	<path class="st2" d="M208.8,266.7c26.2,7.5,49.7,24.5,71.4,42.4c2.2,1.8,5.2,3.6,7.5,3.7c1.5,0,2.1-1.8,0.9-2.9
		c-3.7-3.5-7.5-6.9-11.2-10.4c-0.1-0.1,0-0.2,0.1-0.1l12.6,10.3c0.8,0.7,1.9,0.2,1.8-0.8c-1.1-6.1-5.2-11.4-11.6-15l13.6,11
		c0.6,0.5,1.4,0.2,1.4-0.5c0.1-4.4-3.8-9-7.6-12.4c-34.8-31.7-88.9-51.3-132.8-55.4c-0.1,0-0.1,0-0.1,0.1c3.8,13,1.8,20.5,17,23.4
		C184.2,262.4,196.4,263.1,208.8,266.7z"/>
	<path class="st2" d="M198.3,146.5c4.3,22.4-5.1,46.8-23.2,60.6c-8.8,6.7-20.8,13.1-21,24.2c-0.2,7,4.1,16-1.7,19.9
		c-5.2,3.5-12.1-2.5-13.5-8.6c-1.4-6.1-0.2-12.9-3-18.5c-4-8-14.1-10.3-22.2-14.2c-19.2-9.3-29.7-32.3-27-53.4
		c2.7-21.1,17.3-39.7,35.9-50.1c17.3-9.7,32.5-10.5,49,0.5C185.1,115.9,195.2,130.4,198.3,146.5z"/>
	
		<ellipse transform="matrix(0.9988 -4.848373e-02 4.848373e-02 0.9988 -7.0773 7.8147)" class="st3" cx="157.5" cy="149.8" rx="2.4" ry="5.2"/>
	<circle class="st4" cx="128.9" cy="166.8" r="4.6"/>
	<circle class="st4" cx="185.9" cy="159.5" r="4.6"/>
	<path class="st4" d="M155,172.6c0.2-0.3,0.5-0.5,0.8-0.7c1-0.5,2.3-0.5,3.2,0.1c0.4,0.2,0.7,0.5,1.1,0.7c0.4,0.1,0.7,0.1,1.1,0.1
		c1.2-0.1,2.4-0.2,3.6-0.3c0.7-0.1,1.4-0.1,2.1,0.2c1.2,0.6,1.6,2.5,0.8,3.7c-0.5,0.6-1.2,1-1.6,1.6c-0.4,0.8-0.3,1.8-0.6,2.7
		c-0.5,1.6-2.3,2.3-3.8,2.4c-0.7,0-1.5,0-2.1-0.4c-1.6-1.1-1.5-3.6-2.4-5.2C156.4,176.2,154,174.4,155,172.6z"/>
	<path class="st5" d="M153.1,181.3c1.4-2.3,4-3.8,6.7-3.9s5.4,1.1,7.1,3.2"/>
	<path class="st6" d="M109.4,68.9c6-4.7,14.5-6,21.6-3.4c1.2,0.4,2.4,1,3.4,1.8c3.7,2.9,4.4,8.1,4.3,12.8c0,2-0.2,4.2-1.6,5.7
		c-1.1,1.2-2.7,1.7-4.2,2.1c-10.6,2.8-21.8,2.8-32.4,0.9C100.1,81.3,103.4,73.6,109.4,68.9z"/>
	<path class="st1" d="M179.7,74.7c7,1.9,13.5,7.2,14.5,14.2c-2.9-1-6-1.4-9-1.2c-1.9,0.1-4.3,1.3-3.8,3c11-1.8,22.9,2.2,30.5,10.2
		s10.8,19.9,8.1,30.5c-5.4-7.6-11.8-15.8-21.1-17.3c4.4,3.8,7.5,8.8,9.9,14c6,12.7,8.5,27.2,5.3,40.8c-3.2,13.6-12.5,26.1-25.6,31.7
		c4.9-12.4,10-25.7,6.6-38.6c-1.4-5.2-4-10-7.1-14.6c-4-5.9-8.7-11.5-14.8-15.3c3.5,4.7,4.6,10.9,3,16.5c-3-8.3-9.9-15.2-18.4-18.3
		c0.6,3-0.2,6.3-2.2,8.6c-1.1-5.4-3-10.8-6.6-15.1s-9.2-7.2-14.8-6.7c2.4,6.6,1.4,14.3-2.5,20.1s-10.7,9.8-17.9,10.3
		c3.1-2.1,6-4.9,6.8-8.5c0.9-3.6-1.1-8-4.7-8.7c-8.8,12.2-12.6,27.7-10.5,42.4c-5.4-3.6-9.3-9.2-10.9-15.3
		c-1.7,4.6-2.1,9.7-0.9,14.5c-5.7,1.2-11.6-1.8-15.3-6.3c-3.6-4.4-5.3-10.1-6.6-15.6c-1.7-7.6-2.8-15.4-1.8-23.1
		c1.7-12.1,8.5-22.9,16.8-32c12.3-13.4,26.4-20,44.9-17.9C147.9,79.3,163.6,70.4,179.7,74.7z"/>
	<path class="st2" d="M143.4,244.1c-8.8-4.1-3.1-14.1-14.5-3.6c-13.7,12.6-25.6,27.5-35.4,43.4c5.7,1.8,9.8,7.1,11.7,12.8
		c1.8,5.7,1.8,11.8,1.7,17.8c-0.3,24.3-0.5,48.7-0.8,73c18.9-2.3,37.8-4.5,56.8-6.8c5.5-0.7,11.5-1.6,15.2-5.6c3-3.3,3.9-8,4.4-12.4
		c2.7-23.6-1.4-47.7,3-71c2.1-11.1,6-22.8,2.2-33.4c-4.9-13.4-19.8-19.6-33.6-23.6"/>
	<path class="st7" d="M186.7,286c-1.5,24.4-1.5,49,0.1,73.4c0.4,5.5,0.7,11.5-2.2,16.2c-3.2,5.2-9.5,7.5-15.4,9.2
		c-20.3,5.8-41.3,8.8-62.4,8.9c-0.8,0-1.7,0-2.3-0.6c-0.6-0.6-0.7-1.6-0.8-2.4c-1-25.3-1.9-50.7-2.9-76c-0.3-8.2-0.8-16.8-5.1-23.8
		c-1.3-2.1-2.9-4-3.4-6.4c-0.6-3.2,1-6.4,2.6-9.2c3.4-5.8,10.2-19.3,16.9-21.6c6.4-2.2,9.6,3.2,14.3,6.7
		C142.9,272.7,167.3,278.4,186.7,286z"/>
	<path class="st7" d="M103.9,261.2c4.9-9.1,21.6-34,32.5-24.6c10.8,9.4,14.7,27.9,25.5,38c2.9-13.6,0.1-28.2-7.8-40.1
		c13.1,2,25.1,9.4,31.9,19.6c6.8,10.2,8.2,23.2,3.9,34.4c-7.6-2-15.2-4-22.7-6c-9.6-2.5-19.3-5.1-28-9.5c-7.3-3.6-14-8.6-21.9-10.6"
		/>
	<path class="st8" d="M191.1,449.4c1,19.7,1.9,39.5,0.3,59.2c-0.8,9.5-2.1,18.9-3.4,28.3c-2.2,15.6-4.4,31.2-6.6,46.8
		c-2,2.4-6.2,1.2-7.9-1.5c-1.7-2.7-1.5-6.1-1.4-9.3c1.8-33.6,2.9-67.3,3.9-100.9c0.2-5.3,0.3-10.6,0-15.8
		c-0.8-12.5-4.5-24.8-10.6-35.7c-0.5-0.9-1.1-1.8-2-2.2c-0.9-0.4-1.9-0.2-2.8,0c-11.6,2.3-23.3,4.7-34.9,7
		c6,8.7,10.5,18.4,13.2,28.6c2.8,10.3,3.8,21,4.6,31.6c2.4,30.2,3.8,61.1-3.8,90.3c-0.5,1.9-1,3.8-2.2,5.4c-2.4,3.2-6.6,4-10.5,4.6
		c-0.7,0.1-1.5,0.2-2.1-0.2c-1.3-0.7-1.1-2.6-0.9-4c5.7-29.8,6.5-60.5,2.4-90.7c-1.2-9.1-2.9-18.1-5.9-26.7
		c-3.8-10.8-9.6-20.7-13-31.6c-4.4-13.9-4.8-29-1.1-43.1c0.3-1.3,0.7-2.6,1.5-3.5c1.6-1.9,4.2-2.1,6.6-2.4c11-1,21.9-3.6,32.5-6.7
		c9-2.6,19.7-8.2,29.2-7.3c15.6,1.6,12.2,31,12.8,41.7C189.8,424,190.5,436.7,191.1,449.4z"/>
	<path class="st9" d="M195.2,528.6c0.8,2.2,0.1,4.6-0.5,6.8c-3.4,12.3-6.8,24.6-10.2,36.9c-0.7,2.4-1.3,4.8-0.8,7.2
		c0.9,4.4,5.1,7.2,8.6,10.2c3.4,3,6.4,7.9,4,11.8c-2.4,0.6-4.7-0.8-6.8-2.2c-6.5-4.3-13.1-8.6-19.6-12.9c-1-0.7-2.1-1.4-2.6-2.5
		c-2.2-5.2,2.3-17.8,2.6-23.7c0.2-5.4-1.1-12.7,1.3-17.7c2.8-6,5.2-5.3,11.1-6.5c4.3-0.9,17.2-4.1,7.8-10.1
		C192.2,525.3,194.4,526.2,195.2,528.6z"/>
	<path class="st9" d="M147.8,545.1c0.8,2.2,0.1,4.6-0.5,6.8c-3.4,12.3-6.8,24.6-10.2,36.9c-0.7,2.4-1.3,4.8-0.8,7.2
		c0.9,4.4,5.1,7.2,8.6,10.2c3.4,3,6.4,7.9,4,11.8c-2.4,0.6-4.7-0.8-6.8-2.2c-6.5-4.3-13.1-8.6-19.6-12.9c-1-0.7-2.1-1.4-2.6-2.5
		c-2.2-5.2,2.3-17.8,2.6-23.7c0.2-5.4-1.1-12.7,1.3-17.7c2.8-6,5.2-5.3,11.1-6.5c4.3-0.9,17.2-4.1,7.8-10.1
		C144.8,541.9,147,542.8,147.8,545.1z"/>
	<path class="st0" d="M166.2,551.6c7.2,4.4,16.6,4.7,24.1,0.8c1-0.5,2.1-1.2,2.6-2.2c0.5-1,0.4-2.5-0.7-3.1
		c1.2,4.1,1.1,8.6-0.3,12.6c-0.5,1.4-1.2,2.8-2.5,3.5c-0.9,0.5-1.9,0.5-2.9,0.5c-6.9,0-13.9-1.7-20-4.9c-1.1-0.6-2.4-1.8-1.8-2.9
		c0.3-0.5,0.8-0.7,1.2-1.1c0.4-0.4,0.6-1.1,0.2-1.5c-0.4-0.3-1,0.6-0.5,0.7"/>
	<path class="st0" d="M166.2,567.9c4.7,3.9,11.1,5.6,17.1,4.4c1.6-0.3,3.5-1.6,2.9-3.1c2.1,2.5,0.6,6.5-2.1,8.3s-6.1,1.8-9.4,1.8
		c-2.9,0-6.1-0.1-8.3-2c-2.2-1.9-2-6.4,0.9-7"/>
	<path class="st0" d="M121,565.2c4.6,1,9.3,1.9,13.9,1.3s9.3-3.3,11-7.7c0.3,5.5-0.9,11-3.2,16c-0.3,0.7-0.7,1.4-1.4,1.8
		c-0.6,0.3-1.3,0.3-2,0.2c-4-0.2-8.1-0.5-12.1-0.9c-2.8-0.2-5.9-0.6-7.7-2.7c-1.8-2.1-0.7-6.4,2.1-6.2"/>
	<path class="st0" d="M117.5,583.4c6.5,4,14.7,5.1,22,2.8c0.1-1.2,0.1-2.3,0-3.5c1.3,5,0.3,10.6-2.7,14.8c-3.8-1.2-7.7-2.4-11.5-3.7
		c-2.2-0.7-4.4-1.4-6-3c-1.6-1.6-2.2-4.4-0.7-6.1"/>
	<path class="st10" d="M249,263.4c1.9-0.8,4,0.4,5.8,1.6c8.7,5.9,17.2,12.2,25.4,18.8c-2.2,4.1-4.9,7.9-8.2,11.1
		c-2,2-4.4,3.9-7.2,4.2c-3.5,0.3-6.7-1.9-9.5-4c-4.9-3.6-13.3-7.5-12.6-14.2C242.6,281.3,251.5,262.4,249,263.4z"/>
	<path class="st2" d="M164.1,281.4c26.6,9.8,56.9,10.4,86.2,9.2c2.9-0.1,6.6,0.3,8.6,1.6c1.3,0.9,0.6,2.7-1.1,2.8
		c-5.3,0.5-10.6,1-15.9,1.5c-0.1,0-0.1,0.2,0,0.2l17-0.7c1.1,0,1.7,1,1,1.7c-4.8,4.2-11.6,5.9-19.1,5l18.3-0.6
		c0.8,0,1.3,0.7,0.9,1.2c-2.7,3.6-8.9,4.9-14.2,5.3c-49,4.4-106.3-12.7-145.5-35.9c-0.1,0-0.1-0.1,0-0.1c11.4-8.1,14.5-15.3,29-8.4
		C141,269.9,151.6,276.8,164.1,281.4z"/>
	<path class="st2" d="M105.6,275.4c-2.2-0.5-4.2-1.7-5.5-3.5c-0.4,0.3,0.8-0.2,0.4,0.1c-0.1,0-0.2,0-0.3,0c-0.3-0.5-0.7-0.8-0.9-1.3
		c-1.8-3.3-1.6-7.4-0.4-11c1.2-3.6,3.4-6.7,5.6-9.8c1.4-1.9,2.8-3.9,4.7-5.3s4.6-1.9,6.7-0.8c1.3,0.7,2.2,1.8,3.1,3
		c5.2,6.7,10.4,13.4,15.6,20.1"/>
	
		<ellipse transform="matrix(0.4238 -0.9058 0.9058 0.4238 -108.6372 400.1679)" class="st11" cx="260.2" cy="285.5" rx="5.4" ry="9.5"/>
	<line class="st12" x1="261.4" y1="286.8" x2="298.3" y2="225.3"/>
	<g>
		<path class="st13" d="M291.4,175.4l-0.6,5l-2.2-0.3l0.6-5l-1.5-8.4l2.3,0.3l0.6,5.6l1.8-5.3l2.3,0.3L291.4,175.4z"/>
		<path class="st13" d="M295.1,180.6c-0.5-0.3-0.8-0.7-1-1.2c-0.2-0.5-0.3-1.1-0.2-1.7l0.9-7.2c0.1-0.6,0.3-1.2,0.6-1.6
			c0.3-0.4,0.7-0.7,1.3-0.9c0.5-0.2,1.1-0.2,1.8-0.1c0.7,0.1,1.3,0.3,1.8,0.6c0.5,0.3,0.8,0.7,1,1.2c0.2,0.5,0.3,1.1,0.2,1.7
			l-0.9,7.2c-0.1,0.6-0.3,1.2-0.6,1.6c-0.3,0.4-0.7,0.7-1.3,0.9c-0.5,0.2-1.1,0.2-1.8,0.1C296.1,181.1,295.6,180.9,295.1,180.6z
			 M297.7,178.9c0.2-0.1,0.3-0.2,0.4-0.3c0.1-0.2,0.2-0.4,0.2-0.6l0.8-6.6c0-0.2,0-0.4-0.1-0.6c-0.1-0.2-0.2-0.3-0.3-0.4
			c-0.2-0.1-0.3-0.2-0.6-0.2c-0.2,0-0.4,0-0.6,0.1c-0.2,0.1-0.3,0.2-0.4,0.3c-0.1,0.2-0.2,0.4-0.2,0.6l-0.8,6.6c0,0.2,0,0.4,0.1,0.6
			c0.1,0.2,0.2,0.3,0.3,0.4c0.2,0.1,0.3,0.2,0.6,0.2C297.3,179,297.5,179,297.7,178.9z"/>
		<path class="st13" d="M302.8,181.5c-0.4-0.3-0.8-0.7-0.9-1.3c-0.2-0.5-0.2-1.1-0.2-1.8l1.2-9.9l2.2,0.3l-1.2,10
			c0,0.3,0,0.6,0.1,0.8c0.1,0.2,0.3,0.3,0.6,0.3c0.3,0,0.5,0,0.7-0.2c0.2-0.2,0.3-0.4,0.3-0.7l1.2-10l2.2,0.3l-1.2,9.9
			c-0.1,0.7-0.3,1.3-0.6,1.7c-0.3,0.5-0.7,0.8-1.2,1c-0.5,0.2-1.1,0.3-1.7,0.2C303.8,182.1,303.2,181.9,302.8,181.5z"/>
		<path class="st13" d="M310,169.4l2.2,0.3l-0.4,3.2l-2.5,2L310,169.4z"/>
		<path class="st13" d="M313.1,169.8l2.2,0.3l-1.6,13.1l-2.2-0.3L313.1,169.8z M313.5,175.3l2.4,0.3c0.2,0,0.4,0,0.5,0
			c0.1-0.1,0.3-0.1,0.4-0.3c0.1-0.1,0.1-0.3,0.2-0.4l0.2-1.5c0-0.2,0-0.4,0-0.5c-0.1-0.2-0.1-0.3-0.3-0.4c-0.1-0.1-0.3-0.1-0.5-0.2
			l-2.4-0.3l0.3-2.1l2.2,0.3c0.7,0.1,1.3,0.3,1.8,0.6c0.5,0.3,0.8,0.7,1,1.2c0.2,0.5,0.3,1,0.2,1.7l-0.2,1.5
			c-0.1,0.6-0.3,1.2-0.6,1.6c-0.3,0.4-0.7,0.7-1.3,0.9c-0.5,0.2-1.1,0.2-1.8,0.1l-2.2-0.3L313.5,175.3z M315.1,177.3l2.1-0.2
			l1.3,6.6l-2.4-0.3L315.1,177.3z"/>
		<path class="st13" d="M321.5,170.8l2.2,0.3l-1.6,13.1l-2.2-0.3L321.5,170.8z M321.1,181.8l4.8,0.6l-0.3,2.2l-4.8-0.6L321.1,181.8z
			 M321.8,176.4l4.4,0.5l-0.3,2.2l-4.4-0.5L321.8,176.4z M322.4,170.9l4.8,0.6l-0.3,2.2l-4.8-0.6L322.4,170.9z"/>
		<path class="st13" d="M290.6,181.4l1.7,0.2l0.3,9.2l1.7-9l2.3,0.3l-3.2,12.9l-2.1-0.3l-0.3-8.6l-2.4,8.3l-2.1-0.3l-0.1-13.3
			l2.3,0.3l-0.4,9.1L290.6,181.4z"/>
		<path class="st13" d="M298,195.5l-2.2-0.3l1.6-13.1l2.2,0.3L298,195.5z"/>
		<path class="st13" d="M300.9,182.6l6.5,0.8l-0.3,2.1l-6.5-0.8L300.9,182.6z M302.9,183.9l2.2,0.3l-1.4,12l-2.2-0.3L302.9,183.9z"
			/>
		<path class="st13" d="M308.5,183.5l2.2,0.3l-1.6,13.1l-2.2-0.3L308.5,183.5z M308.8,189.2l4.4,0.5l-0.3,2.1l-4.4-0.5L308.8,189.2z
			 M312.4,184l2.2,0.3l-1.6,13.1l-2.2-0.3L312.4,184z"/>
		<path class="st13" d="M284.2,207.9c-0.4-0.3-0.8-0.7-1-1.1l1.7-1.4c0.1,0.2,0.3,0.4,0.4,0.5c0.2,0.1,0.4,0.2,0.6,0.2
			c0.3,0,0.5,0,0.7-0.2c0.2-0.1,0.3-0.4,0.3-0.7l1.2-10l2.2,0.3l-1.2,10.3c-0.1,0.6-0.3,1.1-0.5,1.5c-0.3,0.4-0.7,0.7-1.1,0.9
			s-1,0.2-1.7,0.2C285.2,208.4,284.7,208.2,284.2,207.9z"/>
		<path class="st13" d="M291.9,195.8l2.2,0.3l-1.6,13.1l-2.2-0.3L291.9,195.8z M291.6,206.8l4.8,0.6l-0.3,2.2l-4.8-0.6L291.6,206.8z
			 M292.3,201.4l4.4,0.5l-0.3,2.2l-4.4-0.5L292.3,201.4z M292.9,195.9l4.8,0.6l-0.3,2.2l-4.8-0.6L292.9,195.9z"/>
		<path class="st13" d="M298.9,196.6l2.2,0.3l-1.6,13.1l-2.2-0.3L298.9,196.6z M299.2,202.1l2.4,0.3c0.2,0,0.4,0,0.5,0
			c0.1-0.1,0.3-0.1,0.4-0.3c0.1-0.1,0.1-0.3,0.2-0.4l0.2-1.5c0-0.2,0-0.4,0-0.5c-0.1-0.2-0.1-0.3-0.3-0.4c-0.1-0.1-0.3-0.1-0.5-0.2
			l-2.4-0.3l0.3-2.1l2.2,0.3c0.7,0.1,1.3,0.3,1.8,0.6c0.5,0.3,0.8,0.7,1,1.2c0.2,0.5,0.3,1,0.2,1.7l-0.2,1.5
			c-0.1,0.6-0.3,1.2-0.6,1.6c-0.3,0.4-0.7,0.7-1.3,0.9c-0.5,0.2-1.1,0.2-1.8,0.1l-2.2-0.3L299.2,202.1z M300.8,204.1l2.1-0.2
			l1.3,6.6l-2.4-0.3L300.8,204.1z"/>
		<path class="st13" d="M307.2,197.6l2.2,0.3l-1.6,13.1l-2.2-0.3L307.2,197.6z M308.1,204.9l3.4-6.7l2.5,0.3l-6.4,10.4L308.1,204.9z
			 M309.1,203.9l1.7-1.2l2.1,8.8l-2.4-0.3L309.1,203.9z"/>
		<path class="st13" d="M314.3,211.5c-0.5-0.3-0.8-0.7-1-1.2c-0.2-0.5-0.3-1.1-0.2-1.8l0.1-0.7l2.2,0.2l-0.1,0.7
			c0,0.3,0,0.6,0.2,0.8c0.2,0.2,0.4,0.3,0.7,0.4c0.3,0,0.6,0,0.8-0.2c0.2-0.2,0.3-0.4,0.4-0.7l0.1-1.1c0-0.2,0-0.5-0.1-0.6
			c-0.1-0.2-0.3-0.4-0.5-0.5c-0.2-0.2-0.5-0.3-0.8-0.6c0,0,0,0-0.1,0c0,0,0,0-0.1,0l-0.1-0.1c-0.5-0.3-0.8-0.6-1.1-0.9
			c-0.3-0.3-0.6-0.7-0.7-1.2c-0.2-0.5-0.2-1-0.1-1.7l0.1-0.7c0.1-0.7,0.3-1.2,0.6-1.7c0.3-0.4,0.7-0.8,1.2-1
			c0.5-0.2,1.1-0.2,1.8-0.2c0.7,0.1,1.2,0.3,1.7,0.6c0.4,0.3,0.8,0.7,1,1.2c0.2,0.5,0.2,1.1,0.2,1.8l-0.1,0.7l-2.2-0.2l0.1-0.7
			c0-0.3,0-0.6-0.2-0.8c-0.1-0.2-0.4-0.3-0.7-0.4c-0.3,0-0.6,0-0.8,0.2c-0.2,0.1-0.3,0.4-0.3,0.7l-0.1,0.9c0,0.2,0,0.5,0.1,0.7
			c0.1,0.2,0.3,0.4,0.4,0.5c0.2,0.1,0.4,0.3,0.8,0.5c0.1,0,0.1,0.1,0.2,0.1c0.1,0,0.1,0.1,0.2,0.1c0,0,0,0,0,0c0,0,0,0,0,0
			c0.5,0.3,0.8,0.6,1.1,0.9c0.3,0.3,0.5,0.6,0.7,1c0.2,0.4,0.2,1,0.1,1.6l-0.1,1.1c-0.1,0.7-0.3,1.2-0.6,1.7c-0.3,0.5-0.7,0.8-1.2,1
			c-0.5,0.2-1.1,0.3-1.8,0.2C315.3,212,314.8,211.8,314.3,211.5z"/>
	</g>
	<path class="st14" d="M309.9,237l-22.1-3.5c-6.5-1-11-7.2-10-13.7l8.9-57c1-6.5,7.2-11,13.7-10l22.1,3.5c6.5,1,11,7.2,10,13.7
		l-8.9,57C322.6,233.5,316.4,238,309.9,237z"/>
</g>
</svg>
