<?xml version="1.0" encoding="utf-8"?>
<!-- Generator: Adobe Illustrator 25.0.0, SVG Export Plug-In . SVG Version: 6.00 Build 0)  -->
<svg version="1.1" id="Calque_1" xmlns="http://www.w3.org/2000/svg" xmlns:xlink="http://www.w3.org/1999/xlink" x="0px" y="0px"
	 viewBox="0 0 477.6 519.6" style="enable-background:new 0 0 477.6 519.6;" xml:space="preserve">
<style type="text/css">
	.st0{fill:#EAD296;stroke:#3D3D3D;stroke-width:2;stroke-miterlimit:10;}
	.st1{fill:#DBB75E;stroke:#3D3D3D;stroke-width:2;stroke-miterlimit:10;}
	.st2{fill:#FFE7A4;stroke:#3D3D3D;stroke-width:2;stroke-miterlimit:10;}
	.st3{fill:#F7D063;stroke:#3D3D3D;stroke-width:2;stroke-miterlimit:10;}
	.st4{fill:#D30051;stroke:#3D3D3D;stroke-width:2;stroke-miterlimit:10;}
	.st5{fill:#93C102;stroke:#3D3D3D;stroke-width:2;stroke-miterlimit:10;}
	.st6{fill:#3D3D3D;}
	.st7{fill:#FF78E6;}
	.st8{fill:#968495;}
	.st9{fill:#FFFFFF;}
	.st10{fill:none;stroke:#FFC5FA;stroke-width:2;stroke-miterlimit:10;}
</style>
<g>
	<path class="st0" d="M243.6,372.1c-5.6,12.7-0.1,24.5,1.3,43.5c0.6,8.1,4.1,62.8-4.2,66c-8,3.1-14.8,9.3-18.6,17
		c-0.5,0.9-0.9,2-0.7,3c0.4,2.3,3.5,3,5.9,2.8c10.7-0.8,20.3-6.6,29.4-12.2c1.4-0.9,3-1.8,3.8-3.3c1-1.6,1-3.6,1-5.5
		c-0.1-15.2-0.1-30.4-0.2-45.6c-0.1-25.7-0.3-51.7-7.1-76.4"/>
	<path class="st1" d="M152.5,30.5c2.1-10.6,9.7-23.7,20-20.5c3.5,1.1,6.2,3.9,9.6,5.1c12.3,4.5,25.3-12.9,37.3-7.6
		c3.8,1.7,6.3,5.3,9.6,7.7c10,7.4,23.9,2.9,36.3,1.4c12.4-1.5,28.9,5.4,26.8,17.7c10.2-9.9,26-13.5,39.5-9.2
		c13.5,4.4,24.2,16.5,26.8,30.5c0.5,2.8,0.8,5.8,2.1,8.3c5.7,10.5,24.9,5.7,30.4,16.3c1.7,3.2,1.5,7.1,2.6,10.6
		c2.8,8.9,12.8,12.8,21.1,17s16.9,12.7,13.7,21.4c-1.4,3.9-5.2,7.7-3.6,11.6c0.9,2.2,3.1,3.4,5.2,4.5c7.9,4.3,15.5,10.2,19.2,18.4
		c3.7,8.2,2.4,19.2-5,24.4c9.8,5,21.2,12.9,19.4,23.7c-1.1,6.5-6.8,11.2-12.2,15c-16.3,11.4-34,20.7-52.6,27.7
		c-3.2,1.2-6.5,2.3-9.8,1.9c-3.5-0.4-6.5-2.5-9.3-4.4c-21.7-15-43.4-30-65.2-44.9c-17.4-12-34.8-24-50.5-38.2
		c-14.2-12.8-26.9-27.4-42.8-38c-19-12.6-48.3-18.3-63.6-35.7C143.7,79.6,148.7,49.8,152.5,30.5z"/>
	<path class="st2" d="M237.4,469.5c2.5,0.6,5.2,1.2,7.6,0.4c3.9-1.4,5.5-5.9,6.6-9.9c6.3-22.2,12.2-45.2,25.9-63.7
		c22.9-30.9,62.6-43.3,94.1-65.4c7.6-5.3,15-11.6,18.6-20.2c3-7,3-14.9,3-22.5c0-21.8-3-48.2-22.8-57.3c-7.1-3.3-15.3-3.5-23.2-2.9
		c-30.5,2.6-59.7,18.5-78.4,42.7c-14.3,18.6-22.4,41.2-30.2,63.4c-11.5,32.6-22.9,65.2-34.4,97.8
		C193.4,462.8,213.9,463.6,237.4,469.5z"/>
	<path class="st3" d="M129.1,409.4c14.4,30.6,37.8,62.1,71.4,65.6c2.9,0.3,5.9,0.4,8.4-1c3.1-1.7,4.8-5.2,6.3-8.4
		c17.4-39.2,29.8-81.7,56.9-115c31.3-38.4,78.2-59.6,121.5-83.7c3.4-1.9,7.1-4.1,8.6-7.8c0.8-2,0.9-4.3,0.8-6.5
		c-0.6-54.2-34.1-104.5-78.8-135.2C293.5,96.3,257.9,83.5,221.5,76c-30.6-6.3-63.5-17.7-80,13.5c-33.9,64.1-49.9,134.8-42.9,207.3
		C102.4,335.7,112.5,374,129.1,409.4z"/>
	<path class="st4" d="M170.5,234.4c7.2-14.6,14.6-29.7,14.6-44.8c0-9.5-2.9-18.5-6.1-27.2c-5-13.8-11.2-28-23.8-36.9
		c-14.3-10.1-35.2-12-54.8-8.7c-16,2.7-32.5,9.1-43.4,20.6c-25.8,27.3-19.9,79.1,10.2,95.5C95.8,248.5,150.2,275.3,170.5,234.4z"/>
	<path class="st5" d="M39.3,215.4c1.6,4.9,4.2,10.3,9,11.6c7.6,2,12.8-7.4,15.2-15.2c2.6-8.2,5.1-16.4,7.7-24.6
		c0.7-2.3,2-4.9,4.2-4.8c1.2,0.1,2.2,0.9,3.1,1.8c7.3,6.7,14.7,13.4,22,20c1.1-11.9,2.2-23.7,3.3-35.6c0.6-6,3-13.8,8.7-13.4
		c2.3,0.2,4.3,1.8,6.1,3.3c6.7,5.7,13.3,11.4,20,17.1c3.6-9.7,2.8-21.1-2.2-30.3c9.9,0.7,18.7,7.9,24.3,16.6s8.7,19,11.6,29.1
		c5.7-9,5.6-21,2.2-31.4c-3.3-10.4-9.5-19.5-15.7-28.4c10.1-1.7,20.9,1.5,28.9,8.5c1.9-14.1-9.6-26.6-21.6-33.4
		c-29-16.5-66.7-13.4-92.1,7.8c-2.7-10.9-5.4-22.1-4.3-33.2c1.1-11.1,6.9-22.3,16.8-26.1c-7.5-8.6-21.5-7.8-29.5,0
		s-10.3,20.5-8.3,31.9c1.9,11.4,7.6,21.8,13.7,31.6c-14.7,7-29.7,14.3-41.1,26.3c-11.4,12-18.6,29.9-14.2,46.6
		c-2.1-7.9,17.2-23.1,24.2-18.3C38,177.4,36.4,206.6,39.3,215.4z"/>
	<path class="st2" d="M284.1,379.3c-5.6,12.7-0.1,24.5,1.3,43.5c0.6,8.1,4.1,62.8-4.2,66c-8,3.1-14.8,9.3-18.6,17
		c-0.5,0.9-0.9,2-0.7,3c0.4,2.3,3.5,3,5.9,2.8c10.7-0.8,20.3-6.6,29.4-12.2c1.4-0.9,3-1.8,3.8-3.3c1-1.6,1-3.6,1-5.5
		c-0.1-15.2-0.1-30.4-0.2-45.6c-0.1-25.7-0.3-51.7-7.1-76.4"/>
	
		<ellipse transform="matrix(0.2108 -0.9775 0.9775 0.2108 -188.1103 383.6765)" class="st6" cx="143.6" cy="308.3" rx="3.6" ry="1"/>
	
		<ellipse transform="matrix(0.2108 -0.9775 0.9775 0.2108 -172.6958 414.2638)" class="st6" cx="170.2" cy="314.1" rx="3.6" ry="1"/>
	<circle class="st7" cx="203.4" cy="320.1" r="6"/>
	<circle class="st7" cx="115.5" cy="297.4" r="6"/>
	<path class="st8" d="M151.3,334.8c2.5,0.4,5.1,0.1,7.7-0.3c0.4-0.1,0.8-0.1,1.1,0.1c0.3,0.2,0.4,0.6,0.5,0.9c1,4.2,0,8.8-2.6,12.1
		c-2,2.6-5.5,4.5-8.5,3.3c-1.7-0.7-2.9-2.4-3.7-4.1c-1.8-4-3-11.2-1.2-15.2C146.7,333,148.6,334.4,151.3,334.8z"/>
	<path class="st7" d="M143.2,345.1c-2.6,1.4-4.5,3.8-5.9,6.4c-1.2,2.2-2.1,4.6-1.9,7.1c0.1,2.5,1.4,5,3.6,6.1
		c0.6,0.3,1.2,0.5,1.9,0.3s1.2-0.7,1.2-1.4c0.8,1.2,2.7,1.4,4,0.6c1.3-0.7,2-2.1,2.4-3.5s0.5-2.9,0.7-4.3c0.3-1.8,1-3.6,1.9-5.2
		c0.1-0.2,0.3-0.4,0.5-0.5c0.3-0.1,0.5,0.1,0.8,0.2c1,0.3,1.8-1,1.8-2.1C154.3,343.4,146.6,343.3,143.2,345.1z"/>
	<path class="st9" d="M144.8,335.5c0.3,0.8,1.2,1.3,2,1.1c0.8-0.2,1.4-0.9,1.5-1.8c-0.6,0.6-0.7,1.7-0.3,2.4
		c0.4,0.7,1.4,1.1,2.1,0.6c0.7-0.4,1-1.4,1.2-2.3c-0.1,0.5-0.3,1.1-0.2,1.7c0.1,0.6,0.4,1.1,0.9,1.3c0.6,0.2,1.3-0.3,1.5-0.9
		c0.3-0.6,0.3-1.3,0.3-2c0.1,0.9-0.2,1.9,0.3,2.6c0.5,0.7,1.7,0.5,2.2-0.2s0.4-1.8,0-2.6c0.1,1.1,0.4,2.3,1.4,2.7
		c0.5,0.2,1.2,0,1.6-0.4c0.4-0.4,0.6-1.1,0.5-1.7c0-0.4-0.1-0.8-0.4-1c-0.4-0.4-1.1-0.3-1.6-0.2c-3.3,0.5-6.7,0.1-9.8-1.1
		C146.7,333.1,144,333,144.8,335.5z"/>
	<path class="st10" d="M141.6,363.2c-0.3-1.3-0.6-2.7-0.5-4c0.1-1.4,0.8-2.7,2-3.4"/>
</g>
</svg>
