<?xml version="1.0" encoding="utf-8"?>
<!-- Generator: Adobe Illustrator 25.0.0, SVG Export Plug-In . SVG Version: 6.00 Build 0)  -->
<svg version="1.1" id="Calque_1" xmlns="http://www.w3.org/2000/svg" xmlns:xlink="http://www.w3.org/1999/xlink" x="0px" y="0px"
	 viewBox="0 0 420.92 508.8" style="enable-background:new 0 0 420.92 508.8;" xml:space="preserve">
<style type="text/css">
	.st0{fill:#48007C;stroke:#3D3D3D;stroke-width:2;stroke-miterlimit:10;}
	.st1{fill:#043A00;stroke:#3D3D3D;stroke-width:2;stroke-miterlimit:10;}
	.st2{fill:#610099;stroke:#3D3D3D;stroke-width:2;stroke-miterlimit:10;}
	.st3{fill:#055B00;stroke:#3D3D3D;stroke-width:2;stroke-miterlimit:10;}
	.st4{opacity:0.15;fill:#FFFFFF;}
	.st5{opacity:0.27;fill:#FFFFFF;}
	.st6{fill:#FFFFFF;}
	.st7{fill:#FDCFFF;stroke:#3D3D3D;stroke-width:2;stroke-miterlimit:10;}
	.st8{fill:#E53C9D;}
	.st9{fill:#FF78E6;}
</style>
<g>
	<path class="st0" d="M98.55,204.98c-9.79,7.49-20.02,13.49-29.34,22.06c-19.77,18.17-33.96,43.44-46.25,68.65
		c-1.23,2.52-3.17,5.43-5.18,6.53c-1.31,0.72-2.38-0.63-1.73-2.16c1.99-4.68,3.98-9.36,5.96-14.03c0.05-0.12-0.08-0.18-0.14-0.06
		l-7.18,14.63c-0.47,0.96-1.58,1-1.77,0.07c-1.21-5.85,0.53-12.32,4.68-18.28l-7.78,15.67c-0.34,0.68-1.12,0.81-1.36,0.22
		c-1.61-3.87,0.17-9.58,2.2-14.27c18.7-43.18,58.13-84.14,94.23-107.1c0.05-0.03,0.1,0,0.11,0.06"/>
	<path class="st1" d="M205.04,491.01c0.13,0.86,0.25,1.75-0.03,2.57c-0.55,1.61-2.38,2.35-4.02,2.78c-6.02,1.58-12.39,1.8-18.5,0.63
		c-3.19-0.61-6.83-2.13-7.5-5.31c-0.71-3.35,2.39-6.32,5.53-7.69c3.14-1.37,6.73-2.01,9.21-4.37c2.92-2.77,3.51-7.31,2.62-11.23
		c-0.89-3.92-3.01-7.44-4.89-10.99c-5.25-9.9-8.84-20.57-12.4-31.2c-0.39-1.17-0.79-2.43-0.43-3.6c1.33-4.37,14.42-7.74,17.62-4.35
		c2.68,2.84,1.97,14.37,2.8,18.21C198.97,454.53,202.34,472.71,205.04,491.01z"/>
	<path class="st2" d="M109.05,361.22c-10.01-12.27-16.69-26.92-21.81-41.9C55.87,227.51,85.74,118,159.37,54.83
		C201.64,18.57,259.6-2.78,313.94,9.41s100.62,63.5,96.65,119.05c-0.89,12.47-4.1,24.66-7.97,36.54
		c-17.42,53.52-48.72,102.45-89.99,140.72c-9.66,8.95-20.1,17.64-26.11,29.36c-6.97,13.58-7.15,29.61-12.27,43.99
		C253.69,436.83,136.46,394.82,109.05,361.22z"/>
	<path class="st3" d="M135.55,377.13c-5.01-3.32-12.64-4.21-16.42,0.47c-1.36,1.68-2,3.83-2.37,5.96
		c-3.38,19.42,14.04,37.15,32.89,42.88s39.08,3.2,58.77,3.92c4.01,0.15,8.1,0.45,11.84,1.91c14.13,5.51,17.23,23.77,18.19,38.91
		c0.2,3.21,0.37,6.61-1.11,9.47c-2.28,4.41-7.6,6.1-11.56,9.11c-3.95,3.01-6.12,10.02-1.74,12.37c10.06,4.3,21.98-3.14,26.71-13.01
		s4.32-21.3,4.27-32.25s0.6-22.61,6.95-31.52c5.75-8.07,15.17-12.49,23.29-18.16c19.02-13.3,31.82-40.39,19.28-59.92
		c-2.16-4.75-9.74-4.1-13.13-0.14s-3.9,9.53-4.73,14.68c-0.83,5.15-2.55,10.8-7.13,13.29c-6.38,3.48-14.84-1.89-16.7-8.91
		c-1.86-7.02,1.14-14.46,5.25-20.46s9.37-11.19,12.92-17.53c9.05-16.16,4.21-38.71-10.68-49.74c-3.71,22.83-12.68,44.79-26.01,63.69
		c-3.46,4.91-10.5,9.93-14.65,5.58c-1.95-2.05-1.95-5.21-1.83-8.04c0.65-15.67,1.31-31.34,1.96-47.01
		c-13.69,6.86-23.8,20.43-26.46,35.51c-2.66,15.08,2.2,31.29,12.72,42.42c-15.08,3.38-28.08-10.18-37.91-22.09
		c-4.57-5.53-11.34-11.59-17.96-8.83c-6.64,2.77-7.09,12.08-5.13,19.01c2.29,8.15,18.77,26.15,7.93,33.06
		C153.1,398.09,142.33,381.62,135.55,377.13z"/>
	<path class="st4" d="M345.72,68.81c-5.36,4.65-8.07,12.51-8.52,19.97c-0.45,7.46,1.06,14.68,2.55,21.76
		c0.99,4.7,1.98,9.39,2.97,14.09c0.53,2.53,1.08,5.11,2.24,7.3c1.44,2.73,3.75,4.71,6.33,5.93c7.39,3.47,16.8,0.49,23.04-6.29
		c6.25-6.77,9.44-16.76,9.47-26.25C383.86,88.44,363.38,53.49,345.72,68.81z"/>
	<path class="st5" d="M371.52,141.87c2.63-2.16,3.91-5.84,4.05-9.35c0.15-3.51-0.68-6.92-1.51-10.26c-0.55-2.22-1.09-4.43-1.64-6.65
		c-0.29-1.2-0.6-2.41-1.2-3.45c-0.75-1.3-1.93-2.24-3.23-2.83c-3.74-1.68-8.42-0.33-11.47,2.82c-3.06,3.15-4.55,7.83-4.46,12.3
		C352.21,132.39,362.84,148.98,371.52,141.87z"/>
	<path class="st2" d="M326.29,266.2"/>
	<path class="st2" d="M326.29,266.2c6.62,9.54,14.17,17.9,19.98,28.24c12.33,21.93,16.99,48.38,19.88,74.21
		c0.29,2.58,1.11,5.72,2.62,7.29c0.98,1.02,2.45,0.17,2.36-1.37c-0.26-4.7-0.53-9.4-0.79-14.11c-0.01-0.12,0.14-0.13,0.16-0.01
		l1.72,15c0.11,0.98,1.14,1.36,1.64,0.6c3.14-4.76,3.73-10.95,1.87-17.43l1.93,16.1c0.08,0.7,0.77,1.05,1.2,0.61
		c2.84-2.9,3.12-8.44,2.83-13.17c-2.76-43.51-25.73-91.39-51.75-122.48c-0.04-0.04-0.1-0.04-0.12,0.02"/>
	
		<ellipse transform="matrix(0.301 -0.9536 0.9536 0.301 -68.5569 259.2443)" class="st6" cx="142.56" cy="176.39" rx="4.19" ry="1.16"/>
	
		<ellipse transform="matrix(0.301 -0.9536 0.9536 0.301 -56.4263 295.0323)" class="st6" cx="173.04" cy="186.01" rx="4.19" ry="1.16"/>
	<g>
		<path class="st7" d="M111.76,215.04c-2.53,6.04-3.27,12.67-3.64,19.21c-0.66,11.69,0.64,25.14,9.97,32.15
			c8.92,6.7,21.81,4.58,31.55-0.83c12.98-7.21,22.92-19.77,27.01-34.12c0.84-2.95,1.42-6.23,0.11-9.01c-2.35-5-9-5.58-14.47-6.07
			C144.03,214.75,121.51,191.74,111.76,215.04z"/>
		<path class="st6" d="M130.83,211.74c0.63,2.11-2.19,5.16-0.51,6.58c8.93,7.52,21.08,10.98,32.59,9.35
			c1.02-0.14,2.08-0.35,2.89-0.99c1.12-0.88,1.52-2.38,1.85-3.78c0.26-1.09-0.24-4.2-0.95-5.07c-0.56-0.68-7.24-1.19-8.1-1.36
			c-7.87-1.5-8.62-2.97-16.08-5.75C138.61,209.29,128.05,202.47,130.83,211.74z"/>
		<path class="st8" d="M127.97,251.57c1.54,0.93,2.9,2.24,4.6,2.81c2.32,0.78,4.82,0.05,7.18-0.54c3.28-0.82,6.73-1.38,10.05-0.65
			c3.23,0.71,5.62,3.52,5.78,6.89c0.07,1.62-3.01,3.61-5.18,4.58c-3.13,1.4-5.58,2.53-8.77,3.79c-1.96,0.77-3.82,0.98-5.92,1.17
			c-2.9,0.26-7.76,0.6-10.58-0.17c-2.9-0.8-5.84-2.85-7.13-3.82c-3.75-2.81-7.42-8.09-3.79-12.05
			C117.55,249.93,123.76,249.05,127.97,251.57z"/>
	</g>
	<circle class="st9" cx="206.71" cy="213.07" r="7.01"/>
	<circle class="st9" cx="107.97" cy="176.91" r="7.01"/>
</g>
</svg>
