<?xml version="1.0" encoding="utf-8"?>
<!-- Generator: Adobe Illustrator 25.0.0, SVG Export Plug-In . SVG Version: 6.00 Build 0)  -->
<svg version="1.1" id="Calque_1" xmlns="http://www.w3.org/2000/svg" xmlns:xlink="http://www.w3.org/1999/xlink" x="0px" y="0px"
	 viewBox="0 0 415.2 399.6" style="enable-background:new 0 0 415.2 399.6;" xml:space="preserve">
<style type="text/css">
	.st0{fill:#FFFB78;}
	.st1{fill:#0059BA;}
	.st2{fill:#FF78E6;}
	.st3{fill:#299B85;stroke:#3D3D3D;stroke-width:2;stroke-miterlimit:10;}
	.st4{fill:#FCFCFC;stroke:#3D3D3D;stroke-width:2;stroke-miterlimit:10;}
	.st5{fill:#F7F7F7;stroke:#3D3D3D;stroke-width:2;stroke-miterlimit:10;}
	.st6{fill:#7F7F7F;stroke:#3D3D3D;stroke-width:2;stroke-miterlimit:10;}
	.st7{fill:none;stroke:#3D3D3D;stroke-width:2;stroke-miterlimit:10;}
</style>
<g>
	<path class="st0" d="M393.7,230.7c-13.2-12.1-31.2-18-49-20.2c-10.1-1.3-20.4-1.4-30.3,0.5c-19.1,3.7-36.2,15.3-48.8,30.2
		c-20.4,24.1-29.5,58.6-19.6,88.5c9.9,30,40.6,53,72.1,50.3c24-2.1,45.2-17.8,59.4-37.3C399.6,312.3,427.6,261.7,393.7,230.7z"/>
	<path class="st1" d="M232.3,253.9c-10.8,14.3-15,32.7-15.6,50.7c-0.3,10.1,0.5,20.4,3.3,30.1c5.5,18.7,18.6,34.6,34.6,45.7
		c25.9,18.1,61.1,24,90,11.3c28.9-12.7,49-45.3,43.4-76.4c-4.3-23.7-22-43.3-42.7-55.7C313.1,240.4,260.1,217.3,232.3,253.9z"/>
	<path class="st2" d="M69.4,285c-3.6,17.6,0.5,36,7.7,52.5c4.1,9.3,9.2,18.2,16,25.8c13,14.5,31.7,23.2,50.9,26.5
		c31.2,5.2,65.4-4.6,86.1-28.5s24.8-62,6.3-87.6c-14.1-19.6-38.5-29.7-62.5-32C136.6,238.2,78.7,240,69.4,285z"/>
	<path class="st3" d="M315.1,76.3c-1.4-6.1-2-13.7,3.1-17.5c4.9-3.7,12.5-1.3,16.4,3.4s4.9,10.9,5.8,16.9c-1.1-6.7-2.2-13.7,0.4-20
		s10.6-10.8,16.7-7.6c1.8,14.4,1.7,29.1-0.4,43.5c-0.4-10.6,2.7-21.3,8.8-30.1c2.1-3.1,4.7-6,8.2-7.5s8-1.2,10.6,1.6
		c2.8,3,2.4,7.7,1.4,11.6c-2.5,9.9-7.6,19.1-14.7,26.6c4.8-6.5,10.8-12.1,17.7-16.6c4.1-2.7,9.8-4.8,13.7-1.9
		c5,3.7,2.3,11.4-1.1,16.4c-8.8,12.9-19.9,24.2-32.8,33.2c3.8-2.2,7.6-4.3,11.4-6.5c-10.7,11.7-18.1,26.2-21.5,41.5
		c-11.3,1.3-22.1-6.4-27.4-16.2c-6.2-11.3-4.8-22.9-6.6-35C323.2,99.8,317.9,88.3,315.1,76.3z"/>
	<path class="st4" d="M107.1,176.3c4.3-2.3,8.6-4.6,12.9-6.9c-18.2,26.8-20.6,65.1-5.9,94.3c14.6,29.2,45.6,47.9,76.3,46
		c-2.7-2.6-5.3-5.2-8-7.8c39.2,17,83.4,20.3,124.4,9.4c-9.6-1.4-18.7-6.4-25.4-13.8c18.2,3.4,37.5-1.4,52.4-13.1
		c-2.1-3.2-5.8-5-9.4-4.6c19.2-11.9,32-33.6,38.3-56.6s6.9-47.3,6.5-71.2c-1.7,3-3.3,5.9-5,8.9c-33.9-50.3-93.9-78.3-150.9-70.4
		c6.3-3.3,12.6-6.7,19-10c-35.2,1.8-69.6,17.7-95,44.1c0.1-3.9,0.2-7.8,0.3-11.6c0,1.1-18.9,23.5-21,29.4
		C114.2,149.1,105.9,170,107.1,176.3z"/>
	<g>
		<g>
			<path class="st5" d="M163.8,145.4c2.1,5.4,4.2,10.9,6.2,16.3c0.4,1.1,1,2.3,2.2,2.4c0.7,0.1,1.3-0.3,1.9-0.6
				c9.3-5.6,16.7-14.3,20.9-24.4c-5.8,1.7-7.1-9.9-13-11.1c-1.3-0.3-2.6,0-3.8,0.4c-9.4,2.9-16.5,11.9-17.1,21.7"/>
			<path class="st5" d="M63.5,22.5c-19.8,13.6-34.2,34-43.8,56.1c-5.4,12.4-9.4,25.6-9.5,39.1c-0.1,21.5,9.9,42.3,24.9,57.7
				s34.5,25.8,54.9,32.6c16-17.4-2.8-47.6,8.2-68.6c7.9-0.7,14.8,4.9,21.9,8.3c20.3,9.8,46.5,2,60.6-15.6s16.7-42.6,9.8-64
				C172.4,12.2,112.6-11.3,63.5,22.5z"/>
			<path class="st6" d="M154.4,77.6c2.5-19.5-12.1-36.1-31.1-35.4c-9.9,5.2-15.2,17.6-14.7,27.8s5.4,18.7,10.2,26.8
				c2.9,4.9,6.8,10.3,13,9.5c3.6-0.5,7.1-3,10.2-5.5c4.3-3.4,8.6-7.1,11.3-11.7c2.7-4.7,3.5-10.6,0.6-13.9"/>
		</g>
		<path class="st6" d="M73,153.6c1.9-5.7-6.5-11.4-11-7.5c-2.8,2.4-3.3,6.7-2.1,10.1c1.2,3.5,3.6,6.3,6,9.1
			c2.8,3.2,7.7,6.6,10.7,3.5c3.8-3.8-2.7-9.6-2.7-15"/>
	</g>
	<path class="st7" d="M259.2,227.8c12.9,0.6,27.1-5.2,27.5-16.6c-4.4-0.7-8.8-1.2-13.1-1.6c-3.4-0.3-6.7-0.5-10.1-0.6
		c5.7-0.2,11.6-0.5,16.3-3c4.7-2.4,7.8-7.7,5.6-12.7c-2.1-4.8-8.2-7.7-13.7-7.9c-5.5-0.2-10.5,1.6-15.3,3.4
		c4.3-1.6,8.5-3.3,11.2-6.4C235.1,185.6,193.9,224.9,259.2,227.8z"/>
	<circle class="st2" cx="167" cy="96.3" r="6"/>
</g>
</svg>
