<?xml version="1.0" encoding="utf-8"?>
<!-- Generator: Adobe Illustrator 16.0.0, SVG Export Plug-In . SVG Version: 6.00 Build 0)  -->
<!DOCTYPE svg PUBLIC "-//W3C//DTD SVG 1.1//EN" "http://www.w3.org/Graphics/SVG/1.1/DTD/svg11.dtd">
<svg version="1.1" id="Calque_1" xmlns="http://www.w3.org/2000/svg" xmlns:xlink="http://www.w3.org/1999/xlink" x="0px" y="0px"
	 width="810.5px" height="810.731px" viewBox="0 -210.731 810.5 810.731" enable-background="new 0 -210.731 810.5 810.731"
	 xml:space="preserve">
<g>
	<path fill="#EAEAEA" stroke="#3D3D3D" stroke-width="2" stroke-miterlimit="10" d="M31.442,304.528
		c-4.087-7.515-5.733-16.083-7.25-24.485c-1.91-10.595-3.674-21.224-5.322-31.851c-0.411-2.719-0.741-5.801,0.939-7.975
		c1.219-1.582,3.214-2.307,5.141-2.818c17.434-4.614,35.92,2.653,50.899,12.704c2.29,1.532,4.613,3.229,5.849,5.701
		c1.088,2.191,1.188,4.729,1.252,7.167c0.298,10.25,0.561,20.712-2.52,30.483c-2.391,7.579-14.155,32.988-22.839,35.327
		C46.767,331.666,35.627,312.257,31.442,304.528z"/>
	<path fill="#EAEAEA" stroke="#3D3D3D" stroke-width="2" stroke-miterlimit="10" d="M219.878,561.921
		c-9.622,2.124-18.454,7.744-24.452,15.57c-2.687,3.494-4.598,9.015-1.236,11.864c2.487,2.107,6.244,1.234,9.359,0.264
		c7.711-2.439,15.423-4.878,23.134-7.316c5.125-1.631,10.727-3.607,13.412-8.256c1.599-2.768,1.912-6.063,2.191-9.243
		c1.78-20.646,3.56-41.292,5.356-61.938c0.147-1.779,0.279-3.675-0.545-5.256c-0.873-1.647-2.618-2.62-4.268-3.494
		c-6.542-3.426-14.021-6.706-21.074-4.531c-10.742,3.313-1.993,23.563-1.27,31.9C220.817,525.439,223.288,561.179,219.878,561.921z"
		/>
	<path fill="#EAEAEA" stroke="#3D3D3D" stroke-width="2" stroke-miterlimit="10" d="M494.522,513.771
		c-9.624,2.127-18.456,7.745-24.453,15.572c-2.688,3.493-4.598,9.015-1.235,11.864c2.488,2.108,6.245,1.235,9.358,0.264
		c7.712-2.438,15.424-4.878,23.135-7.315c5.124-1.631,10.727-3.608,13.412-8.255c1.599-2.77,1.911-6.064,2.19-9.245
		c1.78-20.646,3.561-41.291,5.354-61.938c0.147-1.778,0.281-3.675-0.542-5.256c-0.875-1.646-2.62-2.619-4.269-3.494
		c-6.542-3.427-14.022-6.706-21.074-4.53c-10.743,3.313-1.994,23.563-1.27,31.899C495.46,477.292,497.933,513.032,494.522,513.771z"
		/>
	<path fill="#FFFFFF" stroke="#3D3D3D" stroke-width="2" stroke-miterlimit="10" d="M720.805,201.034
		c38.558,45.164,60.72,104.037,61.525,163.405c0.248,18.783-1.896,38.475-10.924,54.688c-1.961,3.526-7.25,2.637-8.09-1.302
		c-1.813-8.535,0.329-26.593,4.991-33.992c-1.646,13.71-11.533,34.867-23.825,40.979c-4.828,2.405-9.984-2.404-7.859-7.364
		c5.174-12.045,18.142-20.119,20.778-34.208c-5.108,11.617-10.597,19.854-21.999,25.392c-4.63,2.241-9.804-2.24-8.105-7.102
		c2.389-6.87,8.091-13.396,12.012-19.903c10.547-17.5,8.685-39.497,6.195-59.779c-4.597-37.486-11.813-78.087-39.957-103.264
		c-6.098-5.471-13.117-10.101-17.877-16.774c-6.51-9.128-16.33-38.952-10.481-48.476
		C692.151,168.343,706.979,184.837,720.805,201.034z"/>
	<path fill="#FFFFFF" stroke="#3D3D3D" stroke-width="2" stroke-miterlimit="10" d="M180.232,119.488
		c100.99-82.947,246.436-108.059,369.389-63.767c64.708,23.315,125.904,68.694,147.521,133.993
		c21.932,66.239-0.856,139.744-37.402,199.194c-23.053,37.485-53.388,72.995-94.448,88.813c4.268,21.535,8.485,44.094,2.258,65.136
		c-6.229,21.058-26.579,39.677-48.229,36.052c-7.975-8.008,3.791-19.772,12.21-27.319c21.29-19.081,23.432-55.76,4.481-77.181
		c-16.395-18.537-42.875-23.792-67.459-26.593c-33.695-3.842-75.565-0.709-90.327,29.822c-13.775,28.49,5.255,65.201-9.541,93.181
		c-6.921,13.082-21.108,22.013-35.888,22.605c-12.062,0.479-26.464-13.281-17.582-21.437c2.521-2.309,6.064-2.982,9.261-4.152
		c21.618-7.909,25.671-36.201,26.166-59.204c0.478-22.111-1.682-48.92-21.389-58.954c-17.745-9.048-39.677,1.943-52.66,17.054
		c-12.984,15.093-20.91,34.125-34.555,48.625c-66.369,70.539-193.59-28.013-199.473-106.081
		C34.524,302.65,100.17,185.265,180.232,119.488z"/>
	<path fill="#F9C68A" stroke="#3D3D3D" stroke-width="2" stroke-miterlimit="10" d="M70.872,441.224
		c-20.397,11.305-33.942,32.561-40.203,55.035c-2.934,10.544-4.416,21.898-1.287,32.377c4.995,16.741,20.697,28.078,36.812,34.802
		c45.691,19.048,99.407,9.837,143.008-13.61c14.598-7.844,29.016-17.911,36.232-32.84c5.355-11.09,6.213-23.728,6.854-36.035
		c0.792-15.062,0.809-31.917-9.539-42.906c-8.699-9.245-22.492-11.602-35.179-11.304c-24.979,0.593-51.377,20.314-73.522,18.948
		C109.66,444.189,99.856,425.159,70.872,441.224z"/>
	<path fill="#9B6C5F" stroke="#3D3D3D" stroke-width="2" stroke-miterlimit="10" d="M85.24,485.316
		c-10.61,2.026-17.251,14.385-14.912,24.915c2.342,10.545,11.898,18.504,22.377,21.073c3.938,0.974,8.306,1.236,11.865-0.709
		c3.921-2.142,6.095-6.541,7.067-10.908C115.032,504.217,103.794,481.758,85.24,485.316z"/>
	<path fill="#9B6C5F" stroke="#3D3D3D" stroke-width="2" stroke-miterlimit="10" d="M172.786,485.316
		c10.61,2.026,17.251,14.385,14.928,24.915c-2.324,10.527-11.896,18.504-22.376,21.073c-3.938,0.974-8.305,1.236-11.863-0.709
		c-3.923-2.142-6.097-6.541-7.07-10.908C142.978,504.217,154.232,481.758,172.786,485.316z"/>
	<path fill="none" stroke="#3D3D3D" stroke-width="2" stroke-miterlimit="10" d="M214.704,287.177
		c17.993-18.042,41.934-30.087,67.145-33.794c1.697-0.248,3.626-0.395,4.959,0.692c0.957,0.792,1.353,2.06,1.682,3.246
		c6.657,24.881-3.674,53.387-24.699,68.25"/>
	
		<ellipse transform="matrix(-0.0432 0.9991 -0.9991 -0.0432 497.1817 282.015)" fill="#3D3D3D" cx="113.545" cy="379.088" rx="6.13" ry="1.697"/>
	
		<ellipse transform="matrix(-0.0429 0.9991 -0.9991 -0.0429 547.8065 237.4291)" fill="#3D3D3D" cx="160.176" cy="381.111" rx="6.13" ry="1.697"/>
	<circle fill="#FF78E6" cx="244.264" cy="370.981" r="10.249"/>
	<circle fill="#FF78E6" cx="62.916" cy="357.998" r="10.249"/>
	<path d="M194.865,143.94c-1.945,11.122-4.977,23.397,0.824,33.086c5.239,8.732,16.179,12.325,26.347,12.853
		c10.167,0.51,20.383-1.335,30.515-0.33c15.489,1.532,29.693,9.623,45.116,11.649c22.64,2.966,45.131-7.546,63.074-21.684
		c18.539-14.6,34.374-34.619,37.273-58.033c1.152-9.359-0.018-19.476-5.685-27.023c-10.48-13.957-31.868-14.483-44.507-26.495
		c-7.431-7.069-12.621-18.422-22.82-19.443c-3.477-0.346-6.921,0.676-10.249,1.713c-22.425,7.037-44.308,15.786-65.432,26.101
		c-18.438,9.013-48.41,20.679-61.312,36.843C195.838,121.927,196.843,132.604,194.865,143.94z"/>
	<path d="M496.813,114.017c-9.477,1.697-19.396,1.779-28.291,5.471c-11.041,4.564-19.594,14.747-22.181,26.413
		s0.873,24.502,8.963,33.3c10.597,11.518,27.271,15.242,42.908,15.703c22.326,0.659,45.263-4.35,63.585-17.119
		c18.323-12.753,31.423-33.861,31.638-56.188c0.05-5.092-0.562-10.25-2.554-14.946c-4.07-9.557-13.413-15.95-23.118-19.641
		c-9.723-3.691-20.119-5.19-30.089-8.123c-1.367-0.412-2.815-0.84-4.201-0.528c-1.613,0.363-2.834,1.665-3.889,2.95
		c-5.635,6.888-6.475,16.132-11.648,22.624C513.091,110.013,504.129,112.716,496.813,114.017z"/>
	<path d="M655.719,223.888c0.989,13.709,8.307,28.127,2.177,40.436c-2.391,4.812-6.574,8.502-9.295,13.133
		c-2.932,5.009-3.986,10.874-4.515,16.642c-1.005,11.09,0,22.92,6.277,32.114c6.278,9.194,18.967,14.633,29.034,9.87
		c8.634-4.087,12.818-13.857,15.702-22.953c8.864-27.928,12.505-57.506,10.728-86.752c-0.774-12.589-2.406-49.63-21.355-46.351
		C666.627,183.123,654.565,207.724,655.719,223.888z"/>
	<path d="M381.01,358.079c-3.131-13.462-2.34-28.341,4.927-40.105c11.155-18.075,37.666-24.453,55.809-13.429
		c5.388,3.262,9.969,7.761,15.422,10.891c10.231,5.866,22.674,6.461,34.389,5.143c12.753-1.435,25.771-4.927,38.194-1.747
		c12.439,3.181,23.53,16.643,18.355,28.391c-1.565,3.56-4.399,6.443-6.146,9.92c-4.268,8.502-1.417,18.783,2.554,27.436
		c3.973,8.635,9.097,17.219,9.31,26.726c0.231,10.844-6.128,20.845-13.988,28.325c-6.294,5.98-13.874,10.924-22.376,12.637
		c-9.755,1.962-19.789-0.395-29.462-2.751c-12.688-3.098-25.392-6.179-38.078-9.275c-12.64-3.081-25.605-6.313-36.233-13.824
		c-11.93-8.438-13.28-17.979-17.005-30.763C392.938,382.598,384.173,371.656,381.01,358.079z"/>
</g>
</svg>
