<?xml version="1.0" encoding="utf-8"?>
<!-- Generator: Adobe Illustrator 25.0.0, SVG Export Plug-In . SVG Version: 6.00 Build 0)  -->
<svg version="1.1" id="Calque_1" xmlns="http://www.w3.org/2000/svg" xmlns:xlink="http://www.w3.org/1999/xlink" x="0px" y="0px"
	 viewBox="0 0 485.99 357" style="enable-background:new 0 0 485.99 357;" xml:space="preserve">
<style type="text/css">
	.st0{fill:#EAEAEA;stroke:#3D3D3D;stroke-width:2;stroke-miterlimit:10;}
	.st1{fill:#FFFFFF;stroke:#3D3D3D;stroke-width:2;stroke-miterlimit:10;}
	.st2{fill:#F9C68A;stroke:#3D3D3D;stroke-width:2;stroke-miterlimit:10;}
	.st3{fill:#9B6C5F;stroke:#3D3D3D;stroke-width:2;stroke-miterlimit:10;}
	.st4{fill:none;stroke:#3D3D3D;stroke-width:2;stroke-miterlimit:10;}
	.st5{fill:#3D3D3D;}
	.st6{fill:#FF78E6;}
</style>
<g>
	<path class="st0" d="M22.13,175.66c-2.48-4.56-3.48-9.76-4.4-14.86c-1.16-6.43-2.23-12.88-3.23-19.33
		c-0.25-1.65-0.45-3.52,0.57-4.84c0.74-0.96,1.95-1.4,3.12-1.71c10.58-2.8,21.8,1.61,30.89,7.71c1.39,0.93,2.8,1.96,3.55,3.46
		c0.66,1.33,0.72,2.87,0.76,4.35c0.18,6.22,0.34,12.57-1.53,18.5c-1.45,4.6-8.59,20.02-13.86,21.44
		C31.43,192.13,24.67,180.35,22.13,175.66z"/>
	<path class="st0" d="M136.49,331.87c-5.84,1.29-11.2,4.7-14.84,9.45c-1.63,2.12-2.79,5.47-0.75,7.2c1.51,1.28,3.79,0.75,5.68,0.16
		c4.68-1.48,9.36-2.96,14.04-4.44c3.11-0.99,6.51-2.19,8.14-5.01c0.97-1.68,1.16-3.68,1.33-5.61c1.08-12.53,2.16-25.06,3.25-37.59
		c0.09-1.08,0.17-2.23-0.33-3.19c-0.53-1-1.59-1.59-2.59-2.12c-3.97-2.08-8.51-4.07-12.79-2.75c-6.52,2.01-1.21,14.3-0.77,19.36
		C137.06,309.73,138.56,331.42,136.49,331.87z"/>
	<path class="st0" d="M303.17,302.65c-5.84,1.29-11.2,4.7-14.84,9.45c-1.63,2.12-2.79,5.47-0.75,7.2c1.51,1.28,3.79,0.75,5.68,0.16
		c4.68-1.48,9.36-2.96,14.04-4.44c3.11-0.99,6.51-2.19,8.14-5.01c0.97-1.68,1.16-3.68,1.33-5.61c1.08-12.53,2.16-25.06,3.25-37.59
		c0.09-1.08,0.17-2.23-0.33-3.19c-0.53-1-1.59-1.59-2.59-2.12c-3.97-2.08-8.51-4.07-12.79-2.75c-6.52,2.01-1.21,14.3-0.77,19.36
		C303.74,280.51,305.24,302.2,303.17,302.65z"/>
	<path class="st1" d="M440.5,112.85c23.4,27.41,36.85,63.14,37.34,99.17c0.15,11.4-1.15,23.35-6.63,33.19
		c-1.19,2.14-4.4,1.6-4.91-0.79c-1.1-5.18,0.2-16.14,3.03-20.63c-1,8.32-7,21.16-14.46,24.87c-2.93,1.46-6.06-1.46-4.77-4.47
		c3.14-7.31,11.01-12.21,12.61-20.76c-3.1,7.05-6.43,12.05-13.35,15.41c-2.81,1.36-5.95-1.36-4.92-4.31
		c1.45-4.17,4.91-8.13,7.29-12.08c6.4-10.62,5.27-23.97,3.76-36.28c-2.79-22.75-7.17-47.39-24.25-62.67
		c-3.7-3.32-7.96-6.13-10.85-10.18c-3.95-5.54-9.91-23.64-6.36-29.42C423.11,93.01,432.11,103.02,440.5,112.85z"/>
	<path class="st1" d="M112.43,63.36c61.29-50.34,149.56-65.58,224.18-38.7c39.27,14.15,76.41,41.69,89.53,81.32
		c13.31,40.2-0.52,84.81-22.7,120.89c-13.99,22.75-32.4,44.3-57.32,53.9c2.59,13.07,5.15,26.76,1.37,39.53
		c-3.78,12.78-16.13,24.08-29.27,21.88c-4.84-4.86,2.3-12,7.41-16.58c12.92-11.58,14.22-33.84,2.72-46.84
		c-9.95-11.25-26.02-14.44-40.94-16.14c-20.45-2.33-45.86-0.43-54.82,18.1c-8.36,17.29,3.19,39.57-5.79,56.55
		c-4.2,7.94-12.81,13.36-21.78,13.72c-7.32,0.29-16.06-8.06-10.67-13.01c1.53-1.4,3.68-1.81,5.62-2.52
		c13.12-4.8,15.58-21.97,15.88-35.93c0.29-13.42-1.02-29.69-12.98-35.78c-10.77-5.49-24.08,1.18-31.96,10.35
		c-7.88,9.16-12.69,20.71-20.97,29.51c-40.28,42.81-117.49-17-121.06-64.38C24,174.52,63.84,103.28,112.43,63.36z"/>
	<path class="st2" d="M46.06,258.62c-12.38,6.86-20.6,19.76-24.4,33.4c-1.78,6.4-2.68,13.29-0.78,19.65
		c3.03,10.16,12.56,17.04,22.34,21.12c27.73,11.56,60.33,5.97,86.79-8.26c8.86-4.76,17.61-10.87,21.99-19.93
		c3.25-6.73,3.77-14.4,4.16-21.87c0.48-9.14,0.49-19.37-5.79-26.04c-5.28-5.61-13.65-7.04-21.35-6.86
		c-15.16,0.36-31.18,12.33-44.62,11.5C69.6,260.42,63.65,248.87,46.06,258.62z"/>
	<path class="st3" d="M54.78,285.38c-6.44,1.23-10.47,8.73-9.05,15.12c1.42,6.4,7.22,11.23,13.58,12.79
		c2.39,0.59,5.04,0.75,7.2-0.43c2.38-1.3,3.7-3.97,4.29-6.62C72.86,296.85,66.04,283.22,54.78,285.38z"/>
	<path class="st3" d="M107.91,285.38c6.44,1.23,10.47,8.73,9.06,15.12s-7.22,11.23-13.58,12.79c-2.39,0.59-5.04,0.75-7.2-0.43
		c-2.38-1.3-3.7-3.97-4.29-6.62C89.82,296.85,96.65,283.22,107.91,285.38z"/>
	<path class="st4" d="M133.35,165.13c10.92-10.95,25.45-18.26,40.75-20.51c1.03-0.15,2.2-0.24,3.01,0.42
		c0.58,0.48,0.82,1.25,1.02,1.97c4.04,15.1-2.23,32.4-14.99,41.42"/>
	
		<ellipse transform="matrix(0.0431 -0.9991 0.9991 0.0431 -151.8836 283.2742)" class="st5" cx="71.94" cy="220.93" rx="3.72" ry="1.03"/>
	
		<ellipse transform="matrix(0.0431 -0.9991 0.9991 0.0431 -126.0192 312.7207)" class="st5" cx="100.24" cy="222.15" rx="3.72" ry="1.03"/>
	<circle class="st6" cx="151.29" cy="215.99" r="6.22"/>
	<circle class="st6" cx="41.23" cy="208.11" r="6.22"/>
	<path d="M121.31,78.2c-1.18,6.75-3.02,14.2,0.5,20.08c3.18,5.3,9.82,7.48,15.99,7.8c6.17,0.31,12.37-0.81,18.52-0.2
		c9.4,0.93,18.02,5.84,27.38,7.07c13.74,1.8,27.39-4.58,38.28-13.16c11.25-8.86,20.86-21.01,22.62-35.22
		c0.7-5.68-0.01-11.82-3.45-16.4c-6.36-8.47-19.34-8.79-27.01-16.08c-4.51-4.29-7.66-11.18-13.85-11.8
		c-2.11-0.21-4.2,0.41-6.22,1.04c-13.61,4.27-26.89,9.58-39.71,15.84c-11.19,5.47-29.38,12.55-37.21,22.36
		C121.9,64.84,122.51,71.32,121.31,78.2z"/>
	<path d="M304.56,60.04c-5.75,1.03-11.77,1.08-17.17,3.32c-6.7,2.77-11.89,8.95-13.46,16.03c-1.57,7.08,0.53,14.87,5.44,20.21
		c6.43,6.99,16.55,9.25,26.04,9.53c13.55,0.4,27.47-2.64,38.59-10.39c11.12-7.74,19.07-20.55,19.2-34.1
		c0.03-3.09-0.34-6.22-1.55-9.07c-2.47-5.8-8.14-9.68-14.03-11.92c-5.9-2.24-12.21-3.15-18.26-4.93c-0.83-0.25-1.71-0.51-2.55-0.32
		c-0.98,0.22-1.72,1.01-2.36,1.79c-3.42,4.18-3.93,9.79-7.07,13.73C314.44,57.61,309,59.25,304.56,60.04z"/>
	<path d="M401,126.72c0.6,8.32,5.04,17.07,1.32,24.54c-1.45,2.92-3.99,5.16-5.64,7.97c-1.78,3.04-2.42,6.6-2.74,10.1
		c-0.61,6.73,0,13.91,3.81,19.49c3.81,5.58,11.51,8.88,17.62,5.99c5.24-2.48,7.78-8.41,9.53-13.93c5.38-16.95,7.59-34.9,6.51-52.65
		c-0.47-7.64-1.46-30.12-12.96-28.13C407.62,101.98,400.3,116.91,401,126.72z"/>
	<path d="M234.28,208.16c-1.9-8.17-1.42-17.2,2.99-24.34c6.77-10.97,22.86-14.84,33.87-8.15c3.27,1.98,6.05,4.71,9.36,6.61
		c6.21,3.56,13.76,3.92,20.87,3.12c7.74-0.87,15.64-2.99,23.18-1.06c7.55,1.93,14.28,10.1,11.14,17.23
		c-0.95,2.16-2.67,3.91-3.73,6.02c-2.59,5.16-0.86,11.4,1.55,16.65c2.41,5.24,5.52,10.45,5.65,16.22
		c0.14,6.58-3.72,12.65-8.49,17.19c-3.82,3.63-8.42,6.63-13.58,7.67c-5.92,1.19-12.01-0.24-17.88-1.67
		c-7.7-1.88-15.41-3.75-23.11-5.63c-7.67-1.87-15.54-3.83-21.99-8.39c-7.24-5.12-8.06-10.91-10.32-18.67
		C241.52,223.04,236.2,216.4,234.28,208.16z"/>
</g>
</svg>
