<?xml version="1.0" encoding="utf-8"?>
<!-- Generator: Adobe Illustrator 25.0.0, SVG Export Plug-In . SVG Version: 6.00 Build 0)  -->
<svg version="1.1" id="Calque_1" xmlns="http://www.w3.org/2000/svg" xmlns:xlink="http://www.w3.org/1999/xlink" x="0px" y="0px"
	 viewBox="0 0 348 589.2" style="enable-background:new 0 0 348 589.2;" xml:space="preserve">
<style type="text/css">
	.st0{fill:#A7F400;}
	.st1{fill:#CE9300;stroke:#3D3D3D;stroke-width:2;stroke-miterlimit:10;}
	.st2{fill:#93C102;stroke:#3D3D3D;stroke-width:2;stroke-miterlimit:10;}
	.st3{fill:#A9E21E;stroke:#3D3D3D;stroke-width:2;stroke-miterlimit:10;}
	.st4{fill:#FFFFFF;stroke:#3D3D3D;stroke-width:2;stroke-miterlimit:10;}
	.st5{fill:#E8AE0C;stroke:#3D3D3D;stroke-width:2;stroke-miterlimit:10;}
	.st6{fill:none;stroke:#EA5F00;stroke-width:2;stroke-miterlimit:10;}
	.st7{fill:#A04800;}
	.st8{fill:none;stroke:#A7F400;stroke-miterlimit:10;}
	.st9{fill:#3D3D3D;}
	.st10{fill:#753200;}
	.st11{fill:#E8AE0C;}
</style>
<g>
	<path class="st0" d="M15.65,361.26c0.95,0.76,2.45,0.5,3.32-0.35c0.87-0.85,1.2-2.13,1.17-3.35c-0.03-1.16,0.23-2.91,1.36-2.67
		c1.14,1.39,1.02,3.39,0.91,5.18c-0.21,3.56-0.12,7.13,0.26,10.67c0.19,1.76,0.51,3.63,1.69,4.96c1.18,1.33,3.51,1.77,4.69,0.44
		c1.23-1.38,0.5-3.57-0.47-5.14s-2.21-3.28-1.81-5.08c0.85-0.45,1.34,1.14,2.24,1.46c0.82,0.29,1.62-0.69,1.54-1.55
		c-0.08-0.86-0.68-1.57-1.2-2.27c-2.12-2.86-3.12-6.53-2.76-10.07c2.33-0.54,3.07,4.48,5.39,3.91c0.53-0.13,0.94-0.56,1.19-1.05
		c0.52-1.02,0.38-2.35-0.34-3.24c-0.4-0.49-0.99-0.96-0.94-1.59c0.07-0.94,1.34-1.13,2.29-1.12s2.23-0.46,2.01-1.38
		c1.6,0.03,2.94,1.73,2.6,3.29c-0.29,1.37-1.55,2.99-0.49,3.91c0.62,0.54,1.66,0.23,2.17-0.41c0.51-0.65,0.63-1.51,0.74-2.32
		c-0.25,8.37-0.51,16.75-0.76,25.12c-0.08,2.57-0.09,5.36,1.46,7.41c0.61,0.8,1.51,1.47,2.51,1.48c2.05,0.03,3.19-2.49,3.04-4.53
		c-0.19-2.64-1.55-5.02-2.48-7.5c-2.32-6.14-2.04-12.97-0.86-19.43c0.38-2.09,0.85-4.3,0.14-6.3c-0.32-0.89-0.86-1.75-0.76-2.69
		c0.26-2.44,4.46-3.06,4.43-5.51c-0.01-0.62-0.32-1.2-0.71-1.69c-1.87-2.37-5.24-2.88-8.25-2.77c-7.5,0.26-14.82,3.39-20.32,8.46
		c-2.06,1.9-5.43,4.75-4.75,7.56c0.31,1.26,1.23,1.58,1.29,3.18C15.26,357.95,13.97,359.93,15.65,361.26z"/>
	<path class="st1" d="M111.82,332.16c-10.05,0.1-19.66-0.99-29.94,0.04c-21.8,2.18-43.42,11.74-63.77,22.18
		c-2.03,1.04-4.72,1.99-6.57,1.73c-1.2-0.17-1.25-1.57-0.07-2.25c3.59-2.08,7.17-4.16,10.76-6.24c0.09-0.05,0.03-0.16-0.06-0.11
		l-11.84,6.04c-0.78,0.4-1.52-0.12-1.19-0.82c2.07-4.41,6.37-7.78,12-9.64L8.39,349.5c-0.55,0.28-1.13-0.02-1-0.52
		c0.84-3.31,4.79-6.17,8.42-8.23c33.33-19.03,79.1-26.47,113.9-23.79c0.05,0,0.07,0.05,0.04,0.09"/>
	<path class="st2" d="M159.8,180.19c-2.15-2.6-3.68-7.55-0.42-8.43c3.3,1.81,6.59,3.62,9.89,5.44c3.05,3.92,5.27,8.48,6.47,13.3
		c4.34-12.75-2.48-26.94-12.22-36.24c-9.74-9.3-22.14-15.25-33.06-23.13c-2.25-1.62-4.63-3.69-4.76-6.45
		c-0.19-4.02,4.82-6.61,8.73-5.67c3.91,0.95,6.84,4.1,9.66,6.98c2.82,2.88,6.12,5.79,10.14,6.03
		c-12.48-9.43-22.99-21.45-30.69-35.06c-3.18-5.62-5.95-11.86-5.41-18.3s5.47-12.9,11.93-13.08c9.63-0.26,14.2,11.57,16.02,21.03
		c-9.18-24.25-4.47-53.24,11.91-73.34c4.9-6.01,12.37-11.66,19.76-9.34c6.93,2.18,10.11,10.75,8.74,17.88s-6.05,13.12-10.58,18.79
		c7.58-5.69,16.24-9.94,25.39-12.44c2.33-0.64,4.89-1.15,7.1-0.17c3.46,1.53,4.53,6.22,3.28,9.79c-1.25,3.57-4.16,6.27-6.97,8.81
		c-11.91,10.77-23.88,21.47-35.9,32.11c9.77-4.33,20.66-8.74,30.84-5.49c1.95,0.62,3.95,1.64,4.87,3.47
		c2.05,4.04-2.19,8.31-5.92,10.87c-11.84,8.11-23.68,16.22-35.51,24.32c8.74-0.39,17.75-0.73,25.97,2.27
		c1.33,0.49,2.67,1.08,3.63,2.12c2.9,3.13,0.77,8.6-2.9,10.79c-3.66,2.19-8.16,2.21-12.4,2.75c-4.24,0.54-8.87,2-10.88,5.76
		c7.21,0.69,14.34,2.28,21.17,4.73c-1.22,5.67-7.51,9.7-13.17,8.46c6.92,10.33,11.26,22.38,12.51,34.75
		c0.62,6.13-0.14,20.24-8.7,18.39C172.59,200.65,163.5,184.66,159.8,180.19z"/>
	<path class="st3" d="M166.33,150.49c0.94-3.76,4.47-8.54,7.5-6.13c0.57,4.28,1.15,8.56,1.72,12.84
		c-1.54,5.49-4.24,10.64-7.87,15.03c14.73-4.68,23.19-20.64,25.14-35.98s-1-30.83-1.17-46.29c-0.03-3.18,0.25-6.79,2.71-8.8
		c3.59-2.92,9.39-0.05,11.18,4.21c1.79,4.26,0.88,9.11,0.14,13.67c-0.74,4.56-1.18,9.6,1.34,13.47
		c0.21-17.95,4.14-35.85,11.47-52.23c3.03-6.77,6.9-13.58,13.22-17.46s15.64-3.74,20.2,2.1c6.81,8.71-1.01,20.99-8.51,29.12
		c16.14-25,46.11-40.4,75.83-38.97c8.89,0.43,19.2,3.48,22.09,11.89c2.71,7.88-3.04,16.66-10.56,20.26
		c-7.52,3.6-16.23,3.35-24.56,3.03c10.42,3.12,20.24,8.23,28.78,14.97c2.18,1.72,4.39,3.74,4.99,6.44c0.95,4.24-2.66,8.42-6.81,9.7
		c-4.15,1.28-8.62,0.43-12.88-0.43c-18.06-3.66-36.09-7.42-54.11-11.28c10.66,6.07,22.15,13.12,26.07,24.74
		c0.75,2.23,1.17,4.76,0.12,6.87c-2.33,4.65-9.16,3.64-14.08,1.94c-15.55-5.41-31.1-10.82-46.65-16.22
		c6.31,7.81,12.77,15.89,15.6,25.53c0.46,1.56,0.82,3.2,0.51,4.8c-0.91,4.81-7.42,6.57-11.93,4.67s-7.6-6.03-10.98-9.58
		s-7.88-6.83-12.73-6.12c4.28,7.13,7.66,14.8,10.05,22.77c-6.07,2.73-14.08-0.32-16.78-6.4c-4.82,13.43-12.99,25.64-23.56,35.23
		c-5.24,4.75-18.78,13.65-22.91,4.49C156.15,176.25,164.72,156.95,166.33,150.49z"/>
	<path class="st4" d="M105.16,140.71c-3.74-7.3-7.1-15.09-7.19-23.28s3.8-16.91,11.23-20.37c5.42-2.53,12.22-1.8,16.98,1.82
		c4.76,3.62,7.29,9.97,6.31,15.87c1.96,3.07,7.01,0.51,8.32-2.89s1.14-7.51,3.58-10.21c1.04-1.14,2.44-1.89,3.86-2.5
		c7.13-3.1,15.6-3.36,22.6,0.03c6.99,3.39,12.18,10.6,12.41,18.37c0.25,8.53-5.26,16.4-12.27,21.28c-7.01,4.87-15.39,7.28-23.6,9.61
		c3.81,15.16,10.43,29.61,19.43,42.39c-17.44,1.9-23.29,3.5-34.66-10.01C121.73,168.43,112.56,155.15,105.16,140.71z"/>
	<path class="st1" d="M169.8,545.96c0.95,3.18,1.97,6.45,1.58,9.74s-2.64,6.62-5.92,7.11c-1.69,0.25-3.39-0.27-5.09-0.47
		c-4.61-0.54-9.44,1.46-12.31,5.12c-0.67,2.48,1.57,4.98,4.07,5.57s5.09-0.18,7.54-0.95c4.14-1.29,8.28-2.58,12.42-3.88
		c2.61-0.82,5.38-1.73,7.14-3.83c2.06-2.45,2.25-5.94,2.13-9.14c-0.53-13.99-5.21-27.79-3.93-41.73c0.75-8.18,3.54-16.05,4.61-24.2
		c0.35-2.7,0.48-5.6-0.8-8c-0.83-1.54-2.17-2.73-3.53-3.82c-19.95-15.79-19.18,1.08-17.59,18.38
		C161.67,512.83,164.91,529.64,169.8,545.96z"/>
	<path class="st5" d="M209.86,583.74c2.6,2.85,7.49,1.66,10.42-0.85c6.29-5.38,7.55-14.78,6.06-22.93
		c-1.49-8.15-5.2-15.72-7.22-23.75c-5.34-21.17,1.34-43.64-1.75-65.25c-1.17-8.19-3.75-16.29-3.22-24.55
		c0.47-7.36,3.39-14.31,6.26-21.09c8.7-20.55,17.41-41.1,26.11-61.65c15.97-37.71,32.2-79.53,19.61-118.51
		c-9.03-27.94-32.67-50.1-60.35-59.9s-58.83-7.83-86.21,2.76c-11.42,4.42-22.89,10.88-28.66,21.68c-5.92,11.09-4.7,24.5-2.9,36.94
		c12.52,86.89,44.83,169.85,83.97,248.43c4.14,8.32,8.42,16.68,14.44,23.76c6.32,7.42,14.36,13.2,21,20.35
		c5.69,6.13,13.75,17.64,10.93,26.7C216.76,571,204.18,577.5,209.86,583.74z"/>
	<path class="st6" d="M90.74,235.11c6.24,5.79,16.38,3.21,23.8-0.97c7.41-4.18,14.88-9.81,23.37-9.17
		c11.25,0.85,19.59,12.54,30.87,12.9"/>
	<path class="st6" d="M114.15,195.12c8.65-0.1,17.02-2.82,25.48-4.6c8.46-1.77,17.62-2.53,25.47,1.08"/>
	<path class="st6" d="M171.2,398.9c17.44-3.93,35.51-5.08,53.31-3.38"/>
	<path class="st6" d="M94.67,252.31c15.88-1.26,31.76-2.52,47.64-3.77"/>
	<path class="st6" d="M109.08,210.29c13.26-2.22,26.45-5.23,39.88-5.76s27.39,1.62,38.67,8.94"/>
	<path class="st6" d="M168.77,375.04c3.89,2.07,8.08,3.59,12.39,4.51c9.83,2.08,20.03,0.97,30.02-0.15
		c6.79-0.76,13.58-1.52,20.37-2.28"/>
	<path class="st6" d="M213.97,362.55c6.93,0.62,14.01,0.57,21.06-0.13"/>
	<path class="st7" d="M148.99,269.53c-3.41,3.37-4.31,9-2.14,13.26c0.53,1.03,1.23,2.04,1.3,3.19c0.18,2.57-2.7,4.43-3.01,6.98
		c-0.33,2.65,2.11,4.71,4.03,6.57c5.05,4.88,7.82,11.59,10.46,18.09c1.7-4.24,3.96-8.25,6.72-11.89c4.58,2.94,8.63,6.66,12.32,10.66
		c3.34,3.62,8.31,7.86,12.5,5.26c3.06-1.9,3.23-6.31,2.37-9.81s-2.41-7.08-1.52-10.58c4.23-2.88,8.92-5.09,13.84-6.52
		c-5.38-2.06-9.97-6.13-12.65-11.23c-1.36-2.57-2.23-5.37-3.44-8.02c-2.04-4.49-5.03-8.54-8.72-11.81
		c-1.34-1.19-2.91-2.33-4.71-2.35c-2.61-0.03-4.58,2.22-6.42,4.07c0,0-0.01,0.01-0.01,0.01C163.75,271.58,155.9,262.7,148.99,269.53
		z"/>
	<path class="st8" d="M213.62,222.01c1.25,3.02,5.9,3.75,9.47,5.11c5.15,1.97,8.52,5.67,11.34,9.51
		c10.61,14.47,15.23,32.34,13.25,51.28"/>
	<path class="st8" d="M208.46,235.3c9.79-3.38,19.09-8.76,26.49-15.33"/>
	<path class="st8" d="M239.23,279.66c5.37-0.42,10.93-1.65,16.28-3.61"/>
	<path class="st8" d="M222.79,239.9c5.88-2.61,11.75-5.22,17.63-7.83"/>
	<path class="st8" d="M234.54,251.33c4.36-2.04,8.94-3.64,13.54-4.73"/>
	<path class="st8" d="M240.72,265.18c3.37-0.71,6.75-1.42,10.12-2.13"/>
	<path class="st0" d="M165.4,300.15c2.18-1.26,5.4,0.07,6.04,2.51c0.27,1.01,0.22,2.23,1.03,2.87c0.8,0.63,1.97,0.33,2.95,0.63
		c2.09,0.65,2.29,3.44,2.66,5.6s2.7,4.62,4.33,3.16c1.39-1.23,0.36-4.03,1.92-5.04c1.18-0.77,2.74,0.29,3.48,1.49
		c0.74,1.2,1.22,2.68,2.45,3.38c0.58,0.33,1.27,0.44,1.83,0.8c1.3,0.83,1.49,2.63,1.48,4.18c-0.05,6.29-1.07,12.96,1.8,18.55
		c0.89,1.73,2.15,3.35,2.43,5.28s-1.04,4.28-2.98,4.12c-2.16-0.18-2.88-2.95-3.05-5.11c-0.51-6.59-1.02-13.18-1.52-19.77
		c-3.65,1.12-6.15,5.16-5.51,8.93c-1.45,1.35-3.97-0.23-4.38-2.17s0.43-3.89,0.86-5.82c0.43-1.93,0.23-4.35-1.48-5.34
		c-3.03,3.19-2.23,8.27-1.45,12.6c1.67,9.3,2.32,18.78,1.94,28.22c-0.1,2.43-0.42,5.18-2.36,6.66c-1.55,1.18-3.85,1.15-5.5,0.11
		c-2.45-1.54-3.26-5.17-1.72-7.6c1.11-1.74,3.08-2.72,4.45-4.27c2.42-2.74,2.56-6.83,1.82-10.41c-0.75-3.58-2.24-6.99-2.67-10.62
		c-0.43-3.62,0.22-7.27,0.23-10.91c0.01-3.64-0.78-7.56-3.47-10.03c-1.3-1.2-3.63-1.83-4.67-0.4c-0.75,1.03-0.34,2.44-0.17,3.7
		c0.17,1.26-0.26,2.92-1.53,3.03c-1.11,0.09-1.84-1.09-2.29-2.11c-0.92-2.04-1.84-4.08-2.75-6.13c-0.45-1.01-0.87-2.32-0.1-3.12
		c0.8-0.84,3.1-0.39,4.03-0.09C163.49,304.9,162.97,301.55,165.4,300.15z"/>
	
		<ellipse transform="matrix(0.9957 -0.093 0.093 0.9957 -25.753 12.2342)" class="st9" cx="118.37" cy="282.39" rx="0.95" ry="3.42"/>
	<path class="st10" d="M117.01,315.83c2.32-1.8,4.49-3.73,6.51-5.77c1.08,2.01,2.15,4.02,3.23,6.03c4.38-3.07,8.35-6.56,11.82-10.38
		c1.59,3.92,4.22,7.54,7.64,10.5c2.07-1.57,4.14-3.14,6.2-4.71c0.38,1.71,0.82,3.53,2.27,4.76s4.27,1.43,5.34-0.05
		c-1.24,6.19-2.47,12.38-3.71,18.58c-1.34-2.22-1.28-4.83-1.63-7.3s-1.37-5.17-3.94-6.36c-0.88,3.98-1.99,7.92-3.32,11.8
		c-1.73-4.64-4.19-9.1-7.28-13.2c-0.62,7.05-0.81,14.12-0.57,21.19c-2.74-6.24-5.48-12.49-8.22-18.73
		c-0.63,3.14-1.25,6.28-1.88,9.43c-1.48-3.45-3.23-6.81-5.22-10.06c-0.74,3.5-1.48,7-2.21,10.5c-0.45-3.63-1.6-7.19-3.39-10.5
		c-1.44,2.65-2.32,5.52-2.6,8.43c-0.67-2.74-1.35-5.47-2.02-8.21c-0.91,2.32-1.82,4.64-2.73,6.95c1.99-5.06-1.23-12.56-0.01-18.05
		C113.32,312.22,115.14,314.09,117.01,315.83z"/>
	<path class="st4" d="M100.45,379.18c-3.16,1.29-6.55,2.5-10.2,2.87s-7.63-0.3-9.36-2.12c-1.26-1.33-1.1-3.15,0.39-4.56
		c1.49-1.41,4.26-2.34,6.92-2.33c1.32-0.65,0.05-1.87-1.49-2.08c-1.55-0.21-3.37,0.01-4.64-0.52c-0.54-0.23-0.9-0.57-1.21-0.91
		c-1.56-1.75-1.88-3.98-0.54-5.97c1.34-1.99,4.43-3.66,7.88-4.04c3.8-0.42,7.44,0.71,9.78,2.36c2.34,1.65,3.62,3.76,4.87,5.83
		c6.66-1.64,12.94-3.99,18.41-6.9c1.28,4.53,2.14,6.01-3.6,9.57C112.39,373.65,106.7,376.63,100.45,379.18z"/>
	<path class="st5" d="M227.21,341.64c-31.31-4.6-72.2-1.52-105.32,11.54"/>
	<path class="st5" d="M227.25,341.73c0.03-0.04,0.01-0.09-0.04-0.09"/>
	<path class="st5" d="M208.33,355.57"/>
	<path class="st5" d="M121.89,353.18c-6.04,1.62-11.43,4.46-15.66,9.06c2.08,0.85,4.46,0.32,6.54-0.54
		c2.08-0.86,4.05-2.03,6.25-2.47c-1.36,1.03-2.53,2.33-3.42,3.79c1.76,0.2,3.56,0.06,5.27-0.39c-1.21,1.5-2.16,3.2-2.8,5.02
		c1.19-0.37,2.32-0.95,3.32-1.69c-0.83,2.09-1.66,4.18-2.49,6.27c2.53-2.2,4.18-3.82,6.71-6.02"/>
	<path class="st11" d="M187.39,341.79c-3.11-0.21-6.3-0.4-9.27,0.63c-4.05,1.4-7.12,4.86-10.01,8.2c-0.08,1.47,1.24,2.67,2.6,2.95
		c1.36,0.28,2.75-0.1,4.11-0.36c11.28-2.14,23.39,3.91,34.06-0.54c2.9-1.21,7.98-3.55,10.12-5.96c3.5-3.93-2.2-2.97-5.38-3.18
		C204.88,342.95,196.13,342.37,187.39,341.79z"/>
	<path class="st5" d="M125.61,366.21c17.3-6.78,35.18-12.12,52.85-12.66c10.32-0.32,19.84,1.43,29.87,2.02"/>
</g>
</svg>
