<?xml version="1.0" encoding="utf-8"?>
<!-- Generator: Adobe Illustrator 25.0.0, SVG Export Plug-In . SVG Version: 6.00 Build 0)  -->
<svg version="1.1" id="Calque_1" xmlns="http://www.w3.org/2000/svg" xmlns:xlink="http://www.w3.org/1999/xlink" x="0px" y="0px"
	 viewBox="0 0 260.8 419.2" style="enable-background:new 0 0 260.8 419.2;" xml:space="preserve">
<style type="text/css">
	.st0{fill:#75654C;stroke:#3D3D3D;stroke-width:2;stroke-miterlimit:10;}
	.st1{fill:#56472C;stroke:#3D3D3D;stroke-width:2;stroke-miterlimit:10;}
	.st2{fill:#759100;stroke:#3D3D3D;stroke-width:2;stroke-miterlimit:10;}
	.st3{fill:#D30051;stroke:#3D3D3D;stroke-width:2;stroke-miterlimit:10;}
	.st4{fill:#FFF3AB;stroke:#3D3D3D;stroke-width:2;stroke-miterlimit:10;}
	.st5{fill:#3D3D3D;}
	.st6{fill:none;stroke:#3D3D3D;stroke-width:2;stroke-miterlimit:10;}
	.st7{fill:#FF78E6;}
</style>
<g>
	<path class="st0" d="M226.71,389.9c-0.2,2.11-0.42,4.31-1.63,6.13c-1.41,2.13-3.91,3.38-6.32,4.46
		c-24,10.76-51.45,14.29-77.13,9.92c-10.46-1.78-20.93-4.99-28.82-11.47c-2.99-2.46-5.63-5.47-6.72-9.08
		c-0.79-2.62-0.72-5.42-0.64-8.18c0.63-19.86,2.07-39.73,4.31-59.55c0.09-0.83,0.22-1.71,0.81-2.35c1.02-1.11,2.85-0.94,4.36-0.67
		c30.24,5.26,61.44,6.48,92.35,3.61c16.29-1.51,26.63,3.38,24.12,19.34C228.89,357.87,228.19,374.01,226.71,389.9z"/>
	<path class="st0" d="M247.31,329.66c-0.82,2.44-1.84,4.92-3.78,6.61c-1.85,1.61-4.31,2.3-6.69,2.89
		c-41.48,10.27-85.92,4.17-125.57-11.77c-7.44-2.99-15.24-6.76-19.1-13.78c-2.75-4.99-3.09-10.93-2.9-16.63
		c0.23-7.24,1.24-14.58,4.24-21.18c4.69-10.32,14.34-18.26,25.37-20.86c5.84-1.38,11.92-1.32,17.92-1.13
		c26.48,0.87,52.87,4.36,78.66,10.42c6.54,1.54,13.14,3.27,18.96,6.64C253.5,281.93,253.5,311.18,247.31,329.66z"/>
	<path class="st1" d="M212.29,250.51c10.01,2.44,20.24,5.82,27.62,13s11.03,19.13,5.95,28.09c-4.18,7.38-12.84,10.85-21.02,13.07
		c-37.41,10.15-78.85,4.46-112.15-15.39c-6.46-3.85-13.13-8.96-14.53-16.35c-1.27-6.73,2.42-13.66,7.74-17.96
		c5.33-4.3,12.06-6.43,18.7-8.09c15.18-3.8,30.84-5.62,46.48-5.43C185.39,241.63,198.42,247.13,212.29,250.51z"/>
	<path class="st2" d="M159.21,185.11c-6.07,4.83-12.5,8.74-18.21,14.24c-12.1,11.67-20.16,27.7-26.97,43.67
		c-0.68,1.59-1.81,3.44-3.08,4.16c-0.82,0.47-1.6-0.36-1.25-1.33c1.07-2.96,2.14-5.92,3.21-8.88c0.03-0.08-0.07-0.11-0.1-0.04
		l-3.98,9.27c-0.26,0.61-0.99,0.65-1.16,0.07c-1.1-3.65-0.28-7.72,2.15-11.51l-4.33,9.93c-0.19,0.43-0.69,0.52-0.89,0.16
		c-1.26-2.4-0.38-6,0.72-8.97c10.12-27.31,34.01-53.54,56.63-68.43c0.03-0.02,0.07,0,0.07,0.03"/>
	<path class="st2" d="M182.18,203.35c4.84,13.75,6.44,29.07,1.8,42.88c-0.87,2.59-1.97,5.27-1.46,7.95
		c0.93,4.92,6.56,7.23,11.45,8.34c4.89,1.1,10.53,2.33,12.84,6.78c1.84,3.55,0.7,8.09-1.88,11.15c-2.58,3.06-6.32,4.87-10.09,6.21
		c-14.19,5.07-30.32,4.49-44.11-1.6c-7.49-3.31-15.17-10.19-13.49-18.2c1.09-5.2,5.93-8.86,10.96-10.54
		c5.03-1.69,10.43-1.88,15.63-2.93c2.04-0.41,4.15-1.01,5.65-2.46c1.53-1.48,2.2-3.62,2.71-5.69c6.27-25.57-5.38-54.52-27.62-68.63
		c2.13-4.03,6.82-9.44,11.55-10.44c6.37-1.34,6.01,0.28,9.71,5.65C172.49,181.49,178.28,192.29,182.18,203.35z"/>
	<g>
		
			<ellipse transform="matrix(0.982 -0.1888 0.1888 0.982 -5.1665 25.6507)" class="st3" cx="132.07" cy="39.95" rx="30.25" ry="27.08"/>
		
			<ellipse transform="matrix(0.982 -0.1888 0.1888 0.982 -7.1386 17.3872)" class="st3" cx="87.71" cy="46.17" rx="30.25" ry="27.08"/>
		<ellipse transform="matrix(0.982 -0.1888 0.1888 0.982 -8.5929 32.631)" class="st3" cx="167" cy="61.42" rx="30.25" ry="27.08"/>
		
			<ellipse transform="matrix(0.982 -0.1888 0.1888 0.982 -16.7481 36.0986)" class="st3" cx="181.13" cy="105.97" rx="30.25" ry="27.08"/>
		
			<ellipse transform="matrix(0.982 -0.1888 0.1888 0.982 -24.2718 34.3583)" class="st3" cx="168.23" cy="144.6" rx="30.25" ry="27.08"/>
		
			<ellipse transform="matrix(0.982 -0.1888 0.1888 0.982 -29.4072 27.8519)" class="st3" cx="131.51" cy="168.3" rx="30.25" ry="27.08"/>
		
			<ellipse transform="matrix(0.982 -0.1888 0.1888 0.982 -12.6222 10.9828)" class="st3" cx="51.34" cy="71.75" rx="30.25" ry="27.08"/>
		
			<ellipse transform="matrix(0.982 -0.1888 0.1888 0.982 -19.8636 9.1598)" class="st3" cx="38.15" cy="108.86" rx="30.25" ry="27.08"/>
		
			<ellipse transform="matrix(0.982 -0.1888 0.1888 0.982 -27.028 12.9831)" class="st3" cx="54.64" cy="148.38" rx="30.25" ry="27.08"/>
		
			<ellipse transform="matrix(0.982 -0.1888 0.1888 0.982 -30.1336 19.8694)" class="st3" cx="89.24" cy="168.13" rx="30.25" ry="27.08"/>
	</g>
	
		<ellipse transform="matrix(0.982 -0.1888 0.1888 0.982 -18.0619 22.5578)" class="st4" cx="109.39" cy="106.1" rx="60.5" ry="54.17"/>
	<path class="st2" d="M172.67,190.39c7.43,2.24,14.85,3.48,22.19,6.47c15.57,6.35,29,18.25,41.24,30.55
		c1.22,1.23,2.96,2.53,4.4,2.72c0.94,0.13,1.35-0.93,0.67-1.7c-2.09-2.35-4.18-4.7-6.28-7.05c-0.05-0.06,0.02-0.13,0.08-0.07
		l7.13,7.13c0.47,0.47,1.16,0.24,1.11-0.36c-0.33-3.79-2.6-7.28-6.27-9.9l7.7,7.62c0.33,0.33,0.84,0.23,0.88-0.18
		c0.28-2.69-1.87-5.71-3.99-8.06c-19.52-21.61-51.44-37.11-77.97-42.56c-0.04-0.01-0.06,0.02-0.06,0.06"/>
	<ellipse transform="matrix(0.999 -0.044 0.044 0.999 -4.4636 4.8001)" class="st5" cx="106.79" cy="103.77" rx="0.78" ry="2.8"/>
	<ellipse transform="matrix(0.999 -0.044 0.044 0.999 -4.5256 3.8623)" class="st5" cx="85.46" cy="104.71" rx="0.78" ry="2.8"/>
	<path class="st6" d="M102.77,123.12c-1.64,2.23-4.4,3.6-7.18,3.55s-5.49-1.5-7.06-3.79"/>
	<circle class="st7" cx="125.45" cy="111.96" r="4.68"/>
	<circle class="st7" cx="63.82" cy="111.87" r="4.68"/>
</g>
</svg>
