<?xml version="1.0" encoding="utf-8"?>
<!-- Generator: Adobe Illustrator 25.0.0, SVG Export Plug-In . SVG Version: 6.00 Build 0)  -->
<svg version="1.1" id="Calque_1" xmlns="http://www.w3.org/2000/svg" xmlns:xlink="http://www.w3.org/1999/xlink" x="0px" y="0px"
	 viewBox="0 0 561.6 421.2" style="enable-background:new 0 0 561.6 421.2;" xml:space="preserve">
<style type="text/css">
	.st0{fill:#A85D78;stroke:#3D3D3D;stroke-width:2;stroke-miterlimit:10;}
	.st1{fill:#E57F9A;stroke:#3D3D3D;stroke-width:2;stroke-miterlimit:10;}
	.st2{fill:#FFBBE4;stroke:#3D3D3D;stroke-width:2;stroke-miterlimit:10;}
	.st3{fill:none;stroke:#3D3D3D;stroke-width:2;stroke-miterlimit:10;}
	.st4{fill:#3D3D3D;}
	.st5{fill:#FF78E6;}
	.st6{fill:none;stroke:#9E0040;stroke-width:6;stroke-miterlimit:10;}
	.st7{fill:none;stroke:#FFFFFF;stroke-width:6;stroke-miterlimit:10;}
	.st8{fill:none;stroke:#AAD300;stroke-width:6;stroke-miterlimit:10;}
	.st9{fill:none;stroke:#2D2D2D;stroke-width:6;stroke-miterlimit:10;}
</style>
<g>
	<path class="st0" d="M14.4,205.2c-2.9-5.4-4.1-11.5-5.2-17.6c-1.4-7.6-2.6-15.2-3.8-22.8c-0.3-2-0.5-4.2,0.7-5.7
		c0.9-1.1,2.3-1.7,3.7-2c12.5-3.3,25.7,1.9,36.5,9.1c1.6,1.1,3.3,2.3,4.2,4.1c0.8,1.6,0.8,3.4,0.9,5.1c0.2,7.3,0.4,14.8-1.8,21.8
		c-1.7,5.4-10.1,23.6-16.4,25.3C25.4,224.6,17.4,210.7,14.4,205.2z"/>
	<path class="st0" d="M149.4,389.6c-6.9,1.5-13.2,5.5-17.5,11.2c-1.9,2.5-3.3,6.5-0.9,8.5c1.8,1.5,4.5,0.9,6.7,0.2
		c5.5-1.7,11-3.5,16.6-5.2c3.7-1.2,7.7-2.6,9.6-5.9c1.1-2,1.4-4.3,1.6-6.6c1.3-14.8,2.6-29.6,3.8-44.4c0.1-1.3,0.2-2.6-0.4-3.8
		c-0.6-1.2-1.9-1.9-3.1-2.5c-4.7-2.5-10.1-4.8-15.1-3.2c-7.7,2.4-1.4,16.9-0.9,22.9C150.1,363.5,151.9,389.1,149.4,389.6z"/>
	<path class="st0" d="M346.3,355.1c-6.9,1.5-13.2,5.5-17.5,11.2c-1.9,2.5-3.3,6.5-0.9,8.5c1.8,1.5,4.5,0.9,6.7,0.2
		c5.5-1.7,11-3.5,16.6-5.2c3.7-1.2,7.7-2.6,9.6-5.9c1.1-2,1.4-4.3,1.6-6.6c1.3-14.8,2.6-29.6,3.8-44.4c0.1-1.3,0.2-2.6-0.4-3.8
		c-0.6-1.2-1.9-1.9-3.1-2.5c-4.7-2.5-10.1-4.8-15.1-3.2c-7.7,2.4-1.4,16.9-0.9,22.9C346.9,329,348.7,354.6,346.3,355.1z"/>
	<path class="st1" d="M508.4,131c27.6,32.4,43.5,74.6,44.1,117.1c0.2,13.5-1.4,27.6-7.8,39.2c-1.4,2.5-5.2,1.9-5.8-0.9
		c-1.3-6.1,0.2-19.1,3.6-24.4c-1.2,9.8-8.3,25-17.1,29.4c-3.5,1.7-7.2-1.7-5.6-5.3c3.7-8.6,13-14.4,14.9-24.5
		c-3.7,8.3-7.6,14.2-15.8,18.2c-3.3,1.6-7-1.6-5.8-5.1c1.7-4.9,5.8-9.6,8.6-14.3c7.6-12.5,6.2-28.3,4.4-42.8
		c-3.3-26.9-8.5-56-28.6-74c-4.4-3.9-9.4-7.2-12.8-12c-4.7-6.5-11.7-27.9-7.5-34.7C487.9,107.6,498.5,119.4,508.4,131z"/>
	<path class="st1" d="M121,72.5c72.4-59.5,176.6-77.4,264.7-45.7c46.4,16.7,90.2,49.2,105.7,96c15.7,47.5-0.6,100.2-26.8,142.8
		c-16.5,26.9-38.3,52.3-67.7,63.6c3.1,15.4,6.1,31.6,1.6,46.7c-4.5,15.1-19,28.4-34.6,25.8c-5.7-5.7,2.7-14.2,8.7-19.6
		c15.3-13.7,16.8-40,3.2-55.3c-11.8-13.3-30.7-17.1-48.4-19.1c-24.2-2.7-54.2-0.5-64.7,21.4c-9.9,20.4,3.8,46.7-6.8,66.8
		c-5,9.4-15.1,15.8-25.7,16.2c-8.6,0.3-19-9.5-12.6-15.4c1.8-1.7,4.3-2.1,6.6-3c15.5-5.7,18.4-25.9,18.8-42.4
		c0.3-15.8-1.2-35.1-15.3-42.2c-12.7-6.5-28.4,1.4-37.7,12.2c-9.3,10.8-15,24.5-24.8,34.9c-47.6,50.5-138.7-20.1-143-76
		C16.6,203.8,63.6,119.7,121,72.5z"/>
	<path class="st2" d="M42.6,303.1c-14.6,8.1-24.3,23.3-28.8,39.4c-2.1,7.6-3.2,15.7-0.9,23.2c3.6,12,14.8,20.1,26.4,24.9
		c32.7,13.7,71.2,7,102.5-9.8c10.5-5.6,20.8-12.8,26-23.5c3.8-7.9,4.5-17,4.9-25.8c0.6-10.8,0.6-22.9-6.8-30.7
		c-6.2-6.6-16.1-8.3-25.2-8.1c-17.9,0.4-36.8,14.6-52.7,13.6C70.5,305.2,63.4,291.6,42.6,303.1z"/>
	<path class="st0" d="M52.9,334.7c-7.6,1.5-12.4,10.3-10.7,17.9c1.7,7.6,8.5,13.3,16,15.1c2.8,0.7,6,0.9,8.5-0.5
		c2.8-1.5,4.4-4.7,5.1-7.8C74.3,348.3,66.2,332.2,52.9,334.7z"/>
	<path class="st0" d="M115.7,334.7c7.6,1.5,12.4,10.3,10.7,17.9c-1.7,7.6-8.5,13.3-16,15.1c-2.8,0.7-6,0.9-8.5-0.5
		c-2.8-1.5-4.4-4.7-5.1-7.8C94.3,348.3,102.4,332.2,115.7,334.7z"/>
	<path class="st3" d="M145.7,192.7c12.9-12.9,30-21.6,48.1-24.2c1.2-0.2,2.6-0.3,3.6,0.5c0.7,0.6,1,1.5,1.2,2.3
		c4.8,17.8-2.6,38.3-17.7,48.9"/>
	
		<ellipse transform="matrix(4.310157e-02 -0.9991 0.9991 4.310157e-02 -188.3135 320.601)" class="st4" cx="73.2" cy="258.6" rx="4.4" ry="1.2"/>
	
		<ellipse transform="matrix(4.310157e-02 -0.9991 0.9991 4.310157e-02 -157.7711 355.3733)" class="st4" cx="106.6" cy="260" rx="4.4" ry="1.2"/>
	<circle class="st5" cx="166.9" cy="252.8" r="7.3"/>
	<circle class="st5" cx="36.9" cy="243.5" r="7.3"/>
	<path class="st6" d="M328,108.8c-9.7,4.4-14.4,16.3-13.4,27c1,10.7,6.6,20.3,12.6,29.2c7.5,11.1,15.8,21.6,26,30.3
		c3.9,3.3,8.2,6.5,13.2,7.4c4.2,0.7,8.4-0.2,12.5-1.4c27.2-8.3,48.5-33.6,51.8-61.9c0.9-7.4,0.5-15.3-3.3-21.6
		c-3-5-7.9-8.6-13.1-11.3c-12.8-6.7-30.8-8.3-43.1,0.5c-9.6,6.9-5.4,9.4-17.2,4.5C345.6,107.9,336.8,104.7,328,108.8z"/>
	<path class="st7" d="M293.3,202.3c3.7,0,7.1-2.2,10.1-4.4c13.7-9.6,27.4-19.3,41.1-28.9"/>
	<path class="st7" d="M410.5,121.9c12.9-7.4,26.3-13.9,40.2-19.4"/>
	<path class="st7" d="M282.5,187.3c11.1,0.5,22.1,0.9,33.2,1.4"/>
	<path class="st7" d="M430.3,92.4c7,4.7,14.9,8,23.1,9.8c-3.6,5.6-5.9,12.1-6.7,18.8"/>
	<path class="st7" d="M306.2,197.3c-1.1,6.6-0.3,13.5,2.3,19.7"/>
	<path class="st7" d="M305,169c5.3,5.4,12.2,9.2,19.6,10.6"/>
	<path class="st7" d="M318.1,188.6c-1.8,6.9-1.1,14.3,1.9,20.7"/>
	<path class="st8" d="M402.4,192.1c-2.8,5.6,1.8,12,6.5,16.2c14,12.4,32,20.2,50.7,21.8c-3.9-0.8-6.2-5.3-6.1-9.3
		c0-4,1.7-7.8,2.7-11.7c4-15.8-4.2-33.9-18.8-41.3c-3.8-1.9-8.2-3.2-12.4-2.4"/>
	<path class="st8" d="M415.6,178.7c3.1,5.9,9.6,9,15.4,12.4s11.7,8.4,11.9,15"/>
	<path class="st8" d="M382.9,201.7c-6.9,4.5-8.5,14.3-5.9,22.1s8.5,13.9,14.2,19.9c-2.4-5.9,2.1-12.2,6.8-16.5
		c4.7-4.3,10.2-8.8,10.7-15.2"/>
	<path class="st8" d="M373,102.8c-5-7.3-1.8-17.5,3.2-24.8s11.8-13.7,14.6-22.1c-2.3,7,4,13.4,8.4,19.3c5.2,7,8.3,15.6,8.6,24.4"/>
	<path class="st8" d="M393,198.2c1.1,7.8,0.7,15.8-1.2,23.4"/>
	<path class="st8" d="M388.2,97.6c-0.5-5.5-0.3-11.2,0.8-16.6"/>
	<path class="st9" d="M235.3,156c0.8,1.2,2.4-0.6,2.7-2c0.9-4.7,2.3-9.3,4.1-13.7c0.7-1.7,2-3.7,3.8-3.2c1.4,0.4,1.9,2.1,2.2,3.5
		c0.8,4.9,0.9,9.8,0.4,14.7c-0.6-4.5-0.2-9.2,1.2-13.6c0.6-1.8,1.4-3.7,2.9-4.9c1.5-1.2,3.9-1.4,5.2-0.1c1,1,1.2,2.5,1.3,3.9
		c0.4,4.5,0.8,9.1,1.2,13.6c-0.7-4.8-0.4-9.8,0.7-14.5c0.3-1.2,0.7-2.5,1.6-3.3s2.6-0.9,3.3,0.1c0.4,0.5,0.4,1.2,0.5,1.9
		c0.3,4.4,0.9,8.7,1.7,13c0.2,1,0.4,2,1.1,2.7c1.1,1.2,2.9,1.2,4.5,1c3.9-0.4,7.8-1.4,11-3.6c3.2-2.3,5.5-6,5.3-9.9
		c-0.1-1.6-0.6-3.2-1.8-4.2c-2.3-2-6.2-0.8-8,1.6s-2.2,5.6-2.6,8.7c-0.3,3.1,0.2,7.3,3.3,7.6c1,0.1,2-0.4,2.8-0.9
		c4.9-3.2,6.6-9.6,6.9-15.5c-1,4.2-1.3,8.5-1.1,12.8c0.1,1.6,0.7,3.7,2.3,4c1.2,0.2,2.3-0.7,3-1.6c5.3-6.2,8.1-15.5,15.8-18.1
		c0.7-0.3,1.6-0.4,2.3-0.2c2.1,0.6,2.2,3.5,1.8,5.6c-0.8,4.8-1.8,9.5-2.9,14.2c1.2-3.5,1.1-7.3,2-10.9c0.9-3.6,3-7.3,6.5-8.4
		c0.7-0.2,1.4-0.3,2,0c1,0.5,1.2,1.8,1.3,2.9c0.5,5.9,0.3,11.8-0.6,17.6c0.3-5,1.5-10,3.6-14.6c0.8-1.8,1.8-3.5,3.5-4.6
		c1.6-1,4.1-1.1,5.3,0.4c0.8,1,1,2.3,1.1,3.6c0.3,3.4,0.6,6.8,1,10.1c0.2,2.1,0.7,4.5,2.6,5.2c0.9,0.3,1.9,0.2,2.8,0
		c5.6-1.1,11-3.8,15.2-7.6c2.6-2.4,4.9-5.9,3.8-9.2c-1.3-4.1-7.3-5-10.8-2.5s-4.9,7.1-5.3,11.4c-0.1,1.1-0.1,2.2,0.3,3.2
		c0.8,1.6,2.8,2.4,4.6,2.1c1.8-0.3,3.4-1.3,4.8-2.5c3.9-3.3,6.9-7.7,8.5-12.5c-3,5.1-4.3,11.1-3.9,16.9c3.2-1.8,5.1-5.3,7.4-8.2
		c2.3-2.9,5.8-5.6,9.4-4.8c0.5,0.1,1.1,0.3,1.4,0.8c0.4,0.6,0.3,1.3,0.2,2c-0.8,5-2.3,9.9-4.3,14.6c2.2-6.7,6.8-12.6,12.9-16.3
		c1.8-1.1,4.9-1.5,5.4,0.5c0.1,0.6,0,1.3-0.2,1.9c-1.2,3.8-2.4,7.6-3.6,11.4c-0.4,1.4-0.9,2.8-0.7,4.2c0.5,3.3,4.1,5.1,7.4,5.6
		c4.9,0.7,10.3-0.5,14-3.9c3.7-3.4,5.4-9,3.5-13.7"/>
</g>
</svg>
