<?xml version="1.0" encoding="utf-8"?>
<!-- Generator: Adobe Illustrator 16.0.0, SVG Export Plug-In . SVG Version: 6.00 Build 0)  -->
<!DOCTYPE svg PUBLIC "-//W3C//DTD SVG 1.1//EN" "http://www.w3.org/Graphics/SVG/1.1/DTD/svg11.dtd">
<svg version="1.1" id="Calque_1" xmlns="http://www.w3.org/2000/svg" xmlns:xlink="http://www.w3.org/1999/xlink" x="0px" y="0px"
	 width="573.058px" height="705.071px" viewBox="64.291 -57.716 573.058 705.071"
	 enable-background="new 64.291 -57.716 573.058 705.071" xml:space="preserve">
<g>
	<g>
		<path fill="#F2FF76" stroke="#3D3D3D" stroke-width="2" stroke-miterlimit="10" d="M381.412-16.857
			c1.011-0.143,2.178-0.233,2.93,0.466c0.583,0.544,0.726,1.4,0.842,2.191c0.559,4.07,1.128,8.14,1.686,12.21
			c1.297,9.359,2.593,18.795,2.023,28.232c-0.908,15.205-6.807,30.072-16.554,41.777c-6.378,7.648-59.536-40.417-61.222-49.737
			C307.553-1.445,365.961-14.667,381.412-16.857z"/>
		<path fill="#F2FF76" stroke="#3D3D3D" stroke-width="2" stroke-miterlimit="10" d="M470.788,83.795
			c0.998,0.247,2.1,0.597,2.541,1.517c0.337,0.726,0.155,1.568-0.039,2.346c-0.998,3.98-2.01,7.972-3.008,11.952
			c-2.308,9.165-4.627,18.407-8.685,26.936c-6.533,13.767-17.563,25.342-30.98,32.549c-8.775,4.706-40.093-59.756-38.174-69.024
			C396.525,70.457,455.635,80.049,470.788,83.795z"/>
		<path fill="#F2FF76" stroke="#3D3D3D" stroke-width="2" stroke-miterlimit="10" d="M511.555,228.002
			c0.895,0.479,1.893,1.102,2.087,2.1c0.155,0.791-0.246,1.556-0.622,2.269c-1.957,3.617-3.915,7.22-5.885,10.836
			c-4.512,8.309-9.062,16.67-15.102,23.942c-9.748,11.705-23.307,20.182-38.097,23.825c-9.67,2.385-23.993-67.833-19.833-76.349
			C442.918,196.633,497.802,220.6,511.555,228.002z"/>
		<path fill="#F2FF76" stroke="#3D3D3D" stroke-width="2" stroke-miterlimit="10" d="M511.127,365.857
			c0.895,0.479,1.893,1.102,2.086,2.1c0.157,0.79-0.246,1.555-0.621,2.27c-1.958,3.614-3.915,7.219-5.886,10.836
			c-4.511,8.308-9.061,16.669-15.101,23.94c-9.747,11.706-23.307,20.183-38.096,23.826c-9.671,2.384-23.994-67.833-19.833-76.35
			C442.504,334.489,497.374,358.454,511.127,365.857z"/>
		<path fill="#F2FF76" stroke="#3D3D3D" stroke-width="2" stroke-miterlimit="10" d="M527.576,438.745
			c0.751-0.078,1.607-0.131,2.152,0.401c0.414,0.414,0.505,1.049,0.569,1.634c0.325,3.006,0.649,6.026,0.973,9.033
			c0.752,6.936,1.504,13.924,0.882,20.856c-0.998,11.188-5.664,22.024-13.118,30.437c-4.86,5.496-43.022-31.084-44.06-38.006
			C472.784,448.505,516.131,440.026,527.576,438.745z"/>
		<path fill="#F2FF76" stroke="#3D3D3D" stroke-width="2" stroke-miterlimit="10" d="M599.673,509.325
			c0.751-0.079,1.607-0.131,2.152,0.401c0.414,0.415,0.505,1.05,0.569,1.633c0.324,3.007,0.649,6.028,0.973,9.035
			c0.752,6.935,1.504,13.921,0.882,20.856c-0.998,11.187-5.664,22.022-13.118,30.437c-4.861,5.496-43.021-31.085-44.06-38.006
			C544.881,519.086,588.228,510.607,599.673,509.325z"/>
	</g>
	<path fill="#787C53" stroke="#3D3D3D" stroke-width="2" stroke-miterlimit="10" d="M212.461,274.641
		c-8.102,16.424-17.889,31.212-24.59,48.739c-14.219,37.163-15.697,79.756-14.622,120.989c0.104,4.109-0.492,9.23-2.463,12.029
		c-1.284,1.829-3.707,0.805-3.914-1.633c-0.597-7.454-1.206-14.905-1.802-22.359c-0.014-0.195-0.246-0.182-0.246,0.014l0.569,23.954
		c0.039,1.567-1.451,2.384-2.371,1.295c-5.833-6.804-8.05-16.423-6.585-27.013l0.479,25.73c0.027,1.113-0.959,1.814-1.711,1.218
		c-4.964-3.94-6.584-12.599-7.142-20.091c-5.068-69.013,19.911-149.275,53.133-203.795c0.052-0.078,0.143-0.078,0.194,0"/>
	<path fill="#A5AD74" stroke="#3D3D3D" stroke-width="2" stroke-miterlimit="10" d="M486.654,451.513
		c20.701,24.938,46.872,44.604,71.37,65.823c24.499,21.218,48.052,44.926,61.015,74.638c2.281,5.236,3.953,12.04-0.091,16.072
		c-3.318,3.307-8.711,2.865-13.339,2.14c-50.54-8.013-99.927-23.255-146.176-45.162c-29.321-13.882-59.238-32.471-71.683-62.427
		c-2.062-4.952-3.604-10.317-2.941-15.646c0.466-3.759,1.996-7.283,3.537-10.745c7.973-17.875,16.593-35.451,25.835-52.705
		c6.053-11.289,18.121-44.332,29.645-50.111c13.416-6.729,12.509,22.657,15.698,31.705
		C465.512,422.087,475.183,437.707,486.654,451.513z"/>
	<path fill="#787C53" stroke="#3D3D3D" stroke-width="2" stroke-miterlimit="10" d="M283.831,572.477
		c3.928,11.305,9.126,24.423,2.566,34.416c-3.655-0.388-7.621-0.714-10.719,1.244c-3.099,1.97-4.2,7.221-1.089,9.164
		c1.179,0.738,2.644,0.829,4.031,0.907c4.044,0.208,8.088,0.403,12.132,0.609c4.744,0.233,9.618,0.455,14.103-1.115
		c4.486-1.568,8.517-5.378,8.867-10.108c0.221-2.957-0.984-5.822-2.035-8.597c-5.756-15.397-6.947-32.056-8.089-48.465
		c-1.606-23.28-3.008-47.767,7.039-68.831c-26.132-10.628-30.436,2.942-33.404,26.65
		C274.538,529.869,276.728,551.996,283.831,572.477z"/>
	<path fill="#A5AD74" stroke="#3D3D3D" stroke-width="2" stroke-miterlimit="10" d="M185.317,274.498
		c-15.827,51.9-5.107,111.153,27.908,154.227c33.015,43.074,87.444,68.818,141.679,67.015c-4.899,37.541-3.876,75.844,3.033,113.059
		c-9.425-1.387-19.444,3.94-23.565,12.535c6.767,15.438,32.574,6.844,38.252-9.022c5.677-15.866,0.439-33.441,1.932-50.229
		c2.645-29.735,25.419-52.979,41.362-78.217c24.46-38.718,33.703-85.059,38.382-130.62
		c11.989-116.896-10.616-249.526-104.27-320.483C317.313,7.979,274.576-7.667,234.938,3c-29.776,8.011-53.886,29.581-74.885,52.148
		c-18.848,20.26-37.034,43.956-38.537,71.579c-0.506,9.216,0.778,19.067-3.655,27.169c-3.422,6.235-9.657,10.305-14.817,15.192
		c-24.005,22.736-21.658,65.563,1.713,88.948c23.37,23.384,62.18,27.246,92.188,13.377c23.267-10.746,41.271-30.604,52.73-53.703
		c5.521-11.135,1.011-24.655-9.969-30.462c-1.191-0.635-2.385-1.257-3.564-1.893"/>
	<path fill="#A5AD74" stroke="#3D3D3D" stroke-width="2" stroke-miterlimit="10" d="M373.869,251.373"/>
	<path fill="#A5AD74" stroke="#3D3D3D" stroke-width="2" stroke-miterlimit="10" d="M373.869,251.373
		c0.933,18.29,4.057,35.75,3.266,54.493c-1.672,39.742-17.176,79.461-34.506,116.882c-1.724,3.734-3.216,8.674-2.501,12.029
		c0.453,2.178,3.085,2.204,4.237,0.053c3.5-6.598,7.014-13.209,10.513-19.807c0.091-0.169,0.299-0.064,0.221,0.104l-10.008,21.776
		c-0.661,1.426,0.391,2.761,1.673,2.138c8.05-3.941,13.896-11.885,16.748-22.191l-10.63,23.436
		c-0.453,1.011,0.155,2.049,1.089,1.803c6.119-1.659,11.045-8.957,14.518-15.62c31.992-61.363,40.858-144.945,31.939-208.176
		c-0.012-0.091-0.103-0.129-0.168-0.078"/>
	<path fill="none" stroke="#3D3D3D" stroke-width="2" stroke-miterlimit="10" d="M172.395,201.728
		c5.34-5.886,13.376-9.217,21.31-8.841c1.606,0.078,3.306,0.337,4.485,1.426c1.127,1.024,1.568,2.592,1.801,4.096
		c1.971,12.665-9.761,25.575-22.555,24.823"/>
	<path fill="#F2FF76" stroke="#3D3D3D" stroke-width="2" stroke-miterlimit="10" d="M181.609,18.893
		c-0.466-18.212,3.448-36.942,13.676-52.018c1.451-2.139,3.073-4.239,5.263-5.6c5.225-3.215,11.952-1.387,17.772,0.532
		c15.191,5.016,30.564,10.098,44.085,18.665c13.52,8.568,25.198,21.103,29.411,36.542c-6.65,10.11-17.357,16.708-27.701,22.995
		c-11.342,6.87-22.67,13.753-34.013,20.623c-9.501,5.769-29.205,18.42-38.654,8.892C182.88,60.877,181.908,30.442,181.609,18.893z"
		/>
	
		<ellipse transform="matrix(-0.9776 -0.2106 0.2106 -0.9776 301.0986 269.5563)" fill="#3D3D3D" cx="164.904" cy="118.743" rx="1.063" ry="3.798"/>
	
		<ellipse transform="matrix(-0.9776 -0.2106 0.2106 -0.9776 355.8842 287.6336)" fill="#3D3D3D" cx="193.26" cy="124.865" rx="1.063" ry="3.798"/>
	<circle fill="#FF78E6" cx="271.88" cy="147.907" r="6.365"/>
</g>
</svg>
