<?xml version="1.0" encoding="utf-8"?>
<!-- Generator: Adobe Illustrator 25.0.0, SVG Export Plug-In . SVG Version: 6.00 Build 0)  -->
<svg version="1.1" id="Calque_1" xmlns="http://www.w3.org/2000/svg" xmlns:xlink="http://www.w3.org/1999/xlink" x="0px" y="0px"
	 viewBox="0 0 204.8 564.8" style="enable-background:new 0 0 204.8 564.8;" xml:space="preserve">
<style type="text/css">
	.st0{fill:#6D533C;stroke:#3D3D3D;stroke-width:2;stroke-miterlimit:10;}
	.st1{fill:#896E52;stroke:#3D3D3D;stroke-width:2;stroke-miterlimit:10;}
	.st2{fill:#FF9750;stroke:#3D3D3D;stroke-width:2;stroke-miterlimit:10;}
	.st3{fill:#548E91;stroke:#3D3D3D;stroke-width:2;stroke-miterlimit:10;}
	.st4{fill:#FCD2B4;stroke:#3D3D3D;stroke-width:2;stroke-miterlimit:10;}
	.st5{fill:#53ADBC;stroke:#3D3D3D;stroke-width:2;stroke-miterlimit:10;}
	.st6{fill:#7BE6FF;stroke:#3D3D3D;stroke-width:2;stroke-miterlimit:10;}
	.st7{fill:#3D3D3D;}
	.st8{fill:none;stroke:#3D3D3D;stroke-width:2;stroke-miterlimit:10;}
	.st9{fill:#FF78E6;}
</style>
<g>
	<path class="st0" d="M137.69,192.62c13.91-0.34,27.97-6.23,36.61-17.14c-11.58,3.81-25.32-0.2-33.04-9.64
		c13.51,5.02,29.5,2.69,41.02-5.96c-7.26-0.08-14.13-3.91-19.1-9.22s-8.23-11.97-10.8-18.77c-1.18-3.13-2.3-6.42-4.67-8.78
		c-2.95-2.94-7.46-3.92-11.59-3.36s-7.95,2.48-11.5,4.67c-11.19,6.9-20.49,16.81-26.68,28.41c-2.93,5.49-5.19,11.67-5.28,17.95
		c-0.04,2.85,0.12,7.11,1.8,9.57c2.24,3.3,2.31,1.12,4.92,1.7c5.84,1.29,11.57,5.54,17.49,7.42
		C123.6,191.62,130.64,192.79,137.69,192.62z"/>
	<path class="st1" d="M85.02,6.89C77.99,5.6,70.77,5.07,63.69,6.06C46,8.53,30.34,20.86,22.39,36.85s-8.5,35.19-2.96,52.17
		c0.46,1.4,1.14,2.97,2.55,3.37c0.82,0.23,1.69,0,2.51-0.23c14.13-4,28.38-8.38,40.75-16.3c10.8-6.92,19.77-16.3,28.63-25.58
		c6.21-6.51,17.1-17.35,15.15-27.52C107.13,12.95,93.33,8.4,85.02,6.89z"/>
	<path class="st0" d="M52.12,28.52c-13.75,5.81-25.49,16.25-32.87,29.23s-10.34,28.41-8.29,43.2c0.65,4.71,1.8,9.35,3.11,13.92
		c3.74,12.98,8.93,25.76,9.73,39.24s-3.87,28.39-15.51,35.25c6.3,3.55,14.34,3.09,20.88,0s11.72-8.53,15.78-14.52
		c-1.24,4.87-2.5,9.8-4.86,14.23c-2.36,4.44-5.97,8.41-10.68,10.19c6.95,1.54,14.11,3.09,21.13,1.9
		c8.77-1.49,16.24-7.05,23.18-12.62c3.76-3.02,7.54-6.17,10.1-10.25c4.39-7.02,4.58-15.74,5.46-23.97
		c1.57-14.75,5.71-29.13,7.6-43.85c2.03-15.88,1.37-32.09-1.87-47.76c-2.58-12.49-5.56-33.68-19.88-37.07
		C67.52,23.85,59.21,25.53,52.12,28.52z"/>
	<path class="st0" d="M136.33,27.37c12.42,7.67,21.16,20.61,26.4,34.53c1.6,4.24,2.91,8.62,3.54,13.13
		c0.53,3.83,0.57,7.72,0.81,11.58c0.62,9.96,2.61,19.83,5.88,29.21c1.79,5.14,4.11,10.34,8.22,13.79
		c4.43,3.72,10.46,4.93,16.16,4.49c-3.36,0.27-6.39,2.11-9.36,3.75c-11.73,6.47-25.68,10.59-38.32,6.36
		c-11.11-3.72-19.54-13.41-24.85-24.14c-5.31-10.73-7.97-22.61-11.12-34.21c-4.4-16.24-9.82-32.17-16.22-47.68
		c-1.45-3.5-4.66-9.52-2.02-13.02c2.11-2.8,9.3-3.7,12.43-4.13C117.67,19.7,127.89,22.16,136.33,27.37z"/>
	<path class="st2" d="M123.83,533.92c-2.46,1.57-4.95,3.16-6.96,5.27c-2.02,2.11-3.55,4.82-3.69,7.73
		c-0.04,0.76,0.05,1.58,0.57,2.14c0.37,0.39,0.9,0.58,1.42,0.7c2.78,0.63,5.61-0.53,8.22-1.67c4.85-2.11,9.71-4.22,14.56-6.33
		c3.14-1.37,6.58-3.02,7.85-6.2c1.49-3.7-0.58-7.81-2.74-11.15c-0.44-0.69-1.04-1.45-1.86-1.41c-1.6,0.08-5.85,4.38-7.75,5.3
		C130.09,529.94,127.01,531.89,123.83,533.92z"/>
	<path class="st2" d="M77.78,537.58c-2.46,1.57-4.95,3.16-6.96,5.27c-2.02,2.11-3.55,4.82-3.69,7.73c-0.04,0.76,0.05,1.58,0.57,2.14
		c0.37,0.39,0.9,0.58,1.42,0.7c2.78,0.63,5.61-0.53,8.22-1.67c4.85-2.11,9.71-4.22,14.56-6.33c3.14-1.37,6.58-3.02,7.85-6.2
		c1.49-3.7-0.58-7.81-2.74-11.15c-0.44-0.69-1.04-1.45-1.86-1.41c-1.6,0.08-5.85,4.38-7.75,5.3
		C84.05,533.61,80.96,535.55,77.78,537.58z"/>
	<path class="st3" d="M65.06,399.23c0.84,20.04,1.8,40.14,5.25,59.88c1.67,9.52,3.91,18.93,6.15,28.33
		c3.71,15.56,7.42,31.12,11.13,46.68c2.26,2.25,6.39,0.59,7.81-2.31s0.97-6.35,0.49-9.56c-5.04-33.82-9.27-67.77-13.5-101.71
		c-0.66-5.32-1.33-10.64-1.48-16c-0.37-12.72,2.18-25.53,7.38-37.09c0.43-0.96,0.94-1.97,1.84-2.47c0.86-0.47,1.89-0.38,2.86-0.28
		c12,1.27,24,2.53,36.01,3.8c-5.23,9.34-8.86,19.62-10.68,30.23c-1.83,10.69-1.83,21.61-1.69,32.45
		c0.39,30.78,1.94,62.15,12.42,90.96c0.68,1.86,1.42,3.76,2.73,5.21c2.71,2.99,7.09,3.42,11.05,3.65c0.73,0.04,1.53,0.07,2.14-0.35
		c1.2-0.83,0.92-2.7,0.5-4.13c-8.54-29.57-12.29-60.62-11.04-91.47c0.38-9.29,1.21-18.6,3.44-27.62
		c2.79-11.24,7.71-21.86,10.18-33.18c3.15-14.45,2.13-29.83-2.91-43.69c-0.45-1.25-0.96-2.52-1.89-3.44
		c-1.75-1.73-4.45-1.77-6.88-1.77c-11.27-0.02-22.46-1.56-33.52-3.67c-9.3-1.78-20.71-6.48-30.24-4.63
		c-15.68,3.05-9.42,32.51-9.05,43.35C64.02,373.34,64.52,386.29,65.06,399.23z"/>
	<path class="st4" d="M45.6,269.09c-7.86,22.77-6.17,47.52-2.72,71.23c0.34,2.37,0.25,5.38-1,7.18c-0.81,1.17-2.63,0.81-2.93-0.59
		c-0.92-4.25-1.83-8.5-2.75-12.75c-0.02-0.11-0.19-0.08-0.17,0.03l1.96,13.79c0.13,0.9-0.89,1.51-1.63,0.97
		c-4.65-3.39-6.88-8.74-6.5-14.99l2.01,14.82c0.09,0.64-0.57,1.14-1.15,0.86c-3.84-1.82-5.58-6.67-6.46-10.95
		c-8.13-39.39,4.71-88.05,25.18-122.61c0.03-0.05,0.1-0.06,0.14-0.02c9.02,8.38,16.52,10.03,10.64,22.61
		C55.41,248.91,49.3,258.35,45.6,269.09z"/>
	<path class="st5" d="M60.56,194.53c-3.33,4.67-6.67,9.33-10,14c-2.42,3.39-4.97,7.36-4.1,11.46c0.45,2.11,1.76,3.9,3.11,5.55
		c2.88,3.52,6.1,6.75,9.6,9.62c2.76-12.85,9.63-24.33,14.01-36.7c1.55-4.37,2.78-8.85,3.7-13.4c1.56-7.8-2.37-6.37-6.76-2.24
		C66.46,186.27,63.49,190.42,60.56,194.53z"/>
	<path class="st4" d="M152.3,265.67c10.53,21.67,11.81,46.44,11.23,70.4c-0.06,2.39,0.4,5.37,1.85,7.01
		c0.94,1.07,2.71,0.49,2.84-0.93c0.4-4.33,0.8-8.66,1.21-12.98c0.01-0.11,0.18-0.1,0.18,0.01l-0.3,13.92
		c-0.02,0.91,1.07,1.39,1.74,0.77c4.21-3.92,5.78-9.5,4.66-15.66l-0.22,14.95c-0.01,0.65,0.7,1.06,1.25,0.72
		c3.6-2.27,4.74-7.29,5.1-11.64c3.36-40.08-15.21-86.86-39.67-118.72c-0.03-0.04-0.1-0.04-0.14,0c-7.96,9.4-15.2,11.94-7.86,23.72
		C140.15,246.81,147.34,255.46,152.3,265.67z"/>
	<path class="st4" d="M29.19,93.45c-2.23,23.03,9.54,46.85,29.18,59.07c9.58,5.96,22.23,11.27,23.53,22.48
		c0.82,7.09-2.64,16.53,3.62,19.96c5.6,3.07,11.97-3.68,12.79-10.02c0.83-6.34-1.01-13.06,1.31-19.02
		c3.32-8.51,13.34-11.74,21.16-16.46c18.53-11.19,27.04-35.45,22.27-56.57S121.8,54.4,102.03,45.59
		c-18.44-8.22-33.87-7.56-49.52,5.17C39.63,61.24,30.8,76.86,29.19,93.45z"/>
	<path class="st6" d="M150.12,222.25c-5.24,4.14-10.75,7.96-16.47,11.43c-0.89,0.54-1.87,0.91-2.9,1.01
		c-7.63,0.72-6.76-11.98-13.01-15.61c7.35,18.11,14.71,36.23,22.06,54.34c3.46,8.52,6.94,17.13,8.36,26.2
		c1.49,9.58,0.62,19.37-0.99,28.93c-0.25,1.5-0.56,3.07-1.57,4.21c-1.35,1.52-3.56,1.87-5.58,2.13c-23.62,3.02-49.2,5.69-69.88-6.03
		c-2.3-1.3-4.58-2.85-5.89-5.12c-1.85-3.2-1.43-7.15-1.13-10.83c2.38-29.4-6.9-58.73-5.45-88.19c0.81-16.49,5.92-34.05,18.31-44.64
		c1.5-1.29,5.47-0.5,5.9,1.42c1.05,4.7,2.73,8.92,7.44,9.78c5.13,0.94,8.07-4.53,9.21-8.97c0.59-2.29,3.72-2.02,6.05-1.61
		C124.94,184.31,143.52,204,150.12,222.25z"/>
	
		<ellipse transform="matrix(0.0336 -0.9994 0.9994 0.0336 -38.5104 153.8983)" class="st7" cx="60.33" cy="96.86" rx="2.77" ry="0.77"/>
	
		<ellipse transform="matrix(0.0336 -0.9994 0.9994 0.0336 -18.8189 175.6843)" class="st7" cx="81.44" cy="97.57" rx="2.77" ry="0.77"/>
	<path class="st8" d="M64.08,120.91c1.54,2.27,4.21,3.73,6.96,3.79c2.74,0.06,5.48-1.27,7.12-3.47"/>
	<circle class="st9" cx="101.33" cy="107.4" r="4.63"/>
	<circle class="st9" cx="42.96" cy="105.44" r="4.63"/>
	<path class="st1" d="M76.59,48c-0.4,9.82,4.13,19.18,9.56,27.38c13.04,19.68,31.55,35.1,50.81,48.75
		c10.29,7.3,21.4,14.37,33.94,15.81c-12.94-11.69-22.07-27.54-25.71-44.59c-3.21-15.07-2.48-31.62-10.82-44.57
		c-5.14-7.99-13.17-13.61-21.17-18.75c-7.69-4.95-16.49-8.03-25.15-3.55C81.06,32.09,76.9,40.35,76.59,48z"/>
</g>
</svg>
