<?xml version="1.0" encoding="utf-8"?>
<!-- Generator: Adobe Illustrator 16.0.0, SVG Export Plug-In . SVG Version: 6.00 Build 0)  -->
<!DOCTYPE svg PUBLIC "-//W3C//DTD SVG 1.1//EN" "http://www.w3.org/Graphics/SVG/1.1/DTD/svg11.dtd">
<svg version="1.1" id="Calque_1" xmlns="http://www.w3.org/2000/svg" xmlns:xlink="http://www.w3.org/1999/xlink" x="0px" y="0px"
	 width="195.02px" height="453.351px" viewBox="0 48.351 195.02 453.351" enable-background="new 0 48.351 195.02 453.351"
	 xml:space="preserve">
<g>
	<path fill="#6D533C" stroke="#3D3D3D" stroke-width="2" stroke-miterlimit="10" d="M129.19,203.721
		c10.902-0.265,21.924-4.883,28.695-13.434c-9.078,2.986-19.848-0.156-25.898-7.556c10.591,3.935,23.123,2.108,32.154-4.672
		c-5.691-0.063-11.076-3.064-14.972-7.227s-6.45-9.383-8.466-14.712c-0.923-2.454-1.803-5.032-3.66-6.881
		c-2.313-2.305-5.848-3.073-9.085-2.634c-3.237,0.438-6.231,1.944-9.013,3.66c-8.771,5.409-16.062,13.176-20.913,22.268
		c-2.296,4.304-4.068,9.147-4.138,14.069c-0.032,2.233,0.093,5.573,1.411,7.501c1.756,2.586,1.812,0.878,3.857,1.333
		c4.578,1.011,9.068,4.342,13.708,5.816C118.147,202.937,123.664,203.855,129.19,203.721z"/>
	<path fill="#896E52" stroke="#3D3D3D" stroke-width="2" stroke-miterlimit="10" d="M87.906,58.144
		c-5.51-1.011-11.169-1.427-16.719-0.65c-13.864,1.936-26.139,11.6-32.371,24.134c-6.232,12.533-6.662,27.582-2.32,40.891
		c0.361,1.098,0.894,2.328,1.998,2.642c0.644,0.181,1.326,0,1.968-0.181c11.076-3.135,22.245-6.568,31.941-12.776
		c8.465-5.424,15.497-12.776,22.441-20.05c4.867-5.103,13.402-13.6,11.875-21.57C105.237,62.894,94.42,59.328,87.906,58.144z"/>
	<path fill="#6D533C" stroke="#3D3D3D" stroke-width="2" stroke-miterlimit="10" d="M62.118,75.098
		c-10.777,4.554-19.979,12.737-25.764,22.911c-5.785,10.174-8.105,22.268-6.498,33.861c0.509,3.691,1.41,7.329,2.438,10.91
		c2.932,10.174,6.999,20.191,7.626,30.757s-3.033,22.253-12.157,27.63c4.938,2.782,11.24,2.421,16.366,0
		c5.126-2.423,9.187-6.686,12.369-11.38c-0.972,3.817-1.959,7.681-3.81,11.154c-1.849,3.48-4.68,6.591-8.372,7.986
		c5.448,1.208,11.06,2.422,16.561,1.49c6.875-1.167,12.73-5.525,18.169-9.891c2.948-2.368,5.91-4.836,7.917-8.035
		c3.441-5.502,3.59-12.337,4.28-18.788c1.23-11.562,4.474-22.833,5.957-34.37c1.591-12.447,1.074-25.153-1.466-37.435
		c-2.022-9.79-4.358-26.398-15.582-29.056C74.19,71.438,67.677,72.755,62.118,75.098z"/>
	<path fill="#6D533C" stroke="#3D3D3D" stroke-width="2" stroke-miterlimit="10" d="M128.123,74.197
		c9.734,6.012,16.586,16.154,20.693,27.064c1.254,3.324,2.279,6.757,2.773,10.291c0.416,3.002,0.447,6.051,0.635,9.077
		c0.486,7.807,2.047,15.543,4.61,22.895c1.403,4.029,3.22,8.105,6.442,10.808c3.472,2.916,8.199,3.865,12.666,3.52
		c-2.633,0.211-5.008,1.654-7.336,2.939c-9.195,5.071-20.129,8.3-30.036,4.985c-8.708-2.916-15.315-10.511-19.478-18.921
		c-4.162-8.411-6.246-17.722-8.715-26.814c-3.45-12.729-7.697-25.215-12.714-37.372c-1.137-2.743-3.652-7.462-1.583-10.206
		c1.654-2.195,7.29-2.9,9.743-3.237C113.497,68.185,121.508,70.113,128.123,74.197z"/>
	<path fill="#FF9750" stroke="#3D3D3D" stroke-width="2" stroke-miterlimit="10" d="M118.325,471.235
		c-1.928,1.231-3.88,2.478-5.456,4.132c-1.582,1.653-2.783,3.778-2.893,6.059c-0.03,0.596,0.039,1.238,0.447,1.677
		c0.291,0.306,0.706,0.455,1.114,0.548c2.179,0.494,4.396-0.415,6.442-1.308c3.801-1.654,7.609-3.308,11.411-4.962
		c2.462-1.074,5.159-2.367,6.153-4.86c1.168-2.9-0.455-6.121-2.148-8.739c-0.344-0.542-0.814-1.137-1.457-1.105
		c-1.254,0.062-4.586,3.433-6.074,4.154C123.234,468.116,120.819,469.645,118.325,471.235z"/>
	<path fill="#FF9750" stroke="#3D3D3D" stroke-width="2" stroke-miterlimit="10" d="M82.232,474.104
		c-1.928,1.23-3.88,2.477-5.456,4.131c-1.583,1.654-2.782,3.779-2.892,6.059c-0.032,0.596,0.039,1.238,0.447,1.678
		c0.291,0.305,0.706,0.455,1.114,0.548c2.178,0.494,4.396-0.416,6.442-1.309c3.802-1.653,7.611-3.308,11.413-4.962
		c2.461-1.073,5.156-2.366,6.152-4.858c1.168-2.9-0.454-6.122-2.147-8.741c-0.346-0.541-0.814-1.137-1.458-1.104
		c-1.255,0.063-4.585,3.433-6.076,4.153C87.147,470.993,84.724,472.514,82.232,474.104z"/>
	<path fill="#548E91" stroke="#3D3D3D" stroke-width="2" stroke-miterlimit="10" d="M72.262,365.664
		c0.658,15.709,1.411,31.462,4.114,46.936c1.31,7.462,3.065,14.838,4.82,22.205c2.909,12.196,5.816,24.393,8.724,36.589
		c1.772,1.764,5.009,0.464,6.122-1.811c1.114-2.273,0.76-4.978,0.385-7.493c-3.951-26.508-7.266-53.119-10.582-79.723
		c-0.518-4.169-1.042-8.338-1.16-12.54c-0.29-9.97,1.709-20.011,5.785-29.071c0.337-0.753,0.736-1.545,1.441-1.936
		c0.675-0.369,1.482-0.299,2.242-0.22c9.406,0.995,18.812,1.982,28.225,2.978c-4.101,7.32-6.944,15.379-8.372,23.695
		c-1.434,8.379-1.434,16.938-1.323,25.436c0.306,24.125,1.521,48.713,9.734,71.295c0.533,1.458,1.114,2.947,2.14,4.082
		c2.125,2.345,5.558,2.683,8.66,2.861c0.572,0.031,1.201,0.056,1.679-0.274c0.94-0.65,0.722-2.116,0.392-3.237
		c-6.694-23.177-9.633-47.515-8.653-71.694c0.298-7.281,0.948-14.579,2.696-21.649c2.188-8.81,6.042-17.135,7.979-26.007
		c2.469-11.327,1.67-23.382-2.28-34.245c-0.353-0.979-0.753-1.976-1.481-2.696c-1.373-1.356-3.489-1.387-5.395-1.387
		c-8.832-0.016-17.603-1.223-26.272-2.877c-7.29-1.396-16.232-5.079-23.703-3.63c-12.291,2.391-7.383,25.481-7.093,33.979
		C71.446,345.372,71.839,355.522,72.262,365.664z"/>
	<path fill="#FCD2B4" stroke="#3D3D3D" stroke-width="2" stroke-miterlimit="10" d="M57.01,263.659
		c-6.161,17.847-4.837,37.247-2.132,55.831c0.266,1.857,0.196,4.217-0.784,5.627c-0.635,0.917-2.062,0.635-2.296-0.463
		c-0.722-3.33-1.435-6.662-2.155-9.992c-0.017-0.087-0.149-0.063-0.133,0.021l1.536,10.811c0.103,0.704-0.696,1.184-1.278,0.76
		c-3.644-2.656-5.392-6.85-5.094-11.749l1.576,11.615c0.07,0.503-0.447,0.895-0.902,0.674c-3.009-1.426-4.374-5.228-5.063-8.583
		c-6.372-30.874,3.691-69.014,19.736-96.102c0.023-0.04,0.079-0.046,0.11-0.017c7.069,6.568,12.948,7.862,8.339,17.722
		C64.698,247.842,59.909,255.241,57.01,263.659z"/>
	<path fill="#53ADBC" stroke="#3D3D3D" stroke-width="2" stroke-miterlimit="10" d="M68.734,205.218
		c-2.61,3.66-5.228,7.313-7.837,10.973c-1.897,2.657-3.896,5.769-3.214,8.982c0.354,1.654,1.379,3.057,2.438,4.351
		c2.257,2.759,4.781,5.29,7.524,7.541c2.164-10.072,7.548-19.069,10.981-28.765c1.214-3.425,2.179-6.938,2.9-10.504
		c1.223-6.113-1.858-4.992-5.299-1.754C73.359,198.744,71.031,201.997,68.734,205.218z"/>
	<path fill="#FCD2B4" stroke="#3D3D3D" stroke-width="2" stroke-miterlimit="10" d="M140.641,260.979
		c8.254,16.985,9.256,36.4,8.802,55.179c-0.047,1.874,0.314,4.21,1.45,5.496c0.736,0.839,2.123,0.384,2.226-0.729
		c0.313-3.395,0.627-6.788,0.949-10.175c0.007-0.086,0.142-0.077,0.142,0.009l-0.235,10.911c-0.017,0.712,0.839,1.089,1.364,0.603
		c3.3-3.072,4.529-7.446,3.652-12.274l-0.171,11.719c-0.01,0.509,0.546,0.83,0.979,0.563c2.823-1.779,3.716-5.714,3.997-9.123
		c2.635-31.415-11.922-68.082-31.094-93.055c-0.021-0.032-0.078-0.032-0.109,0c-6.238,7.368-11.913,9.359-6.16,18.592
		C131.117,246.195,136.753,252.976,140.641,260.979z"/>
	<path fill="#FCD2B4" stroke="#3D3D3D" stroke-width="2" stroke-miterlimit="10" d="M44.147,125.991
		c-1.749,18.051,7.477,36.722,22.872,46.3c7.507,4.671,17.423,8.833,18.443,17.62c0.642,5.557-2.07,12.956,2.836,15.645
		c4.39,2.407,9.383-2.885,10.026-7.854c0.65-4.969-0.792-10.236,1.026-14.909c2.603-6.669,10.456-9.202,16.586-12.9
		c14.524-8.771,21.194-27.787,17.456-44.341c-3.738-16.554-16.656-30.168-32.152-37.074c-14.454-6.443-26.547-5.925-38.814,4.052
		C52.329,100.744,45.408,112.987,44.147,125.991z"/>
	<path fill="#7BE6FF" stroke="#3D3D3D" stroke-width="2" stroke-miterlimit="10" d="M138.932,226.946
		c-4.106,3.245-8.426,6.239-12.908,8.959c-0.697,0.424-1.466,0.713-2.272,0.791c-5.981,0.564-5.3-9.389-10.199-12.235
		c5.762,14.194,11.53,28.397,17.292,42.593c2.711,6.679,5.439,13.426,6.553,20.535c1.168,7.51,0.486,15.182-0.775,22.676
		c-0.197,1.176-0.44,2.406-1.231,3.3c-1.058,1.19-2.79,1.465-4.374,1.67c-18.514,2.367-38.563,4.458-54.772-4.727
		c-1.804-1.02-3.591-2.233-4.617-4.013c-1.451-2.508-1.121-5.604-0.885-8.488c1.865-23.044-5.409-46.033-4.272-69.125
		c0.635-12.926,4.64-26.689,14.351-34.99c1.176-1.01,4.288-0.391,4.624,1.113c0.824,3.685,2.14,6.992,5.832,7.667
		c4.021,0.737,6.325-3.552,7.219-7.031c0.463-1.795,2.916-1.583,4.742-1.261C119.196,197.208,133.76,212.641,138.932,226.946z"/>
	
		<ellipse transform="matrix(-0.0333 0.9994 -0.9994 -0.0333 199.4347 64.4173)" fill="#3D3D3D" cx="68.564" cy="128.66" rx="2.171" ry="0.604"/>
	
		<ellipse transform="matrix(-0.0339 0.9994 -0.9994 -0.0339 217.1264 48.5346)" fill="#3D3D3D" cx="85.104" cy="129.215" rx="2.171" ry="0.604"/>
	<path fill="none" stroke="#3D3D3D" stroke-width="2" stroke-miterlimit="10" d="M71.494,147.514
		c1.206,1.78,3.299,2.924,5.456,2.971c2.147,0.046,4.294-0.996,5.58-2.72"/>
	<circle fill="#FF78E6" cx="100.692" cy="136.925" r="3.629"/>
	<circle fill="#FF78E6" cx="54.94" cy="135.389" r="3.629"/>
	<path fill="#896E52" stroke="#3D3D3D" stroke-width="2" stroke-miterlimit="10" d="M81.299,90.366
		c-0.313,7.697,3.237,15.033,7.493,21.461c10.221,15.425,24.73,27.511,39.826,38.21c8.064,5.721,16.773,11.264,26.602,12.393
		c-10.143-9.163-17.299-21.586-20.152-34.95c-2.516-11.813-1.943-24.785-8.479-34.934c-4.029-6.263-10.323-10.667-16.594-14.696
		c-6.027-3.88-12.925-6.295-19.713-2.783C84.802,77.895,81.542,84.37,81.299,90.366z"/>
</g>
</svg>
