<?xml version="1.0" encoding="utf-8"?>
<!-- Generator: Adobe Illustrator 16.0.0, SVG Export Plug-In . SVG Version: 6.00 Build 0)  -->
<!DOCTYPE svg PUBLIC "-//W3C//DTD SVG 1.1//EN" "http://www.w3.org/Graphics/SVG/1.1/DTD/svg11.dtd">
<svg version="1.1" id="Calque_1" xmlns="http://www.w3.org/2000/svg" xmlns:xlink="http://www.w3.org/1999/xlink" x="0px" y="0px"
	 width="636.078px" height="621.646px" viewBox="0 113.854 636.078 621.646" enable-background="new 0 113.854 636.078 621.646"
	 xml:space="preserve">
<g>
	<path fill="#48007C" stroke="#3D3D3D" stroke-width="2" stroke-miterlimit="10" d="M240.986,351.834
		c-9.146-11.545-16.46-23.548-26.748-34.521c-21.946-23.205-52.353-39.665-82.529-53.838c-2.973-1.371-6.516-3.658-7.888-6.058
		c-0.915-1.486,0.687-2.857,2.516-2.058c5.6,2.287,11.202,4.572,16.803,6.858c0.114,0.115,0.228-0.114,0.114-0.229l-17.604-8.344
		c-1.143-0.571-1.258-1.829-0.114-2.058c6.973-1.601,14.631,0.457,21.832,5.258l-18.746-9.03c-0.801-0.343-1.03-1.257-0.343-1.6
		c4.572-1.943,11.431,0,17.032,2.4c51.78,21.489,101.275,67.783,129.166,110.306c0,0.114,0,0.114-0.115,0.114"/>
	<path fill="#043A00" stroke="#3D3D3D" stroke-width="2" stroke-miterlimit="10" d="M384.554,705.726
		c0.115,1.027,0.343,2.057,0,3.086c-0.687,1.943-2.856,2.744-4.801,3.314c-7.2,1.943-14.745,2.172-22.061,0.801
		c-3.773-0.686-8.116-2.516-8.916-6.287c-0.8-4,2.858-7.543,6.629-9.145c3.772-1.6,8.002-2.4,10.975-5.258
		c3.429-3.314,4.229-8.688,3.086-13.373c-1.143-4.688-3.543-8.803-5.829-13.145c-6.287-11.775-10.517-24.463-14.746-37.15
		c-0.457-1.373-0.915-2.857-0.457-4.344c1.601-5.258,17.146-9.26,21.032-5.145c3.2,3.43,2.4,17.146,3.314,21.719
		C377.238,662.29,381.238,683.894,384.554,705.726z"/>
	<path fill="#610099" stroke="#3D3D3D" stroke-width="2" stroke-miterlimit="10" d="M270.134,551.069
		c-11.888-14.631-19.89-32.121-25.949-49.951c-37.377-109.392-1.828-239.815,85.959-315.029
		c50.294-43.208,119.334-68.583,184.147-54.066c64.812,14.516,119.794,75.67,115.107,141.74c-1.03,14.86-4.916,29.377-9.488,43.55
		c-20.804,63.783-58.066,122.079-107.219,167.574c-11.546,10.629-23.891,21.031-31.092,34.977
		c-8.344,16.117-8.573,35.32-14.631,52.352C442.393,641.144,302.825,591.077,270.134,551.069z"/>
	<path fill="#055B00" stroke="#3D3D3D" stroke-width="2" stroke-miterlimit="10" d="M301.795,570.044
		c-5.944-4-15.088-5.029-19.546,0.57c-1.6,2.059-2.4,4.574-2.857,7.088c-4.001,23.09,16.688,44.236,39.207,51.096
		c22.404,6.857,46.524,3.771,69.955,4.686c4.802,0.229,9.603,0.57,14.061,2.287c16.803,6.514,20.575,28.348,21.604,46.293
		c0.228,3.771,0.457,7.889-1.372,11.316c-2.744,5.258-9.029,7.314-13.717,10.859s-7.315,11.889-2.059,14.746
		c12.003,5.143,26.177-3.773,31.778-15.547s5.144-25.375,5.029-38.406s0.687-26.977,8.231-37.492
		c6.857-9.602,18.06-14.861,27.775-21.604c22.634-15.889,37.949-48.123,22.976-71.328c-2.514-5.6-11.545-4.914-15.66-0.113
		c-4,4.688-4.685,11.316-5.6,17.488c-1.029,6.172-3.087,12.803-8.458,15.889c-7.546,4.115-17.719-2.287-19.89-10.629
		c-2.173-8.346,1.371-17.262,6.286-24.35c4.916-7.086,11.202-13.373,15.433-20.916c10.743-19.203,5.027-46.064-12.689-59.211
		c-4.459,27.205-15.089,53.381-30.978,75.9c-4.115,5.828-12.459,11.771-17.488,6.629c-2.286-2.4-2.286-6.172-2.173-9.602
		c0.801-18.633,1.602-37.38,2.287-56.01c-16.347,8.115-28.349,24.348-31.548,42.295c-3.201,17.943,2.629,37.262,15.088,50.521
		c-17.946,4.002-33.491-12.115-45.15-26.291c-5.487-6.629-13.489-13.83-21.375-10.516c-7.889,3.316-8.459,14.402-6.059,22.633
		c2.744,9.719,22.403,31.092,9.486,39.322C322.6,595.077,309.798,575.417,301.795,570.044z"/>
	<path opacity="0.15" fill="#FFFFFF" enable-background="new    " d="M552.013,202.893c-6.402,5.487-9.603,14.86-10.174,23.775
		c-0.57,8.916,1.259,17.49,3.087,25.948c1.144,5.601,2.399,11.202,3.543,16.802c0.687,2.972,1.258,6.058,2.629,8.688
		c1.715,3.2,4.458,5.601,7.545,7.087c8.803,4.115,20.004,0.571,27.434-7.545c7.431-8.115,11.203-20.003,11.317-31.205
		C597.507,226.211,573.045,184.604,552.013,202.893z"/>
	<path opacity="0.27" fill="#FFFFFF" enable-background="new    " d="M582.76,289.879c3.088-2.514,4.688-6.973,4.801-11.088
		c0.229-4.229-0.799-8.229-1.828-12.231c-0.686-2.628-1.258-5.258-1.943-7.887c-0.343-1.373-0.686-2.859-1.371-4.116
		c-0.915-1.486-2.286-2.63-3.886-3.314c-4.458-2.058-10.059-0.343-13.717,3.314c-3.657,3.772-5.372,9.374-5.372,14.631
		C559.785,278.563,572.473,298.338,582.76,289.879z"/>
	<path fill="#610099" stroke="#3D3D3D" stroke-width="2" stroke-miterlimit="10" d="M528.923,437.905"/>
	<path fill="#610099" stroke="#3D3D3D" stroke-width="2" stroke-miterlimit="10" d="M528.923,437.905
		c7.888,11.316,16.917,21.376,23.774,33.607c14.632,26.176,20.233,57.609,23.662,88.359c0.343,3.086,1.372,6.857,3.087,8.688
		c1.143,1.256,2.972,0.227,2.857-1.602c-0.343-5.602-0.572-11.203-0.915-16.803c0-0.115,0.115-0.115,0.229,0l2.059,17.832
		c0.113,1.143,1.37,1.6,1.942,0.686c3.771-5.715,4.458-13.031,2.172-20.805l2.286,19.205c0.115,0.799,0.915,1.258,1.486,0.684
		c3.429-3.428,3.771-10.057,3.315-15.658c-3.315-51.781-30.635-108.82-61.611-145.855h-0.115"/>
	
		<ellipse transform="matrix(-0.301 0.9536 -0.9536 -0.301 719.1342 134.782)" fill="#FFFFFF" cx="310.171" cy="330.948" rx="5.029" ry="1.372"/>
	
		<ellipse transform="matrix(-0.3012 0.9536 -0.9536 -0.3012 777.2861 115.32)" fill="#FFFFFF" cx="346.387" cy="342.473" rx="5.03" ry="1.372"/>
	<g>
		<path fill="#FDCFFF" stroke="#3D3D3D" stroke-width="2" stroke-miterlimit="10" d="M273.448,376.981
			c-2.972,7.201-3.886,15.088-4.343,22.859c-0.801,13.947,0.8,29.949,11.888,38.293c10.63,8.002,25.949,5.488,37.607-1.028
			c15.431-8.573,27.32-23.548,32.12-40.579c1.029-3.543,1.715-7.43,0.115-10.744c-2.744-5.943-10.745-6.63-17.259-7.201
			C311.855,376.638,284.994,349.205,273.448,376.981z"/>
		<path fill="#FFFFFF" d="M296.081,373.095c0.8,2.514-2.629,6.172-0.571,7.887c10.63,8.916,25.147,13.031,38.864,11.088
			c1.258-0.229,2.516-0.457,3.429-1.143c1.372-1.029,1.83-2.857,2.173-4.459c0.342-1.256-0.228-5.029-1.144-6.059
			c-0.686-0.799-8.572-1.371-9.601-1.6c-9.374-1.83-10.288-3.543-19.204-6.859C305.339,370.122,292.766,362.007,296.081,373.095z"/>
		<path fill="#E53C9D" d="M292.766,420.532c1.828,1.143,3.43,2.629,5.487,3.314c2.743,0.914,5.714,0.115,8.572-0.686
			c3.887-1.029,8.002-1.602,12.002-0.801c3.887,0.801,6.745,4.23,6.859,8.23c0.114,1.942-3.544,4.344-6.173,5.486
			c-3.771,1.715-6.63,2.973-10.401,4.573c-2.287,0.915-4.574,1.144-7.087,1.372c-3.43,0.342-9.259,0.686-12.574-0.229
			c-3.429-0.916-6.973-3.431-8.458-4.573c-4.458-3.315-8.801-9.601-4.458-14.401C280.307,418.589,287.737,417.56,292.766,420.532z"
			/>
	</g>
	<circle fill="#FF78E6" cx="386.497" cy="374.695" r="8.344"/>
	<circle fill="#FF78E6" cx="268.876" cy="331.601" r="8.344"/>
	<g>
		<path fill="#EAD963" stroke="#3D3D3D" stroke-width="2" stroke-miterlimit="10" d="M78.213,173.859
			c-4.114-1.829-8.229-3.658-12.573-5.03c-4.23-1.372-8.573-2.515-12.917-3.543l-36.121-8.688c-0.686-0.228-1.258,0.686-0.801,1.258
			c1.144,1.6,3.43,5.144,4.916,6.516c4.344,3.772,6.744,6.744,10.516,11.087c2.401,2.744,5.144,5.03,7.772,7.431
			c6.059,5.257,12.003,10.401,18.29,15.316c13.945,10.631,29.148,19.546,45.379,26.405c0.915,0.457,2.057,0.8,3.086,0.571
			c0.685-0.114,1.257-0.571,1.714-1.029c1.714-1.601,2.972-3.543,3.887-5.715c3.886-9.145,4.344-19.433,1.486-28.691
			c-1.829-5.715-9.83-6.058-14.746-7.887C91.359,179.345,84.729,176.717,78.213,173.859z"/>
		<path fill="#C8EA75" stroke="#3D3D3D" stroke-width="2" stroke-miterlimit="10" d="M105.19,178.774
			c-5.145,7.201-7.545,16.117-8.573,24.918c-0.343,3.2-0.571,6.515,0.114,9.716c1.829,8.345,9.03,14.289,16.575,18.518
			c9.374,5.258,20.003,8.688,30.749,8.001c10.744-0.687,21.489-5.715,27.433-14.631c4.001-5.944,5.601-13.145,7.087-20.232
			c0.801-3.887,1.715-7.887,1.029-11.774c-1.143-6.401-5.943-11.316-10.973-15.432C149.883,162.542,121.878,155.456,105.19,178.774z
			"/>
		<path fill="#67F9EA" stroke="#3D3D3D" stroke-width="2" stroke-miterlimit="10" d="M178.803,192.72
			c-7.545-2.973-16.803,2.857-18.289,10.859c-1.601,8.001,3.772,16.346,11.316,19.432c6.401,2.629,14.173,1.714,19.432-2.744
			c5.258-4.458,7.429-12.459,4.573-18.632c-2.857-6.287-10.631-10.059-17.146-7.772"/>
		<path fill="#67F9EA" stroke="#3D3D3D" stroke-width="2" stroke-miterlimit="10" d="M149.426,190.776
			c-7.545-2.972-16.802,2.857-18.288,10.859c-1.601,8.002,3.772,16.346,11.315,19.433c6.401,2.629,14.175,1.714,19.432-2.743
			c5.257-4.458,7.43-12.46,4.573-18.632c-2.857-6.286-10.631-10.059-17.146-7.772"/>
		<circle fill="#FFFFFF" cx="148.397" cy="210.894" r="7.545"/>
		<circle fill="#FFFFFF" cx="179.146" cy="203.007" r="7.544"/>
		<path fill="#B3FFF6" stroke="#3D3D3D" stroke-width="2" stroke-miterlimit="10" d="M110.219,140.252
			c-0.457-3.772-0.115-7.658,1.714-10.973s5.372-5.83,9.145-5.715c3.658,0.114,6.858,2.629,9.373,5.258
			c6.172,6.172,10.973,14.059,12.117,22.747c1.143,8.687-1.372,18.06-7.887,23.89c7.545-14.06,21.375-24.575,37.035-28.12
			c1.486-0.343,3.2-0.571,4.343,0.572c1.829,1.829-0.229,4.801-2.171,6.401c-8.23,6.858-27.777,22.976-38.979,20.003
			C123.822,171.573,111.59,150.655,110.219,140.252z"/>
		<path fill="none" stroke="#3D3D3D" stroke-width="2" stroke-miterlimit="10" d="M105.647,229.526
			c0.343-0.686,1.372-0.8,1.829-0.229c-0.687,6.515-5.373,12.459-11.659,14.402"/>
		<path fill="none" stroke="#3D3D3D" stroke-width="2" stroke-miterlimit="10" d="M117.42,232.155
			c1.029,5.029-3.086,10.402-8.23,10.744"/>
		<path fill="none" stroke="#3D3D3D" stroke-width="2" stroke-miterlimit="10" d="M135.367,240.385
			c-0.343,5.372,1.829,10.745,5.829,14.402"/>
		<path fill="none" stroke="#3D3D3D" stroke-width="2" stroke-miterlimit="10" d="M139.938,240.957
			c1.144,3.315,3.544,6.172,6.63,7.887"/>
	</g>
</g>
</svg>
