<?xml version="1.0" encoding="utf-8"?>
<!-- Generator: Adobe Illustrator 25.0.0, SVG Export Plug-In . SVG Version: 6.00 Build 0)  -->
<svg version="1.1" id="Calque_1" xmlns="http://www.w3.org/2000/svg" xmlns:xlink="http://www.w3.org/1999/xlink" x="0px" y="0px"
	 viewBox="0 0 412.8 610.8" style="enable-background:new 0 0 412.8 610.8;" xml:space="preserve">
<style type="text/css">
	.st0{fill:#6D533C;stroke:#3D3D3D;stroke-width:2;stroke-miterlimit:10;}
	.st1{fill:#896E52;stroke:#3D3D3D;stroke-width:2;stroke-miterlimit:10;}
	.st2{fill:#FF9750;stroke:#3D3D3D;stroke-width:2;stroke-miterlimit:10;}
	.st3{fill:#548E91;stroke:#3D3D3D;stroke-width:2;stroke-miterlimit:10;}
	.st4{fill:#FCD2B4;stroke:#3D3D3D;stroke-width:2;stroke-miterlimit:10;}
	.st5{fill:#53ADBC;stroke:#3D3D3D;stroke-width:2;stroke-miterlimit:10;}
	.st6{fill:#7BE6FF;stroke:#3D3D3D;stroke-width:2;stroke-miterlimit:10;}
	.st7{fill:#3D3D3D;}
	.st8{fill:none;stroke:#3D3D3D;stroke-width:2;stroke-miterlimit:10;}
	.st9{fill:#FF78E6;}
	.st10{opacity:0.78;fill:#D7FFFB;}
	.st11{opacity:0.49;fill:none;stroke:#75BBEA;stroke-width:8;stroke-miterlimit:10;}
</style>
<g>
	<path class="st0" d="M338.2,212.4c15.1-0.4,30.4-6.8,39.8-18.6c-12.6,4.1-27.5-0.2-35.9-10.5c14.7,5.4,32,2.9,44.5-6.5
		c-7.9-0.1-15.3-4.2-20.7-10s-8.9-13-11.7-20.4c-1.3-3.4-2.5-7-5.1-9.5c-3.2-3.2-8.1-4.3-12.6-3.6s-8.6,2.7-12.5,5.1
		c-12.1,7.5-22.3,18.3-29,30.9c-3.2,6-5.6,12.7-5.7,19.5c0,3.1,0.1,7.7,2,10.4c2.4,3.6,2.5,1.2,5.3,1.8c6.3,1.4,12.6,6,19,8.1
		C322.9,211.3,330.5,212.6,338.2,212.4z"/>
	<path class="st1" d="M281,10.7c-7.6-1.4-15.5-2-23.2-0.9c-19.2,2.7-36.2,16.1-44.8,33.4s-9.2,38.2-3.2,56.7
		c0.5,1.5,1.2,3.2,2.8,3.7c0.9,0.3,1.8,0,2.7-0.3c15.3-4.3,30.8-9.1,44.2-17.7c11.7-7.5,21.5-17.7,31.1-27.8
		c6.7-7.1,18.6-18.8,16.4-29.9C305,17.3,290,12.4,281,10.7z"/>
	<path class="st0" d="M245.3,34.2c-14.9,6.3-27.7,17.6-35.7,31.7s-11.2,30.9-9,46.9c0.7,5.1,2,10.2,3.4,15.1
		c4.1,14.1,9.7,28,10.6,42.6c0.9,14.6-4.2,30.8-16.8,38.3c6.8,3.9,15.6,3.4,22.7,0s12.7-9.3,17.1-15.8c-1.3,5.3-2.7,10.6-5.3,15.5
		c-2.6,4.8-6.5,9.1-11.6,11.1c7.5,1.7,15.3,3.3,22.9,2.1c9.5-1.6,17.6-7.7,25.2-13.7c4.1-3.3,8.2-6.7,11-11.1c4.8-7.6,5-17.1,5.9-26
		c1.7-16,6.2-31.6,8.2-47.6c2.2-17.2,1.5-34.8-2-51.9c-2.8-13.6-6-36.6-21.6-40.3C262,29.1,253,30.9,245.3,34.2z"/>
	<path class="st0" d="M336.7,32.9c13.5,8.3,23,22.4,28.7,37.5c1.7,4.6,3.2,9.4,3.8,14.3c0.6,4.2,0.6,8.4,0.9,12.6
		c0.7,10.8,2.8,21.5,6.4,31.7c1.9,5.6,4.5,11.2,8.9,15c4.8,4,11.4,5.3,17.5,4.9c-3.7,0.3-6.9,2.3-10.2,4.1
		c-12.7,7-27.9,11.5-41.6,6.9c-12.1-4-21.2-14.6-27-26.2c-5.8-11.7-8.7-24.5-12.1-37.1c-4.8-17.6-10.7-34.9-17.6-51.8
		c-1.6-3.8-5.1-10.3-2.2-14.1c2.3-3,10.1-4,13.5-4.5C316.4,24.6,327.5,27.3,336.7,32.9z"/>
	<path class="st2" d="M323.1,583c-2.7,1.7-5.4,3.4-7.6,5.7c-2.2,2.3-3.9,5.2-4,8.4c0,0.8,0.1,1.7,0.6,2.3c0.4,0.4,1,0.6,1.5,0.8
		c3,0.7,6.1-0.6,8.9-1.8c5.3-2.3,10.5-4.6,15.8-6.9c3.4-1.5,7.1-3.3,8.5-6.7c1.6-4-0.6-8.5-3-12.1c-0.5-0.7-1.1-1.6-2-1.5
		c-1.7,0.1-6.4,4.8-8.4,5.8C329.9,578.7,326.6,580.8,323.1,583z"/>
	<path class="st2" d="M273.1,587c-2.7,1.7-5.4,3.4-7.6,5.7c-2.2,2.3-3.9,5.2-4,8.4c0,0.8,0.1,1.7,0.6,2.3c0.4,0.4,1,0.6,1.5,0.8
		c3,0.7,6.1-0.6,8.9-1.8c5.3-2.3,10.5-4.6,15.8-6.9c3.4-1.5,7.1-3.3,8.5-6.7c1.6-4-0.6-8.5-3-12.1c-0.5-0.7-1.1-1.6-2-1.5
		c-1.7,0.1-6.4,4.8-8.4,5.8C279.9,582.7,276.6,584.8,273.1,587z"/>
	<path class="st3" d="M259.3,436.7c0.9,21.8,2,43.6,5.7,65c1.8,10.3,4.2,20.6,6.7,30.8c4,16.9,8.1,33.8,12.1,50.7
		c2.5,2.4,6.9,0.6,8.5-2.5s1.1-6.9,0.5-10.4c-5.5-36.7-10.1-73.6-14.7-110.4c-0.7-5.8-1.4-11.6-1.6-17.4c-0.4-13.8,2.4-27.7,8-40.3
		c0.5-1,1-2.1,2-2.7c0.9-0.5,2.1-0.4,3.1-0.3c13,1.4,26.1,2.7,39.1,4.1c-5.7,10.1-9.6,21.3-11.6,32.8c-2,11.6-2,23.5-1.8,35.2
		c0.4,33.4,2.1,67.5,13.5,98.8c0.7,2,1.5,4.1,3,5.7c2.9,3.2,7.7,3.7,12,4c0.8,0,1.7,0.1,2.3-0.4c1.3-0.9,1-2.9,0.5-4.5
		c-9.3-32.1-13.3-65.8-12-99.3c0.4-10.1,1.3-20.2,3.7-30c3-12.2,8.4-23.7,11.1-36c3.4-15.7,2.3-32.4-3.2-47.4
		c-0.5-1.4-1-2.7-2.1-3.7c-1.9-1.9-4.8-1.9-7.5-1.9c-12.2,0-24.4-1.7-36.4-4c-10.1-1.9-22.5-7-32.8-5c-17,3.3-10.2,35.3-9.8,47.1
		C258.2,408.6,258.7,422.7,259.3,436.7z"/>
	<path class="st4" d="M238.2,295.4c-8.5,24.7-6.7,51.6-3,77.3c0.4,2.6,0.3,5.8-1.1,7.8c-0.9,1.3-2.9,0.9-3.2-0.6
		c-1-4.6-2-9.2-3-13.8c0-0.1-0.2-0.1-0.2,0l2.1,15c0.1,1-1,1.6-1.8,1.1c-5-3.7-7.5-9.5-7.1-16.3l2.2,16.1c0.1,0.7-0.6,1.2-1.3,0.9
		c-4.2-2-6.1-7.2-7-11.9c-8.8-42.8,5.1-95.6,27.3-133.1c0-0.1,0.1-0.1,0.1,0c9.8,9.1,17.9,10.9,11.6,24.5
		C248.8,273.5,242.2,283.8,238.2,295.4z"/>
	<path class="st5" d="M254.4,214.5c-3.6,5.1-7.2,10.1-10.9,15.2c-2.6,3.7-5.4,8-4.4,12.4c0.5,2.3,1.9,4.2,3.4,6
		c3.1,3.8,6.6,7.3,10.4,10.5c3-14,10.5-26.4,15.2-39.8c1.7-4.7,3-9.6,4-14.6c1.7-8.5-2.6-6.9-7.3-2.4
		C260.8,205.5,257.6,210,254.4,214.5z"/>
	<path class="st4" d="M354,291.7c11.4,23.5,12.8,50.4,12.2,76.4c-0.1,2.6,0.4,5.8,2,7.6c1,1.2,2.9,0.5,3.1-1
		c0.4-4.7,0.9-9.4,1.3-14.1c0-0.1,0.2-0.1,0.2,0l-0.3,15.1c0,1,1.2,1.5,1.9,0.8c4.6-4.3,6.3-10.3,5.1-17l-0.2,16.2
		c0,0.7,0.8,1.2,1.4,0.8c3.9-2.5,5.1-7.9,5.5-12.6c3.6-43.5-16.5-94.3-43.1-128.9c0,0-0.1,0-0.1,0c-8.6,10.2-16.5,13-8.5,25.8
		C340.8,271.2,348.6,280.6,354,291.7z"/>
	<path class="st4" d="M220.4,104.7c-2.4,25,10.4,50.9,31.7,64.1c10.4,6.5,24.1,12.2,25.5,24.4c0.9,7.7-2.9,18,3.9,21.7
		c6.1,3.3,13-4,13.9-10.9s-1.1-14.2,1.4-20.6c3.6-9.2,14.5-12.7,23-17.9c20.1-12.2,29.4-38.5,24.2-61.4s-23.1-41.8-44.5-51.4
		c-20-8.9-36.8-8.2-53.8,5.6C231.7,69.7,222.1,86.7,220.4,104.7z"/>
	<path class="st6" d="M351.7,244.6c-5.7,4.5-11.7,8.6-17.9,12.4c-1,0.6-2,1-3.2,1.1c-8.3,0.8-7.3-13-14.1-16.9c8,19.7,16,39.3,24,59
		c3.8,9.2,7.5,18.6,9.1,28.4c1.6,10.4,0.7,21-1.1,31.4c-0.3,1.6-0.6,3.3-1.7,4.6c-1.5,1.7-3.9,2-6.1,2.3
		c-25.7,3.3-53.4,6.2-75.9-6.5c-2.5-1.4-5-3.1-6.4-5.6c-2-3.5-1.5-7.8-1.2-11.8c2.6-31.9-7.5-63.8-5.9-95.8
		c0.9-17.9,6.4-37,19.9-48.5c1.6-1.4,5.9-0.5,6.4,1.5c1.1,5.1,3,9.7,8.1,10.6c5.6,1,8.8-4.9,10-9.7c0.6-2.5,4-2.2,6.6-1.7
		C324.3,203.4,344.5,224.7,351.7,244.6z"/>
	
		<ellipse transform="matrix(3.362863e-02 -0.9994 0.9994 3.362863e-02 137.2718 358.786)" class="st7" cx="254.2" cy="108.4" rx="3" ry="0.8"/>
	
		<ellipse transform="matrix(3.362863e-02 -0.9994 0.9994 3.362863e-02 158.6541 382.4426)" class="st7" cx="277.1" cy="109.2" rx="3" ry="0.8"/>
	<path class="st8" d="M258.2,134.5c1.7,2.5,4.6,4,7.6,4.1c3,0.1,6-1.4,7.7-3.8"/>
	<circle class="st9" cx="298.7" cy="119.9" r="5"/>
	<circle class="st9" cx="235.3" cy="117.7" r="5"/>
	<path class="st1" d="M271.8,55.3c-0.4,10.7,4.5,20.8,10.4,29.7c14.2,21.4,34.3,38.1,55.2,52.9c11.2,7.9,23.2,15.6,36.9,17.2
		c-14.1-12.7-24-29.9-27.9-48.4c-3.5-16.4-2.7-34.3-11.7-48.4c-5.6-8.7-14.3-14.8-23-20.4c-8.4-5.4-17.9-8.7-27.3-3.9
		C276.7,38.1,272.2,47,271.8,55.3z"/>
	<polygon class="st10" points="94.3,241 13,201.7 12.1,36.3 98.8,66.9 	"/>
	<line class="st11" x1="55.5" y1="199.9" x2="254.1" y2="110.5"/>
</g>
</svg>
