<?xml version="1.0" encoding="utf-8"?>
<!-- Generator: Adobe Illustrator 25.0.0, SVG Export Plug-In . SVG Version: 6.00 Build 0)  -->
<svg version="1.1" id="Calque_1" xmlns="http://www.w3.org/2000/svg" xmlns:xlink="http://www.w3.org/1999/xlink" x="0px" y="0px"
	 viewBox="0 0 412.8 610.8" style="enable-background:new 0 0 412.8 610.8;" xml:space="preserve">
<style type="text/css">
	.st0{fill:#232323;stroke:#3D3D3D;stroke-width:2;stroke-miterlimit:10;}
	.st1{fill:#548E91;stroke:#3D3D3D;stroke-width:2;stroke-miterlimit:10;}
	.st2{fill:#FCD2B4;stroke:#3D3D3D;stroke-width:2;stroke-miterlimit:10;}
	.st3{fill:#7BE6FF;stroke:#3D3D3D;stroke-width:2;stroke-miterlimit:10;}
	.st4{fill:#3D3D3D;}
	.st5{fill:#FF78E6;}
	.st6{fill:none;stroke:#B27F4D;stroke-width:6;stroke-miterlimit:10;}
	.st7{fill:#896E52;stroke:#3D3D3D;stroke-width:2;stroke-miterlimit:10;}
	.st8{fill:#181B1C;stroke:#3D3D3D;stroke-width:2;stroke-miterlimit:10;}
	.st9{fill:#333333;stroke:#3D3D3D;stroke-width:2;stroke-miterlimit:10;}
	.st10{fill:#F2CF3D;stroke:#3D3D3D;stroke-width:2;stroke-miterlimit:10;}
	.st11{fill:#990028;}
	.st12{fill:none;stroke:#3D3D3D;stroke-width:2;stroke-miterlimit:10;}
	.st13{fill:#A5AD74;stroke:#3D3D3D;stroke-width:2;stroke-miterlimit:10;}
	.st14{fill:none;stroke:#F9AEFF;stroke-width:5;stroke-miterlimit:10;}
</style>
<g>
	<path class="st0" d="M294.6,586.5c-2.7,1.7-5.4,3.4-7.5,5.7c-2.2,2.3-3.8,5.2-4,8.4c0,0.8,0.1,1.7,0.6,2.3c0.4,0.4,1,0.6,1.5,0.8
		c3,0.7,6.1-0.6,8.9-1.8c5.3-2.3,10.5-4.6,15.8-6.9c3.4-1.5,7.1-3.3,8.5-6.7c1.6-4-0.6-8.5-3-12.1c-0.5-0.7-1.1-1.6-2-1.5
		c-1.7,0.1-6.3,4.7-8.4,5.7C301.4,582.2,298.1,584.3,294.6,586.5z"/>
	<path class="st0" d="M244.7,590.5c-2.7,1.7-5.4,3.4-7.5,5.7s-3.8,5.2-4,8.4c0,0.8,0.1,1.7,0.6,2.3c0.4,0.4,1,0.6,1.5,0.8
		c3,0.7,6.1-0.6,8.9-1.8c5.3-2.3,10.5-4.6,15.8-6.9c3.4-1.5,7.1-3.3,8.5-6.7c1.6-4-0.6-8.5-3-12.1c-0.5-0.7-1.1-1.6-2-1.5
		c-1.7,0.1-6.3,4.7-8.4,5.7C251.5,586.2,248.2,588.3,244.7,590.5z"/>
	<path class="st1" d="M231,440.7c0.9,21.7,1.9,43.5,5.7,64.9c1.8,10.3,4.2,20.5,6.7,30.7c4,16.9,8,33.7,12.1,50.6
		c2.5,2.4,6.9,0.6,8.5-2.5c1.5-3.1,1.1-6.9,0.5-10.4c-5.5-36.6-10-73.4-14.6-110.2c-0.7-5.8-1.4-11.5-1.6-17.3
		c-0.4-13.8,2.4-27.7,8-40.2c0.5-1,1-2.1,2-2.7c0.9-0.5,2-0.4,3.1-0.3c13,1.4,26,2.7,39,4.1c-5.7,10.1-9.6,21.3-11.6,32.7
		c-2,11.6-2,23.4-1.8,35.2c0.4,33.3,2.1,67.3,13.5,98.5c0.7,2,1.5,4.1,3,5.6c2.9,3.2,7.7,3.7,12,4c0.8,0,1.7,0.1,2.3-0.4
		c1.3-0.9,1-2.9,0.5-4.5c-9.3-32-13.3-65.7-12-99.1c0.4-10.1,1.3-20.2,3.7-29.9c3-12.2,8.4-23.7,11-35.9c3.4-15.7,2.3-32.3-3.2-47.3
		c-0.5-1.3-1-2.7-2.1-3.7c-1.9-1.9-4.8-1.9-7.5-1.9c-12.2,0-24.3-1.7-36.3-4c-10.1-1.9-22.4-7-32.8-5c-17,3.3-10.2,35.2-9.8,46.9
		C229.8,412.6,230.4,426.6,231,440.7z"/>
	<path class="st2" d="M167.5,221.8c-25.9,3.1-49.2,16.4-70.7,31c-2.1,1.5-5.1,2.8-7.5,2.4c-1.5-0.2-2-2.2-0.8-3.1
		c3.7-2.9,7.4-5.8,11.1-8.7c0.1-0.1,0-0.2-0.1-0.2L87,251.7c-0.8,0.6-1.9-0.2-1.7-1.1c1.1-6.1,5.3-10.8,11.5-13.4l-13.5,9
		c-0.6,0.4-1.4,0-1.4-0.7c0-4.6,3.9-8.6,7.6-11.5c34.5-26.5,88-37,131.4-33.4c0.1,0,0.1,0.1,0.1,0.1c-3.9,12.8-2,20.8-17,21.1
		C191.8,221.9,179.7,220.4,167.5,221.8z"/>
	<path class="st2" d="M325.5,296c11.4,23.5,12.8,50.3,12.2,76.2c-0.1,2.6,0.4,5.8,2,7.6c1,1.2,2.9,0.5,3.1-1
		c0.4-4.7,0.9-9.4,1.3-14.1c0-0.1,0.2-0.1,0.2,0l-0.3,15.1c0,1,1.2,1.5,1.9,0.8c4.6-4.2,6.3-10.3,5.1-17l-0.2,16.2
		c0,0.7,0.8,1.2,1.4,0.8c3.9-2.5,5.1-7.9,5.5-12.6c3.6-43.4-16.5-94.1-43-128.6c0,0-0.1,0-0.1,0c-8.6,10.2-16.5,12.9-8.5,25.7
		C312.3,275.6,320.1,284.9,325.5,296z"/>
	<path class="st2" d="M192.1,109.5c-2.4,24.9,10.3,50.7,31.6,64c10.4,6.5,24.1,12.2,25.5,24.3c0.9,7.7-2.9,17.9,3.9,21.6
		c6.1,3.3,13-4,13.9-10.9c0.9-6.9-1.1-14.1,1.4-20.6c3.6-9.2,14.4-12.7,22.9-17.8c20.1-12.1,29.3-38.4,24.1-61.3s-23-41.7-44.4-51.3
		c-20-8.9-36.7-8.2-53.6,5.6C203.4,74.6,193.9,91.5,192.1,109.5z"/>
	<path class="st3" d="M323.1,249c-5.7,4.5-11.6,8.6-17.8,12.4c-1,0.6-2,1-3.1,1.1c-8.3,0.8-7.3-13-14.1-16.9
		c8,19.6,15.9,39.2,23.9,58.9c3.7,9.2,7.5,18.6,9.1,28.4c1.6,10.4,0.7,21-1.1,31.3c-0.3,1.6-0.6,3.3-1.7,4.6c-1.5,1.6-3.9,2-6,2.3
		c-25.6,3.3-53.3,6.2-75.7-6.5c-2.5-1.4-5-3.1-6.4-5.5c-2-3.5-1.5-7.7-1.2-11.7c2.6-31.8-7.5-63.6-5.9-95.5
		c0.9-17.9,6.4-36.9,19.8-48.4c1.6-1.4,5.9-0.5,6.4,1.5c1.1,5.1,3,9.7,8.1,10.6c5.6,1,8.7-4.9,10-9.7c0.6-2.5,4-2.2,6.5-1.7
		C295.8,207.9,316,229.2,323.1,249z"/>
	
		<ellipse transform="matrix(3.362863e-02 -0.9994 0.9994 3.362863e-02 105.1562 335.0599)" class="st4" cx="225.8" cy="113.2" rx="3" ry="0.8"/>
	
		<ellipse transform="matrix(3.362863e-02 -0.9994 0.9994 3.362863e-02 126.4841 358.6563)" class="st4" cx="248.7" cy="113.9" rx="3" ry="0.8"/>
	<circle class="st5" cx="270.3" cy="124.6" r="5"/>
	<circle class="st5" cx="207" cy="122.4" r="5"/>
	<path class="st6" d="M228.3,104.9c-2.7-5.6-5-11.3-7-17.1c4.7,2.2,9.1,4.8,13.3,7.6c-4-6.2-8-12.4-12-18.6"/>
	<path class="st7" d="M249.6,94.6c-2.6-4.7-1.8-11,1.9-14.9c0.8,11,9.4,21.1,20.6,23.9c-3.3-8.5-5.2-17.4-5.6-26.5
		c2.6,9.2,9,17.3,17.6,22.2c-0.1-7-1.6-14-4.5-20.5c12.6,12.3,20.1,29.3,20.3,46.5c6.1-5.1,8.7-13.9,6.2-21.3
		c5.3,14.7,9.1,29.9,11.4,45.3c16.4-23.3,20-54.4,9.3-80.6c3.5,3,7,6,10.5,8.9c-2.4-8-5-16.1-10.1-22.8
		c-5.1-6.7-13.3-11.8-21.9-11.3c4.9-4.1,13.4-3.4,17.5,1.4c-2.7-10.2-13.4-16.6-23.9-19.8c-17.4-5.4-36.8-5.1-54,1
		c1.7-4.3,4.9-8.1,9-10.6c-11.7,0.3-20.3,10-27.7,18.7c-1.7,2-3.5,4.1-5.9,5.5c-2.3,1.4-5.1,2-7.7,2.8
		c-20.6,6.2-36.9,23.7-41.1,43.9c4.6-6.2,11.6-10.7,19.3-12.5c-15.9,15.7-17.4,42.8-3.3,60.1c-0.7-11.7,0.2-23.5,2.7-35
		c0,7.7,0,15.5,0,23.2c0.8-18.5,11.5-36.3,27.8-46.3c-5.3,5.6-5.8,14.7-1.2,20.8c-4.3-5.6,11.5-23.7,16.4-24.7
		C231.6,82.1,237.8,94.3,249.6,94.6z"/>
	<path class="st8" d="M251,199.1c-50.3-16.4-105.6-5.6-155.1,12.9c5.6,11.2,11.6,22.3,17.8,33.1c1.5,2.7,3.9,5.8,7,5.2
		c1.6-0.3,2.8-1.5,4-2.7c17.6-17.2,45-18.9,69.5-17.3s50.3,5.3,73-4.4C286.7,217.7,260.2,202.1,251,199.1z"/>
	<path class="st9" d="M243.3,202.5c-11.9,11.9-17.4,28.9-19.2,45.7s-0.3,33.6-0.4,50.5c-0.1,29.2-4.9,58.2-4.9,87.4
		c0,17.9,1.7,35.7,3.4,53.5c3.4,34.9,6.7,69.8,10.1,104.6c1.3,13.5,3.3,28.4,13.5,37.5c8.6,7.6,20.9,9.1,32.4,9.3
		c29.4,0.6,58.9-4.6,86.3-15.2c2.1-0.8,4.4-1.9,5.4-4c1.3-3-1-6.3-3-8.8c-21-26.3-32.5-59.9-32.1-93.6c0.2-18.2,3.8-36.5,1.5-54.6
		c-1-8.1-3.3-16.1-4.8-24.1c-3.8-20.3-3.1-41.1-5.1-61.6c-2-20.5-7.4-41.7-21.2-57c18.4,16.3,25,41.8,30.6,65.7
		c2,8.4-5.6,16.8-1,25.1c18.5-0.7,38.8-2.2,51.8-15.3c2.1-2.1,4.1-4.7,4.4-7.6c0.3-2.4-0.6-4.8-1.5-7.1
		c-13.4-33.9-42-59.4-59.2-91.6c-3.5-6.6-6.6-13.4-10.9-19.4c-8.8-12-24.5-21.3-39.7-21.2c-6.4,0-10.2,3.4-16.1,4.4
		C257.4,206,247.6,198.3,243.3,202.5z"/>
	<g>
		<path class="st10" d="M295.3,189.2c9.1,0.4,12.9,6.9,12.2,14.2c-0.7,7.3-5,15.3-8.7,23c-22.4,48.1-18.1,93.9,11.5,122.9
			c-10.5,8-25.3,9-32.8,4.6c-7.5-4.4-9.6-12.6-11.4-20.4c-1.5-6.4-3-12.8-4-19.5c-3.7-25,0.3-52.9,11.6-81.7
			c-10.9,3.5-22.4,5.5-29.9,2.5s-8.9-12.2-0.8-19.8c1-1,2.2-1.9,3.6-2.4c4.8-1.8,7.6-0.7,12.8-3.8c4.2-2.5,5.1-5.4,8.3-8.2
			C275.3,193.9,286,188.8,295.3,189.2z"/>
		<path class="st11" d="M294.2,212.2c3.3-4.2,6.7-8.6,8.5-12.8s2.1-8.4-0.7-10.7c-3.7-3.1-13-1.8-20,2.7c-6.7,4.3-10.3,10.2-14,15.6
			c-5.9,8.8-13.8,18.2-25.1,24.4c0.5,2.8,3.8,4.3,7.8,4.5c4,0.2,8.6-0.6,13.1-1.4C282.3,231.2,284.2,225.4,294.2,212.2z"/>
		<path class="st11" d="M271,242c8.7-3.2,17.2-7.9,24.5-13.5c-1.8,5.7-3.8,11.4-6.1,17.1c-1,2.4-2.3,5.1-5.2,6.9
			c-1.8,1.1-3.8,1.6-5.8,2c-4.8,1.1-10.6,2-11.7-0.9c-0.4-1.1,0-2.4,0.3-3.7c0.8-2.8,1.8-5.9,4.8-8.5"/>
		<path class="st11" d="M283.9,273c0,6.3-0.5,12.8-1.5,19.4c-5.4,0.1-10.7,0.3-16.1,0.4c-1,0-2.1,0.1-2.9-0.2
			c-1.1-0.4-1.6-1.3-2-2.2c-1.3-3.5-3-10.3,3.5-13.6C265.1,276.7,283.9,276.2,283.9,273z"/>
		<path class="st11" d="M284.5,308.1c1.6,4.9,3.3,9.7,4.9,14.6c-5.8,2.4-11.7,4.6-17.5,6.5c-2.9,0.9-6.3,1.8-7.8,0.6
			c-0.9-0.7-0.8-2-0.8-3.2c0-3.5-3.5-9.1,1.4-12.8C267.8,311.4,279.3,311,284.5,308.1z"/>
	</g>
	<g>
		<path class="st10" d="M289.6,198.4c6.6,6.8,6.8,17.9,3.4,26.7c-3.5,8.8-10,16.1-15.8,23.5c-36.2,46-51.6,107.9-41.3,165.5
			c-11.1,3-22.6-6.1-26.4-17c-3.8-10.8-2.1-22.8-0.3-34.1c1.5-9.3,3-18.6,4.9-27.8c7.4-34.6,21.7-67.6,41.9-96.6
			c-9.6-3-19-8.6-23.4-17.6s-1.7-21.8,7.4-26c1.2-0.5,2.5-0.9,3.7-0.6c4.3,1.1,5.9,4.4,11.1,4c4.2-0.3,6-3.4,9.5-4.7
			C272.7,190.5,282.8,191.4,289.6,198.4z"/>
		<path class="st11" d="M279.4,227c4.2-3.1,8.4-6.3,11.6-10.4s5-9.3,3.8-14.2c-1.5-6.5-8.9-11.4-16.1-10.5
			c-6.8,0.8-11.9,5.9-16.8,10.3c-8,7.2-17.7,13.7-28.7,13.8c-0.8,4,1.1,8.1,4,11.2c2.9,3.1,6.7,5.2,10.4,7.3
			C262.8,243.1,266.6,237.1,279.4,227z"/>
		<path class="st11" d="M249.9,249.1c7.8,2,16.1,1.9,23.8-0.3c-3.6,6-7.5,11.9-11.5,17.7c-1.7,2.4-3.8,5-6.7,5.2
			c-1.8,0.2-3.5-0.6-5.1-1.4c-4-1.9-8.7-4.8-8.4-9.3c0.1-1.6,1-3.1,1.8-4.6c1.7-3,3.7-6.3,7-7.5"/>
		<path class="st11" d="M247,297.8c-2.6,8.1-5.6,16-9,23.8c-4.1-3.5-8.1-7.1-12.2-10.6c-0.8-0.7-1.6-1.4-2.1-2.3
			c-0.7-1.3-0.7-2.8-0.6-4.2c0.4-5.4,1.9-15.2,8.1-15C231.4,289.4,245.7,301.9,247,297.8z"/>
		<path class="st11" d="M233.2,343.2c-0.7,7.4-1.5,14.7-2.2,22.1c-5.3-0.9-10.6-2.2-15.7-3.9c-2.6-0.8-5.5-2.1-6.1-4.7
			c-0.4-1.5,0.2-3.2,0.7-4.7c1.5-4.5,1.1-14.2,6.3-15.4C219.4,335.9,228.1,343.3,233.2,343.2z"/>
	</g>
	<ellipse class="st12" cx="225.8" cy="113.7" rx="9.4" ry="14.1"/>
	<ellipse class="st12" cx="248.7" cy="114" rx="9.4" ry="14.1"/>
	<path class="st12" d="M234.8,114.8c-1.6-1.7-2-4.9-0.2-6.3c1.9-1.5,5.4,0.7,4.3,2.8"/>
	<path class="st13" d="M73.1,169.3c15.8,6.4,27.4,20.7,34.7,36.1c4.7,9.9,7.9,20.6,13.9,29.8s15.5,17,26.5,17.1s21.8-10.7,18.8-21.2
		c-4.5-4.7-11.9,4.6-18.1,2.7c-3.2-1-4.7-4.5-5.8-7.7c-6.2-17.6-12.8-35.9-26-49.2c-20.3-20.6-52.3-25.1-81-21.5
		c-12,1.5-25.8,6-29.4,17.5c-0.3,1.1-0.6,2.4,0.1,3.4c1.2,1.9,4.1,1.2,6.1,0.2C33,166.9,50.9,161,73.1,169.3z"/>
	<path class="st13" d="M147.2,205.6c1.7,7.6,6.3,14.3,11.4,20.3c4.7,5.5,10.2,10.9,17.2,12.7c5.9,1.5,12.5,0.1,17.3-3.6
		c1.2-0.9,2.4-2.3,2-3.8c-0.4-1.7-2.5-2.3-4.1-2.8c-6.8-2.2-11.5-8.5-13.5-15.3c-2-6.8-1.7-14-1.3-21.1c0.1-1.9,0.2-3.9-0.7-5.6
		c-0.7-1.3-2-2.3-3.3-3C156.3,174.7,143.8,190.9,147.2,205.6z"/>
	<path class="st13" d="M216,232.2c4.4-3.4,6.3-9.1,6.8-14.6c0.8-9.2-1.7-18.7-7-26.4c-5.7-8.2-14.1-13.9-21.8-20.2
		c-12.5-10.2-23.6-22.3-30.7-36.8s-9.9-31.3-5.9-46.9c1.7-6.5,4.5-12.8,5.6-19.4c1.6-10.7-2.2-22.4-10.9-28.7
		c-8.8-6.3-22.4-5.5-29.2,2.9c-5.1,6.3-5.7,15.2-4,23.1s5.4,15.2,8,22.8c4.4,12.8,6,26.4,10,39.3c5.9,19,17.4,36.3,32.6,49.2
		c6.8,5.8,14.5,10.8,20,17.8c6.6,8.4,9.4,18.9,11.6,29.1C202.8,231,206.1,239.8,216,232.2z"/>
	<ellipse transform="matrix(0.9898 -0.1425 0.1425 0.9898 -5.9333 20.6538)" class="st4" cx="141.2" cy="51.7" rx="1" ry="2.9"/>
	<ellipse transform="matrix(0.9898 -0.1425 0.1425 0.9898 -5.6606 21.9051)" class="st4" cx="150.1" cy="50.5" rx="1" ry="2.9"/>
	<circle class="st5" cx="131.3" cy="59.4" r="5"/>
	<path class="st14" d="M150.6,63.1c-0.3-3,2-5.9,4.7-7.2c2.7-1.4,5.9-1.6,8.9-2s6.2-0.9,8.7-2.7c2.5-1.8,4-4.8,4.5-7.8
		c0.5-3.1,0-6.2-1-9.2c-0.1-0.4-0.7-0.7-0.7-0.3"/>
	<path class="st14" d="M177,46.6c3.9-1.9,7.1-5.1,9-8.9"/>
</g>
</svg>
