<?xml version="1.0" encoding="utf-8"?>
<!-- Generator: Adobe Illustrator 25.0.0, SVG Export Plug-In . SVG Version: 6.00 Build 0)  -->
<svg version="1.1" id="Calque_1" xmlns="http://www.w3.org/2000/svg" xmlns:xlink="http://www.w3.org/1999/xlink" x="0px" y="0px"
	 viewBox="0 0 1920 1080" style="enable-background:new 0 0 1920 1080;" xml:space="preserve">
<style type="text/css">
	.st0{fill:#FFD72E;}
	.st1{fill:#D6A41A;}
	.st2{fill:#EDC156;}
	.st3{opacity:0.43;fill:#C4B96C;}
	.st4{opacity:0.43;fill:#EAD039;}
	.st5{fill:#FFEB8A;}
	.st6{fill:url(#SVGID_1_);}
	.st7{fill:url(#SVGID_2_);}
	.st8{fill:url(#SVGID_3_);}
	.st9{fill:url(#SVGID_4_);}
	.st10{fill:url(#SVGID_5_);}
</style>
<g>
	<g>
		<path class="st0" d="M1223.16,532.42c-4.89,1.48-10.02,2.17-15.14,2.04c1.58,7.69,3.15,15.79,0.7,23.25
			c-2.44,7.46-10.43,13.72-17.92,11.36c-7.04-2.21-10.17-10.52-10.51-17.89c-0.34-7.37,1.1-14.95-1.02-22.01
			c-4.17,6.63-14.08,8.75-20.6,4.42c-1.42-0.94-2.78-2.17-4.47-2.31c-3.83-0.32-5.62,4.69-5.51,8.53
			c0.22,7.42,2.69,14.59,3.46,21.97c0.77,7.38-0.61,15.71-6.41,20.35c-6.03,4.82-15.36,3.9-21.46-0.83
			c-6.11-4.72-9.3-12.44-10.22-20.1c-0.36-3.01-0.53-6.35-2.66-8.5c-2.01-2.03-5.12-2.35-7.96-2.51
			c-18.12-1.03-36.34-0.38-54.34,1.94c-5.59,0.72-11.48,1.56-16.68-0.61c-9.52-3.98-12.45-15.85-13.66-26.1
			c-2.52-21.43-2.97-43.1-1.35-64.62c0.57-7.59,1.75-15.88,7.36-21.03c4.62-4.23,11.21-5.35,17.42-6.14
			c46.18-5.9,93.35-3.79,138.84,6.08c14.79,3.21,41.1,4.64,45.42,21.64c2.29,9.03-3.49,24.7-4.04,34.22
			C1221.7,507.86,1221.95,520.19,1223.16,532.42z"/>
		<path class="st1" d="M1236.01,461.47c-8.11,4.82-18.1,4.75-27.53,4.53c-53.3-1.2-106.61-2.4-159.91-3.6
			c-10.51-0.24-21.23-0.51-31.14-4.03c-5.03-1.79-10.5-5.66-9.97-10.98c0.28-2.81,2.23-5.14,4.13-7.24
			c10.66-11.76,27.3-23.17,41.18-15.47c-5.98-3.27-11.97-6.55-17.95-9.82c7.4-4.57,9.94-13.92,14.68-21.21
			c4.74-7.29,15.92-12.61,21.63-6.04c0.23-2.97,0.46-5.94,0.69-8.9c17.84-2.16,30.01,8.94,45.51,14.83
			c13.01,4.94,26.91,7.23,39.96,13.13C1165.14,410.21,1238.11,460.22,1236.01,461.47z"/>
		<path class="st2" d="M1204.25,497.18c0.14,4.22-0.51,9.21-4.21,11.23c-3.32,1.82-7.46,0.28-10.72-1.65s-6.59-4.33-10.37-4.21
			c-1.95,0.06-3.84,0.8-5.78,0.75c-4.04-0.11-7.39-3.88-7.81-7.9c-1.11-10.6,14.44-19.17,23.74-19.04
			C1199.98,476.52,1203.95,487.77,1204.25,497.18z"/>
		<path class="st2" d="M1118.32,469.32c2.61,0.8,4.54,3.41,4.55,6.14c0,3.72-3.77,6.95-7.46,6.42c-3.68-0.52-6.41-4.6-5.54-8.22
			c0.87-3.62,5.08-6.02,8.65-4.98"/>
		<path class="st2" d="M1103.7,517.12c3.63-0.42,7.42-0.25,10.75,1.24c3.34,1.49,6.15,4.47,6.74,8.07
			c0.68,4.13-1.67,8.34-5.07,10.77c-3.4,2.43-7.68,3.33-11.85,3.56c-5.54,0.31-12.01-1.04-14.5-6c-2.1-4.17-0.38-9.48,2.93-12.77
			c3.31-3.29,7.87-4.97,12.35-6.29"/>
		<path class="st2" d="M1074.47,504.15c-1.34,4.94-4.48,9.52-9,11.93c-6.42,3.4-14.46,1.93-20.85-1.52
			c-3.81-2.05-7.36-4.9-9.26-8.78c-2.82-5.79-1.48-12.7,0.59-18.8c0.86-2.53,1.87-5.08,3.63-7.09c2.03-2.3,4.89-3.69,7.73-4.87
			C1066.74,466.95,1079.43,485.87,1074.47,504.15z"/>
		<path class="st2" d="M1037.07,525.06c2.83-0.04,5.45,2.77,4.95,5.56c-0.5,2.79-4.3,4.45-6.55,2.73c-2.25-1.72-1.35-6.09,1.45-6.55
			"/>
	</g>
	<path class="st0" d="M950.93,586.26c47.7-4.17,97.33,7.27,134.64,38.82c37.32,31.54,60.27,84.74,52.27,136.37
		c-15.51-4.13-25.85-23.34-21.76-40.41c-4.07,73.26-14.81,146.26-32.02,217.57c-2.8,11.62-5.97,23.59-13.06,32.87
		s-19.25,15.1-29.27,10.6c-5.08-2.28-8.96-6.83-12.34-11.52c-31.4-43.53-31.56-104.51-30.32-160.61c0.25,43.3,0.5,86.61,0.76,129.91
		c0.1,16.79-4.67,39.48-20.06,39.89c-12.19,0.32-18.99-14.71-21.78-27.59c-8.22-38.03-6.94-78.69,3.66-116.53
		c-8.31-0.68-13.73,9.9-14.96,18.96c-1.24,9.05-1.03,19.31-6.95,25.9c-10.9,12.11-30.21-1.4-33.87-17.58s0.74-33.75-2.8-49.97
		c-6.65,62.17-13.3,124.34-19.95,186.5c-1.74,16.23-3.61,32.96-10.95,47.36c-7.33,14.4-21.59,26.03-36.39,24.27
		c-10.44-1.24-19.24-8.71-26.37-16.98c-16.14-18.7-26.74-43.03-29.96-68.71c-3.69-29.5,2.11-60.36-4.52-89.17
		c-0.83-3.58-2.16-7.52-5.28-8.92c-7.91-3.57-11.56,10.65-16.54,18.49c-7.87,12.41-26.85,8.74-34.85-3.13
		c-8-11.87-8.2-27.91-8.09-42.83c-1.16,25.01-21.54,47.7-44.43,49.47c-28.77,2.22-53.06-26.19-58.06-57.01
		c-5-30.82,4.84-62.6,17.25-91.31c-2.44,11.82-5.02,23.98-11.35,34.03c-6.33,10.05-17.42,17.6-28.24,15.48
		c-11.89-2.33-19.42-15.04-23.35-27.46c-12.58-39.71-2.24-84.43,13.95-123.35c11.55-27.79,27.02-55.28,50.89-71.26
		c23.21-15.53,51.31-18.23,78.22-19.87c0,0,0.01,0,0.01,0c48.68-2.96,97.41-3.78,146.06-2.52
		C890.47,567.05,911.39,589.72,950.93,586.26z"/>
	<path class="st3" d="M473.08,311.03c-40.88,66.47-39.4,154.15,25.23,207.37c42.23,34.77,104.3,50.39,148.04,83.96
		c24.96,19.16,44.02,44.15,74.75,56.94c37.18,15.48,83.94,9.05,120.1-7.88c36.16-16.93,63.94-42.94,91-68.45
		c34.14-32.2,68.29-64.39,102.43-96.59c41.4-39.04,84.93-82.27,87.02-133.32c1.31-31.88-14.2-62.92-35.4-90
		c-64.06-81.81-186.02-130.08-306.03-129.14C650.89,134.93,528.52,220.88,473.08,311.03z"/>
	<path class="st4" d="M712.07,231.03c-48.05,83.11-46.31,192.76,29.66,259.29c49.64,43.47,122.6,63.01,174.01,104.98
		c29.34,23.95,51.75,55.21,87.87,71.2c43.7,19.35,98.67,11.32,141.17-9.85c42.5-21.17,75.16-53.69,106.96-85.59
		c40.13-40.26,80.27-80.52,120.4-120.77c48.67-48.82,99.82-102.87,102.29-166.71c1.54-39.87-16.69-78.68-41.61-112.54
		C1357.52,68.75,1214.17,8.39,1073.1,9.57C921.07,10.84,777.24,118.3,712.07,231.03z"/>
	<path class="st5" d="M811.7,483.09c-54.86-10.72-114.49-6.23-163.05,19.86c-48.56,26.09-83.92,75.61-82.98,127.85
		c18.73-1.95,33.89-19.55,31.89-37.02c-7.15,73.12-6.49,146.91,1.97,219.91c1.38,11.89,3.12,24.19,9.87,34.36
		c6.76,10.17,19.96,17.62,32.36,14.54c6.28-1.56,11.54-5.53,16.24-9.71c43.62-38.78,53.7-99.15,61.37-154.88
		c-7.32,42.85-14.64,85.71-21.96,128.56c-2.84,16.62-0.97,39.75,16.88,42.28c14.14,2,24.5-11.95,29.83-24.32
		c15.74-36.53,20.85-76.98,14.65-115.92c9.79,0.47,14.37,11.7,14.34,20.84s-1.94,19.26,3.89,26.61c10.72,13.5,35.4,2.78,42.28-12.74
		c6.88-15.52,4.62-33.53,11.37-49.11c-2.35,62.49-4.7,124.98-7.04,187.47c-0.61,16.32-1.14,33.14,5.06,48.42
		s20.91,28.76,38.43,29.06c12.36,0.22,23.81-5.97,33.46-13.17c21.82-16.29,38.11-38.92,46.03-63.92
		c9.09-28.71,7.34-60.07,19.74-87.69c1.54-3.43,3.74-7.15,7.6-8.11c9.79-2.44,11.74,12.14,16.26,20.6
		c7.15,13.37,29.84,12.37,41.08,1.72c11.24-10.65,14.08-26.51,16.36-41.3c-2.7,24.93,17.34,50.21,43.7,55.13
		c33.14,6.18,66.02-18.61,76.85-48.45c10.82-29.84,4.52-62.67-5.27-92.81c0.93,12.05,1.95,24.44,7.69,35.27s17.42,19.84,30.36,19.23
		c14.22-0.67,25.05-12.21,31.64-23.97c21.09-37.59,16.3-83.31,3.78-124.09c-8.94-29.12-22.48-58.48-47.68-77.6
		c-24.5-18.59-56.78-25.14-87.84-30.47c0,0-0.01,0-0.01,0c-56.19-9.66-112.79-17.19-169.63-22.66
		C885.21,472.42,857.17,491.98,811.7,483.09z"/>
	<g>
		<path class="st0" d="M593.36,509.59c10.52,3.17,21.54,4.66,32.52,4.39c-3.4,16.51-6.76,33.93-1.51,49.95s22.41,29.47,38.49,24.42
			c15.12-4.75,21.84-22.61,22.57-38.44c0.73-15.83-2.36-32.12,2.19-47.3c8.95,14.23,30.25,18.81,44.25,9.5
			c3.04-2.02,5.97-4.66,9.61-4.97c8.22-0.7,12.08,10.08,11.84,18.33c-0.46,15.94-5.78,31.35-7.44,47.2
			c-1.66,15.86,1.3,33.76,13.77,43.71c12.96,10.35,32.99,8.37,46.11-1.77c13.12-10.15,19.99-26.72,21.95-43.19
			c0.77-6.47,1.14-13.64,5.72-18.27c4.31-4.35,11-5.04,17.11-5.39c38.93-2.21,78.07-0.82,116.75,4.17c12,1.55,24.66,3.36,35.83-1.31
			c20.46-8.54,26.75-34.06,29.34-56.07c5.42-46.04,6.39-92.6,2.9-138.82c-1.23-16.31-3.76-34.12-15.82-45.17
			c-9.92-9.09-24.08-11.49-37.42-13.2c-99.21-12.69-200.56-8.14-298.29,13.07c-31.77,6.89-88.3,9.97-97.57,46.49
			c-4.92,19.39,7.49,53.07,8.69,73.52C596.48,456.81,595.96,483.31,593.36,509.59z"/>
		<path class="st1" d="M565.74,357.15c17.42,10.35,38.9,10.2,59.16,9.74c114.52-2.58,229.03-5.16,343.55-7.74
			c22.58-0.51,45.62-1.1,66.9-8.66c10.81-3.84,22.57-12.16,21.42-23.58c-0.61-6.05-4.8-11.05-8.88-15.55
			c-22.91-25.27-58.65-49.79-88.48-33.24c12.85-7.04,25.71-14.07,38.56-21.11c-15.9-9.83-21.34-29.9-31.53-45.57
			s-34.21-27.09-46.48-12.98c-0.49-6.38-0.98-12.75-1.47-19.13c-38.33-4.64-64.48,19.21-97.78,31.86
			c-27.96,10.62-57.82,15.53-85.86,28.21C718.01,247.02,561.23,354.46,565.74,357.15z"/>
		<linearGradient id="SVGID_1_" gradientUnits="userSpaceOnUse" x1="633.9341" y1="424.4547" x2="717.6629" y2="424.4547">
			<stop  offset="0" style="stop-color:#D6901A"/>
			<stop  offset="0.2407" style="stop-color:#DD9E2C"/>
			<stop  offset="0.7272" style="stop-color:#E9B84A"/>
			<stop  offset="1" style="stop-color:#EDC156"/>
		</linearGradient>
		<path class="st6" d="M633.97,433.88c-0.29,9.06,1.1,19.78,9.05,24.14c7.14,3.91,16.03,0.6,23.03-3.54c7-4.15,14.15-9.3,22.28-9.05
			c4.18,0.13,8.25,1.72,12.43,1.61c8.69-0.23,15.88-8.33,16.78-16.98c2.38-22.78-31.02-41.19-51.01-40.9
			C643.15,389.49,634.62,413.66,633.97,433.88z"/>
		<linearGradient id="SVGID_2_" gradientUnits="userSpaceOnUse" x1="808.8309" y1="386.6418" x2="837.1028" y2="386.6418">
			<stop  offset="0" style="stop-color:#D6901A"/>
			<stop  offset="0.2407" style="stop-color:#DD9E2C"/>
			<stop  offset="0.7272" style="stop-color:#E9B84A"/>
			<stop  offset="1" style="stop-color:#EDC156"/>
		</linearGradient>
		<path class="st7" d="M818.6,374.03c-5.6,1.71-9.76,7.33-9.77,13.19c-0.01,7.99,8.11,14.92,16.02,13.8
			c7.91-1.12,13.77-9.89,11.9-17.66c-1.86-7.77-10.91-12.92-18.58-10.7"/>
		<linearGradient id="SVGID_3_" gradientUnits="userSpaceOnUse" x1="812.1508" y1="500.6259" x2="881.8741" y2="500.6259">
			<stop  offset="0" style="stop-color:#D6901A"/>
			<stop  offset="0.2407" style="stop-color:#DD9E2C"/>
			<stop  offset="0.7272" style="stop-color:#E9B84A"/>
			<stop  offset="1" style="stop-color:#EDC156"/>
		</linearGradient>
		<path class="st8" d="M850,476.71c-7.8-0.9-15.94-0.54-23.11,2.66s-13.2,9.6-14.49,17.34c-1.47,8.86,3.58,17.92,10.89,23.14
			c7.31,5.22,16.49,7.15,25.46,7.65c11.89,0.66,25.8-2.24,31.14-12.88c4.5-8.96,0.81-20.36-6.31-27.44
			c-7.11-7.08-16.91-10.68-26.53-13.51"/>
		<linearGradient id="SVGID_4_" gradientUnits="userSpaceOnUse" x1="910.4856" y1="430.3678" x2="1000.2847" y2="430.3678">
			<stop  offset="0" style="stop-color:#D6901A"/>
			<stop  offset="0.2407" style="stop-color:#DD9E2C"/>
			<stop  offset="0.7272" style="stop-color:#E9B84A"/>
			<stop  offset="1" style="stop-color:#EDC156"/>
		</linearGradient>
		<path class="st9" d="M912.8,448.84c2.88,10.62,9.61,20.46,19.34,25.62c13.78,7.31,31.08,4.14,44.8-3.27
			c8.18-4.41,15.82-10.52,19.89-18.87c6.06-12.43,3.18-27.29-1.27-40.39c-1.84-5.44-4.01-10.92-7.81-15.23
			c-4.37-4.95-10.51-7.93-16.61-10.46C929.41,368.92,902.15,409.58,912.8,448.84z"/>
		<linearGradient id="SVGID_5_" gradientUnits="userSpaceOnUse" x1="982.3835" y1="503.4138" x2="999.3152" y2="503.4138">
			<stop  offset="0" style="stop-color:#D6901A"/>
			<stop  offset="0.2407" style="stop-color:#DD9E2C"/>
			<stop  offset="0.7272" style="stop-color:#E9B84A"/>
			<stop  offset="1" style="stop-color:#EDC156"/>
		</linearGradient>
		<path class="st10" d="M993.15,493.76c-6.09-0.08-11.71,5.95-10.63,11.94s9.23,9.56,14.07,5.87c4.84-3.69,2.89-13.07-3.11-14.08"/>
	</g>
</g>
</svg>
