<?xml version="1.0" encoding="utf-8"?>
<!-- Generator: Adobe Illustrator 16.0.0, SVG Export Plug-In . SVG Version: 6.00 Build 0)  -->
<!DOCTYPE svg PUBLIC "-//W3C//DTD SVG 1.1//EN" "http://www.w3.org/Graphics/SVG/1.1/DTD/svg11.dtd">
<svg version="1.1" id="Calque_1" xmlns="http://www.w3.org/2000/svg" xmlns:xlink="http://www.w3.org/1999/xlink" x="0px" y="0px"
	 width="926px" height="787.844px" viewBox="232.5 -229.5 926 787.844" enable-background="new 232.5 -229.5 926 787.844"
	 xml:space="preserve">
<g>
	<path fill="#D89E39" d="M740.071,106.27c-50.402-9.771-105.184-5.678-149.798,18.097c-44.615,23.776-77.1,68.905-76.234,116.515
		c17.207-1.78,31.136-17.819,29.299-33.737c-6.569,66.634-5.964,133.879,1.809,200.41c1.27,10.834,2.865,22.044,9.068,31.311
		c6.207,9.267,18.336,16.055,29.73,13.252c5.769-1.423,10.6-5.039,14.918-8.849c40.074-35.341,49.336-90.359,56.382-141.147
		c-6.724,39.049-13.449,78.109-20.175,117.158c-2.609,15.148-0.891,36.229,15.509,38.534c12.989,1.822,22.508-10.89,27.406-22.166
		c14.459-33.289,19.154-70.151,13.457-105.637c8.995,0.425,13.202,10.661,13.175,18.988c-0.027,8.33-1.781,17.552,3.575,24.249
		c9.848,12.305,32.521,2.534,38.842-11.606c6.32-14.144,4.245-30.56,10.446-44.756c-2.159,56.949-4.317,113.897-6.468,170.845
		c-0.56,14.873-1.047,30.204,4.649,44.125c5.696,13.928,19.211,26.212,35.306,26.483c11.356,0.2,21.875-5.437,30.74-12.001
		c20.046-14.843,35.013-35.469,42.289-58.25c8.353-26.164,6.744-54.745,18.134-79.917c1.418-3.125,3.438-6.515,6.982-7.387
		c8.996-2.226,10.789,11.062,14.94,18.771c6.567,12.185,27.414,11.27,37.741,1.563c10.327-9.704,12.936-24.158,15.027-37.636
		c-2.479,22.721,15.933,45.761,40.149,50.244c30.448,5.63,60.653-16.962,70.606-44.155c9.939-27.195,4.152-57.113-4.845-84.58
		c0.854,10.981,1.793,22.272,7.065,32.143c5.273,9.871,16.002,18.081,27.893,17.523c13.063-0.609,23.013-11.126,29.07-21.845
		c19.373-34.255,14.974-75.923,3.473-113.085c-8.217-26.539-20.653-53.294-43.806-70.719c-22.508-16.943-52.164-22.911-80.699-27.77
		h-0.011c-51.625-8.801-103.622-15.664-155.843-20.647C807.606,96.545,781.845,114.368,740.071,106.27z"/>
	<g>
		<path fill="#FFD72E" d="M818.391,133.986c-3.282,0.991-6.728,1.454-10.168,1.365c1.063,5.145,2.117,10.564,0.47,15.552
			c-1.636,4.991-7.002,9.18-12.034,7.6c-4.726-1.479-6.827-7.037-7.055-11.967c-0.229-4.931,0.736-10-0.685-14.722
			c-2.802,4.434-9.457,5.851-13.835,2.955c-0.955-0.629-1.868-1.451-3.002-1.545c-2.571-0.214-3.774,3.137-3.702,5.705
			c0.149,4.963,1.809,9.762,2.324,14.696c0.519,4.937-0.409,10.51-4.302,13.613c-4.052,3.225-10.319,2.609-14.413-0.554
			c-4.104-3.159-6.245-8.323-6.862-13.446c-0.242-2.014-0.356-4.248-1.789-5.687c-1.347-1.358-3.436-1.57-5.343-1.677
			c-12.17-0.689-24.404-0.254-36.493,1.297c-3.754,0.482-7.708,1.044-11.2-0.407c-6.396-2.663-8.361-10.604-9.174-17.458
			c-1.692-14.336-1.994-28.831-0.907-43.225c0.383-5.078,1.175-10.623,4.943-14.069c3.104-2.829,7.529-3.578,11.697-4.106
			c31.013-3.946,62.688-2.535,93.237,4.068c9.931,2.147,27.601,3.104,30.503,14.476c1.538,6.04-2.346,16.521-2.714,22.891
			C817.41,117.559,817.579,125.807,818.391,133.986z"/>
		<path fill="#D6A41A" d="M827.021,86.528c-5.446,3.226-12.155,3.178-18.487,3.031c-35.793-0.802-71.594-1.605-107.387-2.408
			c-7.061-0.16-14.258-0.342-20.913-2.697c-3.377-1.196-7.051-3.786-6.695-7.344c0.188-1.879,1.498-3.439,2.773-4.843
			c7.16-7.868,18.333-15.499,27.655-10.349c-4.014-2.186-8.037-4.38-12.053-6.568c4.969-3.057,6.675-9.312,9.858-14.188
			c3.182-4.876,10.69-8.434,14.522-4.04c0.155-1.987,0.311-3.974,0.465-5.954c11.981-1.445,20.153,5.98,30.562,9.92
			c8.737,3.304,18.072,4.837,26.837,8.782C779.43,52.24,828.432,85.692,827.021,86.528z"/>
		<path fill="#EDC156" d="M805.693,110.416c0.095,2.823-0.344,6.159-2.828,7.511c-2.229,1.218-5.009,0.187-7.199-1.104
			c-2.188-1.291-4.424-2.896-6.963-2.816c-1.311,0.041-2.579,0.536-3.883,0.501c-2.713-0.073-4.961-2.594-5.245-5.284
			c-0.745-7.089,9.699-12.823,15.945-12.735C802.826,96.596,805.491,104.122,805.693,110.416z"/>
		<path fill="#EDC156" d="M747.986,91.78c1.751,0.535,3.049,2.281,3.056,4.106c0,2.489-2.531,4.648-5.008,4.295
			c-2.474-0.349-4.309-3.078-3.722-5.5c0.584-2.42,3.411-4.027,5.811-3.33"/>
		<path fill="#EDC156" d="M738.169,123.752c2.438-0.28,4.982-0.167,7.22,0.831c2.241,0.997,4.13,2.989,4.525,5.397
			c0.458,2.763-1.122,5.579-3.403,7.206c-2.284,1.624-5.158,2.225-7.958,2.38c-3.724,0.207-8.067-0.694-9.737-4.013
			c-1.41-2.789-0.256-6.341,1.968-8.543c2.223-2.2,5.284-3.323,8.291-4.207"/>
		<path fill="#EDC156" d="M718.541,115.077c-0.901,3.304-3.009,6.369-6.043,7.979c-4.315,2.276-9.714,1.293-14.002-1.016
			c-2.561-1.372-4.944-3.279-6.223-5.873c-1.891-3.873-0.992-8.496,0.397-12.575c0.579-1.693,1.256-3.398,2.438-4.744
			c1.366-1.537,3.286-2.468,5.191-3.257C713.349,90.195,721.87,102.851,718.541,115.077z"/>
		<path fill="#EDC156" d="M693.423,129.064c1.902-0.025,3.662,1.853,3.326,3.72c-0.337,1.866-2.888,2.975-4.398,1.826
			c-1.511-1.151-0.907-4.074,0.974-4.381"/>
	</g>
	<path fill="#FFD72E" d="M661.952,170.862c47.269-2.959,96.442,5.167,133.414,27.577c36.979,22.404,59.718,60.194,51.796,96.871
		c-15.372-2.935-25.617-16.58-21.563-28.705c-4.035,52.04-14.675,103.893-31.728,154.547c-2.781,8.256-5.917,16.759-12.945,23.35
		c-7.024,6.591-19.071,10.726-29.002,7.528c-5.033-1.617-8.875-4.851-12.225-8.181c-31.114-30.922-31.275-74.238-30.045-114.089
		c0.25,30.759,0.494,61.524,0.753,92.281c0.099,11.924-4.629,28.044-19.877,28.334c-12.08,0.229-18.819-10.447-21.583-19.599
		c-8.146-27.013-6.879-55.896,3.626-82.772c-8.234-0.483-13.601,7.032-14.822,13.465c-1.228,6.432-1.019,13.718-6.89,18.397
		c-10.798,8.604-29.931-0.992-33.557-12.487c-3.63-11.491,0.729-23.975-2.776-35.494c-6.59,44.161-13.18,88.322-19.769,132.479
		c-1.724,11.528-3.576,23.411-10.851,33.641c-7.263,10.228-21.391,18.491-36.058,17.239c-10.344-0.883-19.064-6.188-26.129-12.059
		c-15.993-13.285-26.497-30.569-29.687-48.81c-3.659-20.955,2.09-42.876-4.479-63.342c-0.822-2.543-2.142-5.34-5.232-6.336
		c-7.838-2.537-11.456,7.567-16.389,13.136c-7.799,8.813-26.605,6.208-34.531-2.224c-7.93-8.433-8.125-19.825-8.017-30.424
		c-1.152,17.767-21.344,33.883-44.025,35.138c-28.509,1.576-52.577-18.603-57.531-40.494c-4.956-21.895,4.795-44.469,17.091-64.861
		c-2.417,8.395-4.974,17.033-11.246,24.171c-6.271,7.14-17.262,12.503-27.983,10.995c-11.781-1.655-19.243-10.685-23.137-19.506
		c-12.464-28.206-2.218-59.973,13.824-87.618c11.444-19.742,26.772-39.268,50.425-50.619c22.998-11.032,50.843-12.951,77.508-14.115
		h0.01c48.236-2.102,96.523-2.684,144.729-1.791C602.043,157.219,622.775,173.321,661.952,170.862z"/>
	<path opacity="0.43" fill="#C4B96C" enable-background="new    " d="M261.677-43.165c-30.793,49.873-29.68,115.659,19.003,155.59
		c31.811,26.089,78.565,37.808,111.514,62.995c18.802,14.375,33.159,33.128,56.306,42.724c28.006,11.614,63.229,6.789,90.467-5.913
		c27.237-12.703,48.163-32.218,68.546-51.359c25.716-24.159,51.439-48.312,77.155-72.471c31.187-29.291,63.975-61.728,65.55-100.031
		c0.986-23.919-10.697-47.208-26.665-67.526c-48.253-61.382-140.12-97.6-230.521-96.893
		C395.613-175.293,303.437-110.805,261.677-43.165z"/>
	<path opacity="0.43" fill="#EAD039" enable-background="new    " d="M478.48-45.105c-37.17,64.04-35.823,148.53,22.945,199.795
		c38.4,33.496,94.838,48.551,134.611,80.89c22.696,18.454,40.03,42.54,67.974,54.865c33.804,14.907,76.328,8.721,109.202-7.593
		c32.878-16.312,58.146-41.37,82.745-65.948c31.042-31.022,62.095-62.047,93.139-93.058c37.651-37.621,77.218-79.267,79.127-128.458
		c1.192-30.723-12.907-60.627-32.188-86.718c-58.25-78.818-169.144-125.328-278.271-124.418
		C640.158-214.771,528.895-131.968,478.48-45.105z"/>
	<path fill="#FFEB8A" d="M518.217,100.992c-50.402-7.172-105.184-4.167-149.798,13.283c-44.614,17.452-77.099,50.577-76.234,85.521
		c17.207-1.305,31.135-13.078,29.298-24.762c-6.568,48.909-5.962,98.267,1.809,147.1c1.27,7.952,2.866,16.18,9.069,22.982
		c6.208,6.802,18.336,11.784,29.73,9.727c5.769-1.045,10.601-3.699,14.919-6.496c40.074-25.939,49.336-66.322,56.382-103.601
		c-6.725,28.662-13.449,57.332-20.176,85.994c-2.609,11.118-0.89,26.591,15.509,28.283c12.99,1.337,22.508-7.992,27.406-16.269
		c14.46-24.436,19.154-51.492,13.458-77.539c8.995,0.312,13.202,7.826,13.175,13.938c-0.027,6.115-1.782,12.884,3.574,17.799
		c9.848,9.031,32.522,1.86,38.843-8.52c6.32-10.381,4.245-22.43,10.445-32.85c-2.158,41.799-4.317,83.599-6.468,125.398
		c-0.56,10.917-1.046,22.17,4.65,32.388c5.695,10.224,19.211,19.239,35.306,19.438c11.355,0.147,21.875-3.99,30.74-8.809
		c20.046-10.896,35.013-26.033,42.288-42.756c8.353-19.203,6.745-40.183,18.135-58.658c1.417-2.294,3.438-4.782,6.982-5.422
		c8.996-1.633,10.788,8.119,14.939,13.778c6.567,8.943,27.415,8.272,37.741,1.148c10.327-7.124,12.937-17.732,15.028-27.624
		c-2.479,16.676,15.933,33.586,40.149,36.878c30.448,4.132,60.653-12.45,70.605-32.409c9.939-19.962,4.152-41.922-4.845-62.082
		c0.854,8.06,1.794,16.348,7.066,23.592s16.002,13.271,27.892,12.862c13.063-0.447,23.013-8.166,29.071-16.034
		c19.373-25.143,14.973-55.727,3.473-83.004c-8.217-19.479-20.654-39.118-43.806-51.906c-22.509-12.437-52.164-16.817-80.7-20.383
		h-0.01c-51.625-6.46-103.622-11.498-155.843-15.156C585.752,93.854,559.991,106.936,518.217,100.992z"/>
	<g>
		<path fill="#FFD72E" d="M395.453,118.717c7.064,2.121,14.465,3.116,21.839,2.937c-2.283,11.042-4.54,22.695-1.016,33.413
			c3.526,10.715,15.05,19.711,25.85,16.335c10.153-3.181,14.667-15.126,15.157-25.715c0.49-10.589-1.585-21.486,1.469-31.638
			c6.013,9.519,20.315,12.582,29.717,6.355c2.041-1.353,4.008-3.118,6.452-3.325c5.521-0.469,8.113,6.743,7.953,12.26
			c-0.31,10.662-3.882,20.97-4.996,31.572c-1.115,10.61,0.872,22.584,9.245,29.237c8.704,6.923,22.156,5.6,30.966-1.184
			c8.811-6.788,13.425-17.872,14.741-28.891c0.517-4.325,0.766-9.123,3.84-12.22c2.895-2.91,7.387-3.371,11.491-3.605
			c26.143-1.479,52.426-0.548,78.402,2.791c8.06,1.035,16.561,2.247,24.063-0.878c13.737-5.713,17.964-22.783,19.703-37.504
			c3.639-30.797,4.292-61.942,1.944-92.858c-0.824-10.91-2.525-22.823-10.623-30.214c-6.66-6.08-16.171-7.686-25.128-8.83
			c-66.623-8.488-134.686-5.445-200.314,8.743c-21.336,4.607-59.298,6.668-65.523,31.096c-3.304,12.971,5.03,35.5,5.836,49.179
			C397.548,83.413,397.199,101.138,395.453,118.717z"/>
		<path fill="#D6A41A" d="M376.904,16.748c11.698,6.923,26.125,6.824,39.729,6.515c76.904-1.726,153.804-3.451,230.707-5.178
			c15.163-0.341,30.638-0.735,44.927-5.792c7.261-2.569,15.157-8.134,14.388-15.773c-0.411-4.047-3.225-7.392-5.965-10.401
			c-15.386-16.903-39.387-33.305-59.419-22.235c8.629-4.709,17.265-9.412,25.896-14.12c-10.677-6.576-14.332-20-21.175-30.482
			c-6.843-10.482-22.974-18.121-31.212-8.682c-0.33-4.268-0.658-8.528-0.988-12.796c-25.741-3.104-43.301,12.849-65.664,21.312
			c-18.776,7.103-38.828,10.387-57.658,18.868C479.161-56.919,373.876,14.95,376.904,16.748z"/>
		
			<linearGradient id="SVGID_1_" gradientUnits="userSpaceOnUse" x1="1353.168" y1="721.7139" x2="1507.3848" y2="721.7139" gradientTransform="matrix(0.3646 0 0 -0.3646 -70.6423 324.8974)">
			<stop  offset="0" style="stop-color:#D6901A"/>
			<stop  offset="0.2407" style="stop-color:#DD9E2C"/>
			<stop  offset="0.7272" style="stop-color:#E9B84A"/>
			<stop  offset="1" style="stop-color:#EDC156"/>
		</linearGradient>
		<path fill="url(#SVGID_1_)" d="M422.724,68.073c-0.194,6.061,0.74,13.232,6.079,16.149c4.793,2.615,10.765,0.399,15.465-2.37
			c4.701-2.775,9.503-6.221,14.962-6.051c2.807,0.086,5.54,1.148,8.349,1.076c5.834-0.155,10.662-5.573,11.266-11.358
			c1.6-15.239-20.829-27.553-34.253-27.359C428.89,38.38,423.161,54.547,422.724,68.073z"/>
		
			<linearGradient id="SVGID_2_" gradientUnits="userSpaceOnUse" x1="1675.3164" y1="791.1045" x2="1727.3916" y2="791.1045" gradientTransform="matrix(0.3646 0 0 -0.3646 -70.6423 324.8974)">
			<stop  offset="0" style="stop-color:#D6901A"/>
			<stop  offset="0.2407" style="stop-color:#DD9E2C"/>
			<stop  offset="0.7272" style="stop-color:#E9B84A"/>
			<stop  offset="1" style="stop-color:#EDC156"/>
		</linearGradient>
		<path fill="url(#SVGID_2_)" d="M546.713,28.04c-3.764,1.143-6.556,4.903-6.563,8.822c-0.007,5.345,5.446,9.98,10.758,9.231
			c5.312-0.749,9.249-6.615,7.992-11.813c-1.248-5.198-7.326-8.643-12.478-7.157"/>
		
			<linearGradient id="SVGID_3_" gradientUnits="userSpaceOnUse" x1="1681.4229" y1="581.9668" x2="1809.8301" y2="581.9668" gradientTransform="matrix(0.3646 0 0 -0.3646 -70.6423 324.8974)">
			<stop  offset="0" style="stop-color:#D6901A"/>
			<stop  offset="0.2407" style="stop-color:#DD9E2C"/>
			<stop  offset="0.7272" style="stop-color:#E9B84A"/>
			<stop  offset="1" style="stop-color:#EDC156"/>
		</linearGradient>
		<path fill="url(#SVGID_3_)" d="M567.799,96.724c-5.238-0.604-10.705-0.362-15.52,1.778c-4.815,2.14-8.865,6.422-9.731,11.6
			c-0.987,5.925,2.405,11.986,7.313,15.479c4.907,3.491,11.074,4.781,17.097,5.117c7.984,0.441,17.326-1.497,20.913-8.616
			c3.021-5.991,0.543-13.619-4.237-18.355c-4.774-4.736-11.356-7.143-17.817-9.037"/>
		
			<linearGradient id="SVGID_4_" gradientUnits="userSpaceOnUse" x1="1862.5625" y1="710.877" x2="2027.9658" y2="710.877" gradientTransform="matrix(0.3646 0 0 -0.3646 -70.6423 324.8974)">
			<stop  offset="0" style="stop-color:#D6901A"/>
			<stop  offset="0.2407" style="stop-color:#DD9E2C"/>
			<stop  offset="0.7272" style="stop-color:#E9B84A"/>
			<stop  offset="1" style="stop-color:#EDC156"/>
		</linearGradient>
		<path fill="url(#SVGID_4_)" d="M609.971,78.08c1.935,7.104,6.453,13.686,12.987,17.137c9.256,4.891,20.872,2.77,30.086-2.187
			c5.492-2.949,10.623-7.037,13.357-12.622c4.069-8.314,2.136-18.255-0.854-27.017c-1.233-3.64-2.692-7.304-5.243-10.188
			c-2.937-3.311-7.059-5.305-11.155-6.998C621.125,24.621,602.818,51.819,609.971,78.08z"/>
		
			<linearGradient id="SVGID_5_" gradientUnits="userSpaceOnUse" x1="1995.002" y1="576.8574" x2="2026.1826" y2="576.8574" gradientTransform="matrix(0.3646 0 0 -0.3646 -70.6423 324.8974)">
			<stop  offset="0" style="stop-color:#D6901A"/>
			<stop  offset="0.2407" style="stop-color:#DD9E2C"/>
			<stop  offset="0.7272" style="stop-color:#E9B84A"/>
			<stop  offset="1" style="stop-color:#EDC156"/>
		</linearGradient>
		<path fill="url(#SVGID_5_)" d="M663.93,108.128c-4.09-0.053-7.864,3.98-7.137,7.987c0.723,4.006,6.198,6.395,9.445,3.925
			c3.251-2.467,1.941-8.742-2.088-9.417"/>
	</g>
	<g>
		<path fill="#FFD72E" d="M862.259,190.925c0.61-10.36,6.919-27.416,4.419-37.239c-4.713-18.499-33.459-20.057-49.614-23.547
			c-49.694-10.743-101.232-13.048-151.683-6.621c-6.78,0.867-13.984,2.082-19.028,6.685c-6.131,5.599-7.417,14.619-8.043,22.882
			c-1.775,23.41-1.28,46.991,1.473,70.312c1.319,11.147,4.517,24.076,14.921,28.4c5.682,2.365,12.117,1.446,18.219,0.663
			c19.668-2.529,39.573-3.231,59.367-2.114c3.107,0.18,6.511,0.528,8.702,2.73c2.327,2.346,2.519,5.978,2.908,9.256
			c0.995,8.339,4.489,16.733,11.163,21.874c6.67,5.138,16.854,6.14,23.448,0.896c6.338-5.037,7.844-14.104,6.999-22.138
			c-0.844-8.027-3.549-15.832-3.783-23.905c-0.12-4.177,1.842-9.641,6.022-9.285c1.849,0.156,3.339,1.496,4.886,2.518
			c7.117,4.715,17.948,2.395,22.5-4.815c2.314,7.689,0.744,15.944,1.116,23.961c0.367,8.019,3.788,17.061,11.476,19.47
			c8.177,2.558,16.902-4.257,19.571-12.37c2.671-8.115,0.963-16.937-0.766-25.3c5.584,0.135,11.187-0.618,16.534-2.224
			C861.745,217.704,861.482,204.281,862.259,190.925z"/>
		<path fill="#D6A41A" d="M791.12,94.162c-14.259-6.422-29.442-8.909-43.659-14.29c-16.935-6.407-30.232-18.488-49.723-16.138
			c-0.249,3.233-0.5,6.459-0.748,9.691c-6.239-7.148-18.452-1.364-23.635,6.574c-5.182,7.938-7.948,18.104-16.035,23.081
			c6.536,3.565,13.076,7.128,19.609,10.693c-15.168-8.383-33.343,4.036-44.99,16.834c-2.076,2.279-4.206,4.813-4.519,7.877
			c-0.585,5.785,5.396,9.999,10.894,11.944c10.82,3.831,22.537,4.128,34.019,4.385c58.234,1.307,116.463,2.615,174.695,3.92
			c10.304,0.234,21.227,0.311,30.082-4.933C879.407,152.44,799.684,98.021,791.12,94.162z"/>
		
			<linearGradient id="SVGID_6_" gradientUnits="userSpaceOnUse" x1="-192.7075" y1="375.7783" x2="-75.9224" y2="375.7783" gradientTransform="matrix(-0.3646 0 0 -0.3646 772.1774 324.8974)">
			<stop  offset="0" style="stop-color:#D6901A"/>
			<stop  offset="0.2407" style="stop-color:#DD9E2C"/>
			<stop  offset="0.7272" style="stop-color:#E9B84A"/>
			<stop  offset="1" style="stop-color:#EDC156"/>
		</linearGradient>
		<path fill="url(#SVGID_6_)" d="M825.859,170.015c-10.165-0.146-27.147,9.178-25.94,20.716c0.46,4.383,4.115,8.485,8.535,8.601
			c2.127,0.056,4.196-0.749,6.321-0.815c4.133-0.126,7.769,2.482,11.331,4.584c3.557,2.098,8.079,3.775,11.709,1.794
			c4.041-2.209,4.748-7.638,4.603-12.227C842.086,182.424,837.746,170.184,825.859,170.015z"/>
		
			<linearGradient id="SVGID_7_" gradientUnits="userSpaceOnUse" x1="51.2305" y1="428.3184" x2="90.6553" y2="428.3184" gradientTransform="matrix(-0.3646 0 0 -0.3646 772.1774 324.8974)">
			<stop  offset="0" style="stop-color:#D6901A"/>
			<stop  offset="0.2407" style="stop-color:#DD9E2C"/>
			<stop  offset="0.7272" style="stop-color:#E9B84A"/>
			<stop  offset="1" style="stop-color:#EDC156"/>
		</linearGradient>
		<path fill="url(#SVGID_7_)" d="M748.752,161.66c-3.902-1.125-8.502,1.483-9.447,5.417c-0.952,3.938,2.026,8.378,6.051,8.947
			c4.021,0.565,8.149-2.944,8.145-6.989c-0.007-2.97-2.121-5.817-4.968-6.681"/>
		
			<linearGradient id="SVGID_8_" gradientUnits="userSpaceOnUse" x1="55.856" y1="269.9531" x2="153.085" y2="269.9531" gradientTransform="matrix(-0.3646 0 0 -0.3646 772.1774 324.8974)">
			<stop  offset="0" style="stop-color:#D6901A"/>
			<stop  offset="0.2407" style="stop-color:#DD9E2C"/>
			<stop  offset="0.7272" style="stop-color:#E9B84A"/>
			<stop  offset="1" style="stop-color:#EDC156"/>
		</linearGradient>
		<path fill="url(#SVGID_8_)" d="M734.066,212.822c-4.895,1.432-9.876,3.257-13.49,6.842c-3.621,3.586-5.499,9.36-3.211,13.897
			c2.718,5.388,9.79,6.859,15.837,6.527c4.559-0.257,9.23-1.235,12.943-3.876c3.72-2.646,6.287-7.233,5.538-11.723
			c-0.654-3.921-3.721-7.161-7.366-8.783c-3.647-1.62-7.786-1.802-11.754-1.346"/>
		
			<linearGradient id="SVGID_9_" gradientUnits="userSpaceOnUse" x1="193.0146" y1="367.5713" x2="318.2578" y2="367.5713" gradientTransform="matrix(-0.3646 0 0 -0.3646 772.1774 324.8974)">
			<stop  offset="0" style="stop-color:#D6901A"/>
			<stop  offset="0.2407" style="stop-color:#DD9E2C"/>
			<stop  offset="0.7272" style="stop-color:#E9B84A"/>
			<stop  offset="1" style="stop-color:#EDC156"/>
		</linearGradient>
		<path fill="url(#SVGID_9_)" d="M670.963,168.536c-3.1,1.282-6.221,2.792-8.442,5.299c-1.934,2.182-3.038,4.958-3.973,7.714
			c-2.263,6.634-3.727,14.163-0.646,20.457c2.07,4.231,5.954,7.324,10.113,9.558c6.977,3.756,15.772,5.358,22.78,1.656
			c4.948-2.611,8.37-7.597,9.835-12.977C706.048,180.359,692.185,159.763,670.963,168.536z"/>
		
			<linearGradient id="SVGID_10_" gradientUnits="userSpaceOnUse" x1="293.2998" y1="266.0918" x2="316.9136" y2="266.0918" gradientTransform="matrix(-0.3646 0 0 -0.3646 772.1774 324.8974)">
			<stop  offset="0" style="stop-color:#D6901A"/>
			<stop  offset="0.2407" style="stop-color:#DD9E2C"/>
			<stop  offset="0.7272" style="stop-color:#E9B84A"/>
			<stop  offset="1" style="stop-color:#EDC156"/>
		</linearGradient>
		<path fill="url(#SVGID_10_)" d="M659.605,224.886c-3.053,0.512-4.043,5.262-1.582,7.133c2.461,1.869,6.606,0.058,7.153-2.975
			c0.552-3.034-2.306-6.088-5.403-6.05"/>
	</g>
	<g>
		<path fill="#FFD72E" d="M818.471,425.004c7.064,2.121,14.465,3.116,21.838,2.938c-2.283,11.042-4.539,22.695-1.015,33.412
			c3.526,10.715,15.05,19.712,25.849,16.335c10.154-3.18,14.667-15.126,15.158-25.716c0.489-10.589-1.586-21.485,1.469-31.638
			c6.012,9.52,20.315,12.582,29.717,6.355c2.041-1.353,4.008-3.117,6.452-3.324c5.521-0.47,8.113,6.742,7.952,12.26
			c-0.309,10.662-3.881,20.971-4.995,31.572c-1.115,10.609,0.872,22.584,9.245,29.237c8.704,6.923,22.155,5.6,30.965-1.184
			c8.811-6.789,13.425-17.871,14.741-28.891c0.517-4.325,0.767-9.123,3.84-12.22c2.896-2.911,7.388-3.371,11.492-3.605
			c26.143-1.48,52.425-0.549,78.402,2.79c8.06,1.035,16.561,2.248,24.062-0.878c13.737-5.713,17.964-22.783,19.704-37.504
			c3.638-30.798,4.291-61.942,1.944-92.859c-0.825-10.909-2.525-22.823-10.623-30.213c-6.66-6.08-16.171-7.686-25.128-8.83
			c-66.624-8.489-134.686-5.446-200.314,8.743c-21.337,4.607-59.299,6.668-65.523,31.096c-3.305,12.971,5.03,35.499,5.835,49.179
			C820.565,389.699,820.217,407.426,818.471,425.004z"/>
		<path fill="#D6A41A" d="M799.922,323.034c11.698,6.924,26.124,6.824,39.729,6.517c76.904-1.726,153.804-3.451,230.707-5.179
			c15.163-0.341,30.638-0.734,44.927-5.792c7.26-2.567,15.157-8.133,14.387-15.772c-0.411-4.047-3.225-7.392-5.964-10.401
			c-15.386-16.903-39.387-33.305-59.419-22.235c8.629-4.709,17.265-9.412,25.896-14.12c-10.678-6.576-14.333-20-21.175-30.482
			c-6.844-10.482-22.975-18.121-31.212-8.682c-0.331-4.268-0.659-8.528-0.988-12.796c-25.741-3.104-43.301,12.849-65.664,21.312
			c-18.777,7.103-38.828,10.387-57.659,18.869C902.179,249.368,796.894,321.237,799.922,323.034z"/>
		
			<linearGradient id="SVGID_11_" gradientUnits="userSpaceOnUse" x1="2513.4424" y1="-118.3892" x2="2667.6602" y2="-118.3892" gradientTransform="matrix(0.3646 0 0 -0.3646 -70.6423 324.8974)">
			<stop  offset="0" style="stop-color:#D6901A"/>
			<stop  offset="0.2407" style="stop-color:#DD9E2C"/>
			<stop  offset="0.7272" style="stop-color:#E9B84A"/>
			<stop  offset="1" style="stop-color:#EDC156"/>
		</linearGradient>
		<path fill="url(#SVGID_11_)" d="M845.74,374.36c-0.193,6.061,0.74,13.231,6.08,16.148c4.793,2.616,10.765,0.4,15.465-2.37
			c4.7-2.773,9.502-6.22,14.962-6.05c2.806,0.085,5.54,1.148,8.349,1.076c5.834-0.155,10.662-5.574,11.266-11.359
			c1.6-15.238-20.83-27.553-34.254-27.358C851.907,344.668,846.179,360.835,845.74,374.36z"/>
		
			<linearGradient id="SVGID_12_" gradientUnits="userSpaceOnUse" x1="2835.5938" y1="-48.9985" x2="2887.666" y2="-48.9985" gradientTransform="matrix(0.3646 0 0 -0.3646 -70.6423 324.8974)">
			<stop  offset="0" style="stop-color:#D6901A"/>
			<stop  offset="0.2407" style="stop-color:#DD9E2C"/>
			<stop  offset="0.7272" style="stop-color:#E9B84A"/>
			<stop  offset="1" style="stop-color:#EDC156"/>
		</linearGradient>
		<path fill="url(#SVGID_12_)" d="M969.729,334.326c-3.763,1.144-6.555,4.904-6.562,8.823c-0.008,5.345,5.445,9.979,10.758,9.231
			c5.311-0.749,9.248-6.615,7.992-11.813c-1.249-5.199-7.327-8.643-12.478-7.158"/>
		
			<linearGradient id="SVGID_13_" gradientUnits="userSpaceOnUse" x1="2841.6992" y1="-258.1367" x2="2970.1064" y2="-258.1367" gradientTransform="matrix(0.3646 0 0 -0.3646 -70.6423 324.8974)">
			<stop  offset="0" style="stop-color:#D6901A"/>
			<stop  offset="0.2407" style="stop-color:#DD9E2C"/>
			<stop  offset="0.7272" style="stop-color:#E9B84A"/>
			<stop  offset="1" style="stop-color:#EDC156"/>
		</linearGradient>
		<path fill="url(#SVGID_13_)" d="M990.816,403.012c-5.238-0.604-10.706-0.361-15.521,1.778c-4.814,2.139-8.865,6.421-9.73,11.599
			c-0.988,5.926,2.404,11.987,7.313,15.479c4.908,3.49,11.074,4.781,17.097,5.117c7.985,0.441,17.326-1.497,20.914-8.616
			c3.021-5.991,0.542-13.619-4.238-18.354c-4.773-4.736-11.355-7.144-17.816-9.037"/>
		
			<linearGradient id="SVGID_14_" gradientUnits="userSpaceOnUse" x1="3022.8389" y1="-129.2256" x2="3188.2422" y2="-129.2256" gradientTransform="matrix(0.3646 0 0 -0.3646 -70.6423 324.8974)">
			<stop  offset="0" style="stop-color:#D6901A"/>
			<stop  offset="0.2407" style="stop-color:#DD9E2C"/>
			<stop  offset="0.7272" style="stop-color:#E9B84A"/>
			<stop  offset="1" style="stop-color:#EDC156"/>
		</linearGradient>
		<path fill="url(#SVGID_14_)" d="M1032.988,384.367c1.935,7.104,6.453,13.686,12.987,17.137c9.255,4.891,20.871,2.77,30.085-2.186
			c5.493-2.949,10.623-7.038,13.358-12.623c4.069-8.313,2.136-18.255-0.854-27.017c-1.234-3.641-2.693-7.305-5.243-10.188
			c-2.937-3.312-7.06-5.305-11.156-6.997C1044.143,330.908,1025.836,358.107,1032.988,384.367z"/>
		
			<linearGradient id="SVGID_15_" gradientUnits="userSpaceOnUse" x1="3155.2773" y1="-263.2446" x2="3186.459" y2="-263.2446" gradientTransform="matrix(0.3646 0 0 -0.3646 -70.6423 324.8974)">
			<stop  offset="0" style="stop-color:#D6901A"/>
			<stop  offset="0.2407" style="stop-color:#DD9E2C"/>
			<stop  offset="0.7272" style="stop-color:#E9B84A"/>
			<stop  offset="1" style="stop-color:#EDC156"/>
		</linearGradient>
		<path fill="url(#SVGID_15_)" d="M1086.946,414.415c-4.089-0.054-7.864,3.98-7.137,7.987c0.723,4.007,6.199,6.395,9.446,3.925
			c3.25-2.468,1.941-8.742-2.089-9.416"/>
	</g>
</g>
</svg>
