<?xml version="1.0" encoding="utf-8"?>
<!-- Generator: Adobe Illustrator 25.0.0, SVG Export Plug-In . SVG Version: 6.00 Build 0)  -->
<svg version="1.1" id="Calque_1" xmlns="http://www.w3.org/2000/svg" xmlns:xlink="http://www.w3.org/1999/xlink" x="0px" y="0px"
	 viewBox="0 0 1920 1080" style="enable-background:new 0 0 1920 1080;" xml:space="preserve">
<style type="text/css">
	.st0{opacity:0.32;fill:#6FB500;}
	.st1{opacity:0.32;fill:#754300;}
	.st2{fill:#756B50;}
	.st3{fill:#008E91;}
	.st4{fill:#0C5B5B;}
	.st5{opacity:0.5;fill:#CFE2E2;}
	.st6{opacity:0.5;fill:#FFFFFF;}
	.st7{fill:#00B7B7;}
	.st8{opacity:0.5;fill:#00B7B7;}
	.st9{opacity:0.5;fill:#E4EFEF;}
	.st10{opacity:0.5;fill:#57DDDA;}
	.st11{fill:#2F6B3F;}
	.st12{fill:none;stroke:#FFFFFF;stroke-width:2;stroke-miterlimit:10;}
	.st13{fill:#B1BCBC;}
	.st14{fill:#494949;}
	.st15{fill:#4EA87F;}
	.st16{fill:#71DBAD;}
</style>
<g>
	<path class="st0" d="M600.63,186.04c-40.87,67.68-53.35,145.23-60.61,221.28c-4.54,47.55-5.11,100.87,32.15,136.12
		c27.66,26.17,70.06,36.04,110.38,42.69c73.83,12.19,152.78,17.31,221.92-8.13c98.59-36.27,162.84-129.25,267.22-150.24
		c30.8-6.19,64.66-5.97,90.91-21.19c38.64-22.41,45.32-71.61,27.25-108.64c-18.06-37.03-54.67-64.55-90.56-90.14
		C1024.87,83.4,741.95-47.99,600.63,186.04z"/>
	<path class="st1" d="M513.51,245.75c-32.02,50.58-41.09,112.38-42.17,172.24c-0.35,19.12,0.11,38.67,6.54,56.68
		c11.31,31.69,39.47,54.31,68.65,71.08c127.16,73.04,299.04,58.27,411.87-35.38c39.52-32.81,71.68-73.71,99.3-117.02
		c23.46-36.78,44.54-80.54,32.92-122.6c-14.89-53.89-75.43-79.8-129.83-92.72C833.85,147.85,596.65,114.42,513.51,245.75z"/>
	<path class="st2" d="M734.92,504.75c-51.72-0.09-103.43,11.83-149.9,34.56c-28.13,13.76-55.93,33.35-66.86,62.7
		c-19.17,51.5,20.61,105.07,60.17,143.22c35.82,34.54,75.09,67.56,122.2,83.6c26.64,9.07,55.01,12.41,81.39,22.2
		c26.38,9.79,51.94,28.13,59.8,55.15c4.23,14.56,4.4,32.78,17.4,40.6c16.84,10.13,36.67-7.16,48.05-23.17
		c11.39-16.02,28.53-34.82,46.88-27.78c-2.45,60.44-4.89,120.88-7.34,181.33c32.3-54.46,64.59-108.93,96.89-163.39
		c3.6-6.08,7.55-12.48,13.89-15.59c11.99-5.89,26.96,3.47,31.98,15.84s2.95,26.35,0.8,39.53c24.33,0.05,48.28-13.26,61.08-33.95
		c8.39-13.56,18.05-32.97,33.46-28.89c7.39,1.96,12.11,9.13,18.76,12.9c18.13,10.27,38.99-7.78,51.22-24.64
		c40.64-56.02,71.55-119.1,90.91-185.54c4.65,23.45,9.3,46.9,13.96,70.34c29.52-66.95,45.31-139.91,46.1-213.07
		c0.22-20.44-0.85-41.49-9.28-60.11c-18.79-41.48-67.97-59.35-113.06-65.69c-53.71-7.54-108.86-4.69-161.51,8.34
		c-66.08,16.36-129.72,48.74-197.77,47.11c-41.47-1-83-14.73-123.78-7.13c-15.25,2.84-4.81,15.8-15.81,23.06
		C770.71,505.37,750.8,504.78,734.92,504.75z"/>
	<path class="st3" d="M706.43,575.58c-19.35,7.47-40.26,17.24-48.36,36.34c-8.56,20.16,0.98,44.41,17.21,59.11
		c16.23,14.7,37.77,21.84,58.81,27.9c21.04,6.05,42.76,11.62,60.79,24.06c10.1,6.97,18.79,15.94,29.37,22.15
		c19.25,11.3,42.61,12.37,64.92,13.14c50.53,1.74,101.07,3.49,151.6,5.23c25.53,0.88,51.26,1.75,76.46-2.45
		c69.26-11.54,126.77-59.87,172.64-113.03c17.9-20.75,35.35-44.33,37.14-71.67c2.43-37.19-26.15-70.98-60.38-85.72
		c-34.23-14.74-72.92-14.23-110.09-11.55c-76.84,5.55-149.39,25.42-224.84,37.94C854.57,529.82,779.54,547.34,706.43,575.58z"/>
	<g>
		<path class="st4" d="M861.14,577.9c22.33-7.29,49.16,3.78,59.85,24.7c5,9.79,6.51,22,1.31,31.7
			c-8.29,15.47-29.61,18.54-46.69,14.54c-17.39-4.07-45.7-8.55-48.65-26.01C823.8,604.15,845.39,583.04,861.14,577.9z"/>
		<path class="st5" d="M862.37,586.04c-2.78,0.55-5.64,1.12-8.02,2.66c-2.38,1.54-4.21,4.28-3.81,7.09
			c0.37,2.61,2.56,4.66,5.01,5.62s5.14,1.03,7.78,1.09c2.31,0.05,4.94-0.04,6.43-1.8c0.88-1.04,1.15-2.46,1.13-3.82
			c-0.1-5.34-4.99-10.12-10.33-10.1"/>
		<path class="st6" d="M861.6,597.1c-2.08,1.23-4.1,2.88-4.83,5.18c-0.73,2.3,0.38,5.3,2.74,5.83c0.88,0.2,1.8,0.04,2.66-0.22
			c2.36-0.73,4.56-2.56,4.93-5s-1.87-5.15-4.28-4.63"/>
	</g>
	<g>
		<path class="st7" d="M876.49,633.61c-10.08-5.24-23.76-2.08-30.51,7.06c-3.16,4.28-4.84,9.99-3.13,15.02
			c2.74,8.04,12.67,11.19,21.14,10.62c8.62-0.57,22.49-0.47,25.27-8.57C892.24,649.09,883.6,637.31,876.49,633.61z"/>
		<path class="st8" d="M875.27,637.4c1.28,0.48,2.6,0.98,3.62,1.9c1.02,0.92,1.67,2.38,1.26,3.68c-0.38,1.21-1.59,2.02-2.84,2.29
			c-1.24,0.27-2.54,0.09-3.8-0.09c-1.1-0.16-2.35-0.41-2.93-1.37c-0.34-0.56-0.36-1.27-0.24-1.91c0.47-2.54,3.18-4.43,5.73-4"/>
		<path class="st8" d="M874.76,642.74c0.89,0.75,1.73,1.7,1.9,2.86c0.17,1.16-0.6,2.5-1.77,2.57c-0.44,0.03-0.86-0.12-1.25-0.32
			c-1.07-0.54-1.98-1.58-1.96-2.78c0.02-1.19,1.3-2.31,2.41-1.87"/>
	</g>
	<g>
		<path class="st7" d="M1139.78,624.37c-28.01-14.57-66.02-5.77-84.78,19.62c-8.78,11.89-13.46,27.75-8.69,41.74
			c7.61,22.33,35.19,31.08,58.73,29.52c23.95-1.59,62.48-1.31,70.22-23.81C1183.54,667.38,1159.54,634.64,1139.78,624.37z"/>
		<path class="st9" d="M1136.37,634.9c3.57,1.33,7.23,2.72,10.05,5.28c2.82,2.56,4.64,6.6,3.5,10.24c-1.06,3.38-4.42,5.62-7.88,6.35
			c-3.46,0.74-7.05,0.24-10.55-0.26c-3.07-0.44-6.54-1.13-8.13-3.79c-0.94-1.57-0.99-3.52-0.66-5.31
			c1.3-7.05,8.84-12.32,15.91-11.13"/>
		<path class="st10" d="M1134.95,649.73c2.49,2.09,4.8,4.72,5.27,7.93c0.47,3.21-1.67,6.94-4.91,7.14c-1.21,0.07-2.4-0.34-3.48-0.88
			c-2.96-1.49-5.49-4.4-5.44-7.72c0.05-3.32,3.61-6.43,6.69-5.2"/>
	</g>
	<g>
		<path class="st4" d="M1075.59,534.09c6.36-2.08,14,1.08,17.04,7.03c1.42,2.79,1.85,6.27,0.37,9.03c-2.36,4.4-8.43,5.28-13.3,4.14
			c-4.95-1.16-13.01-2.43-13.85-7.41C1064.95,541.56,1071.1,535.55,1075.59,534.09z"/>
		<path class="st5" d="M1075.93,536.41c-0.79,0.16-1.61,0.32-2.28,0.76c-0.68,0.44-1.2,1.22-1.09,2.02c0.1,0.74,0.73,1.33,1.43,1.6
			s1.46,0.29,2.21,0.31c0.66,0.01,1.41-0.01,1.83-0.51c0.25-0.29,0.33-0.7,0.32-1.09c-0.03-1.52-1.42-2.88-2.94-2.88"/>
		<path class="st6" d="M1075.72,539.56c-0.59,0.35-1.17,0.82-1.38,1.48c-0.21,0.66,0.11,1.51,0.78,1.66
			c0.25,0.06,0.51,0.01,0.76-0.06c0.67-0.21,1.3-0.73,1.4-1.42c0.1-0.7-0.53-1.47-1.22-1.32"/>
	</g>
	<g>
		<path class="st11" d="M1128.01,498.19c14.94-4.88,32.9,2.53,40.05,16.53c3.35,6.55,4.35,14.72,0.88,21.21
			c-5.55,10.35-19.81,12.41-31.24,9.73c-11.63-2.73-30.58-5.72-32.56-17.4C1103.02,515.76,1117.47,501.64,1128.01,498.19z"/>
		<path class="st5" d="M1128.82,503.64c-1.86,0.36-3.77,0.75-5.37,1.78c-1.59,1.03-2.82,2.86-2.55,4.74
			c0.25,1.74,1.71,3.12,3.35,3.76c1.64,0.64,3.44,0.69,5.2,0.73c1.54,0.03,3.31-0.03,4.3-1.2c0.59-0.69,0.77-1.65,0.75-2.55
			c-0.07-3.57-3.34-6.77-6.91-6.76"/>
		<path class="st6" d="M1128.31,511.05c-1.39,0.82-2.74,1.93-3.23,3.47c-0.49,1.54,0.25,3.55,1.83,3.9
			c0.59,0.13,1.21,0.03,1.78-0.15c1.58-0.49,3.05-1.71,3.3-3.35c0.24-1.63-1.25-3.45-2.86-3.1"/>
	</g>
	<g>
		<path class="st11" d="M1044.54,674.11c-10.31-5.36-24.3-2.12-31.2,7.23c-3.23,4.38-4.95,10.22-3.19,15.37
			c2.8,8.22,12.96,11.44,21.62,10.86c8.81-0.59,23-0.49,25.84-8.77C1060.66,689.94,1051.82,677.89,1044.54,674.11z"/>
		<path class="st5" d="M1043.29,677.99c1.31,0.49,2.66,1,3.7,1.94c1.04,0.94,1.71,2.43,1.29,3.77c-0.39,1.24-1.63,2.07-2.9,2.34
			c-1.27,0.27-2.59,0.09-3.88-0.09c-1.13-0.16-2.41-0.42-2.99-1.4c-0.34-0.58-0.36-1.29-0.24-1.95c0.48-2.6,3.25-4.54,5.85-4.1"/>
		<path class="st6" d="M1042.77,683.45c0.91,0.77,1.77,1.74,1.94,2.92c0.17,1.18-0.61,2.56-1.81,2.63
			c-0.45,0.03-0.88-0.12-1.28-0.32c-1.09-0.55-2.02-1.62-2-2.84c0.02-1.22,1.33-2.37,2.46-1.91"/>
	</g>
	<g>
		<path class="st7" d="M1177.03,535.54c-5.7-2.97-13.44-1.18-17.26,4c-1.79,2.42-2.74,5.65-1.77,8.5c1.55,4.55,7.17,6.33,11.96,6.01
			c4.88-0.32,12.72-0.27,14.3-4.85C1185.94,544.3,1181.05,537.63,1177.03,535.54z"/>
		<path class="st8" d="M1176.33,537.68c0.73,0.27,1.47,0.55,2.05,1.08s0.95,1.34,0.71,2.08c-0.22,0.69-0.9,1.14-1.6,1.29
			c-0.7,0.15-1.44,0.05-2.15-0.05c-0.62-0.09-1.33-0.23-1.66-0.77c-0.19-0.32-0.2-0.72-0.13-1.08c0.27-1.44,1.8-2.51,3.24-2.27"/>
		<path class="st8" d="M1176.04,540.7c0.51,0.43,0.98,0.96,1.07,1.62c0.09,0.65-0.34,1.41-1,1.45c-0.25,0.01-0.49-0.07-0.71-0.18
			c-0.6-0.3-1.12-0.9-1.11-1.57s0.73-1.31,1.36-1.06"/>
	</g>
	<g>
		<path class="st7" d="M983.21,502.29c-12.94-6.73-30.51-2.67-39.18,9.07c-4.06,5.49-6.22,12.82-4.02,19.29
			c3.51,10.32,16.26,14.36,27.14,13.64c11.07-0.73,28.87-0.61,32.45-11C1003.43,522.17,992.34,507.04,983.21,502.29z"/>
		<path class="st8" d="M981.63,507.16c1.65,0.62,3.34,1.26,4.65,2.44c1.3,1.18,2.15,3.05,1.62,4.73c-0.49,1.56-2.04,2.6-3.64,2.94
			c-1.6,0.34-3.26,0.11-4.88-0.12c-1.42-0.2-3.02-0.52-3.76-1.75c-0.43-0.72-0.46-1.63-0.3-2.45c0.6-3.26,4.08-5.69,7.35-5.14"/>
		<path class="st8" d="M980.98,514.02c1.15,0.97,2.22,2.18,2.43,3.67c0.22,1.48-0.77,3.21-2.27,3.3c-0.56,0.03-1.11-0.16-1.61-0.41
			c-1.37-0.69-2.54-2.03-2.51-3.57s1.67-2.97,3.09-2.4"/>
	</g>
	<g>
		<path class="st4" d="M1212.1,562.24c19.42-8.49,44.48-0.88,55.9,16.98c5.35,8.36,7.76,19.2,3.93,28.35
			c-6.11,14.61-24.98,19.22-40.67,17.11c-15.97-2.15-41.79-3.71-45.96-19.13C1180.84,589.07,1198.4,568.23,1212.1,562.24z"/>
		<path class="st5" d="M1213.91,569.45c-2.45,0.73-4.97,1.5-6.97,3.08c-2.01,1.59-3.41,4.21-2.81,6.7c0.56,2.31,2.71,3.96,4.99,4.61
			c2.28,0.65,4.71,0.48,7.08,0.3c2.07-0.15,4.43-0.46,5.62-2.17c0.7-1.01,0.82-2.31,0.68-3.53c-0.55-4.78-5.36-8.65-10.15-8.17"/>
		<path class="st6" d="M1214.19,579.45c-1.76,1.29-3.43,2.94-3.89,5.08c-0.46,2.13,0.8,4.73,2.96,5c0.81,0.1,1.62-0.12,2.37-0.43
			c2.05-0.86,3.88-2.7,3.99-4.92c0.12-2.22-2.12-4.47-4.25-3.78"/>
	</g>
	<path class="st12" d="M1216.35,468.5c7.23-0.42,14.79,2.9,19.89,8.75c0.55,0.63,1.09,1.31,1.4,2.1c0.35,0.89,0.38,1.86,0.46,2.8
		c0.5,5.66,3,11.23,6.89,15.35c-0.41-5.14-1.79-10.25-4.04-14.94c4.3,0.15,8.58-0.69,12.45-2.42c-4.87-1.99-10.39-3.98-14.9-1.73
		c-0.28,0.14-0.59,0.37-0.55,0.7c0.04,0.33,0.67,0.33,0.55,0.02"/>
	<path class="st12" d="M1230.89,479.16c2.79-1.41,4.93-4.09,5.8-7.26"/>
	<path class="st12" d="M1222.67,473.73c3.53-0.41,6.6-3.13,7.59-6.71"/>
	<path class="st13" d="M1214.87,460.88c-9.52-5.34-20.88-3.85-27.54,3.6c-1.04,1.16-2,2.96-1.14,4.6c0.41,0.79,1.14,1.3,1.83,1.75
		c4.9,3.23,9.91,6.16,15.02,8.77c2.28,1.17,4.7,2.29,7.03,2.1C1214.98,481.29,1217.59,462.41,1214.87,460.88z"/>
	<path class="st14" d="M1208.2,466.78c-1.59-1.89-3.49-3.94-5.97-4c-0.33-0.01-0.7,0.04-0.91,0.29c-0.27,0.31-0.18,0.79-0.08,1.19
		c0.3,1.13,0.64,2.27,1.29,3.24s1.68,1.75,2.84,1.84c1.17,0.08,2.41-0.7,2.6-1.85c0.02-0.13,0.06-0.3,0.19-0.33
		c0.13-0.03,0.13,0.27,0.02,0.18"/>
	<path class="st15" d="M981.39,181.53c-4.04,9.1-14.24,19.66-22.12,13.44c-3.13-2.47-4.05-6.7-4.77-10.58
		c-5.93-31.89-11.86-63.78-17.79-95.67c-12.19,89.62-29.49,178.55-51.8,266.25c-2.86,11.24-9.64,25.2-21.31,23.58
		c-11.82-52.54-18.21-106.26-19.02-160.05c-14.07,67.43-28.13,134.85-42.2,202.28c-13.46-8.56-17.53-25.82-20.23-41.36
		c-12.63-72.86-20.06-146.58-22.22-220.44c-8.98,44.14-19.93,87.89-32.8,131.07c-25.32-27.55-38.53-65.54-35.64-102.55
		c-9.82,68.34-21.96,136.34-36.39,203.87c-27.67-77.93-33.47-163.22-16.59-244c2.59-12.41,5.9-25.11,13.76-35.13
		c7.29-9.29,17.85-15.45,28.2-21.28c22.43-12.61,45.15-24.7,68.16-36.25c43.36-21.77,88.66-41.9,137.05-47.31
		c32.59-3.64,109.15-1,126.94,34.19C1029.52,74.99,995.15,150.48,981.39,181.53z"/>
	<path class="st16" d="M825.2,182.63c3.49,7.57,13.05,16.62,21.28,11.95c3.27-1.85,4.44-5.24,5.39-8.35
		c7.81-25.56,15.61-51.12,23.42-76.68c6.86,73.21,18.88,146.11,35.96,218.25c2.19,9.25,8.14,20.88,19.88,20.13
		c14.91-42.01,24.46-85.24,28.46-128.79c10.05,55.32,20.11,110.63,30.16,165.95c13.95-6.29,19.03-20.08,22.64-32.55
		c16.92-58.44,28.7-117.82,35.21-177.58c6.35,36.2,14.69,72.18,24.99,107.8c26.91-21.11,42.33-51.27,41.64-81.4
		c5.76,55.85,13.86,111.55,24.27,166.97c32.23-61.82,43.06-130.67,30.99-196.94c-1.85-10.18-4.4-20.63-11.65-29.13
		c-6.73-7.88-16.9-13.38-26.9-18.6c-21.64-11.29-43.61-22.18-65.9-32.65c-42-19.72-86.03-38.21-134.01-44.92
		c-32.32-4.52-108.9-6.05-128.74,21.62C783.46,93.98,813.3,156.81,825.2,182.63z"/>
</g>
</svg>
