<?xml version="1.0" encoding="utf-8"?>
<!-- Generator: Adobe Illustrator 25.0.0, SVG Export Plug-In . SVG Version: 6.00 Build 0)  -->
<svg version="1.1" id="Calque_1" xmlns="http://www.w3.org/2000/svg" xmlns:xlink="http://www.w3.org/1999/xlink" x="0px" y="0px"
	 viewBox="0 0 1920 1080" style="enable-background:new 0 0 1920 1080;" xml:space="preserve">
<style type="text/css">
	.st0{opacity:0.63;fill:#48A5F9;}
	.st1{fill:#A3B7C6;}
	.st2{opacity:0.82;fill:#C5E9FF;}
	.st3{opacity:0.82;fill:#EBF8FF;}
	.st4{opacity:0.48;fill:#FDFFBB;}
	.st5{opacity:0.91;fill:#F8FDFF;}
	.st6{fill:none;stroke:#F70093;stroke-width:40;stroke-miterlimit:10;}
	.st7{fill:none;stroke:#4A00A0;stroke-width:40;stroke-miterlimit:10;}
	.st8{fill:none;stroke:#1FFFFF;stroke-width:40;stroke-miterlimit:10;}
	.st9{fill:none;stroke:#7DC400;stroke-width:40;stroke-miterlimit:10;}
	.st10{fill:none;stroke:#EDED00;stroke-width:40;stroke-miterlimit:10;}
</style>
<g>
	<path class="st0" d="M666.34,208.21c-55.13,89.4-73.16,204.56-33.27,301.73c11.25,27.4,26.92,53.16,47.5,74.46
		c23.4,24.23,52.48,42.12,81.69,58.91c37.23,21.39,75.23,41.43,113.92,60.05c60.9,29.32,127.39,55.72,194.31,46.23
		c63.02-8.94,117.93-49.1,159.47-97.34c41.53-48.24,71.97-104.78,105.69-158.76c31.49-50.42,67.66-106.44,55.24-164.57
		c-10.04-46.97-49.38-81.15-86.44-111.71c-36.7-30.26-73.8-60.78-116.38-81.97c-52.43-26.09-111.09-36.97-169.31-43.25
		c-58.2-6.28-116.99-8.25-175.32-3.24C768.07,95.23,705.02,145.48,666.34,208.21z"/>
	<path class="st0" d="M621.19,150.88c-69.18,100.76-91.8,230.54-41.75,340.04c14.11,30.88,33.78,59.91,59.6,83.91
		c29.37,27.31,65.86,47.47,102.51,66.39c46.71,24.11,94.41,46.69,142.95,67.68c76.42,33.05,159.85,62.79,243.83,52.1
		c79.08-10.07,147.99-55.33,200.1-109.69c52.11-54.36,90.31-118.08,132.62-178.92c39.51-56.82,84.91-119.95,69.31-185.46
		c-12.6-52.94-61.97-91.45-108.48-125.89c-46.05-34.1-92.61-68.5-146.04-92.38c-65.79-29.4-139.4-41.67-212.46-48.75
		c-73.04-7.08-146.81-9.3-220-3.65C748.85,23.55,669.73,80.18,621.19,150.88z"/>
	<path class="st1" d="M753.58,540.44c-38.97-6.32-79.22-11.11-117.62-1.94c-28.69,6.85-55.1,21.24-79.15,38.32
		c-81.64,57.96-139.04,150.6-149.5,250.18c-2.73,25.94-2.12,53.3,9.8,76.5c17.57,34.16,55.73,52.25,92.6,63.02
		c111.75,32.64,231.17,19.6,346.96,31.65c68,7.08,134.79,22.84,202.45,32.65c67.66,9.81,137.47,13.54,203.75-3.25
		c66.27-16.8,129.1-56.41,161.75-116.48c15.65-28.79,23.98-62.47,18.06-94.69c-4.05-22.03-14.5-42.44-27.11-60.95
		c-33.56-49.28-83.6-87.13-140.16-106.02c-83.37-27.84-174.51-12.66-257.74-40.04C930.62,580.75,844.57,555.2,753.58,540.44z"/>
	<path class="st2" d="M326.51,270.96c-1.83-9.76-2.52-20.2,1.74-29.24c4.61-9.8,14.35-16.48,24.3-21.46
		c29.51-14.78,64.89-18.48,97.04-10.16c-4.88-66.49,51.61-131.73,120.77-139.47s139.84,43.27,151.11,109.04
		c26.99-16.13,62.33-18.67,91.54-6.59c29.21,12.09,51.48,38.47,57.7,68.35c1.62,7.79,2.46,16.3,7.92,22.28
		c6.63,7.25,17.71,8.37,27.32,11.22c31.22,9.28,51.39,44.08,43.09,74.35c-6.72,24.52-28.96,42.95-53.49,52.5
		c-24.53,9.54-51.43,11.58-77.84,13.49c-109.51,7.89-203.61,2.99-309.63-21.61c-38.68-8.98-75.08-5.49-111.27-27.23
		C361.43,345.18,333.95,310.75,326.51,270.96z"/>
	<path class="st2" d="M815.92,306c-1.01-5.42-1.4-11.23,0.97-16.25c2.56-5.45,7.97-9.16,13.51-11.93
		c16.4-8.21,36.06-10.27,53.93-5.65c-2.71-36.95,28.68-73.21,67.12-77.51s77.72,24.05,83.98,60.6c15-8.97,34.64-10.38,50.87-3.66
		c16.23,6.72,28.61,21.38,32.07,37.98c0.9,4.33,1.36,9.06,4.4,12.38c3.68,4.03,9.84,4.65,15.18,6.24
		c17.35,5.16,28.56,24.5,23.95,41.32c-3.74,13.63-16.09,23.87-29.73,29.18c-13.64,5.3-28.59,6.44-43.26,7.5
		c-60.86,4.39-113.16,1.66-172.08-12.01c-21.5-4.99-41.73-3.05-61.84-15.13C835.33,347.25,820.05,328.12,815.92,306z"/>
	<path class="st3" d="M1566.46,591.37c3.35-9.35,5.69-19.55,2.92-29.15c-3-10.41-11.56-18.55-20.59-25.04
		c-26.8-19.27-61.14-28.53-94.21-25.41c15.35-64.88-30.09-138.24-97.14-156.84c-67.06-18.6-144.93,20.56-166.48,83.72
		c-24.1-20.2-58.58-28.31-89.34-21.01c-30.76,7.31-56.93,29.83-67.8,58.34c-2.84,7.44-5.01,15.7-11.35,20.74
		c-7.69,6.11-18.81,5.46-28.75,6.75c-32.3,4.21-57.73,35.38-54.33,66.59c2.75,25.28,21.79,47,44.5,60.31
		c22.71,13.31,48.95,19.59,74.72,25.65c106.88,25.14,200.56,35.21,309.14,27.71c39.62-2.74,75,6.48,114.18-9.25
		C1520.22,659.12,1552.8,629.49,1566.46,591.37z"/>
	<path class="st3" d="M1133.69,546.18c1.28-3.57,2.17-7.47,1.11-11.14c-1.15-3.98-4.42-7.09-7.87-9.57
		c-10.24-7.36-23.36-10.9-36-9.71c5.87-24.79-11.5-52.83-37.12-59.94c-25.63-7.11-55.38,7.86-63.62,31.99
		c-9.21-7.72-22.39-10.82-34.14-8.03c-11.75,2.79-21.76,11.4-25.91,22.3c-1.08,2.84-1.91,6-4.34,7.93
		c-2.94,2.33-7.19,2.08-10.99,2.58c-12.34,1.61-22.06,13.52-20.76,25.45c1.05,9.66,8.33,17.96,17.01,23.05
		c8.68,5.09,18.71,7.49,28.56,9.8c40.84,9.61,76.64,13.46,118.14,10.59c15.14-1.05,28.66,2.48,43.63-3.54
		C1116.02,572.07,1128.47,560.75,1133.69,546.18z"/>
	<ellipse class="st4" cx="1133.05" cy="148.18" rx="86.95" ry="78.34"/>
	<path class="st5" d="M667.76,871.82c-2.92-30.73,6.58-63.96,33.01-84.44c28.43-22.03,74.34-24.5,105.66-5.7
		c6.64,3.99,13.03,8.94,20.98,10.11c19.92,2.91,32.04-17.53,43.46-32.06c25.01-31.82,75.2-45.26,117.73-34.63
		s75.86,42.89,87.96,79.99c5.6,17.19,7.09,35.31,13.77,52.2c22.99-15.77,56.72-17.32,82.86-5.88
		c26.14,11.44,44.41,34.54,50.33,59.52c1.5,6.34,2.44,13.14,7.06,18.21c9.74,10.7,28.78,7.73,43.98,11
		c26.65,5.74,41.33,33.9,34.64,57.12c-6.69,23.22-29.81,40.7-55.31,49.58c-25.5,8.88-53.42,10.54-80.82,12.1
		c-52.92,3.01-105.84,6.02-158.75,9.03c-54.31,3.09-109.42,6.13-162.67-3.65C747.46,1045.19,676.46,963.31,667.76,871.82z"/>
	<path class="st5" d="M1541.87,775.34c4.43-30.55-3.41-64.21-28.81-85.97c-27.31-23.4-73.04-28.14-105.25-10.9
		c-6.83,3.66-13.45,8.29-21.45,9.06c-20.04,1.92-31.14-19.09-41.83-34.16c-23.41-33.01-72.88-48.91-115.87-40.39
		c-42.99,8.52-77.88,39.09-91.8,75.56c-6.45,16.89-8.82,34.91-16.33,51.45c-22.18-16.88-55.8-20.09-82.47-9.96
		c-26.67,10.14-46.06,32.31-53.2,56.97c-1.81,6.26-3.09,13-7.95,17.84c-10.25,10.2-29.13,6.3-44.47,8.82
		c-26.9,4.42-42.95,31.82-37.42,55.35c5.53,23.52,27.77,42.12,52.8,52.25c25.03,10.13,52.84,13.16,80.13,16.07
		c52.7,5.62,105.41,11.23,158.11,16.85c54.09,5.76,108.98,11.52,162.66,4.38C1453.72,944.56,1528.67,866.28,1541.87,775.34z"/>
	<g>
		<path class="st6" d="M711.54,526.57c-4.2-33.02,11.02-65.75,31.44-92.03c23.16-29.79,53.94-54.21,89.53-66.74
			c35.6-12.53,76.08-12.53,110.41,3.12c59.26,27.01,90.7,96.33,89.24,161.44"/>
		<path class="st7" d="M711.54,544.39c-4.2-30.29,11.02-60.32,31.44-84.42c23.16-27.33,53.94-49.73,89.53-61.22
			c35.6-11.49,76.08-11.49,110.41,2.87c59.26,24.78,90.7,88.37,89.24,148.1"/>
		<path class="st8" d="M711.47,545.25c-3.78-25.38,9.93-50.54,28.34-70.74c20.87-22.9,48.61-41.67,80.69-51.3
			c32.08-9.63,68.56-9.63,99.5,2.4c53.41,20.77,81.74,74.05,80.43,124.1"/>
		<path class="st9" d="M712.17,550.89c-3.31-22.38,8.68-44.57,24.76-62.38c18.23-20.19,42.47-36.74,70.5-45.23
			c28.03-8.49,59.9-8.49,86.94,2.12c46.66,18.31,71.42,65.29,70.27,109.42"/>
		<path class="st10" d="M711.3,551.52c-2.78-18.79,7.28-37.42,20.79-52.38c15.31-16.96,35.66-30.85,59.2-37.98s50.3-7.13,73,1.78
			c39.18,15.38,59.97,54.82,59.01,91.88"/>
	</g>
	<path class="st5" d="M350.15,662.43c-2.92-30.73,6.58-63.96,33.01-84.44c28.43-22.03,74.34-24.5,105.66-5.7
		c6.64,3.99,13.03,8.94,20.98,10.11c19.92,2.91,32.04-17.53,43.46-32.06c25.01-31.82,75.2-45.26,117.73-34.63
		s75.86,42.89,87.96,79.99c5.6,17.19,7.09,35.31,13.77,52.2c22.99-15.77,56.72-17.32,82.86-5.88
		c26.14,11.44,44.41,34.54,50.33,59.52c1.5,6.34,2.44,13.14,7.06,18.21c9.74,10.7,28.78,7.73,43.98,11
		c26.65,5.74,41.33,33.9,34.64,57.12s-29.81,40.7-55.31,49.58c-25.5,8.88-53.42,10.54-80.82,12.1
		c-52.92,3.01-105.84,6.02-158.75,9.03c-54.31,3.09-109.42,6.13-162.67-3.65C429.84,835.8,358.85,753.92,350.15,662.43z"/>
</g>
</svg>
