<?xml version="1.0" encoding="utf-8"?>
<!-- Generator: Adobe Illustrator 16.0.0, SVG Export Plug-In . SVG Version: 6.00 Build 0)  -->
<!DOCTYPE svg PUBLIC "-//W3C//DTD SVG 1.1//EN" "http://www.w3.org/Graphics/SVG/1.1/DTD/svg11.dtd">
<svg version="1.1" id="Calque_1" xmlns="http://www.w3.org/2000/svg" xmlns:xlink="http://www.w3.org/1999/xlink" x="0px" y="0px"
	 width="1088px" height="813.5px" viewBox="-34.5 0 1088 813.5" enable-background="new -34.5 0 1088 813.5" xml:space="preserve">
<g>
	<path opacity="0.43" fill="#C2E28A" enable-background="new    " d="M457.948,242.965c-7.366,24.779-12.017,50.551-15.428,76.506
		c-7.368,56.339-8.604,114.941,5.89,169.378c4.42,16.552,10.312,32.737,19.69,46.122c8.451,12.116,19.381,21.524,30.238,30.839
		c36.051,30.839,72.41,61.948,113.19,83.199c40.778,21.252,86.987,32.104,130.558,20.618
		c44.886-11.848,82.873-45.846,116.987-81.838c26.438-27.854,51.479-57.425,75.747-87.812c27.6-34.632,54.427-70.715,74.037-112.136
		c19.539-41.421,31.632-88.898,27.677-136.015c-4.729-57.153-32.796-109.418-70.162-146.768
		c-37.368-37.35-83.42-61.136-130.48-77.957C804.88,16.069,771.928,8.292,739.37,11.728c-29.307,3.166-55.821,19.536-84.352,27.038
		c-56.83,15.013-108.928,52.633-146.993,103.909C486.244,172.066,468.879,206.158,457.948,242.965z"/>
	<path fill="#C6B2A5" d="M533.874,414.125c-1.236,2.856-2.071,7.113,0.523,8.007c1.015,0.35,2.17-0.074,3.212-0.531
		c6.842-2.819,13.7-5.694,20.54-8.512c3.166-1.309,6.406-2.653,8.978-5.176c2.764-2.707,4.502-6.464,6.065-10.089
		c13.212-30.096,24.675-60.983,34.314-92.437c1.152-3.705,2.267-7.677,1.38-11.327c-3.15-13.013-21.953-6.806-30.3-4.193
		c-12.761,4.06-16.516,7.627-20.018,22.009C550.335,346.019,547.679,381.393,533.874,414.125z"/>
	<path fill="#875839" d="M537.167,225.133c-3.176-20.972,1.195-42.006,8.232-61.735c3.587-10.063,7.925-19.92,14.363-28.703
		c14.006-18.987,37.495-31.402,62.771-36.722c42.83-9.039,91.633,2.286,125.703,29.112s52.414,68.358,47.196,106.975
		c-1.062,7.999-3.142,15.923-7.578,22.845c-5.216,8.107-13.402,14.3-21.367,20.297c-20.195,15.181-41.339,30.838-67.396,36.742
		c-19.828,4.489-41.065,3.059-61.834,1.408c-13.769-1.08-27.88-2.292-40.574-7.663c-18.152-7.646-21.937-22.963-34.051-34.787
		C548.549,259.301,539.892,243.103,537.167,225.133z"/>
	<path fill="#FFFDC5" d="M593.676,341.143c-3.144-23.338,1.773-46.879,9.448-68.976c3.933-11.213,8.575-22.348,15.524-32.186
		c15.008-21.346,39.984-35.478,66.777-41.72c45.372-10.552,96.775,1.456,132.443,31.023c35.668,29.564,54.592,75.646,48.606,118.854
		c-1.244,8.938-3.513,17.857-8.284,25.563c-5.597,9.127-14.305,16.136-22.853,22.931c-21.562,17.22-44.004,34.883-71.656,41.809
		c-21.015,5.295-43.472,3.868-65.353,2.311c-14.563-1.054-29.469-2.233-42.812-8.037c-19.059-8.304-22.934-25.341-35.599-38.427
		C605.351,379.135,596.367,361.171,593.676,341.143z"/>
	<path fill="#39FFA0" d="M717.253,197.73c-5.118-0.87-7.672-6.529-12.237-8.994c-4.076-2.186-9.685-1.143-12.529,2.257
		c-2.844,3.399-2.564,8.863,0.569,12.143c3.089,3.21,8.148,4.067,12.557,3.28c4.405-0.79,8.356-3.003,12.242-5.169"/>
	<path fill="#EFFF22" d="M796.544,247.159c-5.117-0.868-7.671-6.528-12.237-8.991c-4.077-2.187-9.686-1.144-12.53,2.255
		c-2.847,3.399-2.563,8.862,0.568,12.144c3.087,3.21,8.147,4.068,12.554,3.278c4.407-0.789,8.361-3.002,12.244-5.167"/>
	<path fill="#FF4588" d="M778.156,214.979c5.074-1.086,9.689,3.331,14.853,3.966c4.625,0.59,9.334-2.389,10.581-6.642
		c1.24-4.198-1.189-9.226-5.441-11.142c-4.073-1.882-9.074-0.844-12.805,1.476c-3.729,2.317-6.468,5.796-9.14,9.232"/>
	<path fill="#FF4588" d="M743.552,290.515c-5.12-0.872-7.674-6.529-12.239-8.993c-4.077-2.187-9.685-1.145-12.531,2.254
		c-2.846,3.401-2.563,8.865,0.569,12.146c3.086,3.21,8.148,4.067,12.557,3.28c4.401-0.793,8.359-3.005,12.242-5.169"/>
	<path opacity="0.22" fill="#FF92E3" enable-background="new    " d="M328.19,728.835c19.278-5.073,37.892-12.529,55.973-21.062
		c39.262-18.44,76.912-42.365,104.063-76.138c8.234-10.261,15.572-21.48,19.391-34.068c3.458-11.401,3.998-23.451,4.537-35.325
		c1.731-39.62,3.399-79.602-3.342-118.68c-6.742-39.085-22.675-77.69-51.494-104.957c-29.656-28.043-69.934-41.648-109.551-51.493
		c-30.671-7.637-61.76-13.605-92.905-18.617c-35.562-5.669-71.604-10.146-107.462-7.042c-35.861,3.102-71.781,14.38-99.645,37.231
		c-33.773,27.686-52.868,70.53-57.997,113.909c-5.132,43.378,2.626,87.415,15.214,129.182c8.293,27.509,19.75,55.137,38.009,77.629
		c16.469,20.287,39.919,32.879,58.775,50.659c37.592,35.503,87.056,57.938,138.313,64.263
		C269.478,738.025,299.553,736.354,328.19,728.835z"/>
	<path fill="#C6B2A5" d="M324.086,367.958c-0.238,3.103,0.359,7.4,3.104,7.4c1.074,0,2.028-0.777,2.864-1.55
		c5.55-4.894,11.097-9.847,16.647-14.739c2.565-2.268,5.191-4.595,6.8-7.818c1.731-3.46,2.149-7.578,2.448-11.515
		c2.685-32.759,3.46-65.694,2.327-98.572c-0.118-3.878-0.359-7.996-2.386-11.159c-7.218-11.277-22.973,0.718-30.013,5.907
		c-10.743,7.996-13.129,12.592-11.756,27.33C317.46,298.206,326.474,332.515,324.086,367.958z"/>
	<path opacity="0.22" fill="#C2E28A" enable-background="new    " d="M413.542,584.349c19.277-5.072,37.891-12.529,55.972-21.061
		c39.261-18.441,76.911-42.366,104.062-76.139c8.236-10.261,15.573-21.48,19.392-34.069c3.459-11.399,3.998-23.45,4.536-35.325
		c1.732-39.62,3.4-79.601-3.342-118.678c-6.741-39.085-22.674-77.691-51.492-104.958c-29.655-28.043-69.934-41.648-109.552-51.493
		c-30.67-7.637-61.76-13.606-92.905-18.618c-35.562-5.669-71.604-10.145-107.462-7.041c-35.862,3.103-71.781,14.38-99.645,37.231
		c-33.774,27.686-52.868,70.53-57.998,113.91c-5.132,43.378,2.626,87.415,15.215,129.181c8.293,27.509,19.75,55.137,38.009,77.629
		c16.469,20.287,39.919,32.879,58.775,50.659c37.592,35.503,87.055,57.938,138.313,64.263
		C354.828,593.539,384.903,591.868,413.542,584.349z"/>
	<path fill="#724B2E" d="M564.489,476.377c3.761-3.102,9.61-1.192,14.204-2.803c4.119-1.493,6.861-6.208,6.024-10.505
		c-0.777-4.293-5.008-7.753-9.425-7.635c-4.298,0.061-8.055,3.163-10.145,6.864c-2.086,3.7-2.921,7.996-3.7,12.233"/>
	<path fill="#724B2E" d="M585.552,386.277c0.475-4.891,5.97-7.637,7.997-12.113c1.85-3.997,0.418-9.188-3.224-11.694
		c-3.636-2.506-9.009-1.908-12.049,1.253c-2.923,3.104-3.403,7.938-2.327,12.052c1.133,4.119,3.639,7.698,6.084,11.219"/>
	<g>
		<path fill="#FFF980" d="M325.279,403.044c-7.101-19.987-6.803-41.469-3.64-62.176c1.611-10.561,3.997-21.063,8.651-30.908
			c10.146-21.301,30.85-37.951,54.657-47.973c40.334-17.007,90.398-15.156,128.943,4.713c38.546,19.868,64.44,57.162,66.65,96.066
			c0.476,8.055-0.062,16.23-3.102,23.869c-3.582,8.95-10.443,16.584-17.125,23.985c-16.945,18.739-34.73,38.127-59.193,48.871
			c-18.615,8.174-39.738,10.8-60.441,13.125c-13.723,1.554-27.808,3.043-41.291,0.181c-19.275-4.06-25.897-18.38-40.038-27.688
			C342.941,434.429,331.366,420.168,325.279,403.044z"/>
		<path fill="#24DD89" d="M402.788,506.213c-7.519-22.317-7.161-46.363-3.821-69.516c1.732-11.756,4.177-23.569,9.131-34.548
			c10.682-23.807,32.52-42.425,57.641-53.642c42.542-18.976,95.291-16.946,135.923,5.311
			c40.633,22.253,67.964,63.904,70.291,107.461c0.476,9.013-0.059,18.199-3.28,26.67c-3.762,10.024-10.979,18.56-18.081,26.854
			c-17.9,21.002-36.58,42.605-62.414,54.655c-19.628,9.189-41.946,12.053-63.727,14.678c-14.497,1.731-29.355,3.402-43.558,0.239
			c-20.289-4.534-27.328-20.525-42.246-30.969C421.465,541.297,409.235,525.365,402.788,506.213z"/>
		<path fill="#257BBA" d="M240.847,506.809c-6.743-19.991-6.385-41.473-3.402-62.178c1.55-10.561,3.759-21.062,8.174-30.908
			c9.547-21.3,29.058-37.949,51.553-47.972c38.01-17.006,85.208-15.155,121.545,4.713c36.338,19.87,60.743,57.163,62.889,96.065
			c0.419,8.057-0.061,16.23-2.923,23.868c-3.34,8.953-9.844,16.588-16.169,23.988c-15.992,18.855-32.7,38.188-55.79,48.989
			c-17.543,8.171-37.473,10.8-56.984,13.125c-12.948,1.553-26.253,3.043-38.903,0.178c-18.139-4.058-24.405-18.377-37.771-27.687
			C257.554,538.191,246.636,523.993,240.847,506.809z"/>
		<g>
			<path fill="#E5A87A" d="M292.281,586.167c2.924,36.937,8.295,74.049,24.227,108.896c15.932,34.847,43.32,67.546,83.655,89.086
				c8.415,4.474,17.663,8.532,28.043,9.366c13.306,1.076,26.791-3.459,36.937-10.082c10.145-6.623,17.482-15.217,24.344-23.808
				c14.436-18.26,27.208-37.234,38.188-56.746c0.18,7.161,0.359,14.38,0.476,21.541c25.122-13.244,51.018-27.031,66.828-46.482
				c9.371-11.574,14.741-24.581,19.931-37.471c12.709-31.208,25.536-63.488,20.644-95.53c-0.356-2.389-0.833-4.893-2.383-7.042
				c-4.952-7.04-18.082-7.877-28.998-7.815c-65.638,0.119-131.451-2.148-195.537-11.337c-26.133-3.759-53.82-8.591-79.119-1.73
				c-9.07,2.448-17.363,6.325-25.061,10.74c-17.721,10.144-42.961,28.525-40.813,46.365c0.715,6.206,5.012,17.125,9.01,22.375
				C281.123,607.589,292.997,595.474,292.281,586.167z"/>
			<path fill="none" stroke="#7A5934" stroke-width="5" stroke-miterlimit="10" d="M419.434,619.282
				c0.301-0.24-3.28,1.909-1.43,0.956c30.551-24.345,73.215-55.194,116.415-55.731"/>
			<path fill="none" stroke="#7A5934" stroke-width="5" stroke-miterlimit="10" d="M372.896,711.231
				c64.262-47.615,138.548-84.073,217.669-106.868"/>
			<path fill="none" stroke="#7A5934" stroke-width="5" stroke-miterlimit="10" d="M396.942,756.044
				c0.537,0-0.179,0.834-0.478,0.415c-0.297-0.415,0.12-0.953,0.538-1.252c9.128-7.697,20.466-12.948,31.982-17.365
				c14.201-5.43,28.938-9.727,43.975-12.888"/>
			<path fill="none" stroke="#7A5934" stroke-width="5" stroke-miterlimit="10" d="M451.835,558.48
				c26.554,16.884,43.681,43.08,59.967,68.441c8.414,13.127,16.887,26.252,25.3,39.38"/>
			<path fill="none" stroke="#7A5934" stroke-width="5" stroke-miterlimit="10" d="M381.666,567.431
				c41.888,41.291,84.79,83.956,106.627,136.404"/>
			<path fill="none" stroke="#7A5934" stroke-width="5" stroke-miterlimit="10" d="M368.538,645.955
				c8.355,4.836,14.5,12.175,20.409,19.394c23.389,28.522,45.885,57.58,67.542,87.233"/>
		</g>
		<path fill="#724B2E" d="M496.886,341.943c-5.191,0.118-8.772-4.953-13.724-6.506c-4.416-1.372-9.726,0.717-11.871,4.595
			c-2.148,3.878-0.836,9.188,2.864,11.813c3.642,2.566,8.772,2.446,12.95,0.836c4.175-1.612,7.635-4.535,11.038-7.399"/>
		<path fill="#724B2E" d="M584.119,375.417c-5.188,0.12-8.771-4.953-13.722-6.504c-4.419-1.373-9.727,0.715-11.874,4.593
			c-2.149,3.877-0.835,9.187,2.864,11.815c3.64,2.564,8.771,2.447,12.948,0.835c4.177-1.612,7.639-4.536,11.04-7.398"/>
		<path fill="#724B2E" d="M559.957,347.313c4.773-2.03,10.145,1.431,15.335,1.074c4.652-0.299,8.71-4.117,9.128-8.53
			c0.419-4.357-2.922-8.833-7.459-9.906c-4.356-1.074-9.069,0.895-12.292,3.88c-3.221,2.983-5.25,6.919-7.22,10.8"/>
		<path fill="#724B2E" d="M540.323,428.046c-5.192,0.117-8.772-4.953-13.724-6.505c-4.418-1.372-9.726,0.714-11.875,4.592
			c-2.148,3.88-0.833,9.191,2.864,11.817c3.641,2.566,8.772,2.446,12.952,0.836c4.171-1.614,7.637-4.537,11.038-7.399"/>
		<path fill="#724B2E" d="M563.061,534.016c-3.046-3.996-0.599-9.666-2.091-14.376c-1.312-4.237-6.084-7.222-10.738-6.683
			c-4.596,0.538-8.532,4.534-8.711,8.889c-0.179,4.296,2.806,8.237,6.563,10.562c3.76,2.326,8.236,3.403,12.65,4.414"/>
	</g>
	<path fill="#FFE6F7" stroke="#FFFFFF" stroke-width="17" stroke-miterlimit="10" d="M287.091,54.459
		c-47.854,13.666-85.266,58.176-90.517,107.7c-1.254,11.693-0.777,23.81,3.162,34.906c3.997,11.218,11.397,20.944,19.929,29.238
		c34.071,33.114,88.489,43.379,132.345,24.941c43.856-18.437,74.465-64.563,74.584-112.119c0-10.86-1.492-21.958-6.325-31.624
		c-9.069-18.14-28.342-28.76-47.316-35.861c-23.153-8.652-47.617-13.844-72.26-15.217c-4.534-0.238-9.189-0.357-13.485,1.077
		c-4.595,1.55-8.414,4.713-12.112,7.817c-14.978,12.472-30.135,25.18-41.351,41.111c-11.218,15.932-18.257,35.801-14.857,55.014
		c2.147,12.111,8.234,23.273,16.05,32.816c18.736,23.032,48.152,37.353,77.926,37.116c13.962-0.12,27.865-3.34,40.456-9.367
		c25-11.935,44.752-36.28,47.319-63.906c2.566-27.565-14.441-56.925-40.932-65.038c-9.966-3.044-20.647-3.163-31.03-2.387
		c-17.9,1.371-36.697,5.967-49.228,18.795c-16.945,17.365-16.826,48.513,0.359,65.758c17.124,17.183,48.272,17.482,65.755,0.595
		c3.521-3.401,6.504-7.399,8.234-11.994c4.296-11.398-1.073-25.597-11.815-31.385c-10.739-5.788-25.479-2.448-32.698,7.397
		c-3.164,4.297-4.951,9.965-3.46,15.098c1.492,5.131,6.742,9.309,12.052,8.354c1.374-0.24,2.686-0.776,4.058-0.837
		c5.37-0.24,8.414,7.1,6.147,12.052c-2.266,4.891-7.459,7.639-12.292,10.025"/>
	<path fill="#FFE6F7" stroke="#FFFFFF" stroke-width="17" stroke-miterlimit="10" d="M583.971,150.374
		c-37.479-1.032-74.451,22.466-89.452,56.857c-3.553,8.117-5.957,16.931-5.642,25.795c0.326,8.967,3.439,17.632,7.688,25.526
		c16.971,31.516,53.741,51.229,89.432,47.925c35.689-3.303,68.139-29.504,79.007-63.644c2.462-7.803,3.906-16.115,2.624-24.155
		c-2.402-15.089-13.842-27.088-25.864-36.492c-14.674-11.466-31.072-20.742-48.467-27.316c-3.203-1.199-6.521-2.339-9.933-2.283
		c-3.651,0.071-7.112,1.478-10.473,2.87c-13.59,5.564-27.36,11.259-39.032,20.162c-11.671,8.903-21.232,21.583-23.146,36.157
		c-1.203,9.189,0.64,18.589,4.092,27.217c8.239,20.796,26.126,37.754,47.573,44.334c10.059,3.08,20.776,3.918,31.188,2.442
		c20.669-2.906,40.379-15.92,48.486-35.187c8.095-19.223,2.53-44.172-14.663-56.008c-6.47-4.446-14.118-6.953-21.751-8.75
		c-13.174-3.073-27.72-4.032-39.632,2.343c-16.11,8.634-23.088,31.04-14.65,47.327c8.406,16.227,30.719,23.504,47.108,15.334
		c3.301-1.644,6.352-3.841,8.636-6.75c5.671-7.215,5.031-18.634-1.375-25.229c-6.402-6.593-17.751-7.535-25.169-2.098
		c-3.247,2.37-5.815,6.037-5.91,10.063c-0.09,4.024,2.734,8.216,6.766,8.734c1.042,0.139,2.105,0.051,3.106,0.318
		c3.911,1.045,4.434,7.009,1.683,10.053c-2.736,3-7.091,3.797-11.103,4.416"/>
</g>
</svg>
