<?xml version="1.0" encoding="utf-8"?>
<!-- Generator: Adobe Illustrator 25.0.0, SVG Export Plug-In . SVG Version: 6.00 Build 0)  -->
<svg version="1.1" id="Calque_1" xmlns="http://www.w3.org/2000/svg" xmlns:xlink="http://www.w3.org/1999/xlink" x="0px" y="0px"
	 viewBox="0 0 1429 1452" style="enable-background:new 0 0 1429 1452;" xml:space="preserve">
<style type="text/css">
	.st0{opacity:0.57;fill:#FF8DA8;}
	.st1{opacity:0.22;fill:#FF8DA8;}
	.st2{fill:none;stroke:#878787;stroke-width:14;stroke-miterlimit:10;}
	.st3{opacity:0.89;fill:#AD4BDB;}
	.st4{opacity:0.62;fill:#8C0666;}
	.st5{fill:none;stroke:#B7B7B7;stroke-width:3;stroke-miterlimit:10;}
	.st6{opacity:0.62;fill:#AFEF35;}
	.st7{opacity:0.62;fill:#00CECE;}
	.st8{opacity:0.62;fill:#FF52B9;}
</style>
<path class="st0" d="M459.2,328.8c-31.1,18.9-61.6,39.7-87.8,66.3c-68.2,69.5-101.8,181.8-77.7,281.6
	c23.2,95.9,92.3,168,160.7,231.1c38.6,35.7,78.7,70.7,124.9,92.2c59,27.5,124.6,31.4,188.4,27.6c62.3-3.7,126.7-15.4,177.9-55.3
	c60.7-47.3,94.9-129.7,101.3-212.2c6.4-82.6-12.3-165.4-40.5-242.1c-11.6-31.5-24.9-62.5-43.5-89.3c-18-25.8-40.6-47.1-63.8-67
	c-35.5-30.4-73-58-112.1-82.4c-29.6-18.5-62.4-35.7-95.9-30.6c-13.5,2-26.4,7.6-39.9,9.4c-16.7,2.2-33.6-1.5-50.4-1c0,0,0,0,0,0
	c-22.3,0.7-41.2,17-57.4,25.5C515.1,297.5,486.8,312,459.2,328.8z"/>
<path class="st1" d="M1185.8,778.4c24.7-19.3,48.6-40,68-64.6c50.5-64.2,65.1-156.6,31-230.7c-32.9-71.3-102.7-117.3-170.8-156.4
	c-38.4-22.1-78.1-43.5-121.3-53.4c-55.2-12.7-113.1-6.1-168.3,6.2c-53.9,12-108.7,30.6-148.2,69.3c-46.8,45.7-65.9,115-60.7,180.2
	c5.2,65.3,32.5,127,67.1,182.6c14.2,22.8,29.9,45,49.8,63.1c19.1,17.5,41.6,30.7,64.6,42.8c35.1,18.5,71.4,34.4,108.8,47.7
	c28.3,10.1,59.2,18.6,87.9,9.7c11.5-3.6,22.1-9.8,33.6-13.2c14.3-4.2,29.6-3.8,44.2-6.7c0,0,0,0,0,0c19.4-3.8,33.8-19.3,46.8-28.3
	C1141.1,811,1164,795.5,1185.8,778.4z"/>
<g>
	<path class="st2" d="M1007.8,1194.9c13.8,6.2,18.9,23.4,18,38.5c-0.9,15.1-6.2,29.7-6.5,44.7c-0.7,34.5,28.9,66.8,63.3,69.3
		c13.5,1,27-2.1,39.7-6.8c23.5-8.6,45.6-23.3,58.8-44.7c8.3-13.5,12.7-29,17.3-44.2c9.7-31.9,21-63.7,40-91.1
		c19-27.3,46.7-50,79.4-56.6c32.6-6.6,70,5.5,87.6,33.8"/>
	<path class="st3" d="M1043.7,556.4c-165.2-54.6-338.3-12.5-453.9,110.2c-21,22.3-40.4,47.5-52.5,78.7
		c-28.6,73.9-11.6,170,19.8,253.4c9.6,25.4,20.5,50.5,34.2,73.6c66.3,111.9,191.9,159.3,290.2,129.2c18.7-5.7,37.3-13.9,57.4-10.7
		c20.2,3.2,42.5,22.5,44.5,47c18.4,3.5,15.7-38.3,33.1-42.3c5.1-1.2,10.7,1.4,16,1.7c11.9,0.6,21.5-12.3,20-26.9
		c-1.5-14.6-13.9-28.1-25.7-28.3c48.1-8.9,86.9-44.4,120.9-82.8c20.7-23.4,40.6-49,50.7-81.9c8.7-28.5,9.4-60.9,9.8-92.7
		c0.7-60.5,0.3-123-18.9-182.6C1163.7,622.4,1107.7,577.5,1043.7,556.4z"/>
</g>
<g>
	<path class="st4" d="M170,382.7c-3.2-26.6-2.6-54.5,8.8-78.7c7.6-16,19.7-29.6,33.3-41c41.7-34.6,98.8-48.4,152.5-41
		c35.1,4.8,69.9,18.9,94.4,44.5c14.8,15.4,25.5,34.4,32.9,54.4c21.3,57.3,15.1,124.4-17.4,176.1s-91,86.5-152,89
		c5.3,15,6.7,31.4,3.9,47.1c-10.5-11.8-29-15.6-43.3-8.8c-4.9,2.3-9.4,5.7-14.7,6.3s-11.7-3.6-10.6-8.9
		c11.2-9.4,23.6-18.4,33.6-28.9C229.7,531,183.9,471.9,170,382.7z"/>
	<path class="st5" d="M288.4,588.5c11.8-3.4,23.8-5.7,36-7c4.1-0.4,10.3,2.7,7.6,5.8c-16.3-0.1-32.7-0.1-49-0.2
		c-2.4,2.4-0.7,7,2.4,8.5c3.1,1.6,6.7,1.1,10.1,0.5c10.6-1.7,21.2-3.3,31.8-5"/>
	<path class="st5" d="M296.1,622.3c-16.4,16.9-13.3,38.7-1.4,55.2c11.8,16.5,31,29.3,46.6,44c60.1,56.3,64.7,135.7,52.3,210.4
		c-12.3,74.7-39.3,150-34.3,223.7"/>
</g>
<g>
	<path class="st6" d="M620.3,691.3c1.9-15.9,1.6-32.6-5.3-47.1c-4.6-9.6-11.8-17.7-20-24.5c-24.9-20.7-59.1-29-91.3-24.5
		c-21,2.9-41.8,11.3-56.5,26.6c-8.9,9.2-15.3,20.6-19.7,32.6c-12.7,34.3-9.1,74.4,10.4,105.4c19.5,31,54.5,51.8,91,53.3
		c-3.2,9-4,18.8-2.3,28.2c6.3-7.1,17.4-9.3,25.9-5.3c2.9,1.4,5.6,3.4,8.8,3.8c3.2,0.3,7-2.2,6.3-5.3c-6.7-5.6-14.1-11-20.1-17.3
		C584.6,780.1,612,744.7,620.3,691.3z"/>
	<path class="st5" d="M549.5,814.5c-7-2-14.2-3.4-21.5-4.2c-2.5-0.3-6.2,1.6-4.6,3.5c9.8,0,19.6-0.1,29.3-0.1
		c1.4,1.5,0.4,4.2-1.4,5.1c-1.8,0.9-4,0.6-6,0.3c-6.3-1-12.7-2-19-3"/>
	<path class="st5" d="M544.9,834.7c9.8,10.1,7.9,23.2,0.9,33c-7.1,9.9-18.6,17.6-27.9,26.3c-36,33.7-38.7,81.2-31.3,125.9
		c7.4,44.7,23.5,89.8,20.6,133.9"/>
</g>
<g>
	<path class="st7" d="M1311.6,299.5c7.6-17.9,12.9-37.5,9.8-56.6c-2.1-12.7-7.7-24.6-14.9-35.3c-22-32.6-59-53.8-97.9-59.5
		c-25.5-3.7-52.5-1-74.8,11.8c-13.4,7.7-24.7,18.8-34,31.2c-26.4,35.6-35.8,83.6-23.6,126.2c12.2,42.6,45.9,78.8,87.9,92.9
		c-6.8,9.4-11.1,20.6-12.3,32.1c9.7-6.1,23.4-5,31.9,2.6c2.9,2.6,5.4,5.9,9,7.4c3.6,1.5,8.9-0.1,9.2-4c-5.9-8.8-12.7-17.6-17.6-26.9
		C1239.9,390.7,1283.8,358.8,1311.6,299.5z"/>
	<path class="st5" d="M1187.4,418.9c-7.5-4.7-15.4-8.8-23.7-12.1c-2.8-1.1-7.7-0.2-6.5,2.5c11.4,3.3,22.8,6.5,34.2,9.8
		c1.2,2.2-0.9,5-3.4,5.4c-2.4,0.5-4.9-0.6-7.1-1.7c-7-3.3-14.1-6.6-21.1-9.9"/>
	<path class="st5" d="M1175.2,440.9c8,15.1,1.4,29.7-10.2,38.8s-27.6,14.1-41.4,21.2c-53.3,27.1-72.6,81.4-79.2,136
		c-6.6,54.6-3,112.5-21.4,162.9"/>
</g>
<g>
	<path class="st7" d="M519.6,757.6c-0.4-19.4-3.7-39.5-14.4-55.6c-7.1-10.7-17.2-19.3-28.2-26c-33.5-20.6-76-24.6-113.7-13.8
		c-24.7,7.1-48.2,20.8-63.3,41.6c-9.1,12.6-14.8,27.3-18.1,42.5c-9.4,43.3,1.9,90.9,30.6,124.7c28.7,33.8,74.3,52.8,118.4,48.3
		c-2.3,11.3-1.6,23.3,2,34.3c6.3-9.6,19.2-14.2,30.2-10.8c3.7,1.2,7.3,3.2,11.2,3c3.9-0.1,8-3.8,6.7-7.5c-9-5.6-18.8-10.8-27.1-17.3
		C491.9,870.3,518.7,823.1,519.6,757.6z"/>
	<path class="st5" d="M455.7,917.6c-8.8-1.2-17.7-1.6-26.6-1.3c-3,0.1-7.1,3-4.9,5c11.7-1.7,23.5-3.4,35.2-5.2
		c2,1.5,1.2,4.9-0.8,6.4c-2,1.4-4.7,1.5-7.2,1.4c-7.8-0.1-15.6-0.2-23.3-0.3"/>
	<path class="st5" d="M453.6,942.7c13.5,10.5,13.5,26.5,6.7,39.5c-6.8,13.1-19.3,24.3-29,36.4c-37.4,46.7-32.5,104.1-16,156.5
		c16.5,52.4,43.6,103.8,47.7,157.2"/>
</g>
<g>
	<path class="st6" d="M985.7,159.4c3-24.5,2.4-50.3-8.1-72.6c-7-14.8-18.1-27.3-30.7-37.8c-38.4-31.9-91.1-44.6-140.6-37.8
		c-32.4,4.5-64.4,17.5-87.1,41c-13.7,14.2-23.5,31.7-30.4,50.2c-19.6,52.8-14,114.7,16,162.4s83.9,79.8,140.2,82.1
		c-4.9,13.9-6.2,29-3.6,43.5c9.7-10.9,26.7-14.4,39.9-8.1c4.5,2.1,8.7,5.3,13.6,5.8c4.9,0.5,10.8-3.3,9.8-8.2
		c-10.4-8.7-21.8-17-31-26.6C930.5,296.2,972.8,241.7,985.7,159.4z"/>
	<path class="st5" d="M876.4,349.3c-10.8-3.1-22-5.3-33.2-6.4c-3.8-0.4-9.5,2.4-7.1,5.4c15.1-0.1,30.1-0.1,45.2-0.2
		c2.2,2.3,0.6,6.4-2.2,7.8c-2.8,1.4-6.2,1-9.3,0.5c-9.8-1.5-19.5-3.1-29.3-4.6"/>
	<path class="st5" d="M869.3,380.4c15.1,15.6,12.2,35.7,1.3,50.9s-28.6,27.1-43,40.6c-55.5,52-59.6,125.2-48.3,194.1
		c11.4,68.9,36.2,138.4,31.7,206.4"/>
</g>
<g>
	<path class="st4" d="M894.8,536.6c1.5-15,5.3-30.2,14.6-42.1c6.2-7.9,14.5-13.8,23.4-18.4c27.1-13.8,60.2-14.3,88.7-3.6
		c18.7,7,36,19,46.3,36.1c6.2,10.3,9.7,22,11.3,33.9c4.6,34-7.1,70.1-31.3,94.4c-24.2,24.4-60.6,36.2-94.4,30
		c1.1,8.9-0.2,18.1-3.7,26.3c-4.3-7.8-14-12.1-22.6-10.2c-2.9,0.7-5.9,2-8.9,1.6c-3-0.3-6-3.4-4.7-6.2c7.3-3.8,15.2-7.2,22-11.7
		C909.3,625.3,891.4,587.2,894.8,536.6z"/>
	<path class="st5" d="M934.3,664.1c6.9-0.4,13.8-0.2,20.6,0.6c2.3,0.3,5.3,2.7,3.5,4.2c-9-2.1-17.9-4.1-26.9-6.2
		c-1.6,1-1.2,3.7,0.3,5c1.5,1.2,3.5,1.4,5.5,1.5c6,0.4,12,0.8,18,1.2"/>
	<path class="st5" d="M934.3,683.6c-11.1,7.2-12.1,19.6-7.6,30.1c4.5,10.5,13.4,19.9,20.1,29.9c26,38.3,18.7,82.4,2.7,121.9
		c-16,39.5-40.1,77.4-46.5,118.5"/>
</g>
<g>
	<path class="st8" d="M873,315.7c-3.1-27.8-10.5-56.2-28-78.1c-11.6-14.5-27.2-25.5-43.8-33.7c-50.8-25.2-112.3-25.5-165.2-5
		c-34.6,13.4-66.6,36.1-85.5,68.1c-11.4,19.2-17.7,41.2-20.4,63.4c-7.9,63.5,14.6,130.4,60.1,175.2s113.6,66.2,176.4,54.1
		c-1.8,16.6,0.7,33.7,7.4,49c7.8-14.6,25.8-22.9,41.9-19.4c5.5,1.2,10.9,3.6,16.5,2.9c5.6-0.7,11-6.5,8.7-11.6
		c-13.7-6.9-28.5-13-41.2-21.3C847.9,481.2,880.3,410,873,315.7z"/>
	<path class="st5" d="M802,554c-12.8-0.6-25.6-0.1-38.3,1.6c-4.3,0.6-9.8,5.2-6.4,7.8c16.6-4,33.3-8,49.9-12c3,1.9,2.4,6.9-0.4,9.2
		c-2.7,2.3-6.6,2.7-10.2,3c-11.2,0.9-22.4,1.7-33.6,2.6"/>
	<path class="st5" d="M802.3,590.3c20.8,13.3,22.9,36.3,14.8,55.9c-8.1,19.6-24.5,37.4-36.9,56.1c-47.7,71.9-33.2,153.9-2.6,227
		c30.6,73.1,76.2,143.4,88.9,219.7"/>
</g>
<g>
	<path class="st6" d="M1302.1,650.2c3-24.5,2.4-50.3-8.1-72.6c-7-14.8-18.1-27.3-30.7-37.8c-38.4-31.9-91.1-44.6-140.6-37.8
		c-32.4,4.5-64.4,17.5-87.1,41c-13.7,14.2-23.5,31.7-30.4,50.2c-19.6,52.8-14,114.7,16,162.4s83.9,79.8,140.2,82.1
		c-4.9,13.9-6.2,29-3.6,43.5c9.7-10.9,26.7-14.4,39.9-8.1c4.5,2.1,8.7,5.3,13.6,5.8c4.9,0.5,10.8-3.3,9.8-8.2
		c-10.4-8.7-21.8-17-31-26.6C1246.9,787,1289.2,732.5,1302.1,650.2z"/>
	<path class="st5" d="M1192.8,840.1c-10.8-3.1-22-5.3-33.2-6.4c-3.8-0.4-9.5,2.4-7.1,5.4c15.1-0.1,30.1-0.1,45.2-0.2
		c2.2,2.3,0.6,6.4-2.2,7.8c-2.8,1.4-6.2,1-9.3,0.5c-9.8-1.5-19.5-3.1-29.3-4.6"/>
	<path class="st5" d="M1185.8,871.2c15.1,15.6,12.2,35.7,1.3,50.9c-10.9,15.2-28.6,27.1-43,40.6c-55.5,52-59.6,125.2-48.3,194.1
		s36.2,138.4,31.7,206.4"/>
</g>
<g>
	<path class="st7" d="M187.2,185.7c-0.1-14-2.3-28.4-9.9-40.2c-5-7.8-12.2-14-20-19c-23.9-15.1-54.4-18.4-81.7-11
		c-17.9,4.9-34.9,14.5-45.9,29.4c-6.6,9-10.9,19.5-13.4,30.4c-7.2,31.1,0.5,65.4,20.8,90s52.9,38.7,84.7,35.9
		c-1.8,8.1-1.4,16.7,1.1,24.7c4.6-6.8,14-10,21.8-7.5c2.7,0.9,5.2,2.3,8.1,2.3c2.8-0.1,5.8-2.7,4.9-5.3c-6.4-4.1-13.4-7.9-19.3-12.7
		C166.2,266.5,186,232.8,187.2,185.7z"/>
	<path class="st5" d="M139.7,300.2c-6.3-1-12.7-1.4-19.1-1.2c-2.2,0.1-5.2,2.1-3.6,3.5c8.5-1.1,16.9-2.3,25.4-3.4
		c1.4,1.1,0.8,3.6-0.7,4.6c-1.5,1-3.4,1-5.2,1c-5.6-0.2-11.2-0.3-16.8-0.5"/>
	<path class="st5" d="M138,318.2c9.6,7.6,9.5,19.2,4.4,28.5c-5,9.3-14.1,17.3-21.2,25.9c-27.4,33.2-24.4,74.6-13,112.4
		s30.4,75,32.8,113.5"/>
</g>
<g>
	<path class="st8" d="M710.5,1017.1c3.2-14.1,4.4-29.2-0.5-42.9c-3.2-9-9-17-15.7-23.9c-20.6-20.9-50.6-31.4-79.9-30.3
		c-19.2,0.7-38.6,6.4-53.3,18.8c-8.8,7.5-15.6,17.1-20.7,27.5c-14.5,29.7-14.9,66.1-0.2,95.8c14.7,29.6,44.3,51.5,77.1,56.2
		c-3.7,7.8-5.3,16.6-4.7,25.2c6.3-5.8,16.5-6.8,23.8-2.4c2.5,1.5,4.7,3.6,7.6,4.2c2.8,0.6,6.5-1.3,6.2-4.2
		c-5.5-5.7-11.7-11.2-16.5-17.4C670.3,1093.7,698.2,1064.4,710.5,1017.1z"/>
	<path class="st5" d="M635.6,1121.5c-6.1-2.4-12.5-4.4-19-5.7c-2.2-0.5-5.7,0.9-4.4,2.7c8.8,0.8,17.6,1.7,26.4,2.5
		c1.2,1.4,0,3.8-1.7,4.5c-1.7,0.7-3.7,0.2-5.5-0.3c-5.6-1.5-11.2-2.9-16.8-4.4"/>
	<path class="st5" d="M629.7,1139.3c7.9,10,5.1,21.6-2.2,29.8c-7.3,8.2-18.3,14.1-27.5,21.2c-35.4,27.1-42.2,69.6-39.6,110.5
		c2.6,40.9,13.1,82.9,6.4,122.3"/>
</g>
<g>
	<path class="st6" d="M293.5,1105.2c8-20,13.2-41.9,9.3-63.1c-2.6-14-9.2-27.1-17.6-38.7c-25.4-35.5-67-57.9-110.3-63.2
		c-28.3-3.4-58.3,0.4-82.7,15.3c-14.7,8.9-26.9,21.6-36.8,35.6c-28.3,40.2-37.3,93.7-22.6,140.7c14.7,47,53.1,86.1,100.2,100.5
		c-7.2,10.6-11.7,23.1-12.7,35.9c10.6-7,25.8-6.2,35.5,2c3.3,2.8,6.1,6.4,10.2,7.9s9.9-0.4,10.1-4.7c-6.8-9.6-14.6-19.2-20.3-29.4
		C216.5,1208.4,264.3,1171.7,293.5,1105.2z"/>
	<path class="st5" d="M159.1,1241.2c-8.5-5-17.4-9.3-26.6-12.8c-3.1-1.2-8.6,0-7.2,3c12.7,3.3,25.5,6.6,38.2,9.9
		c1.4,2.4-0.9,5.6-3.6,6.1c-2.7,0.6-5.4-0.6-8-1.7c-7.9-3.5-15.8-6.9-23.7-10.4"/>
	<path class="st5" d="M146.2,1265.9c9.3,16.5,2.4,32.9-10.2,43.3s-30.2,16.5-45.4,24.7c-58.4,31.6-78.2,92.4-83.9,153.1
		s-0.2,124.9-19.1,181.3"/>
</g>
</svg>
